<?xml version="1.0" encoding="utf-8"?>
<!-- Generator: Adobe Illustrator 16.0.0, SVG Export Plug-In . SVG Version: 6.00 Build 0)  -->
<!DOCTYPE svg PUBLIC "-//W3C//DTD SVG 1.1//EN" "http://www.w3.org/Graphics/SVG/1.1/DTD/svg11.dtd">
<svg version="1.1" id="Layer_1" xmlns="http://www.w3.org/2000/svg" xmlns:xlink="http://www.w3.org/1999/xlink" x="0px" y="0px"
	 width="200px" height="100px" viewBox="-49.5 0.5 200 100" enable-background="new -49.5 0.5 200 100" xml:space="preserve">
<g>
	<path fill="#808285" d="M-11.561,20.118h-5.123v13.795h-1.84V20.118h-5.125v-1.707h12.086L-11.561,20.118L-11.561,20.118z"/>
	<path fill="#808285" d="M-5.583,32.051c-0.613,0.787-1.285,1.338-2.015,1.651c-0.727,0.315-1.575,0.473-2.539,0.473
		c-0.804,0-1.525-0.143-2.168-0.428c-0.643-0.283-1.183-0.668-1.63-1.149c-0.447-0.48-0.791-1.051-1.03-1.707
		c-0.239-0.657-0.36-1.357-0.36-2.103c0-0.787,0.13-1.515,0.396-2.179c0.262-0.665,0.627-1.233,1.094-1.707
		c0.467-0.476,1.024-0.843,1.664-1.106c0.643-0.262,1.343-0.394,2.103-0.394c0.714,0,1.372,0.119,1.971,0.361
		c0.597,0.24,1.11,0.592,1.543,1.051c0.429,0.46,0.763,1.021,0.996,1.686c0.233,0.663,0.351,1.419,0.351,2.267v0.548h-8.276
		c0.028,0.436,0.133,0.856,0.317,1.26c0.182,0.398,0.419,0.75,0.711,1.049c0.294,0.3,0.638,0.536,1.03,0.711
		c0.392,0.177,0.825,0.264,1.292,0.264c0.745,0,1.37-0.132,1.883-0.394c0.508-0.262,0.967-0.65,1.379-1.16L-5.583,32.051z
		 M-7.051,27.869c-0.028-0.877-0.313-1.577-0.854-2.103c-0.54-0.525-1.285-0.788-2.232-0.788c-0.951,0-1.716,0.263-2.298,0.788
		c-0.584,0.525-0.938,1.226-1.051,2.103H-7.051z"/>
	<path fill="#808285" d="M-3.766,26.094c0-0.467-0.018-0.904-0.044-1.312c-0.028-0.408-0.043-0.78-0.043-1.117h1.622
		c0,0.277,0.007,0.556,0.021,0.834c0.014,0.276,0.021,0.561,0.021,0.852h0.044c0.116-0.246,0.282-0.488,0.492-0.722
		c0.212-0.233,0.465-0.44,0.755-0.624c0.292-0.184,0.622-0.329,0.985-0.438c0.365-0.109,0.759-0.164,1.183-0.164
		c0.114,0,0.233,0.007,0.349,0.022c0.116,0.015,0.233,0.043,0.35,0.086l-0.109,1.73C1.569,25.153,1.263,25.11,0.94,25.11
		c-1.05,0-1.812,0.339-2.29,1.018c-0.474,0.679-0.711,1.609-0.711,2.792v4.993h-1.707L-3.766,26.094L-3.766,26.094z"/>
	<path fill="#808285" d="M11.844,32.051c-0.612,0.787-1.284,1.338-2.013,1.651c-0.729,0.315-1.575,0.473-2.541,0.473
		c-0.802,0-1.525-0.143-2.167-0.428c-0.645-0.283-1.185-0.668-1.632-1.149c-0.447-0.48-0.788-1.051-1.028-1.707
		c-0.242-0.657-0.36-1.357-0.36-2.103c0-0.787,0.13-1.515,0.394-2.179c0.264-0.665,0.627-1.233,1.096-1.707
		c0.467-0.476,1.023-0.843,1.663-1.106c0.645-0.262,1.343-0.394,2.103-0.394c0.714,0,1.372,0.119,1.97,0.361
		c0.599,0.24,1.112,0.592,1.543,1.051c0.434,0.46,0.763,1.021,0.996,1.686c0.233,0.663,0.352,1.419,0.352,2.267v0.548H3.942
		c0.029,0.436,0.136,0.856,0.317,1.26c0.184,0.398,0.42,0.75,0.712,1.049c0.291,0.3,0.636,0.536,1.028,0.711
		c0.392,0.177,0.825,0.264,1.292,0.264c0.745,0,1.37-0.132,1.883-0.394c0.509-0.262,0.971-0.65,1.378-1.16L11.844,32.051z
		 M10.378,27.869c-0.032-0.877-0.315-1.577-0.855-2.103c-0.542-0.525-1.285-0.788-2.234-0.788s-1.714,0.263-2.298,0.788
		s-0.936,1.226-1.051,2.103H10.378z"/>
	<path fill="#808285" d="M13.662,26.094c0-0.467-0.014-0.904-0.044-1.312c-0.028-0.408-0.041-0.78-0.041-1.117h1.619
		c0,0.277,0.008,0.556,0.021,0.834c0.017,0.276,0.025,0.561,0.025,0.852h0.041c0.117-0.246,0.281-0.488,0.495-0.722
		c0.21-0.233,0.463-0.44,0.756-0.624c0.29-0.184,0.62-0.329,0.983-0.438c0.365-0.109,0.759-0.164,1.181-0.164
		c0.671,0,1.255,0.102,1.739,0.307c0.494,0.204,0.895,0.489,1.216,0.854c0.324,0.365,0.559,0.807,0.712,1.325
		c0.153,0.517,0.232,1.083,0.232,1.696v6.327h-1.711v-6.152c0-0.861-0.188-1.54-0.57-2.035c-0.381-0.497-0.969-0.745-1.774-0.745
		c-0.556,0-1.031,0.095-1.435,0.285c-0.4,0.189-0.727,0.46-0.985,0.81c-0.255,0.351-0.445,0.766-0.568,1.247
		c-0.125,0.482-0.188,1.016-0.188,1.6v4.991h-1.707L13.662,26.094L13.662,26.094z"/>
	<path fill="#808285" d="M31.813,26.227c-0.365-0.438-0.759-0.756-1.182-0.952c-0.422-0.197-0.891-0.296-1.401-0.296
		c-0.57,0-1.075,0.099-1.512,0.296c-0.437,0.196-0.8,0.471-1.085,0.819c-0.283,0.352-0.499,0.756-0.646,1.216
		c-0.148,0.46-0.22,0.953-0.22,1.479c0,0.526,0.084,1.02,0.252,1.479c0.171,0.459,0.404,0.863,0.703,1.215
		c0.3,0.35,0.658,0.624,1.086,0.819c0.42,0.198,0.896,0.296,1.422,0.296c1.12,0,1.991-0.424,2.606-1.271l1.269,1.205
		c-0.495,0.568-1.083,0.985-1.753,1.249c-0.67,0.262-1.381,0.394-2.122,0.394c-0.792,0-1.512-0.132-2.169-0.394
		c-0.655-0.264-1.215-0.637-1.675-1.117c-0.46-0.483-0.817-1.052-1.072-1.709c-0.257-0.656-0.384-1.379-0.384-2.167
		c0-0.773,0.127-1.489,0.384-2.146c0.255-0.657,0.616-1.226,1.083-1.708c0.467-0.481,1.026-0.857,1.675-1.128
		c0.65-0.27,1.368-0.404,2.159-0.404c0.76,0,1.479,0.132,2.158,0.394c0.679,0.264,1.272,0.672,1.785,1.226L31.813,26.227z"/>
	<path fill="#808285" d="M42.98,32.051c-0.615,0.787-1.283,1.338-2.016,1.651c-0.732,0.315-1.577,0.473-2.539,0.473
		c-0.804,0-1.527-0.143-2.168-0.428c-0.642-0.283-1.184-0.668-1.631-1.149c-0.447-0.48-0.793-1.051-1.03-1.707
		c-0.24-0.657-0.359-1.357-0.359-2.103c0-0.787,0.13-1.515,0.397-2.179c0.262-0.665,0.627-1.233,1.094-1.707
		c0.467-0.476,1.022-0.843,1.664-1.106c0.642-0.262,1.342-0.394,2.101-0.394c0.717,0,1.374,0.119,1.969,0.361
		c0.598,0.24,1.112,0.592,1.547,1.051c0.426,0.46,0.763,1.021,0.996,1.686c0.233,0.663,0.348,1.419,0.348,2.267v0.548h-8.274
		c0.03,0.436,0.132,0.856,0.318,1.26c0.182,0.398,0.417,0.75,0.711,1.049c0.294,0.3,0.638,0.536,1.03,0.711
		c0.392,0.177,0.823,0.264,1.292,0.264c0.741,0,1.372-0.132,1.88-0.394c0.509-0.262,0.969-0.65,1.382-1.16L42.98,32.051z
		 M41.511,27.869c-0.028-0.877-0.313-1.577-0.854-2.103s-1.284-0.788-2.232-0.788c-0.951,0-1.716,0.263-2.302,0.788
		c-0.581,0.525-0.936,1.226-1.05,2.103H41.511z"/>
	<path fill="#808285" d="M48.5,18.411h9.746v1.707H50.34v4.86h7.376v1.707H50.34v5.519h8.299v1.709H48.498V18.411H48.5z"/>
	<path fill="#808285" d="M68.291,32.096H68.25c-0.32,0.582-0.826,1.076-1.521,1.477c-0.691,0.401-1.5,0.603-2.42,0.603
		c-0.715,0-1.385-0.136-2.014-0.404c-0.629-0.271-1.176-0.647-1.635-1.13c-0.459-0.481-0.82-1.05-1.083-1.707
		c-0.268-0.655-0.392-1.372-0.392-2.146s0.123-1.489,0.392-2.146c0.264-0.657,0.627-1.226,1.093-1.708
		c0.469-0.481,1.035-0.857,1.701-1.128c0.664-0.27,1.402-0.404,2.201-0.404c0.742,0,1.422,0.153,2.047,0.459
		c0.619,0.307,1.166,0.738,1.633,1.292h0.041V17.36h1.711v16.553h-1.711L68.291,32.096L68.291,32.096z M68.291,28.788
		c0-0.54-0.086-1.04-0.252-1.5c-0.168-0.46-0.414-0.86-0.73-1.204c-0.322-0.343-0.709-0.613-1.154-0.81
		c-0.443-0.197-0.945-0.296-1.492-0.296c-0.561,0-1.055,0.099-1.5,0.296c-0.445,0.196-0.83,0.467-1.152,0.81
		c-0.322,0.344-0.568,0.744-0.732,1.204s-0.25,0.96-0.25,1.5s0.082,1.041,0.25,1.501c0.166,0.459,0.418,0.86,0.732,1.204
		c0.322,0.342,0.707,0.613,1.152,0.809c0.445,0.198,0.945,0.296,1.5,0.296c0.553,0,1.049-0.098,1.492-0.296
		c0.445-0.195,0.83-0.467,1.154-0.809c0.322-0.344,0.568-0.745,0.73-1.204C68.201,29.829,68.291,29.328,68.291,28.788z"/>
	<path fill="#808285" d="M83.533,33.913h-1.686l-2.92-7.883h-0.039l-2.582,7.883h-1.75l-3.328-10.249h1.881l2.346,7.883h0.037
		l2.646-7.883h1.797l2.693,7.883h0.043l2.318-7.883h1.84L83.533,33.913z"/>
	<path fill="#808285" d="M87.648,24.979c0.523-0.539,1.148-0.937,1.871-1.193c0.723-0.255,1.453-0.383,2.199-0.383
		c1.516,0,2.611,0.357,3.285,1.072c0.67,0.715,1.008,1.803,1.008,3.263v4.4c0,0.293,0.016,0.596,0.043,0.909
		s0.062,0.603,0.111,0.866h-1.639c-0.061-0.235-0.098-0.494-0.104-0.779c-0.008-0.283-0.012-0.536-0.012-0.755h-0.039
		c-0.342,0.525-0.787,0.957-1.346,1.291c-0.568,0.336-1.238,0.505-2.023,0.505c-0.527,0-1.02-0.066-1.479-0.198
		c-0.461-0.132-0.867-0.324-1.205-0.58c-0.344-0.255-0.617-0.57-0.82-0.952c-0.205-0.379-0.305-0.817-0.305-1.313
		c0-0.846,0.217-1.511,0.654-1.993c0.438-0.481,0.979-0.838,1.633-1.073c0.648-0.231,1.348-0.377,2.1-0.438
		c0.75-0.058,1.441-0.086,2.07-0.086h0.652v-0.307c0-0.744-0.219-1.308-0.664-1.688c-0.445-0.379-1.068-0.568-1.871-0.568
		c-0.555,0-1.102,0.092-1.631,0.274c-0.535,0.183-1.008,0.464-1.412,0.841L87.648,24.979z M92.596,28.984
		c-1.096,0-1.965,0.153-2.605,0.46c-0.646,0.306-0.963,0.811-0.963,1.511c0,0.644,0.215,1.1,0.646,1.368
		c0.426,0.271,0.961,0.406,1.607,0.406c0.494,0,0.934-0.085,1.305-0.253s0.682-0.389,0.93-0.666c0.256-0.278,0.439-0.603,0.57-0.975
		c0.131-0.373,0.197-0.77,0.217-1.194v-0.657H92.596L92.596,28.984z"/>
	<path fill="#808285" d="M97.74,26.094c0-0.467-0.014-0.904-0.043-1.312c-0.031-0.408-0.041-0.78-0.041-1.117h1.623
		c0,0.277,0.006,0.556,0.02,0.834c0.02,0.276,0.027,0.561,0.027,0.852h0.041c0.115-0.246,0.277-0.488,0.496-0.722
		c0.209-0.233,0.463-0.44,0.756-0.624c0.289-0.184,0.619-0.329,0.98-0.438c0.363-0.109,0.76-0.164,1.18-0.164
		c0.117,0,0.232,0.007,0.35,0.022c0.111,0.015,0.234,0.043,0.348,0.086l-0.111,1.73c-0.291-0.088-0.598-0.131-0.918-0.131
		c-1.053,0-1.814,0.339-2.289,1.018c-0.479,0.679-0.717,1.609-0.717,2.792v4.993h-1.707L97.74,26.094L97.74,26.094z"/>
	<path fill="#808285" d="M112.715,32.096h-0.043c-0.32,0.582-0.826,1.076-1.521,1.477c-0.691,0.401-1.496,0.603-2.42,0.603
		c-0.717,0-1.387-0.136-2.014-0.404c-0.627-0.271-1.174-0.647-1.635-1.13c-0.461-0.481-0.814-1.05-1.084-1.707
		c-0.264-0.655-0.393-1.372-0.393-2.146s0.129-1.489,0.393-2.146c0.268-0.657,0.627-1.226,1.1-1.708
		c0.467-0.481,1.027-0.857,1.697-1.128c0.668-0.27,1.4-0.404,2.201-0.404c0.744,0,1.426,0.153,2.045,0.459
		c0.621,0.307,1.166,0.738,1.633,1.292h0.043V17.36h1.711v16.553h-1.711v-1.817H112.715z M112.715,28.788
		c0-0.54-0.082-1.04-0.252-1.5s-0.416-0.86-0.732-1.204c-0.314-0.343-0.705-0.613-1.15-0.81c-0.445-0.197-0.949-0.296-1.496-0.296
		c-0.557,0-1.055,0.099-1.5,0.296c-0.443,0.196-0.83,0.467-1.152,0.81c-0.32,0.344-0.566,0.744-0.73,1.204
		c-0.168,0.46-0.252,0.96-0.252,1.5s0.082,1.041,0.252,1.501c0.17,0.459,0.416,0.86,0.73,1.204c0.322,0.342,0.709,0.613,1.152,0.809
		c0.445,0.198,0.949,0.296,1.5,0.296s1.051-0.098,1.496-0.296c0.443-0.195,0.83-0.467,1.15-0.809
		c0.322-0.344,0.568-0.745,0.732-1.204C112.631,29.829,112.715,29.328,112.715,28.788z"/>
	<path fill="#808285" d="M116.963,31.219c0.338,0.424,0.705,0.759,1.104,1.007c0.402,0.247,0.908,0.372,1.521,0.372
		c0.266,0,0.527-0.028,0.799-0.087c0.266-0.06,0.512-0.153,0.729-0.285c0.219-0.13,0.398-0.296,0.525-0.494
		c0.131-0.195,0.195-0.433,0.195-0.709c0-0.277-0.061-0.506-0.191-0.681c-0.119-0.174-0.283-0.324-0.49-0.449
		c-0.203-0.122-0.439-0.221-0.703-0.295c-0.266-0.071-0.531-0.138-0.809-0.196c-0.48-0.104-0.941-0.22-1.379-0.35
		c-0.439-0.132-0.82-0.303-1.152-0.517c-0.332-0.21-0.588-0.484-0.791-0.819c-0.191-0.335-0.297-0.767-0.297-1.292
		c0-0.497,0.113-0.936,0.334-1.313c0.221-0.381,0.512-0.694,0.873-0.942c0.367-0.247,0.773-0.437,1.225-0.568
		c0.453-0.132,0.926-0.197,1.406-0.197c0.725,0,1.406,0.146,2.027,0.438c0.621,0.291,1.102,0.767,1.455,1.424l-1.422,0.941
		c-0.219-0.365-0.506-0.661-0.867-0.888c-0.355-0.227-0.795-0.339-1.305-0.339c-0.236,0-0.471,0.029-0.713,0.088
		c-0.24,0.059-0.457,0.146-0.646,0.262c-0.189,0.117-0.344,0.268-0.475,0.449c-0.121,0.184-0.186,0.392-0.186,0.623
		c0,0.222,0.068,0.406,0.207,0.56c0.133,0.153,0.328,0.289,0.568,0.405c0.238,0.117,0.516,0.219,0.83,0.306
		c0.314,0.088,0.639,0.162,0.977,0.22c0.449,0.087,0.875,0.201,1.289,0.338c0.41,0.14,0.768,0.326,1.074,0.56
		s0.549,0.526,0.721,0.877c0.178,0.349,0.268,0.78,0.268,1.29c0,0.584-0.117,1.08-0.354,1.489c-0.23,0.41-0.541,0.741-0.93,0.996
		c-0.385,0.255-0.822,0.442-1.314,0.558c-0.494,0.118-0.988,0.177-1.496,0.177c-0.875,0-1.633-0.136-2.268-0.404
		c-0.633-0.271-1.207-0.771-1.715-1.501L116.963,31.219z"/>
</g>
<path fill="#818285" d="M138.521,89.832c0,5.078-4.121,9.195-9.195,9.195h-158.63c-5.08,0-9.196-4.117-9.196-9.195V61.697
	c0-5.078,4.116-9.197,9.196-9.197h158.632c5.074,0,9.195,4.119,9.195,9.197L138.521,89.832L138.521,89.832z"/>
<g>
	<path fill="#FFFFFF" d="M-11.561,70.118h-5.123v13.795h-1.84V70.118h-5.125v-1.71h12.086L-11.561,70.118L-11.561,70.118z"/>
	<path fill="#FFFFFF" d="M-5.583,82.049c-0.613,0.791-1.286,1.34-2.015,1.653c-0.727,0.313-1.575,0.471-2.539,0.471
		c-0.804,0-1.525-0.143-2.168-0.424c-0.641-0.285-1.183-0.667-1.63-1.151s-0.791-1.049-1.03-1.71c-0.241-0.656-0.36-1.358-0.36-2.1
		c0-0.791,0.13-1.515,0.394-2.177c0.264-0.663,0.627-1.233,1.096-1.711c0.467-0.474,1.022-0.845,1.662-1.103
		c0.645-0.266,1.344-0.394,2.103-0.394c0.716,0,1.372,0.117,1.971,0.359c0.599,0.238,1.112,0.588,1.543,1.048
		s0.763,1.026,0.998,1.688c0.233,0.663,0.349,1.419,0.349,2.264v0.549h-8.274c0.028,0.438,0.133,0.858,0.317,1.258
		c0.182,0.402,0.419,0.752,0.711,1.051c0.294,0.3,0.638,0.537,1.028,0.713c0.396,0.175,0.827,0.264,1.293,0.264
		c0.745,0,1.368-0.128,1.881-0.396c0.51-0.264,0.971-0.645,1.379-1.161L-5.583,82.049z M-7.052,77.869
		c-0.028-0.875-0.313-1.575-0.854-2.101c-0.54-0.526-1.285-0.79-2.232-0.79c-0.951,0-1.716,0.264-2.298,0.79
		c-0.584,0.525-0.938,1.228-1.051,2.101H-7.052z"/>
	<path fill="#FFFFFF" d="M-3.766,76.094c0-0.467-0.018-0.904-0.044-1.314c-0.03-0.41-0.043-0.784-0.043-1.115h1.622
		c0,0.276,0.007,0.556,0.021,0.83c0.014,0.278,0.021,0.563,0.021,0.855h0.042c0.118-0.25,0.282-0.49,0.496-0.722
		c0.212-0.231,0.463-0.442,0.753-0.626c0.292-0.183,0.622-0.329,0.985-0.436C0.453,73.454,0.847,73.4,1.271,73.4
		c0.116,0,0.232,0.009,0.349,0.023c0.116,0.014,0.233,0.041,0.35,0.089l-0.109,1.729c-0.292-0.088-0.599-0.132-0.921-0.132
		c-1.05,0-1.812,0.344-2.288,1.021s-0.713,1.61-0.713,2.788v4.993h-1.707L-3.766,76.094L-3.766,76.094z"/>
	<path fill="#FFFFFF" d="M11.843,82.049c-0.613,0.791-1.283,1.34-2.014,1.653c-0.732,0.313-1.575,0.471-2.541,0.471
		c-0.802,0-1.527-0.143-2.167-0.424c-0.645-0.285-1.187-0.667-1.632-1.151c-0.445-0.484-0.789-1.049-1.028-1.71
		c-0.242-0.656-0.362-1.358-0.362-2.1c0-0.791,0.132-1.515,0.396-2.177c0.264-0.663,0.627-1.233,1.094-1.711
		c0.468-0.474,1.024-0.845,1.664-1.103c0.642-0.263,1.343-0.394,2.103-0.394c0.714,0,1.372,0.117,1.971,0.359
		c0.598,0.238,1.112,0.588,1.542,1.048c0.434,0.46,0.763,1.026,0.996,1.688c0.233,0.663,0.352,1.419,0.352,2.264v0.549H3.938
		c0.03,0.438,0.135,0.858,0.319,1.258c0.184,0.402,0.419,0.752,0.713,1.051c0.294,0.3,0.634,0.537,1.028,0.713
		c0.394,0.175,0.823,0.264,1.292,0.264c0.743,0,1.37-0.128,1.883-0.396c0.51-0.264,0.969-0.645,1.379-1.161L11.843,82.049z
		 M10.378,77.869c-0.032-0.875-0.315-1.575-0.855-2.101c-0.542-0.526-1.285-0.79-2.234-0.79s-1.714,0.264-2.3,0.79
		c-0.583,0.525-0.934,1.228-1.051,2.101H10.378z"/>
	<path fill="#FFFFFF" d="M13.66,76.094c0-0.467-0.015-0.904-0.043-1.314s-0.041-0.784-0.041-1.115h1.619
		c0,0.276,0.008,0.556,0.021,0.83c0.017,0.278,0.025,0.563,0.025,0.855h0.041c0.117-0.25,0.281-0.49,0.493-0.722
		c0.211-0.233,0.464-0.442,0.756-0.626c0.292-0.183,0.62-0.329,0.985-0.436c0.365-0.112,0.759-0.166,1.181-0.166
		c0.669,0,1.255,0.105,1.737,0.307c0.496,0.203,0.895,0.489,1.216,0.856c0.326,0.362,0.561,0.804,0.714,1.324
		c0.153,0.522,0.232,1.087,0.232,1.7v6.326h-1.711v-6.15c0-0.864-0.19-1.541-0.566-2.038c-0.383-0.493-0.973-0.743-1.776-0.743
		c-0.557,0-1.032,0.097-1.435,0.283c-0.401,0.19-0.727,0.46-0.985,0.811c-0.257,0.35-0.445,0.769-0.568,1.249
		c-0.123,0.483-0.188,1.018-0.188,1.597v4.992h-1.707L13.66,76.094L13.66,76.094z"/>
	<path fill="#FFFFFF" d="M31.812,76.225c-0.367-0.437-0.759-0.754-1.182-0.953c-0.422-0.192-0.891-0.293-1.401-0.293
		c-0.57,0-1.075,0.101-1.512,0.293c-0.438,0.199-0.8,0.474-1.085,0.822c-0.283,0.35-0.501,0.756-0.646,1.216
		c-0.145,0.46-0.218,0.951-0.218,1.479s0.084,1.02,0.253,1.479c0.17,0.459,0.401,0.865,0.7,1.215c0.3,0.35,0.659,0.624,1.087,0.819
		c0.421,0.196,0.895,0.296,1.422,0.296c1.121,0,1.992-0.42,2.605-1.269l1.269,1.204c-0.495,0.568-1.082,0.984-1.752,1.248
		c-0.671,0.267-1.379,0.396-2.122,0.396c-0.791,0-1.511-0.129-2.168-0.396c-0.656-0.264-1.215-0.635-1.675-1.115
		c-0.462-0.481-0.818-1.048-1.074-1.707c-0.257-0.66-0.382-1.381-0.382-2.167c0-0.777,0.125-1.486,0.382-2.149
		c0.256-0.651,0.618-1.226,1.085-1.706c0.469-0.485,1.026-0.859,1.675-1.126c0.646-0.271,1.368-0.406,2.159-0.406
		c0.759,0,1.479,0.128,2.156,0.394c0.681,0.262,1.272,0.672,1.787,1.228L31.812,76.225z"/>
	<path fill="#FFFFFF" d="M42.979,82.049c-0.615,0.791-1.285,1.34-2.016,1.653c-0.727,0.313-1.575,0.471-2.537,0.471
		c-0.804,0-1.527-0.143-2.169-0.424c-0.643-0.285-1.183-0.667-1.63-1.151s-0.793-1.049-1.03-1.71
		c-0.242-0.656-0.359-1.358-0.359-2.1c0-0.791,0.13-1.515,0.397-2.177c0.262-0.663,0.627-1.233,1.094-1.711
		c0.467-0.474,1.022-0.845,1.664-1.103c0.642-0.266,1.342-0.394,2.101-0.394c0.715,0,1.374,0.117,1.971,0.359
		c0.595,0.238,1.11,0.588,1.545,1.048c0.426,0.46,0.763,1.026,0.994,1.688c0.235,0.663,0.352,1.419,0.352,2.264v0.549h-8.277
		c0.029,0.438,0.133,0.858,0.317,1.258c0.184,0.402,0.417,0.752,0.713,1.051c0.292,0.3,0.638,0.537,1.03,0.713
		c0.392,0.175,0.823,0.264,1.29,0.264c0.742,0,1.372-0.128,1.881-0.396c0.51-0.264,0.97-0.645,1.383-1.161L42.979,82.049z
		 M41.511,77.869c-0.03-0.875-0.313-1.575-0.854-2.101c-0.542-0.526-1.284-0.79-2.234-0.79c-0.951,0-1.714,0.264-2.3,0.79
		c-0.585,0.525-0.936,1.228-1.05,2.101H41.511z"/>
	<path fill="#FFFFFF" d="M48.499,68.408h9.746v1.71H50.34v4.86h7.376v1.711H50.34v5.513h8.299v1.711H48.497V68.408H48.499z"/>
	<path fill="#FFFFFF" d="M68.291,82.092H68.25c-0.32,0.584-0.827,1.076-1.521,1.479c-0.691,0.404-1.5,0.603-2.42,0.603
		c-0.716,0-1.386-0.132-2.014-0.406c-0.63-0.268-1.176-0.646-1.636-1.126c-0.459-0.482-0.819-1.051-1.083-1.711
		c-0.268-0.655-0.392-1.371-0.392-2.145c0-0.777,0.123-1.486,0.392-2.149c0.264-0.652,0.627-1.226,1.094-1.707
		c0.469-0.484,1.034-0.858,1.7-1.126c0.663-0.271,1.402-0.406,2.202-0.406c0.741,0,1.422,0.153,2.046,0.46
		c0.62,0.307,1.167,0.734,1.634,1.29h0.041v-7.794h1.71v16.553h-1.71L68.291,82.092L68.291,82.092z M68.291,78.788
		c0-0.541-0.086-1.038-0.253-1.498c-0.168-0.462-0.413-0.864-0.73-1.203c-0.322-0.342-0.709-0.612-1.154-0.812
		c-0.442-0.192-0.944-0.292-1.492-0.292c-0.561,0-1.055,0.1-1.5,0.292c-0.445,0.2-0.83,0.471-1.151,0.812
		c-0.322,0.343-0.569,0.743-0.733,1.203s-0.25,0.957-0.25,1.498c0,0.542,0.082,1.037,0.25,1.497c0.167,0.46,0.419,0.866,0.733,1.204
		c0.321,0.343,0.706,0.613,1.151,0.81c0.445,0.195,0.946,0.295,1.5,0.295c0.553,0,1.05-0.1,1.492-0.295
		c0.445-0.196,0.83-0.467,1.154-0.81c0.322-0.342,0.568-0.744,0.73-1.204S68.291,79.326,68.291,78.788z"/>
	<path fill="#FFFFFF" d="M83.532,83.909h-1.686l-2.92-7.883h-0.038l-2.583,7.883h-1.75l-3.328-10.245h1.882l2.345,7.881h0.037
		l2.647-7.881h1.796l2.694,7.881h0.043l2.318-7.881h1.839L83.532,83.909z"/>
	<path fill="#FFFFFF" d="M87.648,74.979c0.523-0.541,1.147-0.94,1.871-1.193c0.722-0.257,1.453-0.381,2.198-0.381
		c1.517,0,2.612,0.355,3.286,1.072c0.67,0.716,1.008,1.8,1.008,3.261v4.4c0,0.293,0.015,0.596,0.043,0.909
		c0.026,0.313,0.062,0.603,0.11,0.866h-1.639c-0.06-0.233-0.097-0.496-0.104-0.777c-0.008-0.285-0.011-0.538-0.011-0.755h-0.039
		c-0.343,0.523-0.788,0.951-1.346,1.291c-0.568,0.337-1.238,0.501-2.024,0.501c-0.527,0-1.019-0.064-1.479-0.194
		s-0.867-0.326-1.204-0.579c-0.344-0.257-0.617-0.57-0.82-0.951c-0.206-0.378-0.306-0.816-0.306-1.315
		c0-0.848,0.217-1.511,0.655-1.992c0.437-0.482,0.979-0.841,1.632-1.072c0.648-0.235,1.348-0.381,2.1-0.438
		c0.75-0.057,1.442-0.089,2.07-0.089h0.653v-0.307c0-0.744-0.219-1.304-0.664-1.686c-0.445-0.377-1.069-0.57-1.871-0.57
		c-0.556,0-1.102,0.093-1.632,0.273c-0.535,0.184-1.007,0.463-1.411,0.844L87.648,74.979z M92.595,78.984
		c-1.095,0-1.964,0.153-2.605,0.46c-0.646,0.306-0.962,0.809-0.962,1.511c0,0.642,0.214,1.098,0.646,1.368
		c0.426,0.268,0.961,0.406,1.607,0.406c0.493,0,0.934-0.085,1.305-0.253c0.37-0.169,0.681-0.392,0.93-0.67
		c0.255-0.274,0.438-0.601,0.57-0.973c0.13-0.371,0.197-0.77,0.217-1.19v-0.655L92.595,78.984L92.595,78.984z"/>
	<path fill="#FFFFFF" d="M97.74,76.094c0-0.467-0.015-0.904-0.043-1.314c-0.032-0.41-0.041-0.784-0.041-1.115h1.622
		c0,0.276,0.007,0.556,0.021,0.83c0.019,0.278,0.027,0.563,0.027,0.855h0.041c0.114-0.25,0.277-0.49,0.495-0.722
		c0.209-0.233,0.463-0.442,0.756-0.626c0.29-0.183,0.62-0.329,0.981-0.436c0.363-0.112,0.759-0.166,1.18-0.166
		c0.117,0,0.231,0.009,0.349,0.023c0.112,0.014,0.235,0.041,0.348,0.089l-0.11,1.729c-0.292-0.088-0.599-0.132-0.919-0.132
		c-1.052,0-1.814,0.344-2.288,1.021c-0.479,0.677-0.718,1.61-0.718,2.788v4.993h-1.707L97.74,76.094L97.74,76.094z"/>
	<path fill="#FFFFFF" d="M112.714,82.092h-0.042c-0.321,0.584-0.827,1.076-1.521,1.479c-0.691,0.404-1.497,0.603-2.42,0.603
		c-0.717,0-1.387-0.132-2.014-0.406c-0.627-0.268-1.174-0.646-1.636-1.126c-0.46-0.482-0.814-1.051-1.083-1.711
		c-0.264-0.655-0.393-1.371-0.393-2.145c0-0.777,0.129-1.486,0.393-2.149c0.268-0.652,0.627-1.226,1.1-1.707
		c0.467-0.484,1.027-0.858,1.696-1.126c0.666-0.271,1.4-0.406,2.202-0.406c0.744,0,1.425,0.153,2.045,0.46s1.166,0.734,1.633,1.29
		h0.042v-7.794h1.711v16.553h-1.711v-1.813H112.714z M112.714,78.788c0-0.541-0.081-1.038-0.251-1.498
		c-0.171-0.462-0.417-0.864-0.732-1.203c-0.318-0.342-0.705-0.612-1.15-0.812c-0.445-0.192-0.95-0.292-1.497-0.292
		c-0.556,0-1.055,0.1-1.5,0.292c-0.442,0.2-0.83,0.471-1.151,0.812c-0.32,0.343-0.566,0.743-0.73,1.203
		c-0.169,0.46-0.253,0.957-0.253,1.498c0,0.542,0.082,1.037,0.253,1.497c0.169,0.46,0.415,0.866,0.73,1.204
		c0.321,0.343,0.709,0.613,1.151,0.81c0.445,0.195,0.949,0.295,1.5,0.295s1.052-0.1,1.497-0.295c0.443-0.196,0.83-0.467,1.15-0.81
		c0.321-0.342,0.567-0.744,0.732-1.204C112.631,79.825,112.714,79.326,112.714,78.788z"/>
	<path fill="#FFFFFF" d="M116.962,81.219c0.339,0.42,0.706,0.759,1.104,1.009c0.402,0.249,0.908,0.37,1.521,0.37
		c0.266,0,0.527-0.032,0.8-0.089c0.266-0.058,0.512-0.153,0.729-0.281c0.218-0.132,0.397-0.296,0.524-0.496
		c0.132-0.195,0.195-0.435,0.195-0.712c0-0.28-0.061-0.503-0.19-0.678c-0.119-0.178-0.283-0.328-0.491-0.449
		c-0.203-0.124-0.438-0.224-0.702-0.295c-0.266-0.075-0.531-0.14-0.81-0.196c-0.48-0.104-0.94-0.218-1.379-0.35
		s-0.819-0.303-1.151-0.513c-0.333-0.211-0.588-0.486-0.792-0.82c-0.191-0.338-0.296-0.77-0.296-1.293
		c0-0.494,0.113-0.934,0.333-1.315c0.221-0.377,0.513-0.69,0.873-0.94c0.367-0.249,0.773-0.438,1.226-0.57
		c0.453-0.128,0.925-0.192,1.406-0.192c0.725,0,1.405,0.146,2.027,0.435c0.62,0.293,1.102,0.77,1.454,1.422l-1.422,0.944
		c-0.218-0.363-0.506-0.659-0.866-0.886c-0.356-0.226-0.796-0.34-1.306-0.34c-0.235,0-0.471,0.03-0.713,0.089
		c-0.239,0.054-0.456,0.143-0.646,0.264c-0.19,0.114-0.345,0.268-0.476,0.449c-0.121,0.182-0.185,0.389-0.185,0.624
		c0,0.217,0.067,0.406,0.206,0.56c0.134,0.153,0.328,0.284,0.568,0.406c0.239,0.113,0.517,0.219,0.831,0.306
		c0.313,0.09,0.638,0.161,0.976,0.22c0.449,0.087,0.875,0.197,1.29,0.34c0.41,0.14,0.767,0.324,1.073,0.56s0.549,0.524,0.722,0.875
		c0.178,0.352,0.267,0.782,0.267,1.294c0,0.582-0.117,1.081-0.353,1.487c-0.231,0.408-0.542,0.738-0.93,0.996
		c-0.385,0.257-0.823,0.44-1.315,0.56c-0.493,0.116-0.987,0.177-1.496,0.177c-0.874,0-1.633-0.134-2.267-0.408
		c-0.633-0.266-1.208-0.77-1.716-1.499L116.962,81.219z"/>
</g>
</svg>
