<?xml version="1.0" encoding="utf-8"?>
<!-- Generator: Adobe Illustrator 16.0.0, SVG Export Plug-In . SVG Version: 6.00 Build 0)  -->
<!DOCTYPE svg PUBLIC "-//W3C//DTD SVG 1.1//EN" "http://www.w3.org/Graphics/SVG/1.1/DTD/svg11.dtd">
<svg version="1.1" id="Layer_1" xmlns="http://www.w3.org/2000/svg" xmlns:xlink="http://www.w3.org/1999/xlink" x="0px" y="0px"
	 width="200px" height="100px" viewBox="0 0 200 100" enable-background="new 0 0 200 100" xml:space="preserve">
<path fill="#808284" d="M194.998,89.318c0,4.67-3.787,8.453-8.453,8.453H12.731c-4.668,0-8.454-3.783-8.454-8.453V63.455
	c0-4.67,3.786-8.455,8.454-8.455h173.814c4.668,0,8.455,3.785,8.455,8.455v25.863H194.998z"/>
<g>
	<path fill="#808284" d="M43.035,21.193h-4.709v12.682h-1.694V21.193h-4.709v-1.568h11.111v1.568H43.035z"/>
	<path fill="#808284" d="M48.53,32.166c-0.565,0.723-1.181,1.229-1.853,1.516c-0.67,0.289-1.449,0.436-2.334,0.436
		c-0.739,0-1.402-0.131-1.994-0.393c-0.591-0.262-1.087-0.615-1.499-1.059c-0.411-0.441-0.727-0.967-0.947-1.568
		c-0.22-0.604-0.333-1.248-0.333-1.934c0-0.723,0.122-1.393,0.366-2.002c0.241-0.611,0.577-1.133,1.006-1.568
		c0.429-0.439,0.94-0.777,1.53-1.02c0.59-0.238,1.235-0.359,1.933-0.359c0.657,0,1.261,0.107,1.81,0.33
		c0.548,0.223,1.022,0.545,1.42,0.967c0.393,0.422,0.701,0.939,0.916,1.549c0.215,0.611,0.321,1.305,0.321,2.084v0.504h-7.607
		c0.026,0.4,0.122,0.787,0.292,1.156c0.167,0.369,0.383,0.693,0.654,0.967c0.27,0.275,0.586,0.492,0.946,0.652
		c0.361,0.164,0.758,0.242,1.188,0.242c0.683,0,1.26-0.121,1.73-0.359c0.468-0.242,0.891-0.6,1.27-1.068L48.53,32.166z
		 M47.18,28.318c-0.026-0.805-0.289-1.447-0.785-1.932c-0.496-0.482-1.181-0.725-2.052-0.725c-0.875,0-1.577,0.242-2.115,0.725
		c-0.535,0.484-0.86,1.127-0.964,1.932H47.18z"/>
	<path fill="#808284" d="M50.199,26.688c0-0.43-0.015-0.832-0.04-1.205c-0.026-0.377-0.041-0.717-0.041-1.029h1.493
		c0,0.256,0.006,0.512,0.02,0.768c0.013,0.254,0.02,0.518,0.02,0.781h0.041c0.105-0.225,0.257-0.447,0.452-0.66
		c0.195-0.217,0.426-0.406,0.694-0.574c0.269-0.17,0.57-0.305,0.906-0.402c0.336-0.102,0.697-0.15,1.087-0.15
		c0.105,0,0.215,0.006,0.319,0.02c0.108,0.012,0.215,0.039,0.323,0.078l-0.102,1.592c-0.267-0.082-0.549-0.121-0.847-0.121
		c-0.963,0-1.665,0.312-2.103,0.938c-0.436,0.621-0.654,1.477-0.654,2.564v4.59h-1.571v-7.188H50.199z"/>
	<path fill="#808284" d="M64.551,32.166c-0.562,0.723-1.181,1.229-1.852,1.516c-0.669,0.289-1.446,0.436-2.334,0.436
		c-0.739,0-1.402-0.131-1.994-0.393s-1.087-0.615-1.499-1.059c-0.411-0.441-0.724-0.967-0.947-1.568
		c-0.221-0.604-0.33-1.248-0.33-1.934c0-0.723,0.118-1.393,0.362-2.002c0.241-0.611,0.577-1.133,1.006-1.568
		c0.429-0.439,0.941-0.777,1.53-1.02c0.593-0.238,1.235-0.359,1.933-0.359c0.657,0,1.261,0.107,1.811,0.33
		c0.551,0.223,1.021,0.545,1.419,0.967c0.397,0.422,0.7,0.939,0.915,1.549c0.215,0.611,0.323,1.305,0.323,2.084v0.504h-7.609
		c0.026,0.4,0.125,0.787,0.292,1.156s0.386,0.693,0.653,0.967c0.269,0.275,0.586,0.492,0.947,0.652
		c0.361,0.164,0.758,0.242,1.188,0.242c0.685,0,1.26-0.121,1.731-0.359c0.467-0.242,0.891-0.6,1.268-1.068L64.551,32.166z
		 M63.203,28.318c-0.029-0.805-0.291-1.447-0.787-1.932c-0.497-0.482-1.181-0.725-2.053-0.725c-0.875,0-1.577,0.242-2.113,0.725
		c-0.537,0.484-0.861,1.127-0.966,1.932H63.203z"/>
	<path fill="#808284" d="M66.223,26.688c0-0.43-0.014-0.832-0.041-1.205c-0.026-0.377-0.037-0.717-0.037-1.029h1.488
		c0,0.256,0.006,0.512,0.02,0.768c0.014,0.254,0.021,0.518,0.021,0.781h0.039c0.107-0.225,0.26-0.447,0.455-0.66
		c0.192-0.217,0.426-0.406,0.693-0.574c0.268-0.17,0.571-0.305,0.904-0.402c0.337-0.102,0.697-0.15,1.087-0.15
		c0.616,0,1.151,0.092,1.599,0.281c0.452,0.188,0.822,0.449,1.117,0.783c0.299,0.338,0.516,0.744,0.656,1.219
		s0.213,0.996,0.213,1.559v5.818h-1.573v-5.656c0-0.791-0.175-1.416-0.524-1.871c-0.35-0.457-0.893-0.686-1.631-0.686
		c-0.512,0-0.951,0.088-1.318,0.262c-0.369,0.174-0.67,0.424-0.906,0.744c-0.234,0.324-0.41,0.705-0.523,1.146
		c-0.113,0.445-0.172,0.934-0.172,1.471v4.59h-1.57L66.223,26.688L66.223,26.688z"/>
	<path fill="#808284" d="M82.906,26.809c-0.334-0.402-0.697-0.693-1.084-0.875c-0.39-0.18-0.818-0.271-1.291-0.271
		c-0.521,0-0.986,0.092-1.387,0.271c-0.4,0.182-0.734,0.434-0.998,0.754c-0.26,0.324-0.459,0.695-0.594,1.117
		c-0.136,0.424-0.201,0.877-0.201,1.359c0,0.484,0.076,0.938,0.23,1.359c0.156,0.424,0.371,0.793,0.646,1.117
		c0.275,0.322,0.605,0.574,0.999,0.754c0.385,0.18,0.824,0.271,1.305,0.271c1.033,0,1.834-0.389,2.398-1.166l1.164,1.107
		c-0.453,0.521-0.994,0.904-1.61,1.146c-0.614,0.242-1.269,0.361-1.952,0.361c-0.725,0-1.387-0.119-1.991-0.361
		s-1.117-0.582-1.54-1.025c-0.422-0.445-0.752-0.965-0.986-1.572c-0.236-0.604-0.352-1.268-0.352-1.992
		c0-0.711,0.115-1.369,0.352-1.973c0.234-0.602,0.568-1.125,0.997-1.568s0.942-0.789,1.54-1.039
		c0.598-0.244,1.258-0.369,1.982-0.369c0.697,0,1.361,0.121,1.985,0.359c0.624,0.242,1.169,0.619,1.64,1.127L82.906,26.809z"/>
	<path fill="#808284" d="M93.173,32.166c-0.563,0.723-1.181,1.229-1.851,1.516c-0.674,0.289-1.451,0.436-2.336,0.436
		c-0.738,0-1.404-0.131-1.992-0.393c-0.592-0.262-1.09-0.615-1.501-1.059c-0.409-0.441-0.728-0.967-0.944-1.568
		c-0.221-0.604-0.332-1.248-0.332-1.934c0-0.723,0.12-1.393,0.363-2.002c0.243-0.611,0.579-1.133,1.008-1.568
		c0.43-0.439,0.939-0.777,1.531-1.02c0.588-0.238,1.23-0.359,1.929-0.359c0.66,0,1.264,0.107,1.812,0.33
		c0.549,0.223,1.021,0.545,1.422,0.967c0.393,0.422,0.701,0.939,0.916,1.549c0.215,0.611,0.319,1.305,0.319,2.084v0.504h-7.608
		c0.029,0.4,0.123,0.787,0.295,1.156c0.166,0.369,0.383,0.693,0.652,0.967c0.271,0.275,0.586,0.492,0.946,0.652
		c0.362,0.164,0.757,0.242,1.188,0.242c0.682,0,1.262-0.121,1.729-0.359c0.469-0.242,0.892-0.6,1.27-1.068L93.173,32.166z
		 M91.824,28.318c-0.025-0.805-0.288-1.447-0.783-1.932c-0.498-0.482-1.182-0.725-2.055-0.725s-1.576,0.242-2.115,0.725
		c-0.533,0.484-0.859,1.127-0.967,1.932H91.824z"/>
	<path fill="#808284" d="M98.25,19.625h8.959v1.568h-7.268v4.469h6.781v1.568h-6.781v5.076h7.629v1.568h-9.32V19.625z"/>
	<path fill="#808284" d="M116.443,32.205h-0.037c-0.295,0.537-0.76,0.988-1.398,1.359c-0.635,0.367-1.379,0.553-2.225,0.553
		c-0.658,0-1.275-0.123-1.852-0.373c-0.578-0.248-1.08-0.594-1.502-1.039c-0.422-0.441-0.754-0.963-0.996-1.568
		c-0.244-0.602-0.361-1.262-0.361-1.973s0.117-1.369,0.361-1.973c0.242-0.602,0.578-1.125,1.006-1.568
		c0.432-0.443,0.949-0.789,1.561-1.039c0.611-0.244,1.291-0.369,2.025-0.369c0.684,0,1.309,0.141,1.881,0.422
		c0.57,0.281,1.072,0.68,1.5,1.186h0.039v-7.164h1.572v15.217h-1.572v-1.67H116.443z M116.443,29.164
		c0-0.494-0.076-0.957-0.23-1.379s-0.381-0.789-0.674-1.107c-0.295-0.314-0.648-0.562-1.061-0.744
		c-0.406-0.18-0.867-0.271-1.371-0.271c-0.514,0-0.969,0.092-1.379,0.271c-0.41,0.182-0.764,0.43-1.059,0.744
		c-0.297,0.318-0.525,0.686-0.674,1.107c-0.15,0.422-0.23,0.885-0.23,1.379c0,0.498,0.076,0.957,0.23,1.379
		c0.152,0.424,0.381,0.793,0.674,1.107c0.295,0.314,0.648,0.564,1.059,0.744c0.41,0.184,0.869,0.271,1.379,0.271
		c0.508,0,0.965-0.088,1.371-0.271c0.412-0.18,0.764-0.43,1.061-0.744s0.523-0.684,0.674-1.107
		C116.363,30.121,116.443,29.662,116.443,29.164z"/>
	<path fill="#808284" d="M130.455,33.875h-1.549l-2.684-7.246h-0.037l-2.375,7.246h-1.607l-3.059-9.422h1.729l2.156,7.246h0.035
		l2.434-7.246h1.65l2.479,7.246h0.039l2.131-7.246h1.689L130.455,33.875z"/>
	<path fill="#808284" d="M134.238,25.662c0.482-0.498,1.057-0.861,1.721-1.098c0.664-0.232,1.336-0.35,2.021-0.35
		c1.395,0,2.402,0.326,3.02,0.986c0.617,0.654,0.928,1.656,0.928,2.996v4.047c0,0.27,0.014,0.547,0.039,0.834
		c0.025,0.289,0.059,0.555,0.102,0.797h-1.508c-0.055-0.215-0.088-0.451-0.092-0.713c-0.008-0.264-0.012-0.496-0.012-0.695h-0.037
		c-0.314,0.482-0.723,0.877-1.236,1.186c-0.521,0.309-1.139,0.465-1.861,0.465c-0.486,0-0.938-0.062-1.359-0.184
		c-0.422-0.119-0.795-0.297-1.107-0.533c-0.316-0.232-0.568-0.523-0.754-0.875c-0.189-0.346-0.281-0.75-0.281-1.205
		c0-0.779,0.199-1.389,0.604-1.834c0.4-0.443,0.898-0.771,1.5-0.986c0.596-0.213,1.238-0.348,1.93-0.404
		c0.688-0.051,1.326-0.078,1.902-0.078h0.602v-0.281c0-0.686-0.201-1.203-0.611-1.551c-0.408-0.35-0.984-0.523-1.721-0.523
		c-0.51,0-1.012,0.086-1.5,0.254c-0.49,0.166-0.924,0.424-1.297,0.771L134.238,25.662z M138.787,29.346
		c-1.006,0-1.807,0.141-2.396,0.422c-0.592,0.281-0.883,0.746-0.883,1.389c0,0.594,0.195,1.012,0.594,1.258
		c0.393,0.25,0.885,0.373,1.477,0.373c0.457,0,0.859-0.078,1.199-0.232c0.342-0.152,0.627-0.357,0.855-0.611
		c0.234-0.256,0.402-0.555,0.525-0.895c0.119-0.344,0.182-0.709,0.199-1.098v-0.605H138.787L138.787,29.346z"/>
	<path fill="#808284" d="M143.518,26.688c0-0.43-0.014-0.832-0.041-1.205c-0.027-0.377-0.037-0.717-0.037-1.029h1.49
		c0,0.256,0.006,0.512,0.018,0.768c0.016,0.254,0.023,0.518,0.023,0.781h0.041c0.104-0.225,0.254-0.447,0.453-0.66
		c0.193-0.217,0.428-0.406,0.695-0.574c0.268-0.17,0.572-0.305,0.902-0.402c0.338-0.102,0.699-0.15,1.086-0.15
		c0.109,0,0.215,0.006,0.322,0.02c0.105,0.012,0.215,0.039,0.32,0.078l-0.102,1.592c-0.268-0.082-0.549-0.121-0.844-0.121
		c-0.967,0-1.668,0.312-2.104,0.938c-0.439,0.621-0.658,1.477-0.658,2.564v4.59h-1.57L143.518,26.688L143.518,26.688z"/>
	<path fill="#808284" d="M157.283,32.205h-0.041c-0.295,0.537-0.758,0.988-1.398,1.359c-0.635,0.367-1.375,0.553-2.223,0.553
		c-0.658,0-1.275-0.123-1.852-0.373c-0.576-0.248-1.08-0.594-1.504-1.039c-0.422-0.441-0.75-0.963-0.996-1.568
		c-0.242-0.602-0.361-1.262-0.361-1.973s0.119-1.369,0.361-1.973c0.246-0.602,0.578-1.125,1.01-1.568
		c0.428-0.443,0.945-0.789,1.559-1.039c0.613-0.244,1.289-0.369,2.025-0.369c0.686,0,1.309,0.141,1.881,0.422
		c0.568,0.281,1.07,0.68,1.498,1.186h0.041v-7.164h1.572v15.217h-1.572V32.205z M157.283,29.164c0-0.494-0.076-0.957-0.23-1.379
		c-0.156-0.422-0.383-0.789-0.674-1.107c-0.291-0.314-0.648-0.562-1.059-0.744c-0.408-0.18-0.871-0.271-1.375-0.271
		c-0.512,0-0.971,0.092-1.381,0.271c-0.406,0.182-0.764,0.43-1.059,0.744c-0.295,0.318-0.52,0.686-0.672,1.107
		s-0.23,0.885-0.23,1.379c0,0.498,0.076,0.957,0.23,1.379c0.154,0.424,0.381,0.793,0.672,1.107c0.295,0.314,0.652,0.564,1.059,0.744
		c0.41,0.184,0.873,0.271,1.381,0.271s0.967-0.088,1.375-0.271c0.408-0.18,0.764-0.43,1.059-0.744s0.521-0.684,0.674-1.107
		C157.207,30.121,157.283,29.662,157.283,29.164z"/>
	<path fill="#808284" d="M161.188,31.398c0.311,0.391,0.65,0.699,1.016,0.928c0.369,0.227,0.836,0.34,1.398,0.34
		c0.244,0,0.486-0.025,0.736-0.078c0.246-0.055,0.471-0.141,0.672-0.262s0.363-0.271,0.482-0.455
		c0.119-0.18,0.178-0.396,0.178-0.652s-0.055-0.465-0.172-0.625c-0.111-0.162-0.264-0.299-0.451-0.414
		c-0.189-0.111-0.404-0.203-0.648-0.271c-0.24-0.066-0.486-0.125-0.742-0.18c-0.443-0.096-0.865-0.199-1.268-0.322
		c-0.402-0.121-0.754-0.277-1.057-0.475c-0.305-0.193-0.541-0.445-0.729-0.754c-0.176-0.307-0.271-0.703-0.271-1.186
		c0-0.459,0.105-0.861,0.305-1.209c0.201-0.35,0.473-0.639,0.801-0.865c0.34-0.229,0.713-0.402,1.129-0.523
		c0.414-0.121,0.848-0.18,1.291-0.18c0.668,0,1.291,0.135,1.863,0.402c0.57,0.266,1.012,0.705,1.336,1.307l-1.307,0.865
		c-0.199-0.334-0.465-0.605-0.797-0.816c-0.328-0.205-0.729-0.311-1.199-0.311c-0.215,0-0.432,0.027-0.654,0.082
		c-0.219,0.053-0.42,0.135-0.592,0.24c-0.178,0.107-0.318,0.244-0.436,0.412c-0.115,0.166-0.172,0.359-0.172,0.572
		c0,0.203,0.062,0.373,0.189,0.516c0.125,0.141,0.301,0.264,0.523,0.373c0.219,0.105,0.475,0.199,0.764,0.281
		c0.287,0.08,0.586,0.148,0.896,0.201c0.414,0.08,0.807,0.184,1.186,0.311c0.377,0.127,0.705,0.301,0.986,0.514
		c0.281,0.217,0.506,0.484,0.664,0.807c0.162,0.32,0.246,0.717,0.246,1.186c0,0.537-0.109,0.992-0.324,1.369
		c-0.213,0.377-0.498,0.682-0.855,0.918c-0.354,0.232-0.756,0.406-1.209,0.512c-0.451,0.107-0.908,0.162-1.377,0.162
		c-0.801,0-1.5-0.123-2.082-0.373c-0.582-0.248-1.111-0.707-1.58-1.379L161.188,31.398z"/>
</g>
<g>
	<path fill="#FFFFFF" d="M43.03,71.193H38.32v12.682h-1.694V71.193h-4.709v-1.57h11.111v1.57H43.03z"/>
	<path fill="#FFFFFF" d="M48.525,82.164c-0.565,0.725-1.183,1.232-1.853,1.52c-0.67,0.289-1.45,0.434-2.334,0.434
		c-0.739,0-1.402-0.133-1.993-0.393c-0.59-0.262-1.088-0.613-1.499-1.057c-0.411-0.445-0.728-0.967-0.947-1.572
		c-0.221-0.602-0.333-1.248-0.333-1.932c0-0.725,0.121-1.391,0.363-2.002c0.243-0.607,0.577-1.133,1.008-1.57
		c0.429-0.436,0.938-0.775,1.528-1.016c0.591-0.242,1.235-0.361,1.933-0.361c0.659,0,1.262,0.109,1.81,0.33
		c0.551,0.221,1.023,0.543,1.42,0.965c0.395,0.422,0.701,0.941,0.917,1.551c0.214,0.611,0.319,1.307,0.319,2.082v0.504h-7.605
		c0.026,0.404,0.121,0.791,0.292,1.158c0.167,0.369,0.383,0.691,0.653,0.965c0.271,0.275,0.587,0.494,0.945,0.656
		c0.364,0.16,0.76,0.242,1.189,0.242c0.685,0,1.258-0.119,1.729-0.363c0.47-0.242,0.893-0.596,1.27-1.068L48.525,82.164z
		 M47.175,78.318c-0.026-0.801-0.288-1.447-0.785-1.93c-0.496-0.484-1.181-0.727-2.052-0.727c-0.875,0-1.578,0.242-2.115,0.727
		c-0.536,0.482-0.86,1.129-0.965,1.93H47.175z"/>
	<path fill="#FFFFFF" d="M50.194,76.689c0-0.43-0.015-0.832-0.04-1.209c-0.029-0.377-0.041-0.719-0.041-1.025h1.492
		c0,0.254,0.007,0.51,0.02,0.764s0.02,0.518,0.02,0.785h0.039c0.106-0.229,0.257-0.449,0.454-0.662
		c0.196-0.213,0.426-0.406,0.695-0.574c0.268-0.168,0.57-0.303,0.905-0.402c0.336-0.102,0.698-0.15,1.088-0.15
		c0.105,0,0.213,0.006,0.319,0.02c0.108,0.012,0.215,0.039,0.323,0.082l-0.1,1.588c-0.269-0.08-0.55-0.121-0.848-0.121
		c-0.963,0-1.665,0.314-2.104,0.939c-0.436,0.621-0.653,1.479-0.653,2.562v4.59h-1.571v-7.186H50.194z"/>
	<path fill="#FFFFFF" d="M64.545,82.164c-0.564,0.725-1.18,1.232-1.853,1.52c-0.672,0.289-1.446,0.434-2.334,0.434
		c-0.739,0-1.404-0.133-1.994-0.393c-0.591-0.262-1.089-0.613-1.499-1.057c-0.409-0.445-0.726-0.967-0.946-1.572
		c-0.221-0.602-0.331-1.248-0.331-1.932c0-0.725,0.119-1.391,0.363-2.002c0.241-0.607,0.577-1.133,1.006-1.57
		c0.429-0.436,0.942-0.775,1.53-1.016c0.589-0.24,1.235-0.361,1.933-0.361c0.657,0,1.262,0.109,1.812,0.33s1.021,0.543,1.419,0.965
		c0.397,0.422,0.7,0.941,0.916,1.551c0.214,0.611,0.322,1.307,0.322,2.082v0.504h-7.61c0.027,0.404,0.125,0.791,0.293,1.158
		c0.167,0.369,0.385,0.691,0.654,0.965c0.271,0.275,0.585,0.494,0.947,0.656c0.362,0.16,0.757,0.242,1.188,0.242
		c0.683,0,1.259-0.119,1.731-0.363c0.467-0.242,0.89-0.596,1.268-1.068L64.545,82.164z M63.199,78.318
		c-0.029-0.801-0.292-1.447-0.788-1.93c-0.497-0.484-1.181-0.727-2.052-0.727c-0.875,0-1.578,0.242-2.115,0.727
		c-0.536,0.482-0.86,1.129-0.967,1.93H63.199z"/>
	<path fill="#FFFFFF" d="M66.215,76.689c0-0.43-0.014-0.832-0.039-1.209c-0.026-0.377-0.038-0.719-0.038-1.025h1.489
		c0,0.254,0.007,0.51,0.02,0.764c0.014,0.254,0.021,0.518,0.021,0.785h0.039c0.108-0.229,0.259-0.449,0.453-0.662
		c0.194-0.215,0.427-0.406,0.694-0.574c0.269-0.168,0.572-0.303,0.906-0.402c0.338-0.102,0.697-0.15,1.088-0.15
		c0.614,0,1.151,0.096,1.597,0.281c0.454,0.188,0.823,0.449,1.117,0.787c0.3,0.334,0.517,0.738,0.657,1.217
		c0.141,0.479,0.212,0.996,0.212,1.561v5.816H72.86v-5.654c0-0.793-0.175-1.416-0.522-1.873c-0.352-0.455-0.895-0.684-1.632-0.684
		c-0.511,0-0.95,0.088-1.318,0.26c-0.369,0.176-0.67,0.424-0.906,0.746c-0.236,0.32-0.41,0.705-0.522,1.148
		c-0.113,0.443-0.172,0.932-0.172,1.467v4.59h-1.569v-7.188H66.215z"/>
	<path fill="#FFFFFF" d="M82.902,76.809c-0.336-0.4-0.697-0.693-1.084-0.877c-0.391-0.178-0.819-0.27-1.292-0.27
		c-0.522,0-0.988,0.092-1.388,0.27c-0.402,0.184-0.735,0.436-0.999,0.758c-0.259,0.32-0.458,0.695-0.593,1.117
		c-0.132,0.424-0.2,0.875-0.2,1.357c0,0.484,0.077,0.938,0.231,1.359c0.155,0.424,0.37,0.797,0.644,1.117
		c0.276,0.322,0.608,0.574,1.001,0.756c0.385,0.18,0.822,0.271,1.306,0.271c1.032,0,1.833-0.389,2.396-1.168l1.165,1.107
		c-0.454,0.523-0.992,0.906-1.61,1.146c-0.616,0.244-1.268,0.363-1.949,0.363c-0.728,0-1.39-0.119-1.994-0.363
		c-0.604-0.24-1.117-0.582-1.54-1.025c-0.424-0.441-0.751-0.965-0.988-1.568c-0.238-0.605-0.35-1.27-0.35-1.994
		c0-0.713,0.112-1.365,0.35-1.975c0.236-0.6,0.568-1.125,0.998-1.568s0.944-0.789,1.54-1.035c0.595-0.248,1.258-0.373,1.985-0.373
		c0.699,0,1.36,0.119,1.982,0.361c0.627,0.24,1.17,0.617,1.642,1.129L82.902,76.809z"/>
	<path fill="#FFFFFF" d="M93.168,82.164c-0.564,0.725-1.182,1.232-1.852,1.52c-0.67,0.289-1.447,0.434-2.334,0.434
		c-0.736,0-1.404-0.133-1.991-0.393c-0.594-0.262-1.09-0.613-1.501-1.057c-0.41-0.445-0.727-0.967-0.945-1.572
		c-0.223-0.602-0.33-1.248-0.33-1.932c0-0.725,0.119-1.391,0.363-2.002c0.242-0.607,0.578-1.133,1.008-1.57
		c0.429-0.436,0.938-0.775,1.529-1.016c0.59-0.242,1.232-0.361,1.93-0.361c0.658,0,1.263,0.109,1.812,0.33
		c0.548,0.221,1.022,0.543,1.422,0.965c0.392,0.422,0.701,0.941,0.913,1.551c0.217,0.611,0.322,1.307,0.322,2.082v0.504h-7.609
		c0.029,0.404,0.123,0.791,0.293,1.158c0.17,0.369,0.384,0.691,0.656,0.965c0.268,0.275,0.584,0.494,0.945,0.656
		c0.361,0.16,0.756,0.242,1.186,0.242c0.685,0,1.262-0.119,1.731-0.363c0.468-0.242,0.891-0.596,1.27-1.068L93.168,82.164z
		 M91.82,78.318c-0.028-0.801-0.289-1.447-0.785-1.93c-0.498-0.484-1.182-0.727-2.057-0.727c-0.872,0-1.573,0.242-2.111,0.727
		c-0.54,0.482-0.861,1.129-0.967,1.93H91.82z"/>
	<path fill="#FFFFFF" d="M98.244,69.623h8.959v1.57h-7.268v4.469h6.783v1.572h-6.783v5.07h7.631v1.57h-9.322V69.623z"/>
	<path fill="#FFFFFF" d="M116.439,82.203h-0.037c-0.295,0.537-0.76,0.988-1.4,1.359c-0.635,0.369-1.379,0.555-2.225,0.555
		c-0.658,0-1.273-0.123-1.85-0.373c-0.578-0.248-1.08-0.596-1.504-1.037c-0.422-0.443-0.752-0.967-0.994-1.57
		c-0.246-0.604-0.361-1.262-0.361-1.975c0-0.711,0.115-1.365,0.361-1.973c0.242-0.602,0.576-1.127,1.006-1.568
		c0.43-0.445,0.949-0.791,1.561-1.037c0.611-0.248,1.289-0.373,2.025-0.373c0.682,0,1.307,0.141,1.881,0.422
		c0.568,0.283,1.07,0.678,1.502,1.188h0.037v-7.166h1.572v15.219h-1.572v-1.67H116.439z M116.439,79.164
		c0-0.496-0.078-0.955-0.232-1.377s-0.379-0.793-0.672-1.105c-0.295-0.316-0.65-0.564-1.061-0.748
		c-0.406-0.178-0.867-0.27-1.371-0.27c-0.516,0-0.971,0.092-1.381,0.27c-0.408,0.184-0.762,0.432-1.057,0.748
		c-0.297,0.314-0.523,0.684-0.676,1.105c-0.15,0.422-0.229,0.881-0.229,1.377c0,0.498,0.074,0.955,0.229,1.377
		c0.154,0.424,0.383,0.795,0.676,1.109c0.295,0.314,0.648,0.562,1.057,0.744c0.41,0.18,0.869,0.271,1.381,0.271
		c0.506,0,0.965-0.092,1.371-0.271c0.41-0.182,0.764-0.43,1.061-0.744c0.295-0.316,0.521-0.686,0.672-1.109
		C116.359,80.119,116.439,79.66,116.439,79.164z"/>
	<path fill="#FFFFFF" d="M130.451,83.873h-1.549l-2.684-7.246h-0.037l-2.375,7.246h-1.607l-3.061-9.418h1.73l2.156,7.244h0.033
		l2.436-7.244h1.65l2.477,7.244h0.041l2.131-7.244h1.689L130.451,83.873z"/>
	<path fill="#FFFFFF" d="M134.234,75.662c0.482-0.496,1.055-0.863,1.719-1.096c0.664-0.236,1.338-0.352,2.023-0.352
		c1.393,0,2.4,0.326,3.02,0.986c0.615,0.658,0.928,1.654,0.928,2.998v4.047c0,0.268,0.014,0.545,0.039,0.834
		c0.023,0.289,0.057,0.553,0.102,0.795h-1.51c-0.053-0.213-0.086-0.453-0.092-0.713c-0.006-0.264-0.01-0.494-0.01-0.695h-0.039
		c-0.312,0.482-0.723,0.877-1.236,1.188c-0.52,0.311-1.139,0.463-1.859,0.463c-0.486,0-0.939-0.062-1.361-0.182
		s-0.795-0.299-1.107-0.531c-0.316-0.236-0.564-0.525-0.752-0.875c-0.189-0.35-0.283-0.752-0.283-1.209
		c0-0.779,0.199-1.389,0.604-1.832c0.4-0.443,0.9-0.773,1.502-0.986c0.596-0.215,1.236-0.35,1.928-0.402
		c0.689-0.055,1.328-0.082,1.902-0.082h0.602v-0.281c0-0.686-0.201-1.199-0.611-1.551c-0.408-0.346-0.98-0.523-1.719-0.523
		c-0.512,0-1.012,0.086-1.5,0.252c-0.492,0.168-0.926,0.424-1.297,0.775L134.234,75.662z M138.781,79.348
		c-1.004,0-1.805,0.141-2.395,0.422c-0.594,0.281-0.885,0.742-0.885,1.389c0,0.59,0.197,1.01,0.594,1.258
		c0.395,0.248,0.885,0.371,1.479,0.371c0.455,0,0.859-0.076,1.199-0.23c0.342-0.154,0.625-0.359,0.855-0.615
		c0.232-0.252,0.402-0.553,0.523-0.895c0.119-0.342,0.184-0.707,0.199-1.096v-0.604H138.781L138.781,79.348z"/>
	<path fill="#FFFFFF" d="M143.514,76.689c0-0.43-0.014-0.832-0.041-1.209c-0.029-0.377-0.039-0.719-0.039-1.025h1.49
		c0,0.254,0.008,0.51,0.02,0.764c0.014,0.254,0.023,0.518,0.023,0.785h0.039c0.104-0.229,0.256-0.449,0.457-0.662
		c0.189-0.215,0.424-0.406,0.693-0.574c0.268-0.168,0.57-0.303,0.902-0.402c0.336-0.102,0.697-0.15,1.086-0.15
		c0.107,0,0.213,0.006,0.32,0.02c0.105,0.012,0.217,0.039,0.322,0.082l-0.104,1.588c-0.268-0.08-0.549-0.121-0.844-0.121
		c-0.965,0-1.668,0.314-2.104,0.939c-0.438,0.621-0.658,1.479-0.658,2.562v4.59h-1.568L143.514,76.689L143.514,76.689z"/>
	<path fill="#FFFFFF" d="M157.277,82.203h-0.039c-0.295,0.537-0.76,0.988-1.398,1.359c-0.635,0.369-1.377,0.555-2.225,0.555
		c-0.658,0-1.275-0.123-1.852-0.373c-0.576-0.248-1.08-0.596-1.504-1.037c-0.422-0.443-0.75-0.967-0.994-1.57
		c-0.242-0.604-0.361-1.262-0.361-1.975c0-0.711,0.119-1.365,0.361-1.973c0.244-0.602,0.576-1.127,1.008-1.568
		c0.43-0.445,0.947-0.791,1.561-1.037c0.611-0.248,1.287-0.373,2.023-0.373c0.686,0,1.311,0.141,1.881,0.422
		c0.57,0.283,1.07,0.678,1.5,1.188h0.039v-7.166h1.574v15.219h-1.574V82.203z M157.277,79.164c0-0.496-0.074-0.955-0.23-1.377
		s-0.381-0.793-0.674-1.105c-0.293-0.316-0.648-0.564-1.059-0.748c-0.408-0.178-0.871-0.27-1.375-0.27
		c-0.51,0-0.969,0.092-1.379,0.27c-0.408,0.184-0.762,0.432-1.059,0.748c-0.295,0.314-0.521,0.684-0.672,1.105
		c-0.154,0.422-0.23,0.881-0.23,1.377c0,0.498,0.074,0.955,0.23,1.377c0.154,0.424,0.381,0.795,0.672,1.109
		c0.297,0.314,0.65,0.562,1.059,0.744c0.41,0.18,0.873,0.271,1.379,0.271c0.508,0,0.967-0.092,1.375-0.271
		c0.41-0.182,0.764-0.43,1.059-0.744c0.295-0.316,0.521-0.686,0.674-1.109C157.201,80.119,157.277,79.66,157.277,79.164z"/>
	<path fill="#FFFFFF" d="M161.184,81.398c0.311,0.389,0.648,0.699,1.016,0.928s0.836,0.342,1.398,0.342
		c0.242,0,0.486-0.029,0.734-0.082c0.246-0.053,0.471-0.141,0.672-0.26c0.201-0.121,0.363-0.271,0.482-0.453
		c0.121-0.182,0.18-0.4,0.18-0.656c0-0.258-0.055-0.461-0.172-0.623c-0.113-0.162-0.264-0.299-0.453-0.412
		c-0.188-0.115-0.404-0.205-0.646-0.271c-0.24-0.07-0.488-0.129-0.744-0.182c-0.441-0.094-0.863-0.199-1.268-0.322
		c-0.402-0.121-0.752-0.277-1.057-0.471c-0.305-0.195-0.541-0.447-0.729-0.756c-0.176-0.309-0.271-0.705-0.271-1.188
		c0-0.455,0.105-0.857,0.305-1.209c0.203-0.348,0.473-0.635,0.803-0.865c0.338-0.229,0.711-0.402,1.127-0.523
		c0.416-0.119,0.85-0.178,1.291-0.178c0.668,0,1.291,0.135,1.865,0.4c0.568,0.27,1.01,0.707,1.336,1.307l-1.309,0.867
		c-0.199-0.334-0.463-0.605-0.795-0.814c-0.328-0.207-0.73-0.312-1.199-0.312c-0.217,0-0.432,0.027-0.654,0.082
		c-0.221,0.051-0.42,0.133-0.594,0.242c-0.176,0.105-0.318,0.246-0.436,0.414c-0.113,0.166-0.17,0.355-0.17,0.572
		c0,0.199,0.061,0.371,0.188,0.512c0.127,0.145,0.303,0.264,0.523,0.373c0.221,0.107,0.477,0.203,0.764,0.283
		c0.287,0.082,0.586,0.146,0.898,0.201c0.414,0.08,0.805,0.184,1.186,0.312c0.377,0.129,0.705,0.299,0.986,0.514
		s0.504,0.482,0.662,0.805c0.164,0.322,0.248,0.717,0.248,1.189c0,0.533-0.109,0.992-0.326,1.367
		c-0.213,0.375-0.498,0.68-0.854,0.914c-0.355,0.236-0.758,0.408-1.209,0.516c-0.453,0.105-0.908,0.16-1.377,0.16
		c-0.803,0-1.502-0.123-2.084-0.373c-0.582-0.246-1.111-0.709-1.58-1.381L161.184,81.398z"/>
</g>
</svg>
