<?xml version="1.0" encoding="utf-8"?>
<!-- Generator: Adobe Illustrator 16.0.0, SVG Export Plug-In . SVG Version: 6.00 Build 0)  -->
<!DOCTYPE svg PUBLIC "-//W3C//DTD SVG 1.1//EN" "http://www.w3.org/Graphics/SVG/1.1/DTD/svg11.dtd">
<svg version="1.1" id="Layer_1" xmlns="http://www.w3.org/2000/svg" xmlns:xlink="http://www.w3.org/1999/xlink" x="0px" y="0px"
	 width="500px" height="200px" viewBox="0 0 500 200" enable-background="new 0 0 500 200" xml:space="preserve">
<path fill="#808285" d="M381.223,175.824c0,2.981-2.417,5.398-5.397,5.398h-60.428c-2.98,0-5.397-2.417-5.397-5.398v-60.427
	c0-2.982,2.417-5.397,5.397-5.397h60.428c2.98,0,5.397,2.417,5.397,5.397V175.824z"/>
<path fill="#FFFFFF" d="M361.26,154.514c-0.005,0-0.005,0-0.011,0c-4.24-0.035-7.668-4.056-7.636-8.963
	c0.016-2.588,1.001-5.037,2.707-6.718c1.402-1.384,3.209-2.124,5.039-2.124c0.565,0.005,1.021,0.467,1.016,1.032
	c-0.004,0.564-0.461,1.018-1.024,1.018c-0.015,0-0.027,0-0.045,0c-1.284,0-2.544,0.544-3.551,1.534
	c-1.316,1.302-2.081,3.224-2.092,5.27c-0.023,3.78,2.492,6.875,5.607,6.901c0.564,0.006,1.019,0.469,1.014,1.035
	C362.282,154.061,361.824,154.514,361.26,154.514z"/>
<path fill="#FFFFFF" d="M355.405,165.77c-0.003,0-0.005,0-0.008,0c-4.635-0.036-8.966-2.19-12.201-6.065
	c-3.192-3.827-4.935-8.879-4.904-14.229c0.031-5.354,1.831-10.379,5.069-14.154c3.252-3.786,7.562-5.869,12.15-5.869
	c0.038,0,0.079,0.001,0.123,0.001c0.567,0.003,1.023,0.466,1.017,1.032c-0.005,0.564-0.464,1.017-1.023,1.017
	c-0.031-0.002-0.076,0-0.113,0c-3.984,0-7.742,1.828-10.598,5.153c-2.921,3.405-4.55,7.963-4.573,12.83
	c-0.029,4.867,1.542,9.45,4.428,12.904c2.842,3.403,6.618,5.297,10.641,5.329c0.566,0.005,1.021,0.467,1.016,1.033
	C356.427,165.316,355.969,165.77,355.405,165.77z"/>
<path fill="#FFFFFF" d="M357.839,160.142c-0.004,0-0.007,0-0.009,0c-6.868-0.055-12.418-6.615-12.372-14.628
	c0.026-4.25,1.634-8.26,4.414-11.002c2.243-2.214,5.102-3.428,8.046-3.428c0.026,0,0.056,0,0.083,0
	c0.566,0.003,1.021,0.467,1.017,1.033c-0.006,0.563-0.46,1.017-1.023,1.017c-0.021,0-0.052,0-0.076,0
	c-2.402,0-4.748,1.007-6.606,2.838c-2.396,2.364-3.781,5.847-3.806,9.556c-0.04,6.886,4.601,12.521,10.339,12.568
	c0.566,0.005,1.022,0.468,1.017,1.031C358.857,159.69,358.398,160.142,357.839,160.142z"/>
<path fill="#FFFFFF" d="M329.962,136.709c0.003,0,0.005,0,0.008,0c4.241,0.034,7.669,4.056,7.643,8.962
	c-0.02,2.588-1.004,5.038-2.707,6.718c-1.406,1.385-3.21,2.124-5.044,2.124c-0.564-0.004-1.018-0.467-1.017-1.033
	c0.006-0.562,0.464-1.018,1.025-1.018c0.017,0,0.029,0,0.046,0c1.286,0,2.543-0.543,3.548-1.533
	c1.322-1.302,2.082-3.224,2.096-5.269c0.024-3.78-2.494-6.877-5.605-6.903c-0.568-0.005-1.021-0.468-1.017-1.033
	C328.942,137.161,329.401,136.709,329.962,136.709z"/>
<path fill="#FFFFFF" d="M335.814,125.454c0.003,0,0.007,0,0.01,0c4.633,0.037,8.965,2.191,12.198,6.065
	c3.195,3.826,4.938,8.88,4.909,14.23c-0.034,5.354-1.832,10.38-5.07,14.152c-3.251,3.788-7.562,5.87-12.151,5.87
	c-0.04,0-0.081-0.002-0.124-0.002c-0.565-0.002-1.022-0.465-1.015-1.031c0.002-0.564,0.46-1.016,1.024-1.016
	c0.028,0.002,0.077,0,0.114,0c3.98,0,7.737-1.826,10.595-5.155c2.922-3.406,4.547-7.962,4.576-12.828
	c0.025-4.868-1.545-9.451-4.427-12.904c-2.846-3.404-6.624-5.296-10.646-5.33c-0.566-0.003-1.019-0.466-1.016-1.033
	C334.797,125.906,335.253,125.454,335.814,125.454z"/>
<path fill="#FFFFFF" d="M333.388,131.081c0.003,0,0.005,0,0.009,0c6.865,0.054,12.416,6.615,12.368,14.628
	c-0.022,4.25-1.632,8.26-4.415,11.003c-2.242,2.212-5.097,3.426-8.045,3.426c-0.026,0-0.057,0-0.085,0
	c-0.566-0.004-1.02-0.469-1.018-1.032c0.008-0.563,0.466-1.017,1.024-1.017c0.026,0,0.056,0,0.078,0c2.406,0,4.75-1.006,6.604-2.839
	c2.395-2.363,3.781-5.847,3.803-9.556c0.04-6.884-4.598-12.521-10.336-12.567c-0.566-0.003-1.021-0.466-1.016-1.033
	C332.364,131.533,332.824,131.081,333.388,131.081z"/>
<path fill="#808285" d="M181.223,175.824c0,2.981-2.417,5.398-5.397,5.398h-60.428c-2.981,0-5.397-2.417-5.397-5.398v-60.427
	c0-2.98,2.417-5.397,5.397-5.397h60.428c2.98,0,5.397,2.417,5.397,5.397V175.824z"/>
<path fill="#FFFFFF" d="M169.103,139.243l3.417-11.544l-21.945-5.266l-4.348,9.919l-7.161,2.051l-20.363-6.735l5.674,11.635v21.748
	l21.658,7.264l0.706,0.236l0,0l0,0l0.704-0.236l21.66-7.264L169.103,139.243L169.103,139.243z M151.395,124.08l19.353,4.644
	l-2.827,9.545l-20.212-5.785L151.395,124.08z M165.979,139.182l-18.535,5.997v-11.303L165.979,139.182z M146.033,133.876v8.334
	l-2.318-6.268l-2.273-0.752L146.033,133.876z M142.628,137.068l2.946,7.962l-19.989-6.468l-4.148-8.504L142.628,137.068z
	 M125.785,160.037V140.11l20.248,6.553v20.166L125.785,160.037z M167.693,160.037l-20.249,6.79v-20.166l20.249-6.552V160.037z"/>
<path fill="#808285" d="M81.222,175.824c0,2.981-2.417,5.398-5.397,5.398H15.397c-2.982,0-5.397-2.417-5.397-5.398v-60.427
	c0-2.982,2.417-5.397,5.397-5.397h60.427c2.982,0,5.397,2.417,5.397,5.397V175.824z"/>
<path fill="#808285" d="M332.809,188.935c-0.245-0.331-0.551-0.581-0.912-0.745c-0.361-0.167-0.741-0.248-1.133-0.248
	c-0.455,0-0.872,0.091-1.255,0.278c-0.385,0.184-0.711,0.436-0.99,0.746c-0.278,0.312-0.49,0.674-0.645,1.087
	c-0.154,0.412-0.231,0.845-0.231,1.288c0,0.479,0.075,0.924,0.231,1.336c0.155,0.412,0.367,0.77,0.643,1.074
	c0.273,0.305,0.6,0.544,0.983,0.724c0.381,0.179,0.802,0.265,1.264,0.265c0.5,0,0.95-0.096,1.34-0.293
	c0.395-0.195,0.739-0.481,1.029-0.85l0.731,0.613c-0.373,0.492-0.816,0.855-1.335,1.087c-0.521,0.231-1.108,0.347-1.766,0.347
	c-0.587,0-1.132-0.108-1.641-0.325c-0.507-0.214-0.95-0.513-1.324-0.897c-0.375-0.382-0.665-0.834-0.877-1.36
	c-0.213-0.522-0.319-1.098-0.319-1.722c0-0.601,0.102-1.162,0.306-1.686c0.205-0.525,0.491-0.98,0.86-1.363
	c0.371-0.386,0.809-0.691,1.318-0.913c0.509-0.225,1.063-0.335,1.674-0.335c0.554,0,1.089,0.099,1.602,0.301
	c0.512,0.2,0.943,0.527,1.291,0.98L332.809,188.935z"/>
<path fill="#808285" d="M334.359,192.726c0-0.424,0.073-0.81,0.22-1.156c0.146-0.349,0.347-0.645,0.6-0.897
	c0.254-0.252,0.559-0.444,0.913-0.587c0.355-0.136,0.742-0.207,1.156-0.207c0.418,0,0.802,0.071,1.158,0.207
	c0.355,0.14,0.659,0.335,0.913,0.587c0.256,0.251,0.455,0.548,0.599,0.897c0.147,0.347,0.223,0.732,0.223,1.156
	c0,0.425-0.077,0.809-0.223,1.157c-0.144,0.347-0.343,0.645-0.599,0.897c-0.254,0.251-0.559,0.442-0.913,0.584
	c-0.354,0.14-0.74,0.21-1.158,0.21c-0.414,0-0.799-0.071-1.156-0.21c-0.354-0.137-0.659-0.333-0.913-0.584
	c-0.253-0.251-0.453-0.548-0.6-0.897C334.432,193.534,334.359,193.15,334.359,192.726z M335.329,192.726
	c0,0.285,0.043,0.55,0.131,0.793c0.088,0.242,0.22,0.456,0.387,0.638c0.168,0.182,0.371,0.322,0.607,0.428
	c0.234,0.104,0.499,0.155,0.791,0.155c0.294,0,0.557-0.052,0.795-0.155c0.233-0.105,0.436-0.246,0.605-0.428
	c0.17-0.18,0.298-0.393,0.386-0.638c0.088-0.243,0.134-0.506,0.134-0.793c0-0.286-0.046-0.549-0.134-0.792
	c-0.088-0.242-0.218-0.455-0.386-0.638c-0.17-0.18-0.372-0.324-0.605-0.428c-0.235-0.104-0.499-0.156-0.795-0.156
	c-0.29,0-0.556,0.052-0.791,0.156c-0.236,0.104-0.438,0.246-0.607,0.428c-0.17,0.18-0.299,0.393-0.387,0.638
	C335.372,192.177,335.329,192.441,335.329,192.726z"/>
<path fill="#808285" d="M281.223,175.824c0,2.981-2.417,5.398-5.397,5.398h-60.428c-2.98,0-5.397-2.417-5.397-5.398v-60.427
	c0-2.98,2.417-5.397,5.397-5.397h60.428c2.98,0,5.397,2.417,5.397,5.397V175.824z"/>
<path fill="#808285" d="M340.854,191.305c0-0.246-0.009-0.479-0.023-0.693c-0.017-0.216-0.024-0.412-0.024-0.589h0.854
	c0,0.144,0.005,0.29,0.014,0.437c0.007,0.146,0.012,0.296,0.012,0.447h0.021c0.064-0.127,0.149-0.258,0.261-0.38
	c0.114-0.123,0.245-0.231,0.399-0.33c0.154-0.1,0.329-0.174,0.52-0.231c0.192-0.061,0.401-0.087,0.625-0.087
	c0.354,0,0.66,0.053,0.919,0.162c0.258,0.107,0.472,0.258,0.642,0.45c0.172,0.192,0.295,0.426,0.377,0.697
	c0.081,0.275,0.122,0.574,0.122,0.897v3.342h-0.899v-3.248c0-0.455-0.1-0.814-0.3-1.074c-0.201-0.263-0.513-0.395-0.938-0.395
	c-0.292,0-0.544,0.051-0.756,0.151c-0.213,0.1-0.385,0.243-0.521,0.428c-0.137,0.184-0.236,0.404-0.302,0.658
	c-0.064,0.255-0.098,0.538-0.098,0.844v2.636h-0.9v-4.125h-0.005V191.305z"/>
<path fill="#FFFFFF" d="M270.645,127.897c0.234-0.245,0.232-0.634-0.014-0.871l-6.438-6.457c-0.238-0.232-0.619-0.229-0.859,0.003
	h-0.021l-38.833,38.832l-3.991,10.336l0.003,0.004c-0.142,0.269-0.116,0.604,0.101,0.842c0.146,0.16,0.346,0.24,0.546,0.24
	c0.104,0,0.204-0.027,0.301-0.071l0.011,0.013l10.309-4.014l0.051-0.023l38.174-38.175c0.016-0.012,0.031-0.017,0.045-0.029
	l0.543-0.557l0.069-0.069v-0.003L270.645,127.897L270.645,127.897z M222.554,168.83l-0.158-0.16l3.073-8.26l5.35,5.318
	L222.554,168.83z"/>
<path fill="#FFFFFF" d="M36.429,142.771h-1.033c-0.677,0-1.181-0.107-1.508-0.322c-0.327-0.214-0.491-0.541-0.491-0.975
	c0-0.445,0.166-0.777,0.495-0.996c0.331-0.217,0.832-0.325,1.504-0.325h4.887c0.667,0,1.166,0.108,1.499,0.325
	c0.333,0.219,0.5,0.55,0.5,0.996c0,0.436-0.166,0.76-0.497,0.975c-0.33,0.214-0.831,0.322-1.502,0.322h-1.041v7.877
	c0,0.672-0.117,1.17-0.349,1.499c-0.231,0.328-0.584,0.491-1.058,0.491c-0.476,0-0.828-0.164-1.059-0.491
	c-0.23-0.327-0.347-0.827-0.347-1.499L36.429,142.771L36.429,142.771z"/>
<path fill="#808285" d="M349.676,190.784h-1.597v2.704c0,0.178,0.004,0.341,0.013,0.49c0.008,0.152,0.037,0.282,0.093,0.392
	c0.054,0.112,0.135,0.2,0.242,0.267c0.107,0.067,0.261,0.098,0.463,0.098c0.13,0,0.266-0.015,0.403-0.046
	c0.139-0.03,0.27-0.076,0.393-0.136l0.034,0.819c-0.154,0.07-0.326,0.12-0.516,0.151c-0.188,0.027-0.368,0.046-0.538,0.046
	c-0.324,0-0.582-0.043-0.773-0.129c-0.192-0.086-0.343-0.205-0.45-0.359c-0.108-0.154-0.181-0.345-0.215-0.572
	c-0.035-0.229-0.053-0.481-0.053-0.756v-2.971h-1.179v-0.763h1.179v-1.537h0.9v1.537h1.596v0.763h0.005V190.784z"/>
<path fill="#FFFFFF" d="M42.299,150.334l1.508-8.409c0.125-0.694,0.334-1.191,0.632-1.487c0.295-0.296,0.72-0.445,1.274-0.445
	c0.526,0,0.949,0.139,1.271,0.417c0.322,0.276,0.554,0.693,0.695,1.253l1.871,7.369l1.753-7.385c0.129-0.548,0.355-0.96,0.677-1.236
	c0.322-0.278,0.738-0.416,1.245-0.416c0.581,0,1.027,0.157,1.339,0.47c0.31,0.313,0.524,0.835,0.642,1.563l1.373,8.487
	c0.022,0.125,0.039,0.244,0.05,0.36c0.011,0.116,0.017,0.219,0.017,0.308c0,0.451-0.129,0.811-0.39,1.076s-0.604,0.398-1.033,0.398
	c-0.395,0-0.708-0.136-0.94-0.407c-0.231-0.271-0.381-0.683-0.449-1.236l-0.89-7.369c-0.683,2.948-1.189,5.031-1.52,6.25
	c-0.331,1.219-0.586,1.973-0.768,2.262c-0.112,0.18-0.26,0.308-0.444,0.385c-0.184,0.076-0.428,0.113-0.732,0.113
	c-0.474,0-0.835-0.106-1.084-0.322c-0.248-0.215-0.437-0.578-0.568-1.092l-1.82-7.598l-0.966,7.19
	c-0.09,0.639-0.254,1.102-0.491,1.389c-0.237,0.288-0.565,0.433-0.982,0.433c-0.412,0-0.744-0.133-0.996-0.397
	c-0.252-0.266-0.376-0.624-0.376-1.075c0-0.107,0.009-0.232,0.026-0.377C42.238,150.659,42.264,150.503,42.299,150.334z"/>
<path fill="#FFFFFF" d="M45.611,163.109c-9.716,0-17.619-7.904-17.619-17.618c0-9.714,7.903-17.617,17.619-17.617
	c9.714,0,17.618,7.903,17.618,17.617C63.229,155.205,55.326,163.109,45.611,163.109z M45.611,130.947
	c-8.02,0-14.544,6.525-14.544,14.544c0,8.02,6.525,14.544,14.544,14.544c8.019,0,14.544-6.524,14.544-14.544
	C60.156,137.472,53.632,130.947,45.611,130.947z"/>
<path fill="#808285" d="M350.368,190.714c0.277-0.284,0.604-0.495,0.989-0.631c0.382-0.133,0.769-0.203,1.161-0.203
	c0.8,0,1.377,0.19,1.733,0.569c0.353,0.377,0.531,0.95,0.531,1.722v2.324c0,0.153,0.009,0.315,0.025,0.481
	c0.016,0.166,0.033,0.318,0.058,0.455H354c-0.03-0.124-0.048-0.26-0.053-0.412c-0.004-0.146-0.007-0.281-0.007-0.396h-0.023
	c-0.179,0.28-0.416,0.502-0.711,0.682c-0.297,0.18-0.653,0.269-1.068,0.269c-0.28,0-0.538-0.036-0.78-0.104
	c-0.242-0.072-0.455-0.174-0.637-0.307c-0.181-0.135-0.327-0.303-0.436-0.503s-0.161-0.434-0.161-0.694
	c0-0.445,0.115-0.798,0.347-1.053c0.231-0.253,0.519-0.441,0.859-0.566c0.341-0.124,0.713-0.199,1.108-0.232
	c0.396-0.027,0.762-0.045,1.094-0.045h0.346v-0.162c0-0.392-0.118-0.693-0.353-0.891c-0.232-0.201-0.565-0.301-0.988-0.301
	c-0.291,0-0.58,0.048-0.861,0.145c-0.28,0.094-0.53,0.243-0.744,0.443L350.368,190.714z M352.98,192.829
	c-0.579,0-1.037,0.08-1.374,0.244c-0.34,0.161-0.509,0.428-0.509,0.796c0,0.339,0.113,0.58,0.337,0.722
	c0.23,0.144,0.511,0.215,0.851,0.215c0.262,0,0.492-0.044,0.688-0.13c0.197-0.09,0.361-0.208,0.491-0.354
	c0.129-0.146,0.231-0.318,0.301-0.515s0.108-0.405,0.116-0.63v-0.347h-0.9V192.829z"/>
<path fill="#808285" d="M359.697,191.372c-0.191-0.232-0.401-0.397-0.624-0.502c-0.225-0.104-0.47-0.156-0.741-0.156
	c-0.3,0-0.565,0.052-0.797,0.156s-0.423,0.249-0.574,0.435c-0.149,0.184-0.264,0.398-0.338,0.643
	c-0.076,0.241-0.117,0.502-0.117,0.781s0.044,0.54,0.132,0.779c0.088,0.243,0.213,0.457,0.371,0.643
	c0.157,0.183,0.347,0.33,0.572,0.435c0.223,0.104,0.473,0.155,0.75,0.155c0.592,0,1.052-0.223,1.375-0.67l0.67,0.639
	c-0.263,0.299-0.571,0.519-0.926,0.655c-0.354,0.14-0.728,0.21-1.119,0.21c-0.418,0-0.797-0.07-1.146-0.21
	c-0.346-0.137-0.643-0.333-0.885-0.589c-0.243-0.254-0.433-0.555-0.565-0.9c-0.136-0.347-0.203-0.729-0.203-1.146
	c0-0.408,0.067-0.789,0.203-1.134c0.133-0.346,0.325-0.646,0.57-0.898c0.247-0.256,0.543-0.453,0.885-0.596
	c0.344-0.142,0.723-0.214,1.141-0.214c0.399,0,0.781,0.069,1.139,0.207c0.359,0.14,0.672,0.354,0.942,0.646L359.697,191.372z"/>
<path fill="#808285" d="M364.576,190.784h-1.597v2.704c0,0.178,0.005,0.341,0.014,0.49c0.007,0.152,0.037,0.282,0.091,0.392
	c0.055,0.11,0.135,0.2,0.242,0.267c0.108,0.067,0.263,0.098,0.463,0.098c0.13,0,0.267-0.015,0.403-0.046
	c0.139-0.03,0.271-0.076,0.392-0.136l0.035,0.819c-0.154,0.07-0.326,0.12-0.515,0.151c-0.188,0.027-0.368,0.046-0.538,0.046
	c-0.323,0-0.583-0.043-0.776-0.129c-0.19-0.086-0.341-0.205-0.448-0.359c-0.106-0.154-0.181-0.345-0.214-0.572
	c-0.035-0.229-0.054-0.481-0.054-0.756v-2.971h-1.177v-0.763h1.177v-1.537h0.9v1.537h1.597v0.763h0.005V190.784z"/>
<path fill="#808285" d="M124.694,187.246h2.428c0.378,0,0.74,0.036,1.081,0.111c0.343,0.074,0.647,0.195,0.913,0.371
	c0.266,0.174,0.479,0.402,0.636,0.694c0.159,0.287,0.237,0.645,0.237,1.067c0,0.446-0.085,0.816-0.255,1.108
	c-0.17,0.294-0.387,0.525-0.652,0.693c-0.266,0.171-0.557,0.287-0.872,0.358c-0.317,0.07-0.617,0.104-0.9,0.104h-1.642v3.675h-0.971
	L124.694,187.246L124.694,187.246z M125.665,190.852h1.643c0.485,0,0.879-0.108,1.184-0.33c0.304-0.22,0.456-0.561,0.456-1.023
	s-0.151-0.801-0.456-1.021c-0.305-0.223-0.699-0.332-1.184-0.332h-1.643V190.852z"/>
<path fill="#808285" d="M130.669,191.305c0-0.246-0.007-0.479-0.023-0.693c-0.017-0.216-0.024-0.412-0.024-0.589h0.854
	c0,0.144,0.004,0.29,0.012,0.437s0.011,0.296,0.011,0.447h0.025c0.062-0.127,0.147-0.258,0.26-0.38
	c0.112-0.123,0.243-0.231,0.397-0.33c0.154-0.1,0.329-0.174,0.522-0.231c0.19-0.061,0.398-0.087,0.624-0.087
	c0.062,0,0.124,0.005,0.183,0.012c0.064,0.008,0.125,0.024,0.184,0.046l-0.058,0.913c-0.154-0.046-0.315-0.071-0.487-0.071
	c-0.553,0-0.957,0.18-1.207,0.539s-0.377,0.848-0.377,1.475v2.636h-0.901v-4.125h0.003V191.305z"/>
<path fill="#808285" d="M133.92,192.726c0-0.424,0.074-0.81,0.221-1.156c0.145-0.347,0.346-0.645,0.599-0.897
	c0.255-0.252,0.559-0.444,0.914-0.587c0.354-0.138,0.741-0.207,1.158-0.207s0.8,0.071,1.157,0.207
	c0.355,0.14,0.659,0.335,0.913,0.587c0.254,0.252,0.454,0.548,0.6,0.897c0.146,0.347,0.22,0.732,0.22,1.156
	c0,0.425-0.075,0.809-0.22,1.157c-0.146,0.347-0.346,0.645-0.6,0.897c-0.254,0.253-0.559,0.442-0.913,0.584
	c-0.354,0.14-0.74,0.21-1.157,0.21s-0.801-0.071-1.158-0.21c-0.354-0.137-0.658-0.333-0.914-0.584
	c-0.253-0.251-0.454-0.548-0.599-0.897C133.991,193.534,133.92,193.15,133.92,192.726z M134.891,192.726
	c0,0.285,0.042,0.55,0.131,0.793c0.088,0.242,0.218,0.456,0.386,0.638c0.168,0.182,0.372,0.322,0.606,0.428
	c0.235,0.104,0.499,0.155,0.792,0.155c0.293,0,0.556-0.052,0.794-0.155c0.235-0.105,0.438-0.246,0.606-0.428
	c0.169-0.18,0.298-0.393,0.387-0.638c0.086-0.242,0.131-0.506,0.131-0.793c0-0.286-0.045-0.549-0.131-0.792
	c-0.088-0.242-0.219-0.455-0.387-0.638c-0.169-0.18-0.371-0.324-0.606-0.428c-0.235-0.104-0.5-0.156-0.794-0.156
	c-0.292,0-0.555,0.052-0.792,0.156c-0.234,0.104-0.436,0.246-0.606,0.428c-0.17,0.18-0.298,0.393-0.386,0.638
	C134.933,192.177,134.891,192.441,134.891,192.726z"/>
<path fill="#808285" d="M145.213,194.472h-0.025c-0.17,0.309-0.438,0.567-0.801,0.779c-0.366,0.212-0.794,0.318-1.278,0.318
	c-0.377,0-0.731-0.071-1.062-0.213c-0.333-0.144-0.62-0.342-0.86-0.597c-0.244-0.253-0.435-0.552-0.574-0.898
	c-0.137-0.345-0.207-0.725-0.207-1.133s0.07-0.788,0.207-1.134c0.139-0.346,0.333-0.645,0.58-0.9
	c0.245-0.253,0.542-0.453,0.895-0.594c0.352-0.142,0.741-0.216,1.163-0.216c0.392,0,0.753,0.082,1.081,0.243
	c0.328,0.162,0.614,0.389,0.86,0.683h0.024v-4.116h0.901v8.74h-0.901L145.213,194.472L145.213,194.472z M145.213,192.726
	c0-0.284-0.044-0.549-0.133-0.792c-0.086-0.242-0.218-0.455-0.385-0.638c-0.169-0.18-0.373-0.324-0.607-0.428
	c-0.232-0.104-0.498-0.156-0.792-0.156s-0.557,0.052-0.792,0.156c-0.235,0.104-0.437,0.246-0.606,0.428
	c-0.172,0.182-0.299,0.393-0.387,0.638c-0.088,0.243-0.132,0.506-0.132,0.792c0,0.287,0.044,0.55,0.132,0.793
	c0.088,0.242,0.218,0.456,0.387,0.638c0.167,0.182,0.371,0.322,0.606,0.428c0.233,0.104,0.498,0.155,0.792,0.155
	c0.292,0,0.556-0.052,0.792-0.155c0.235-0.105,0.438-0.246,0.607-0.428s0.299-0.393,0.385-0.638
	C145.168,193.275,145.213,193.011,145.213,192.726z"/>
<path fill="#808285" d="M151.802,194.147c0,0.246,0.007,0.479,0.025,0.693c0.015,0.215,0.023,0.412,0.023,0.589h-0.853
	c0-0.144-0.005-0.29-0.013-0.438c-0.008-0.146-0.012-0.295-0.012-0.449h-0.024c-0.064,0.13-0.148,0.26-0.26,0.383
	c-0.112,0.123-0.245,0.231-0.397,0.329c-0.154,0.097-0.328,0.175-0.521,0.232c-0.193,0.057-0.401,0.087-0.624,0.087
	c-0.357,0-0.663-0.056-0.921-0.164c-0.258-0.108-0.472-0.258-0.643-0.448c-0.169-0.192-0.292-0.429-0.375-0.7
	c-0.082-0.273-0.123-0.572-0.123-0.895v-3.343h0.9v3.248c0,0.456,0.1,0.814,0.301,1.075c0.2,0.263,0.512,0.392,0.936,0.392
	c0.293,0,0.544-0.05,0.757-0.149c0.212-0.098,0.384-0.242,0.521-0.428c0.133-0.184,0.235-0.405,0.301-0.659
	c0.065-0.254,0.098-0.538,0.098-0.847v-2.634h0.9v4.125H151.802L151.802,194.147z"/>
<path fill="#808285" d="M156.623,191.372c-0.192-0.232-0.401-0.397-0.625-0.502c-0.225-0.104-0.47-0.156-0.741-0.156
	c-0.301,0-0.567,0.052-0.797,0.156c-0.231,0.104-0.423,0.249-0.573,0.435c-0.15,0.184-0.265,0.398-0.339,0.643
	c-0.076,0.241-0.117,0.502-0.117,0.781s0.043,0.54,0.131,0.779c0.088,0.243,0.212,0.457,0.371,0.643
	c0.158,0.183,0.346,0.33,0.572,0.435c0.223,0.104,0.474,0.155,0.75,0.155c0.593,0,1.054-0.223,1.376-0.67l0.67,0.639
	c-0.263,0.299-0.57,0.519-0.925,0.655c-0.354,0.14-0.728,0.21-1.121,0.21c-0.417,0-0.796-0.07-1.145-0.21
	c-0.347-0.137-0.642-0.333-0.884-0.589c-0.244-0.254-0.434-0.555-0.566-0.9c-0.135-0.347-0.202-0.729-0.202-1.146
	c0-0.408,0.067-0.789,0.202-1.134c0.133-0.346,0.325-0.646,0.572-0.898c0.246-0.256,0.541-0.453,0.886-0.596
	c0.341-0.142,0.72-0.214,1.137-0.214c0.4,0,0.782,0.069,1.141,0.207c0.356,0.14,0.672,0.354,0.942,0.646L156.623,191.372z"/>
<path fill="#808285" d="M161.534,190.784h-1.595v2.704c0,0.178,0.004,0.341,0.012,0.49c0.007,0.152,0.039,0.282,0.092,0.392
	c0.053,0.112,0.134,0.2,0.242,0.267c0.108,0.067,0.263,0.098,0.462,0.098c0.13,0,0.266-0.015,0.404-0.046
	c0.139-0.03,0.271-0.076,0.393-0.136l0.034,0.819c-0.154,0.07-0.326,0.12-0.516,0.151c-0.187,0.027-0.369,0.046-0.537,0.046
	c-0.324,0-0.582-0.043-0.775-0.129c-0.191-0.086-0.343-0.205-0.449-0.359c-0.11-0.154-0.18-0.345-0.216-0.572
	c-0.036-0.229-0.052-0.481-0.052-0.756v-2.971h-1.18v-0.763h1.18v-1.537h0.901v1.537h1.595v0.763h0.004V190.784z"/>
<path fill="#808285" d="M162.98,194.009c0.177,0.224,0.371,0.401,0.583,0.531c0.212,0.132,0.479,0.196,0.802,0.196
	c0.139,0,0.281-0.014,0.423-0.045c0.144-0.03,0.272-0.081,0.386-0.151c0.117-0.068,0.207-0.154,0.279-0.26
	c0.07-0.104,0.104-0.229,0.104-0.376c0-0.146-0.032-0.265-0.098-0.357c-0.067-0.093-0.153-0.173-0.26-0.237
	c-0.108-0.065-0.232-0.117-0.37-0.154c-0.139-0.039-0.283-0.075-0.429-0.106c-0.255-0.053-0.496-0.114-0.73-0.182
	c-0.23-0.071-0.433-0.163-0.604-0.273c-0.175-0.111-0.313-0.256-0.417-0.434c-0.104-0.179-0.157-0.405-0.157-0.683
	c0-0.263,0.058-0.494,0.175-0.693c0.117-0.2,0.27-0.366,0.462-0.497c0.192-0.129,0.407-0.231,0.646-0.301
	c0.238-0.07,0.487-0.104,0.742-0.104c0.384,0,0.741,0.077,1.066,0.232c0.329,0.155,0.586,0.404,0.769,0.752l-0.749,0.495
	c-0.115-0.193-0.27-0.35-0.457-0.468c-0.189-0.12-0.418-0.18-0.689-0.18c-0.125,0-0.247,0.016-0.377,0.047
	c-0.128,0.029-0.24,0.077-0.34,0.138c-0.099,0.061-0.182,0.14-0.247,0.236c-0.067,0.097-0.099,0.206-0.099,0.33
	c0,0.117,0.034,0.212,0.109,0.294c0.075,0.081,0.173,0.151,0.301,0.215c0.128,0.06,0.273,0.115,0.438,0.161
	c0.167,0.046,0.336,0.084,0.513,0.117c0.24,0.044,0.467,0.105,0.683,0.179c0.217,0.075,0.403,0.174,0.569,0.296
	c0.161,0.124,0.285,0.278,0.38,0.462c0.093,0.183,0.139,0.412,0.139,0.684c0,0.309-0.062,0.571-0.185,0.785
	c-0.124,0.217-0.285,0.391-0.49,0.528c-0.205,0.135-0.436,0.231-0.694,0.294c-0.258,0.062-0.521,0.091-0.792,0.091
	c-0.463,0-0.861-0.072-1.199-0.214c-0.334-0.143-0.638-0.405-0.905-0.793L162.98,194.009z"/>
<path fill="#808285" d="M32.403,194.875c-0.47,0.263-0.964,0.456-1.485,0.579c-0.52,0.122-1.046,0.186-1.577,0.186
	c-0.64,0-1.225-0.106-1.758-0.313c-0.532-0.207-0.993-0.5-1.381-0.88c-0.39-0.378-0.693-0.829-0.908-1.358
	c-0.214-0.528-0.323-1.111-0.323-1.752c0-0.646,0.114-1.235,0.341-1.765c0.227-0.527,0.541-0.978,0.942-1.352
	c0.4-0.376,0.867-0.665,1.399-0.874c0.532-0.208,1.105-0.312,1.723-0.312c0.54,0,1.057,0.08,1.555,0.242
	c0.497,0.162,0.943,0.438,1.335,0.832l-0.728,0.764c-0.279-0.302-0.616-0.534-1.012-0.693c-0.396-0.161-0.803-0.242-1.219-0.242
	c-0.47,0-0.905,0.083-1.307,0.255c-0.4,0.168-0.75,0.402-1.047,0.703c-0.296,0.3-0.528,0.659-0.693,1.075
	c-0.167,0.416-0.249,0.871-0.249,1.362c0,0.488,0.083,0.938,0.249,1.353c0.166,0.416,0.396,0.777,0.693,1.081
	c0.296,0.305,0.653,0.541,1.07,0.711c0.416,0.172,0.875,0.254,1.376,0.254c0.332,0,0.677-0.039,1.04-0.123
	c0.363-0.079,0.693-0.197,0.995-0.352v-2.507h-1.884v-0.9h2.855v4.024h-0.002V194.875z"/>
<path fill="#808285" d="M33.571,191.305c0-0.246-0.007-0.479-0.023-0.693c-0.016-0.216-0.023-0.412-0.023-0.589h0.855
	c0,0.144,0.003,0.29,0.013,0.437c0.007,0.146,0.011,0.296,0.011,0.447h0.023c0.062-0.127,0.148-0.258,0.26-0.38
	c0.113-0.123,0.245-0.231,0.399-0.33c0.154-0.1,0.328-0.174,0.521-0.231c0.193-0.061,0.4-0.087,0.624-0.087
	c0.062,0,0.124,0.005,0.186,0.012c0.062,0.008,0.123,0.024,0.184,0.046l-0.058,0.913c-0.154-0.046-0.316-0.071-0.486-0.071
	c-0.554,0-0.958,0.18-1.208,0.539c-0.25,0.359-0.376,0.848-0.376,1.475v2.636h-0.901v-4.125h0.002V191.305z"/>
<path fill="#808285" d="M37.167,190.714c0.278-0.284,0.607-0.495,0.989-0.631c0.381-0.133,0.769-0.203,1.161-0.203
	c0.801,0,1.379,0.19,1.733,0.569c0.354,0.377,0.532,0.95,0.532,1.722v2.324c0,0.153,0.008,0.315,0.024,0.481
	c0.015,0.166,0.033,0.318,0.058,0.455h-0.868c-0.031-0.124-0.048-0.26-0.052-0.412c-0.003-0.146-0.006-0.281-0.006-0.396h-0.024
	c-0.177,0.28-0.414,0.502-0.71,0.682c-0.297,0.18-0.652,0.269-1.069,0.269c-0.278,0-0.538-0.036-0.78-0.104
	c-0.243-0.072-0.455-0.174-0.637-0.307c-0.181-0.135-0.325-0.303-0.434-0.503c-0.109-0.2-0.162-0.434-0.162-0.694
	c0-0.445,0.116-0.798,0.347-1.053c0.23-0.253,0.518-0.441,0.859-0.566c0.343-0.124,0.713-0.199,1.109-0.232
	c0.398-0.027,0.762-0.045,1.094-0.045h0.346v-0.162c0-0.392-0.118-0.693-0.353-0.891c-0.235-0.201-0.563-0.301-0.988-0.301
	c-0.292,0-0.58,0.048-0.861,0.145c-0.281,0.094-0.531,0.243-0.745,0.443L37.167,190.714z M39.779,192.829
	c-0.578,0-1.037,0.08-1.375,0.244c-0.339,0.161-0.508,0.428-0.508,0.796c0,0.339,0.114,0.58,0.34,0.722
	c0.227,0.144,0.51,0.215,0.849,0.215c0.262,0,0.491-0.044,0.688-0.13c0.196-0.09,0.36-0.208,0.491-0.354
	c0.129-0.146,0.232-0.318,0.3-0.515c0.07-0.196,0.108-0.405,0.116-0.63v-0.347h-0.901V192.829z"/>
<path fill="#808285" d="M42.575,190.022h0.902v0.785H43.5c0.247-0.291,0.534-0.521,0.861-0.682c0.327-0.161,0.688-0.243,1.081-0.243
	c0.424,0,0.811,0.073,1.161,0.216c0.351,0.141,0.648,0.338,0.897,0.594c0.245,0.253,0.438,0.554,0.578,0.899
	c0.139,0.347,0.208,0.726,0.208,1.134c0,0.409-0.069,0.786-0.208,1.133c-0.139,0.347-0.331,0.646-0.572,0.901
	c-0.243,0.255-0.531,0.453-0.861,0.594c-0.332,0.143-0.688,0.216-1.064,0.216c-0.486,0-0.91-0.106-1.277-0.32
	c-0.366-0.212-0.634-0.472-0.803-0.779h-0.023v3.595h-0.902L42.575,190.022L42.575,190.022z M43.478,192.726
	c0,0.285,0.044,0.55,0.132,0.793c0.089,0.242,0.219,0.456,0.388,0.638c0.169,0.18,0.372,0.322,0.606,0.428
	c0.234,0.104,0.498,0.155,0.793,0.155c0.292,0,0.557-0.052,0.792-0.155c0.234-0.105,0.437-0.246,0.606-0.428
	c0.169-0.18,0.298-0.393,0.386-0.638c0.088-0.242,0.133-0.506,0.133-0.793c0-0.286-0.045-0.549-0.133-0.792
	c-0.088-0.242-0.218-0.455-0.386-0.638c-0.17-0.18-0.372-0.324-0.606-0.428c-0.234-0.104-0.499-0.156-0.792-0.156
	c-0.293,0-0.558,0.052-0.793,0.156c-0.234,0.104-0.437,0.246-0.606,0.428c-0.17,0.18-0.298,0.393-0.388,0.638
	C43.522,192.177,43.478,192.441,43.478,192.726z"/>
<path fill="#808285" d="M49.026,186.689h0.902v4.082h0.023c0.062-0.107,0.146-0.213,0.254-0.317
	c0.107-0.104,0.237-0.198,0.386-0.282c0.151-0.084,0.318-0.154,0.504-0.207c0.184-0.057,0.38-0.082,0.589-0.082
	c0.354,0,0.661,0.054,0.919,0.162c0.258,0.107,0.473,0.258,0.642,0.45c0.17,0.192,0.295,0.426,0.376,0.697
	c0.08,0.275,0.122,0.574,0.122,0.897v3.342h-0.9v-3.248c0-0.455-0.101-0.814-0.301-1.074c-0.2-0.263-0.512-0.395-0.937-0.395
	c-0.292,0-0.545,0.051-0.757,0.151c-0.212,0.1-0.385,0.243-0.52,0.427c-0.134,0.186-0.235,0.405-0.301,0.659
	c-0.065,0.255-0.097,0.538-0.097,0.844v2.636h-0.902v-8.742H49.026L49.026,186.689z"/>
<path fill="#808285" d="M54.737,187.905c0-0.177,0.064-0.331,0.191-0.463c0.127-0.131,0.282-0.196,0.467-0.196
	s0.34,0.065,0.469,0.196c0.127,0.132,0.19,0.286,0.19,0.463c0,0.193-0.062,0.351-0.185,0.474c-0.124,0.127-0.282,0.186-0.475,0.186
	s-0.351-0.062-0.473-0.186C54.799,188.256,54.737,188.099,54.737,187.905z M54.945,190.022h0.901v5.409h-0.901V190.022z"/>
<path fill="#808285" d="M60.748,191.372c-0.192-0.232-0.399-0.397-0.624-0.502c-0.224-0.104-0.47-0.156-0.741-0.156
	c-0.3,0-0.566,0.052-0.797,0.156c-0.232,0.104-0.422,0.249-0.572,0.435c-0.15,0.184-0.264,0.398-0.34,0.643
	c-0.077,0.241-0.116,0.502-0.116,0.781s0.044,0.54,0.133,0.779c0.088,0.243,0.212,0.457,0.371,0.643
	c0.158,0.183,0.348,0.33,0.572,0.435c0.224,0.104,0.474,0.155,0.75,0.155c0.593,0,1.053-0.223,1.376-0.67l0.67,0.639
	c-0.262,0.299-0.57,0.519-0.924,0.655c-0.354,0.14-0.729,0.21-1.122,0.21c-0.416,0-0.797-0.07-1.145-0.21
	c-0.347-0.137-0.642-0.333-0.885-0.589c-0.242-0.254-0.432-0.555-0.566-0.9c-0.134-0.347-0.202-0.729-0.202-1.146
	c0-0.408,0.068-0.789,0.202-1.134c0.134-0.346,0.326-0.646,0.572-0.898c0.247-0.256,0.541-0.453,0.885-0.596
	c0.344-0.142,0.723-0.214,1.138-0.214c0.401,0,0.781,0.069,1.139,0.207c0.359,0.14,0.673,0.354,0.943,0.646L60.748,191.372z"/>
<path fill="#808285" d="M62.702,194.009c0.178,0.224,0.373,0.401,0.585,0.531c0.212,0.132,0.48,0.196,0.803,0.196
	c0.139,0,0.279-0.014,0.422-0.045c0.142-0.03,0.271-0.081,0.386-0.151c0.116-0.068,0.208-0.154,0.279-0.26
	c0.069-0.104,0.104-0.229,0.104-0.376c0-0.146-0.032-0.265-0.099-0.357c-0.065-0.093-0.152-0.173-0.26-0.237
	c-0.108-0.065-0.23-0.117-0.371-0.154c-0.138-0.039-0.281-0.075-0.428-0.106c-0.254-0.053-0.496-0.114-0.728-0.182
	c-0.232-0.071-0.435-0.163-0.606-0.273c-0.174-0.111-0.312-0.256-0.416-0.434c-0.104-0.179-0.157-0.405-0.157-0.683
	c0-0.263,0.059-0.494,0.174-0.693c0.116-0.2,0.271-0.366,0.462-0.497c0.193-0.129,0.409-0.231,0.646-0.301
	c0.239-0.07,0.486-0.104,0.74-0.104c0.385,0,0.743,0.077,1.07,0.232s0.583,0.404,0.769,0.752l-0.752,0.495
	c-0.116-0.193-0.268-0.35-0.456-0.468c-0.189-0.12-0.418-0.18-0.688-0.18c-0.124,0-0.248,0.016-0.375,0.047
	c-0.128,0.029-0.24,0.077-0.341,0.138c-0.1,0.061-0.183,0.14-0.249,0.236c-0.065,0.097-0.097,0.206-0.097,0.33
	c0,0.117,0.036,0.212,0.11,0.294c0.074,0.081,0.174,0.151,0.299,0.215c0.128,0.06,0.274,0.115,0.44,0.161
	c0.165,0.046,0.337,0.084,0.515,0.117c0.238,0.044,0.466,0.105,0.682,0.179c0.216,0.075,0.405,0.174,0.566,0.296
	c0.162,0.121,0.289,0.278,0.382,0.462c0.092,0.183,0.138,0.412,0.138,0.684c0,0.309-0.062,0.571-0.185,0.785
	c-0.124,0.217-0.286,0.391-0.49,0.528c-0.205,0.135-0.437,0.231-0.693,0.294c-0.259,0.062-0.523,0.091-0.792,0.091
	c-0.463,0-0.861-0.072-1.196-0.214c-0.336-0.143-0.639-0.405-0.909-0.793L62.702,194.009z"/>
<path fill="#808285" d="M223.809,187.246h3.145c0.271,0,0.556,0.03,0.855,0.093c0.3,0.062,0.598,0.16,0.895,0.294
	c0.298,0.134,0.585,0.312,0.855,0.527c0.272,0.217,0.515,0.477,0.722,0.78c0.209,0.304,0.374,0.654,0.498,1.055
	c0.123,0.394,0.183,0.847,0.183,1.346c0,0.501-0.062,0.951-0.183,1.349c-0.125,0.396-0.289,0.746-0.498,1.052
	c-0.207,0.306-0.449,0.565-0.722,0.781s-0.559,0.392-0.855,0.526c-0.296,0.136-0.594,0.231-0.895,0.294
	c-0.302,0.062-0.588,0.092-0.855,0.092h-3.145V187.246z M224.78,194.529h1.851c0.47,0,0.906-0.062,1.307-0.184
	c0.401-0.123,0.748-0.313,1.042-0.574c0.29-0.258,0.522-0.588,0.692-0.987c0.17-0.4,0.256-0.884,0.256-1.446
	c0-0.562-0.086-1.043-0.256-1.444c-0.168-0.4-0.401-0.731-0.692-0.989c-0.293-0.258-0.643-0.448-1.042-0.571
	c-0.399-0.126-0.837-0.186-1.307-0.186h-1.851V194.529z"/>
<path fill="#808285" d="M231.843,191.305c0-0.246-0.007-0.479-0.022-0.693c-0.016-0.216-0.024-0.412-0.024-0.589h0.854
	c0,0.144,0.004,0.29,0.012,0.437c0.009,0.146,0.011,0.296,0.011,0.447h0.025c0.062-0.127,0.148-0.258,0.261-0.38
	c0.11-0.123,0.244-0.231,0.398-0.33c0.154-0.1,0.328-0.174,0.52-0.231c0.192-0.061,0.4-0.087,0.624-0.087
	c0.062,0,0.123,0.005,0.186,0.012c0.062,0.008,0.123,0.024,0.184,0.046l-0.059,0.913c-0.154-0.046-0.315-0.071-0.485-0.071
	c-0.556,0-0.958,0.18-1.208,0.539c-0.251,0.359-0.376,0.848-0.376,1.475v2.636h-0.902v-4.125h0.003V191.305z"/>
<path fill="#808285" d="M235.438,190.714c0.278-0.284,0.607-0.495,0.988-0.631c0.383-0.133,0.769-0.203,1.161-0.203
	c0.803,0,1.38,0.19,1.734,0.569c0.354,0.377,0.532,0.95,0.532,1.722v2.324c0,0.153,0.008,0.315,0.023,0.481s0.035,0.318,0.06,0.455
	h-0.868c-0.029-0.124-0.048-0.26-0.052-0.412c-0.003-0.146-0.005-0.281-0.005-0.396h-0.025c-0.177,0.28-0.414,0.502-0.709,0.682
	c-0.297,0.18-0.652,0.269-1.07,0.269c-0.278,0-0.538-0.036-0.778-0.104c-0.243-0.072-0.455-0.174-0.639-0.307
	c-0.181-0.135-0.325-0.303-0.433-0.503c-0.108-0.2-0.161-0.434-0.161-0.694c0-0.445,0.116-0.798,0.346-1.053
	c0.231-0.253,0.519-0.441,0.86-0.566c0.344-0.124,0.713-0.199,1.108-0.232c0.396-0.027,0.761-0.045,1.094-0.045h0.348v-0.162
	c0-0.392-0.119-0.693-0.354-0.891c-0.234-0.201-0.564-0.301-0.99-0.301c-0.292,0-0.579,0.048-0.859,0.145
	c-0.282,0.094-0.531,0.243-0.745,0.443L235.438,190.714z M238.051,192.829c-0.579,0-1.036,0.08-1.376,0.244
	c-0.339,0.161-0.509,0.428-0.509,0.796c0,0.339,0.114,0.58,0.341,0.722c0.228,0.144,0.511,0.215,0.85,0.215
	c0.26,0,0.489-0.044,0.688-0.13c0.197-0.09,0.36-0.208,0.491-0.354c0.13-0.146,0.231-0.318,0.3-0.515
	c0.071-0.196,0.108-0.405,0.116-0.63v-0.347h-0.9V192.829z"/>
<path fill="#808285" d="M246.732,195.43h-0.89l-1.539-4.161h-0.024l-1.361,4.161h-0.926l-1.756-5.41h0.993l1.236,4.162h0.023
	l1.4-4.162h0.947l1.422,4.162h0.024l1.225-4.162h0.972L246.732,195.43z"/>
<path fill="#808285" d="M248.974,187.905c0-0.177,0.064-0.331,0.191-0.463c0.128-0.131,0.283-0.196,0.467-0.196
	c0.185,0,0.34,0.065,0.468,0.196c0.129,0.132,0.19,0.286,0.19,0.463c0,0.193-0.062,0.351-0.182,0.474
	c-0.127,0.127-0.283,0.186-0.477,0.186c-0.191,0-0.351-0.062-0.475-0.186C249.037,188.256,248.974,188.099,248.974,187.905z
	 M249.183,190.022h0.9v5.409h-0.9V190.022z"/>
<path fill="#808285" d="M251.183,191.305c0-0.246-0.011-0.479-0.025-0.693c-0.016-0.216-0.023-0.412-0.023-0.589h0.853
	c0,0.144,0.006,0.29,0.014,0.437s0.013,0.296,0.013,0.447h0.023c0.062-0.127,0.148-0.258,0.26-0.38
	c0.112-0.123,0.245-0.231,0.399-0.33c0.153-0.1,0.327-0.174,0.521-0.231c0.192-0.061,0.399-0.087,0.624-0.087
	c0.354,0,0.66,0.053,0.918,0.162c0.259,0.107,0.472,0.258,0.644,0.45c0.17,0.192,0.292,0.426,0.375,0.697
	c0.079,0.275,0.123,0.574,0.123,0.897v3.342H255v-3.248c0-0.455-0.102-0.814-0.302-1.074c-0.199-0.263-0.513-0.395-0.938-0.395
	c-0.291,0-0.544,0.051-0.756,0.151c-0.213,0.1-0.386,0.243-0.521,0.428c-0.137,0.184-0.234,0.404-0.3,0.658
	c-0.066,0.255-0.098,0.538-0.098,0.844v2.636h-0.9v-4.125h-0.004V191.305z"/>
<path fill="#808285" d="M262.305,195.188c0,0.985-0.253,1.735-0.758,2.248c-0.504,0.511-1.235,0.769-2.189,0.769
	c-0.532,0-1.011-0.077-1.438-0.232c-0.43-0.155-0.835-0.42-1.219-0.796l0.645-0.742c0.285,0.309,0.59,0.54,0.907,0.698
	c0.32,0.158,0.688,0.236,1.105,0.236c0.398,0,0.735-0.062,1-0.18c0.268-0.121,0.478-0.283,0.632-0.487
	c0.154-0.203,0.262-0.437,0.323-0.696c0.063-0.266,0.093-0.538,0.093-0.821v-0.692h-0.023c-0.217,0.346-0.498,0.6-0.845,0.762
	c-0.346,0.164-0.701,0.243-1.063,0.243c-0.425,0-0.812-0.072-1.167-0.208c-0.355-0.139-0.66-0.334-0.913-0.58
	c-0.255-0.246-0.449-0.54-0.59-0.88c-0.139-0.336-0.208-0.708-0.208-1.106c0-0.438,0.069-0.838,0.208-1.191
	c0.14-0.354,0.333-0.653,0.583-0.896c0.25-0.244,0.554-0.432,0.908-0.562c0.354-0.129,0.746-0.198,1.179-0.198
	c0.184,0,0.371,0.024,0.554,0.066c0.184,0.04,0.366,0.108,0.54,0.194c0.173,0.089,0.33,0.202,0.467,0.336
	c0.139,0.135,0.255,0.29,0.348,0.468h0.023v-0.925h0.901L262.305,195.188L262.305,195.188z M257.563,192.726
	c0,0.277,0.051,0.535,0.149,0.77c0.102,0.233,0.236,0.438,0.412,0.611c0.172,0.174,0.375,0.312,0.604,0.411
	c0.232,0.1,0.48,0.15,0.742,0.15c0.309,0,0.583-0.054,0.821-0.164c0.236-0.105,0.439-0.25,0.606-0.434
	c0.166-0.183,0.289-0.388,0.377-0.625c0.082-0.232,0.127-0.485,0.127-0.746c0-0.291-0.046-0.562-0.137-0.802
	c-0.093-0.244-0.225-0.453-0.393-0.632c-0.171-0.178-0.375-0.315-0.613-0.412c-0.239-0.094-0.5-0.142-0.786-0.142
	c-0.285,0-0.545,0.052-0.781,0.156c-0.233,0.104-0.436,0.246-0.6,0.428c-0.167,0.182-0.294,0.393-0.389,0.638
	C257.611,192.177,257.563,192.441,257.563,192.726z"/>
<path fill="#808285" d="M263.863,194.009c0.181,0.224,0.372,0.401,0.586,0.531c0.212,0.132,0.48,0.196,0.802,0.196
	c0.139,0,0.282-0.014,0.424-0.045c0.141-0.03,0.273-0.081,0.387-0.151c0.115-0.068,0.207-0.154,0.278-0.26
	c0.07-0.104,0.104-0.229,0.104-0.376c0-0.146-0.031-0.265-0.099-0.357c-0.066-0.093-0.151-0.173-0.261-0.237
	c-0.108-0.064-0.231-0.117-0.37-0.154c-0.137-0.039-0.281-0.075-0.429-0.106c-0.253-0.053-0.496-0.114-0.728-0.182
	c-0.232-0.071-0.437-0.163-0.607-0.273c-0.175-0.111-0.311-0.256-0.416-0.434c-0.104-0.179-0.155-0.405-0.155-0.683
	c0-0.263,0.058-0.494,0.174-0.693c0.117-0.2,0.269-0.366,0.461-0.497c0.193-0.129,0.409-0.231,0.646-0.301
	c0.237-0.07,0.487-0.104,0.741-0.104c0.385,0,0.744,0.077,1.069,0.232s0.584,0.404,0.769,0.752l-0.752,0.495
	c-0.115-0.193-0.268-0.35-0.454-0.468c-0.188-0.12-0.42-0.18-0.69-0.18c-0.124,0-0.248,0.016-0.374,0.047
	c-0.129,0.029-0.241,0.077-0.342,0.138s-0.181,0.14-0.247,0.236c-0.067,0.097-0.099,0.206-0.099,0.33
	c0,0.117,0.035,0.212,0.108,0.294c0.076,0.081,0.176,0.151,0.302,0.215c0.129,0.06,0.275,0.115,0.438,0.161
	c0.165,0.046,0.336,0.084,0.515,0.117c0.235,0.044,0.466,0.105,0.682,0.179c0.216,0.075,0.405,0.174,0.566,0.296
	c0.162,0.124,0.289,0.278,0.383,0.462c0.093,0.183,0.139,0.412,0.139,0.684c0,0.309-0.062,0.571-0.185,0.785
	c-0.124,0.217-0.286,0.391-0.49,0.528c-0.205,0.135-0.435,0.231-0.692,0.294c-0.261,0.062-0.523,0.091-0.794,0.091
	c-0.463,0-0.859-0.072-1.196-0.214c-0.337-0.143-0.638-0.405-0.907-0.793L263.863,194.009z"/>
<g>
	<path fill="#808285" d="M361.26,54.517c-0.005,0-0.005,0-0.011,0c-4.24-0.036-7.668-4.057-7.636-8.964
		c0.016-2.59,1.001-5.037,2.707-6.717c1.402-1.384,3.209-2.126,5.039-2.126c0.565,0.006,1.021,0.467,1.016,1.033
		c-0.004,0.563-0.461,1.018-1.024,1.018c-0.015,0-0.027,0-0.045,0c-1.284,0-2.544,0.542-3.551,1.533
		c-1.316,1.302-2.081,3.223-2.092,5.27c-0.023,3.781,2.492,6.876,5.607,6.902c0.564,0.006,1.019,0.467,1.014,1.035
		C362.282,54.061,361.824,54.517,361.26,54.517z"/>
	<path fill="#808285" d="M355.405,65.771c-0.003,0-0.005,0-0.008,0c-4.635-0.035-8.966-2.189-12.201-6.064
		c-3.192-3.826-4.935-8.879-4.904-14.231c0.031-5.353,1.831-10.378,5.069-14.153c3.252-3.786,7.562-5.869,12.15-5.869
		c0.038,0,0.079,0.001,0.123,0.001c0.567,0.005,1.023,0.468,1.017,1.034c-0.005,0.562-0.464,1.016-1.023,1.016
		c-0.031-0.002-0.076,0-0.113,0c-3.984,0-7.742,1.827-10.598,5.153c-2.921,3.407-4.55,7.962-4.573,12.83
		c-0.029,4.867,1.542,9.451,4.428,12.905c2.842,3.403,6.618,5.297,10.641,5.328c0.566,0.006,1.021,0.466,1.016,1.031
		C356.427,65.316,355.969,65.771,355.405,65.771z"/>
	<path fill="#808285" d="M357.839,60.144c-0.004,0-0.007,0-0.009,0c-6.868-0.055-12.418-6.616-12.372-14.627
		c0.026-4.25,1.634-8.26,4.414-11.004c2.243-2.214,5.102-3.428,8.046-3.428c0.026,0,0.056,0,0.083,0
		c0.566,0.004,1.021,0.469,1.017,1.033c-0.006,0.564-0.46,1.017-1.023,1.017c-0.021,0-0.052,0-0.076,0
		c-2.402,0-4.748,1.007-6.606,2.84c-2.396,2.364-3.781,5.846-3.806,9.554c-0.04,6.885,4.601,12.521,10.339,12.568
		c0.566,0.005,1.022,0.468,1.017,1.033C358.857,59.69,358.398,60.144,357.839,60.144z"/>
	<path fill="#808285" d="M329.962,36.709c0.003,0,0.005,0,0.008,0c4.241,0.034,7.669,4.057,7.643,8.964
		c-0.02,2.588-1.004,5.036-2.707,6.717c-1.406,1.385-3.21,2.126-5.044,2.126c-0.564-0.005-1.018-0.468-1.017-1.034
		c0.006-0.561,0.464-1.018,1.025-1.018c0.017,0,0.029,0,0.046,0c1.286,0,2.543-0.542,3.548-1.532
		c1.322-1.303,2.082-3.224,2.096-5.27c0.024-3.78-2.494-6.876-5.605-6.902c-0.568-0.006-1.021-0.467-1.017-1.034
		C328.942,37.163,329.401,36.709,329.962,36.709z"/>
	<path fill="#808285" d="M335.814,25.454c0.003,0,0.007,0,0.01,0c4.633,0.038,8.965,2.191,12.198,6.065
		c3.195,3.826,4.938,8.879,4.909,14.23c-0.034,5.353-1.832,10.38-5.07,14.152c-3.251,3.788-7.562,5.87-12.151,5.87
		c-0.04,0-0.081-0.002-0.124-0.002c-0.565-0.004-1.022-0.467-1.015-1.033c0.002-0.562,0.46-1.016,1.024-1.016
		c0.028,0.003,0.077,0,0.114,0c3.98,0,7.737-1.826,10.595-5.153c2.922-3.406,4.547-7.963,4.576-12.83
		c0.025-4.866-1.545-9.449-4.427-12.904c-2.846-3.405-6.624-5.297-10.646-5.329c-0.566-0.004-1.019-0.466-1.016-1.033
		C334.797,25.907,335.253,25.454,335.814,25.454z"/>
	<path fill="#808285" d="M333.388,31.081c0.003,0,0.005,0,0.009,0c6.865,0.054,12.416,6.615,12.368,14.628
		c-0.022,4.25-1.632,8.259-4.415,11.002c-2.242,2.213-5.097,3.429-8.045,3.429c-0.026,0-0.057,0-0.085,0
		c-0.566-0.005-1.02-0.47-1.018-1.034c0.008-0.562,0.466-1.016,1.024-1.016c0.026,0,0.056,0,0.078,0c2.406,0,4.75-1.006,6.604-2.839
		c2.395-2.363,3.781-5.846,3.803-9.555c0.04-6.884-4.598-12.521-10.336-12.568c-0.566-0.004-1.021-0.467-1.016-1.033
		C332.364,31.536,332.824,31.081,333.388,31.081z"/>
</g>
<path fill="#808285" d="M169.103,39.363l3.418-11.544l-21.943-5.266l-4.351,9.918l-7.163,2.051l-20.362-6.735l5.674,11.636v21.749
	l21.658,7.263l0.706,0.236l0,0l0,0l0.705-0.236l21.659-7.263L169.103,39.363L169.103,39.363z M151.396,24.201l19.352,4.643
	l-2.827,9.546l-20.21-5.785L151.396,24.201z M165.979,39.301l-18.534,5.998V33.995L165.979,39.301z M146.033,33.995v8.333
	l-2.318-6.268l-2.274-0.752L146.033,33.995z M142.626,37.188l2.946,7.962l-19.989-6.469l-4.148-8.504L142.626,37.188z
	 M125.785,60.156V40.229l20.248,6.553v20.166L125.785,60.156z M167.691,60.156l-20.247,6.791V46.78l20.247-6.552V60.156z"/>
<path fill="#808184" d="M36.429,42.771h-1.033c-0.677,0-1.181-0.107-1.508-0.322c-0.327-0.214-0.491-0.541-0.491-0.975
	c0-0.445,0.166-0.777,0.495-0.996c0.331-0.217,0.832-0.325,1.504-0.325h4.887c0.667,0,1.166,0.108,1.499,0.325
	c0.333,0.219,0.5,0.55,0.5,0.996c0,0.436-0.166,0.76-0.497,0.975c-0.33,0.214-0.831,0.322-1.502,0.322h-1.041v7.877
	c0,0.672-0.117,1.17-0.349,1.499c-0.231,0.328-0.584,0.491-1.058,0.491c-0.476,0-0.828-0.164-1.059-0.491
	c-0.23-0.327-0.347-0.827-0.347-1.499L36.429,42.771L36.429,42.771z"/>
<path fill="#808184" d="M42.299,50.334l1.508-8.409c0.125-0.693,0.334-1.191,0.632-1.487c0.295-0.296,0.72-0.445,1.274-0.445
	c0.526,0,0.949,0.139,1.271,0.417c0.322,0.276,0.554,0.693,0.695,1.253l1.871,7.369l1.753-7.385
	c0.129-0.548,0.355-0.959,0.677-1.236c0.322-0.278,0.738-0.416,1.245-0.416c0.581,0,1.027,0.157,1.338,0.47
	c0.31,0.313,0.525,0.835,0.643,1.563l1.373,8.487c0.022,0.125,0.039,0.244,0.05,0.36c0.011,0.116,0.017,0.219,0.017,0.308
	c0,0.451-0.129,0.811-0.39,1.076s-0.604,0.398-1.033,0.398c-0.395,0-0.708-0.136-0.94-0.407c-0.231-0.271-0.38-0.683-0.449-1.236
	l-0.89-7.369c-0.683,2.948-1.189,5.031-1.52,6.25c-0.331,1.219-0.586,1.973-0.768,2.262c-0.112,0.18-0.26,0.308-0.444,0.385
	c-0.184,0.076-0.428,0.113-0.732,0.113c-0.474,0-0.835-0.106-1.085-0.322c-0.248-0.215-0.437-0.578-0.567-1.092l-1.821-7.598
	l-0.965,7.19c-0.09,0.639-0.254,1.102-0.491,1.389c-0.237,0.288-0.565,0.433-0.982,0.433c-0.412,0-0.744-0.133-0.996-0.397
	c-0.252-0.266-0.376-0.624-0.376-1.075c0-0.107,0.009-0.232,0.026-0.377C42.238,50.659,42.264,50.503,42.299,50.334z"/>
<path fill="#808184" d="M45.611,63.109c-9.716,0-17.619-7.904-17.619-17.618c0-9.714,7.903-17.617,17.619-17.617
	c9.714,0,17.618,7.903,17.618,17.617C63.229,55.205,55.326,63.109,45.611,63.109z M45.611,30.947
	c-8.02,0-14.544,6.525-14.544,14.544c0,8.02,6.525,14.544,14.544,14.544c8.019,0,14.544-6.524,14.544-14.544
	C60.156,37.472,53.632,30.947,45.611,30.947z"/>
<path fill="#808285" d="M270.646,27.779c0.233-0.244,0.231-0.633-0.015-0.871l-6.438-6.457c-0.238-0.232-0.619-0.229-0.86,0.002
	h-0.02L224.48,59.285l-3.992,10.336l0.003,0.002c-0.143,0.27-0.117,0.606,0.103,0.843c0.146,0.159,0.344,0.239,0.544,0.239
	c0.104,0,0.205-0.027,0.3-0.07l0.011,0.012l10.311-4.014l0.051-0.02l38.173-38.175c0.015-0.013,0.031-0.018,0.046-0.031l0.542-0.558
	l0.07-0.069v-0.001H270.646z M222.554,68.711l-0.159-0.16l3.074-8.258l5.351,5.314L222.554,68.711z"/>
<path fill="#808285" d="M480,175.824c0,2.981-2.417,5.398-5.397,5.398h-60.428c-2.98,0-5.397-2.417-5.397-5.398v-60.427
	c0-2.982,2.417-5.397,5.397-5.397h60.428c2.98,0,5.397,2.417,5.397,5.397V175.824z"/>
</svg>
