<?xml version="1.0" encoding="utf-8"?>
<!-- Generator: Adobe Illustrator 16.0.0, SVG Export Plug-In . SVG Version: 6.00 Build 0)  -->
<!DOCTYPE svg PUBLIC "-//W3C//DTD SVG 1.1//EN" "http://www.w3.org/Graphics/SVG/1.1/DTD/svg11.dtd">
<svg version="1.1" id="Layer_1" xmlns="http://www.w3.org/2000/svg" xmlns:xlink="http://www.w3.org/1999/xlink" x="0px" y="0px"
	 width="500px" height="200px" viewBox="0 0 500 200" enable-background="new 0 0 500 200" xml:space="preserve">
<path fill="#808285" d="M381.223,175.824c0,2.98-2.416,5.398-5.396,5.398h-60.428c-2.98,0-5.397-2.418-5.397-5.398v-60.428
	c0-2.981,2.417-5.396,5.397-5.396h60.428c2.98,0,5.396,2.417,5.396,5.396V175.824z"/>
<path fill="#FFFFFF" d="M361.26,154.514c-0.005,0-0.005,0-0.011,0c-4.24-0.035-7.668-4.056-7.636-8.963
	c0.016-2.588,1.001-5.037,2.707-6.718c1.402-1.384,3.209-2.124,5.039-2.124c0.564,0.005,1.021,0.467,1.016,1.032
	c-0.004,0.563-0.461,1.018-1.023,1.018c-0.016,0-0.027,0-0.045,0c-1.285,0-2.545,0.544-3.552,1.534
	c-1.315,1.303-2.081,3.225-2.092,5.27c-0.022,3.78,2.492,6.875,5.606,6.901c0.564,0.007,1.02,0.47,1.015,1.035
	C362.282,154.061,361.824,154.514,361.26,154.514z"/>
<path fill="#FFFFFF" d="M355.404,165.77c-0.002,0-0.004,0-0.008,0c-4.635-0.035-8.965-2.189-12.201-6.064
	c-3.191-3.827-4.934-8.879-4.903-14.229c0.031-5.354,1.831-10.379,5.069-14.154c3.252-3.786,7.562-5.869,12.15-5.869
	c0.037,0,0.078,0.001,0.122,0.001c0.567,0.003,1.023,0.466,1.017,1.032c-0.004,0.563-0.463,1.017-1.022,1.017
	c-0.03-0.002-0.076,0-0.112,0c-3.984,0-7.742,1.828-10.599,5.153c-2.921,3.404-4.55,7.963-4.573,12.83
	c-0.029,4.867,1.542,9.449,4.428,12.904c2.843,3.402,6.619,5.297,10.642,5.328c0.565,0.006,1.021,0.467,1.017,1.033
	C356.427,165.316,355.969,165.77,355.404,165.77z"/>
<path fill="#FFFFFF" d="M357.839,160.143c-0.004,0-0.007,0-0.009,0c-6.868-0.056-12.418-6.615-12.372-14.629
	c0.026-4.25,1.634-8.26,4.414-11.002c2.243-2.214,5.103-3.428,8.046-3.428c0.025,0,0.057,0,0.083,0
	c0.565,0.003,1.021,0.467,1.017,1.033c-0.006,0.562-0.459,1.017-1.022,1.017c-0.021,0-0.052,0-0.076,0
	c-2.401,0-4.748,1.007-6.606,2.839c-2.396,2.363-3.78,5.846-3.806,9.555c-0.04,6.887,4.601,12.521,10.339,12.568
	c0.566,0.006,1.022,0.469,1.018,1.031C358.857,159.689,358.398,160.143,357.839,160.143z"/>
<path fill="#FFFFFF" d="M329.962,136.709c0.003,0,0.005,0,0.009,0c4.24,0.034,7.668,4.057,7.643,8.962
	c-0.021,2.588-1.004,5.038-2.707,6.718c-1.406,1.385-3.211,2.125-5.045,2.125c-0.563-0.005-1.018-0.468-1.016-1.033
	c0.006-0.562,0.463-1.019,1.024-1.019c0.017,0,0.028,0,0.046,0c1.286,0,2.543-0.543,3.548-1.532c1.322-1.303,2.082-3.225,2.097-5.27
	c0.023-3.78-2.494-6.877-5.605-6.903c-0.568-0.005-1.021-0.468-1.018-1.032C328.941,137.161,329.4,136.709,329.962,136.709z"/>
<path fill="#FFFFFF" d="M335.814,125.454c0.002,0,0.006,0,0.01,0c4.633,0.037,8.965,2.19,12.197,6.065
	c3.195,3.826,4.938,8.879,4.91,14.229c-0.035,5.354-1.832,10.38-5.07,14.151c-3.252,3.789-7.562,5.871-12.151,5.871
	c-0.04,0-0.081-0.002-0.124-0.002c-0.564-0.002-1.021-0.465-1.016-1.031c0.003-0.564,0.461-1.016,1.024-1.016
	c0.028,0.002,0.077,0,0.114,0c3.98,0,7.736-1.826,10.596-5.156c2.922-3.405,4.547-7.961,4.575-12.828
	c0.024-4.867-1.545-9.45-4.427-12.903c-2.846-3.403-6.624-5.296-10.646-5.33c-0.565-0.003-1.019-0.466-1.016-1.032
	C334.797,125.906,335.253,125.454,335.814,125.454z"/>
<path fill="#FFFFFF" d="M333.389,131.081c0.002,0,0.004,0,0.008,0c6.865,0.054,12.416,6.614,12.369,14.628
	c-0.022,4.25-1.633,8.26-4.416,11.003c-2.242,2.212-5.097,3.427-8.045,3.427c-0.025,0-0.057,0-0.084,0
	c-0.566-0.005-1.021-0.47-1.019-1.033c0.008-0.562,0.466-1.017,1.024-1.017c0.025,0,0.056,0,0.078,0c2.405,0,4.75-1.006,6.604-2.839
	c2.395-2.363,3.781-5.848,3.803-9.557c0.04-6.883-4.598-12.521-10.336-12.566c-0.566-0.003-1.021-0.466-1.016-1.033
	C332.364,131.533,332.824,131.081,333.389,131.081z"/>
<path fill="#808285" d="M181.223,175.824c0,2.98-2.417,5.398-5.397,5.398h-60.428c-2.981,0-5.397-2.418-5.397-5.398v-60.428
	c0-2.979,2.417-5.396,5.397-5.396h60.428c2.98,0,5.397,2.417,5.397,5.396V175.824z"/>
<path fill="#FFFFFF" d="M169.103,139.243l3.417-11.544l-21.945-5.266l-4.348,9.918l-7.161,2.051l-20.363-6.734l5.674,11.635v21.748
	l21.658,7.264l0.706,0.236l0,0l0,0l0.704-0.236l21.66-7.264L169.103,139.243L169.103,139.243z M151.395,124.08l19.353,4.645
	l-2.827,9.545l-20.212-5.785L151.395,124.08z M165.979,139.182l-18.535,5.998v-11.304L165.979,139.182z M146.033,133.876v8.334
	l-2.318-6.269l-2.273-0.752L146.033,133.876z M142.628,137.068l2.946,7.961l-19.989-6.467l-4.148-8.504L142.628,137.068z
	 M125.785,160.037v-19.928l20.248,6.554v20.166L125.785,160.037z M167.693,160.037l-20.249,6.79v-20.166l20.249-6.552V160.037z"/>
<path fill="#808285" d="M81.222,175.824c0,2.98-2.417,5.398-5.397,5.398H15.397c-2.982,0-5.397-2.418-5.397-5.398v-60.428
	c0-2.981,2.417-5.396,5.397-5.396h60.427c2.982,0,5.397,2.417,5.397,5.396L81.222,175.824L81.222,175.824z"/>
<path fill="#808285" d="M332.809,188.936c-0.244-0.332-0.551-0.582-0.912-0.746c-0.36-0.166-0.74-0.248-1.133-0.248
	c-0.455,0-0.871,0.092-1.255,0.279c-0.385,0.184-0.711,0.436-0.989,0.745c-0.278,0.312-0.49,0.675-0.646,1.087
	c-0.153,0.412-0.231,0.846-0.231,1.288c0,0.479,0.076,0.925,0.231,1.336c0.155,0.412,0.367,0.771,0.644,1.074
	c0.272,0.306,0.6,0.544,0.982,0.724c0.381,0.18,0.803,0.266,1.264,0.266c0.5,0,0.95-0.096,1.34-0.293
	c0.396-0.195,0.74-0.481,1.029-0.85l0.731,0.612c-0.373,0.492-0.816,0.854-1.335,1.087c-0.521,0.23-1.108,0.348-1.766,0.348
	c-0.588,0-1.133-0.108-1.642-0.326c-0.507-0.213-0.95-0.512-1.324-0.896c-0.375-0.382-0.665-0.834-0.877-1.359
	c-0.213-0.522-0.319-1.099-0.319-1.723c0-0.601,0.103-1.162,0.307-1.686c0.205-0.525,0.49-0.98,0.859-1.363
	c0.371-0.387,0.81-0.691,1.318-0.913c0.51-0.226,1.062-0.335,1.674-0.335c0.555,0,1.09,0.1,1.602,0.301
	c0.513,0.2,0.943,0.527,1.291,0.98L332.809,188.936z"/>
<path fill="#808285" d="M334.359,192.727c0-0.425,0.072-0.811,0.22-1.156c0.146-0.35,0.347-0.646,0.601-0.897
	s0.559-0.444,0.912-0.587c0.355-0.136,0.742-0.207,1.156-0.207c0.418,0,0.802,0.071,1.158,0.207
	c0.355,0.141,0.658,0.335,0.912,0.587c0.257,0.251,0.455,0.548,0.6,0.897c0.146,0.347,0.223,0.731,0.223,1.156
	c0,0.424-0.076,0.809-0.223,1.156c-0.145,0.348-0.343,0.645-0.6,0.896c-0.254,0.252-0.559,0.443-0.912,0.584
	c-0.354,0.141-0.74,0.211-1.158,0.211c-0.414,0-0.799-0.071-1.156-0.211c-0.354-0.137-0.658-0.332-0.912-0.584
	c-0.254-0.25-0.453-0.547-0.601-0.896C334.432,193.534,334.359,193.15,334.359,192.727z M335.329,192.727
	c0,0.285,0.043,0.549,0.131,0.793c0.088,0.242,0.22,0.455,0.388,0.638c0.168,0.182,0.37,0.321,0.606,0.428
	c0.233,0.104,0.499,0.155,0.791,0.155c0.294,0,0.557-0.053,0.795-0.155c0.233-0.104,0.437-0.246,0.604-0.428
	c0.17-0.181,0.299-0.394,0.387-0.638s0.134-0.506,0.134-0.793s-0.046-0.55-0.134-0.793c-0.088-0.242-0.219-0.455-0.387-0.638
	c-0.17-0.18-0.371-0.323-0.604-0.428c-0.235-0.104-0.499-0.156-0.795-0.156c-0.29,0-0.556,0.052-0.791,0.156
	c-0.236,0.104-0.438,0.245-0.606,0.428c-0.171,0.181-0.3,0.394-0.388,0.638C335.372,192.177,335.329,192.441,335.329,192.727z"/>
<path fill="#808285" d="M281.223,175.824c0,2.98-2.416,5.398-5.396,5.398h-60.428c-2.98,0-5.397-2.418-5.397-5.398v-60.428
	c0-2.979,2.417-5.396,5.397-5.396h60.428c2.98,0,5.396,2.417,5.396,5.396V175.824z"/>
<path fill="#808285" d="M340.854,191.305c0-0.246-0.008-0.479-0.022-0.693c-0.017-0.215-0.024-0.411-0.024-0.588h0.854
	c0,0.144,0.005,0.289,0.014,0.437c0.007,0.146,0.013,0.296,0.013,0.447h0.021c0.063-0.128,0.149-0.259,0.261-0.38
	c0.114-0.123,0.245-0.231,0.399-0.33c0.153-0.1,0.329-0.174,0.521-0.231c0.191-0.062,0.4-0.087,0.625-0.087
	c0.354,0,0.659,0.053,0.918,0.162c0.258,0.107,0.473,0.258,0.643,0.45c0.172,0.192,0.295,0.426,0.377,0.696
	c0.081,0.275,0.122,0.574,0.122,0.897v3.342h-0.899v-3.247c0-0.455-0.1-0.814-0.3-1.074c-0.201-0.264-0.513-0.396-0.938-0.396
	c-0.291,0-0.543,0.051-0.756,0.151c-0.213,0.1-0.385,0.242-0.521,0.428c-0.138,0.184-0.236,0.404-0.302,0.658
	c-0.064,0.255-0.099,0.537-0.099,0.844v2.636h-0.899v-4.125h-0.006V191.305L340.854,191.305z"/>
<path fill="#FFFFFF" d="M270.645,127.896c0.234-0.244,0.232-0.633-0.014-0.871l-6.438-6.457c-0.238-0.231-0.619-0.229-0.859,0.004
	h-0.021l-38.833,38.832l-3.991,10.336l0.003,0.004c-0.142,0.27-0.116,0.604,0.101,0.842c0.146,0.16,0.346,0.24,0.546,0.24
	c0.104,0,0.204-0.027,0.301-0.071l0.011,0.013l10.309-4.014l0.051-0.023l38.173-38.174c0.017-0.013,0.031-0.018,0.045-0.029
	l0.544-0.557l0.069-0.07v-0.002L270.645,127.896L270.645,127.896z M222.554,168.83l-0.158-0.16l3.073-8.26l5.35,5.318
	L222.554,168.83z"/>
<path fill="#FFFFFF" d="M36.429,142.771h-1.033c-0.677,0-1.181-0.107-1.508-0.322c-0.327-0.215-0.491-0.541-0.491-0.975
	c0-0.445,0.166-0.777,0.495-0.996c0.331-0.218,0.832-0.326,1.504-0.326h4.887c0.667,0,1.166,0.108,1.499,0.326
	c0.333,0.219,0.5,0.549,0.5,0.996c0,0.436-0.166,0.76-0.497,0.975c-0.33,0.214-0.831,0.322-1.502,0.322h-1.041v7.877
	c0,0.672-0.117,1.17-0.349,1.498c-0.231,0.328-0.584,0.492-1.058,0.492c-0.476,0-0.828-0.164-1.059-0.492
	c-0.23-0.326-0.347-0.826-0.347-1.498V142.771L36.429,142.771z"/>
<path fill="#808285" d="M349.676,190.784h-1.597v2.704c0,0.178,0.004,0.341,0.013,0.49c0.008,0.151,0.037,0.281,0.094,0.392
	c0.053,0.112,0.135,0.2,0.241,0.267c0.107,0.067,0.261,0.098,0.464,0.098c0.129,0,0.266-0.014,0.402-0.045
	c0.139-0.03,0.27-0.076,0.393-0.137l0.035,0.819c-0.154,0.069-0.326,0.12-0.517,0.151c-0.188,0.026-0.368,0.045-0.538,0.045
	c-0.324,0-0.582-0.043-0.773-0.129s-0.343-0.205-0.449-0.358c-0.108-0.154-0.182-0.345-0.215-0.572
	c-0.035-0.229-0.054-0.481-0.054-0.756v-2.971h-1.179v-0.763h1.179v-1.537h0.9v1.537h1.596v0.763h0.005V190.784L349.676,190.784z"/>
<path fill="#FFFFFF" d="M42.299,150.334l1.508-8.409c0.125-0.694,0.334-1.19,0.632-1.487c0.295-0.295,0.72-0.444,1.274-0.444
	c0.526,0,0.949,0.139,1.271,0.417c0.322,0.275,0.554,0.693,0.695,1.253l1.871,7.369l1.753-7.386
	c0.129-0.547,0.355-0.959,0.677-1.235c0.322-0.278,0.738-0.416,1.245-0.416c0.581,0,1.027,0.157,1.339,0.47
	c0.31,0.312,0.524,0.835,0.642,1.562l1.373,8.488c0.022,0.125,0.039,0.243,0.05,0.359c0.011,0.116,0.017,0.219,0.017,0.309
	c0,0.45-0.129,0.811-0.39,1.075c-0.261,0.265-0.604,0.398-1.033,0.398c-0.395,0-0.708-0.136-0.94-0.407
	c-0.231-0.271-0.381-0.684-0.449-1.236l-0.89-7.369c-0.683,2.949-1.189,5.031-1.52,6.25c-0.331,1.22-0.586,1.974-0.768,2.263
	c-0.112,0.18-0.26,0.308-0.444,0.385c-0.184,0.076-0.428,0.113-0.732,0.113c-0.474,0-0.835-0.106-1.084-0.322
	c-0.248-0.215-0.437-0.578-0.568-1.092l-1.82-7.599l-0.966,7.19c-0.09,0.64-0.254,1.103-0.491,1.39
	c-0.237,0.287-0.565,0.433-0.982,0.433c-0.412,0-0.744-0.134-0.996-0.397c-0.252-0.266-0.376-0.624-0.376-1.074
	c0-0.107,0.009-0.232,0.026-0.377C42.238,150.659,42.264,150.503,42.299,150.334z"/>
<path fill="#FFFFFF" d="M45.611,163.109c-9.716,0-17.619-7.904-17.619-17.618s7.903-17.617,17.619-17.617
	c9.714,0,17.618,7.903,17.618,17.617S55.326,163.109,45.611,163.109z M45.611,130.947c-8.02,0-14.544,6.525-14.544,14.544
	c0,8.021,6.525,14.544,14.544,14.544s14.544-6.523,14.544-14.544C60.156,137.473,53.632,130.947,45.611,130.947z"/>
<path fill="#808285" d="M350.368,190.714c0.276-0.284,0.604-0.495,0.989-0.631c0.382-0.133,0.769-0.203,1.16-0.203
	c0.801,0,1.377,0.19,1.733,0.569c0.353,0.377,0.531,0.949,0.531,1.722v2.324c0,0.153,0.009,0.315,0.024,0.481
	c0.017,0.166,0.033,0.317,0.059,0.455H354c-0.029-0.125-0.048-0.261-0.053-0.412c-0.004-0.146-0.008-0.281-0.008-0.396h-0.022
	c-0.179,0.279-0.416,0.502-0.711,0.682c-0.297,0.18-0.653,0.27-1.067,0.27c-0.281,0-0.539-0.036-0.781-0.104
	c-0.241-0.072-0.455-0.175-0.637-0.308c-0.181-0.136-0.326-0.304-0.436-0.503c-0.109-0.2-0.161-0.434-0.161-0.694
	c0-0.444,0.114-0.798,0.347-1.053c0.231-0.253,0.52-0.44,0.859-0.565c0.341-0.125,0.713-0.199,1.107-0.232
	c0.396-0.027,0.763-0.045,1.095-0.045h0.346v-0.162c0-0.393-0.118-0.693-0.353-0.891c-0.232-0.201-0.565-0.302-0.988-0.302
	c-0.291,0-0.58,0.048-0.861,0.146c-0.279,0.094-0.529,0.242-0.744,0.443L350.368,190.714z M352.98,192.829
	c-0.58,0-1.037,0.08-1.375,0.244c-0.34,0.161-0.508,0.428-0.508,0.796c0,0.339,0.112,0.58,0.336,0.722
	c0.23,0.144,0.512,0.216,0.852,0.216c0.262,0,0.492-0.045,0.688-0.131c0.197-0.09,0.361-0.208,0.491-0.354
	c0.129-0.146,0.231-0.318,0.302-0.516c0.069-0.197,0.107-0.404,0.115-0.63v-0.347L352.98,192.829L352.98,192.829L352.98,192.829z"/>
<path fill="#808285" d="M359.697,191.372c-0.191-0.231-0.401-0.397-0.624-0.502c-0.226-0.104-0.47-0.156-0.741-0.156
	c-0.3,0-0.564,0.052-0.797,0.156s-0.424,0.249-0.574,0.435c-0.148,0.184-0.264,0.398-0.338,0.644
	c-0.076,0.241-0.117,0.502-0.117,0.78c0,0.279,0.044,0.541,0.133,0.779c0.088,0.243,0.213,0.457,0.37,0.643
	c0.157,0.184,0.347,0.33,0.572,0.436c0.223,0.104,0.473,0.155,0.75,0.155c0.592,0,1.052-0.224,1.375-0.671l0.67,0.64
	c-0.263,0.299-0.571,0.519-0.926,0.655c-0.354,0.14-0.728,0.21-1.119,0.21c-0.418,0-0.797-0.07-1.146-0.21
	c-0.347-0.137-0.644-0.333-0.886-0.59c-0.243-0.254-0.433-0.555-0.565-0.899c-0.135-0.347-0.202-0.729-0.202-1.146
	c0-0.408,0.067-0.789,0.202-1.135c0.134-0.346,0.326-0.646,0.57-0.897c0.247-0.257,0.543-0.453,0.885-0.597
	c0.345-0.142,0.724-0.213,1.142-0.213c0.399,0,0.78,0.068,1.14,0.207c0.358,0.139,0.672,0.354,0.941,0.646L359.697,191.372z"/>
<path fill="#808285" d="M364.576,190.784h-1.598v2.704c0,0.178,0.006,0.341,0.015,0.49c0.007,0.151,0.036,0.281,0.091,0.392
	s0.135,0.2,0.242,0.267c0.107,0.067,0.263,0.098,0.463,0.098c0.13,0,0.268-0.014,0.402-0.045c0.14-0.03,0.271-0.076,0.393-0.137
	l0.035,0.819c-0.154,0.069-0.326,0.12-0.516,0.151c-0.188,0.026-0.367,0.045-0.537,0.045c-0.323,0-0.584-0.043-0.776-0.129
	c-0.19-0.086-0.341-0.205-0.448-0.358c-0.105-0.154-0.181-0.345-0.214-0.572c-0.034-0.229-0.054-0.481-0.054-0.756v-2.971h-1.178
	v-0.763h1.178v-1.537h0.9v1.537h1.597v0.763h0.005V190.784L364.576,190.784z"/>
<path fill="#808285" d="M32.403,194.875c-0.47,0.264-0.964,0.456-1.485,0.579c-0.52,0.122-1.046,0.187-1.577,0.187
	c-0.64,0-1.225-0.106-1.758-0.313c-0.532-0.207-0.993-0.5-1.381-0.88c-0.39-0.379-0.693-0.829-0.908-1.358
	c-0.214-0.528-0.323-1.11-0.323-1.752c0-0.646,0.114-1.235,0.341-1.765c0.227-0.527,0.541-0.979,0.942-1.352
	c0.4-0.377,0.867-0.666,1.399-0.875c0.532-0.207,1.105-0.312,1.723-0.312c0.54,0,1.057,0.079,1.555,0.241
	c0.497,0.162,0.943,0.438,1.335,0.832l-0.728,0.765c-0.279-0.302-0.616-0.534-1.012-0.692c-0.396-0.162-0.803-0.242-1.219-0.242
	c-0.47,0-0.905,0.082-1.307,0.254c-0.4,0.168-0.75,0.402-1.047,0.703c-0.296,0.301-0.528,0.66-0.693,1.076
	c-0.167,0.416-0.249,0.87-0.249,1.361c0,0.488,0.083,0.938,0.249,1.354s0.396,0.776,0.693,1.08c0.296,0.305,0.653,0.541,1.07,0.711
	c0.416,0.172,0.875,0.254,1.376,0.254c0.332,0,0.677-0.039,1.04-0.123c0.363-0.078,0.693-0.196,0.995-0.352v-2.507H29.55v-0.899
	h2.855v4.023h-0.002V194.875z"/>
<path fill="#808285" d="M33.571,191.305c0-0.246-0.007-0.479-0.023-0.693c-0.016-0.215-0.023-0.411-0.023-0.588h0.855
	c0,0.144,0.003,0.289,0.013,0.437c0.007,0.146,0.011,0.296,0.011,0.447h0.023c0.062-0.128,0.148-0.259,0.26-0.38
	c0.113-0.123,0.245-0.231,0.399-0.33c0.154-0.1,0.328-0.174,0.521-0.231c0.193-0.062,0.4-0.087,0.624-0.087
	c0.062,0,0.124,0.005,0.186,0.012c0.062,0.008,0.123,0.024,0.184,0.047l-0.058,0.912c-0.154-0.045-0.316-0.07-0.486-0.07
	c-0.554,0-0.958,0.18-1.208,0.539c-0.25,0.358-0.376,0.848-0.376,1.475v2.637h-0.901L33.571,191.305h0.003l0,0H33.571z"/>
<path fill="#808285" d="M37.167,190.714c0.278-0.284,0.607-0.495,0.989-0.631c0.381-0.133,0.769-0.203,1.161-0.203
	c0.801,0,1.379,0.19,1.733,0.569c0.354,0.377,0.532,0.949,0.532,1.722v2.324c0,0.153,0.008,0.315,0.024,0.481
	c0.015,0.166,0.033,0.317,0.058,0.455h-0.868c-0.031-0.125-0.048-0.261-0.052-0.412c-0.003-0.146-0.006-0.281-0.006-0.396h-0.024
	c-0.177,0.279-0.414,0.502-0.71,0.682c-0.297,0.18-0.652,0.27-1.069,0.27c-0.278,0-0.538-0.036-0.78-0.104
	c-0.243-0.072-0.455-0.175-0.637-0.308c-0.181-0.136-0.325-0.304-0.434-0.503c-0.109-0.2-0.162-0.434-0.162-0.694
	c0-0.444,0.116-0.798,0.347-1.053c0.23-0.253,0.518-0.44,0.859-0.565c0.343-0.125,0.713-0.199,1.109-0.232
	c0.398-0.027,0.762-0.045,1.094-0.045h0.346v-0.162c0-0.393-0.118-0.693-0.353-0.891c-0.235-0.201-0.563-0.302-0.988-0.302
	c-0.292,0-0.58,0.048-0.861,0.146c-0.281,0.094-0.531,0.242-0.745,0.443L37.167,190.714z M39.779,192.829
	c-0.578,0-1.037,0.08-1.375,0.244c-0.339,0.161-0.508,0.428-0.508,0.796c0,0.339,0.114,0.58,0.34,0.722
	c0.227,0.144,0.51,0.216,0.849,0.216c0.262,0,0.491-0.045,0.688-0.131c0.196-0.09,0.36-0.208,0.491-0.354
	c0.129-0.146,0.232-0.318,0.3-0.516c0.07-0.195,0.108-0.404,0.116-0.63v-0.347L39.779,192.829L39.779,192.829z"/>
<path fill="#808285" d="M42.575,190.021h0.902v0.785H43.5c0.247-0.291,0.534-0.521,0.861-0.682c0.327-0.161,0.688-0.243,1.081-0.243
	c0.424,0,0.811,0.073,1.161,0.216c0.351,0.142,0.648,0.338,0.897,0.594c0.245,0.254,0.438,0.555,0.578,0.899
	c0.139,0.347,0.208,0.726,0.208,1.134c0,0.409-0.069,0.787-0.208,1.133c-0.139,0.348-0.331,0.646-0.572,0.901
	c-0.243,0.255-0.531,0.453-0.861,0.595c-0.332,0.143-0.688,0.215-1.064,0.215c-0.486,0-0.91-0.105-1.277-0.319
	c-0.366-0.212-0.634-0.472-0.803-0.778h-0.023v3.594h-0.902L42.575,190.021L42.575,190.021z M43.478,192.727
	c0,0.285,0.044,0.549,0.132,0.793c0.089,0.242,0.219,0.455,0.388,0.638c0.169,0.18,0.372,0.321,0.606,0.428
	c0.234,0.104,0.498,0.155,0.793,0.155c0.292,0,0.557-0.053,0.792-0.155c0.234-0.104,0.437-0.246,0.606-0.428
	c0.169-0.181,0.298-0.394,0.386-0.638c0.088-0.242,0.133-0.506,0.133-0.793s-0.045-0.55-0.133-0.793
	c-0.088-0.242-0.218-0.455-0.386-0.638c-0.17-0.18-0.372-0.323-0.606-0.428s-0.499-0.156-0.792-0.156s-0.558,0.052-0.793,0.156
	c-0.234,0.104-0.437,0.245-0.606,0.428c-0.17,0.181-0.298,0.394-0.388,0.638C43.522,192.177,43.478,192.441,43.478,192.727z"/>
<path fill="#808285" d="M49.026,186.689h0.902v4.082h0.023c0.062-0.107,0.146-0.213,0.254-0.317
	c0.107-0.104,0.237-0.198,0.386-0.282c0.151-0.084,0.318-0.154,0.504-0.207c0.184-0.057,0.38-0.082,0.589-0.082
	c0.354,0,0.661,0.055,0.919,0.162s0.473,0.258,0.642,0.45c0.17,0.192,0.295,0.426,0.376,0.696c0.08,0.275,0.122,0.574,0.122,0.897
	v3.343h-0.9v-3.248c0-0.455-0.101-0.814-0.301-1.074c-0.2-0.264-0.512-0.396-0.937-0.396c-0.292,0-0.545,0.052-0.757,0.151
	c-0.212,0.1-0.385,0.242-0.52,0.427c-0.134,0.187-0.235,0.405-0.301,0.659c-0.065,0.255-0.097,0.537-0.097,0.844v2.637h-0.902
	v-8.742H49.026L49.026,186.689z"/>
<path fill="#808285" d="M54.737,187.904c0-0.176,0.064-0.33,0.191-0.463c0.127-0.131,0.282-0.195,0.467-0.195
	s0.34,0.064,0.469,0.195c0.127,0.133,0.19,0.287,0.19,0.463c0,0.193-0.062,0.352-0.185,0.475c-0.124,0.127-0.282,0.186-0.475,0.186
	s-0.351-0.062-0.473-0.186C54.799,188.256,54.737,188.1,54.737,187.904z M54.945,190.021h0.901v5.41h-0.901V190.021z"/>
<path fill="#808285" d="M60.748,191.372c-0.192-0.231-0.399-0.397-0.624-0.502c-0.224-0.104-0.47-0.156-0.741-0.156
	c-0.3,0-0.566,0.052-0.797,0.156c-0.232,0.104-0.422,0.249-0.572,0.435c-0.15,0.184-0.264,0.398-0.34,0.644
	c-0.077,0.241-0.116,0.502-0.116,0.78c0,0.279,0.044,0.541,0.133,0.779c0.088,0.243,0.212,0.457,0.371,0.643
	c0.158,0.184,0.348,0.33,0.572,0.436c0.224,0.104,0.474,0.155,0.75,0.155c0.593,0,1.053-0.224,1.376-0.671l0.67,0.64
	c-0.262,0.299-0.57,0.519-0.924,0.655c-0.354,0.14-0.729,0.21-1.122,0.21c-0.416,0-0.797-0.07-1.145-0.21
	c-0.347-0.137-0.642-0.333-0.885-0.59c-0.242-0.254-0.432-0.555-0.566-0.899c-0.134-0.347-0.202-0.729-0.202-1.146
	c0-0.408,0.068-0.789,0.202-1.135c0.134-0.346,0.326-0.646,0.572-0.897c0.247-0.257,0.541-0.453,0.885-0.597
	c0.344-0.142,0.723-0.213,1.138-0.213c0.401,0,0.781,0.068,1.139,0.207c0.359,0.139,0.673,0.354,0.943,0.646L60.748,191.372z"/>
<path fill="#808285" d="M62.702,194.009c0.178,0.224,0.373,0.401,0.585,0.531c0.212,0.132,0.48,0.196,0.803,0.196
	c0.139,0,0.279-0.014,0.422-0.045c0.142-0.03,0.271-0.082,0.386-0.151c0.116-0.067,0.208-0.153,0.279-0.261
	c0.069-0.104,0.104-0.229,0.104-0.375s-0.032-0.266-0.099-0.357c-0.065-0.093-0.152-0.173-0.26-0.236
	c-0.108-0.065-0.23-0.117-0.371-0.154c-0.138-0.039-0.281-0.075-0.428-0.106c-0.254-0.053-0.496-0.114-0.728-0.182
	c-0.232-0.071-0.435-0.163-0.606-0.272c-0.174-0.111-0.312-0.257-0.416-0.435c-0.104-0.179-0.157-0.405-0.157-0.683
	c0-0.264,0.059-0.494,0.174-0.693c0.116-0.2,0.271-0.366,0.462-0.497c0.193-0.129,0.409-0.231,0.646-0.302
	c0.239-0.069,0.486-0.104,0.74-0.104c0.385,0,0.743,0.077,1.07,0.232c0.327,0.154,0.583,0.404,0.769,0.752l-0.752,0.494
	c-0.116-0.192-0.268-0.35-0.456-0.467c-0.189-0.121-0.418-0.181-0.688-0.181c-0.124,0-0.248,0.017-0.375,0.048
	c-0.128,0.028-0.24,0.076-0.341,0.137c-0.1,0.062-0.183,0.141-0.249,0.236c-0.065,0.098-0.097,0.206-0.097,0.33
	c0,0.117,0.036,0.212,0.11,0.294c0.074,0.081,0.174,0.151,0.299,0.216c0.128,0.06,0.274,0.114,0.44,0.16
	c0.165,0.047,0.337,0.084,0.515,0.117c0.238,0.044,0.466,0.105,0.682,0.18s0.405,0.174,0.566,0.295
	c0.162,0.121,0.289,0.278,0.382,0.463c0.092,0.183,0.138,0.412,0.138,0.684c0,0.309-0.062,0.57-0.185,0.785
	c-0.124,0.217-0.286,0.391-0.49,0.527c-0.205,0.135-0.437,0.231-0.693,0.295c-0.259,0.062-0.523,0.09-0.792,0.09
	c-0.463,0-0.861-0.071-1.196-0.213c-0.336-0.144-0.639-0.405-0.909-0.793L62.702,194.009z"/>
<path fill="#808285" d="M223.809,187.246h3.145c0.271,0,0.556,0.029,0.855,0.093c0.3,0.062,0.598,0.16,0.895,0.294
	c0.298,0.135,0.585,0.312,0.855,0.527c0.272,0.217,0.515,0.477,0.722,0.779c0.209,0.305,0.374,0.654,0.498,1.056
	c0.123,0.394,0.183,0.847,0.183,1.346c0,0.501-0.062,0.951-0.183,1.349c-0.125,0.396-0.289,0.746-0.498,1.053
	c-0.207,0.306-0.449,0.564-0.722,0.781c-0.273,0.215-0.559,0.392-0.855,0.525c-0.296,0.137-0.594,0.23-0.895,0.294
	c-0.302,0.062-0.588,0.093-0.855,0.093h-3.145V187.246z M224.78,194.529h1.851c0.47,0,0.906-0.062,1.307-0.184
	c0.401-0.123,0.748-0.313,1.042-0.574c0.29-0.258,0.522-0.588,0.692-0.987c0.17-0.4,0.256-0.884,0.256-1.446
	s-0.086-1.043-0.256-1.443c-0.168-0.4-0.401-0.731-0.692-0.99c-0.293-0.258-0.643-0.447-1.042-0.57
	c-0.399-0.126-0.837-0.186-1.307-0.186h-1.851V194.529z"/>
<path fill="#808285" d="M231.843,191.305c0-0.246-0.007-0.479-0.022-0.693c-0.016-0.215-0.024-0.411-0.024-0.588h0.854
	c0,0.144,0.004,0.289,0.012,0.437c0.009,0.146,0.011,0.296,0.011,0.447h0.025c0.062-0.128,0.148-0.259,0.261-0.38
	c0.11-0.123,0.244-0.231,0.398-0.33c0.154-0.1,0.328-0.174,0.52-0.231c0.192-0.062,0.4-0.087,0.624-0.087
	c0.062,0,0.123,0.005,0.186,0.012c0.062,0.008,0.123,0.024,0.184,0.047l-0.059,0.912c-0.154-0.045-0.315-0.07-0.485-0.07
	c-0.556,0-0.958,0.18-1.208,0.539c-0.251,0.358-0.376,0.848-0.376,1.475v2.637h-0.902L231.843,191.305h0.002l0,0H231.843z"/>
<path fill="#808285" d="M235.438,190.714c0.278-0.284,0.607-0.495,0.988-0.631c0.383-0.133,0.769-0.203,1.161-0.203
	c0.803,0,1.38,0.19,1.734,0.569c0.354,0.377,0.532,0.949,0.532,1.722v2.324c0,0.153,0.008,0.315,0.023,0.481s0.035,0.317,0.06,0.455
	h-0.868c-0.029-0.125-0.048-0.261-0.052-0.412c-0.003-0.146-0.005-0.281-0.005-0.396h-0.025c-0.177,0.279-0.414,0.502-0.709,0.682
	c-0.297,0.18-0.652,0.27-1.07,0.27c-0.278,0-0.538-0.036-0.778-0.104c-0.243-0.072-0.455-0.175-0.639-0.308
	c-0.181-0.136-0.325-0.304-0.433-0.503c-0.108-0.2-0.161-0.434-0.161-0.694c0-0.444,0.116-0.798,0.346-1.053
	c0.231-0.253,0.519-0.44,0.86-0.565c0.344-0.125,0.713-0.199,1.108-0.232c0.396-0.027,0.761-0.045,1.094-0.045h0.348v-0.162
	c0-0.393-0.119-0.693-0.354-0.891c-0.234-0.201-0.564-0.302-0.99-0.302c-0.292,0-0.579,0.048-0.859,0.146
	c-0.282,0.094-0.531,0.242-0.745,0.443L235.438,190.714z M238.051,192.829c-0.579,0-1.036,0.08-1.376,0.244
	c-0.339,0.161-0.509,0.428-0.509,0.796c0,0.339,0.114,0.58,0.341,0.722c0.228,0.144,0.511,0.216,0.85,0.216
	c0.26,0,0.489-0.045,0.688-0.131c0.197-0.09,0.36-0.208,0.491-0.354c0.13-0.146,0.231-0.318,0.3-0.516
	c0.071-0.195,0.108-0.404,0.116-0.63v-0.347L238.051,192.829L238.051,192.829L238.051,192.829z"/>
<path fill="#808285" d="M246.732,195.43h-0.89l-1.539-4.16h-0.024l-1.361,4.16h-0.926l-1.756-5.41h0.993l1.236,4.162h0.023
	l1.4-4.162h0.947l1.422,4.162h0.024l1.225-4.162h0.972L246.732,195.43z"/>
<path fill="#808285" d="M248.974,187.904c0-0.176,0.064-0.33,0.191-0.463c0.128-0.131,0.283-0.195,0.467-0.195
	c0.185,0,0.34,0.064,0.468,0.195c0.129,0.133,0.19,0.287,0.19,0.463c0,0.193-0.062,0.352-0.182,0.475
	c-0.127,0.127-0.283,0.186-0.477,0.186c-0.191,0-0.351-0.062-0.475-0.186C249.037,188.256,248.974,188.1,248.974,187.904z
	 M249.183,190.021h0.9v5.41h-0.9V190.021z"/>
<path fill="#808285" d="M251.184,191.305c0-0.246-0.012-0.479-0.025-0.693c-0.016-0.215-0.023-0.411-0.023-0.588h0.854
	c0,0.144,0.006,0.289,0.014,0.437s0.014,0.296,0.014,0.447h0.022c0.062-0.128,0.147-0.259,0.26-0.38
	c0.112-0.123,0.245-0.231,0.399-0.33c0.152-0.1,0.326-0.174,0.521-0.231c0.192-0.062,0.399-0.087,0.624-0.087
	c0.354,0,0.66,0.053,0.918,0.162c0.26,0.107,0.473,0.258,0.645,0.45c0.17,0.192,0.291,0.426,0.375,0.696
	c0.078,0.275,0.123,0.574,0.123,0.897v3.342H255v-3.247c0-0.455-0.102-0.814-0.302-1.074c-0.199-0.264-0.513-0.396-0.938-0.396
	c-0.291,0-0.544,0.051-0.756,0.151c-0.213,0.1-0.386,0.242-0.521,0.428c-0.137,0.184-0.233,0.404-0.299,0.658
	c-0.066,0.255-0.099,0.537-0.099,0.844v2.636h-0.899v-4.125h-0.004v0.003H251.184z"/>
<path fill="#808285" d="M262.305,195.188c0,0.985-0.253,1.735-0.758,2.248c-0.504,0.512-1.234,0.77-2.189,0.77
	c-0.531,0-1.01-0.077-1.438-0.232c-0.43-0.154-0.835-0.42-1.219-0.796l0.645-0.741c0.285,0.309,0.59,0.539,0.907,0.697
	c0.32,0.158,0.688,0.236,1.104,0.236c0.398,0,0.735-0.062,1-0.18c0.269-0.121,0.479-0.283,0.633-0.487
	c0.154-0.203,0.262-0.437,0.322-0.696c0.063-0.266,0.094-0.538,0.094-0.82v-0.692h-0.023c-0.217,0.346-0.498,0.6-0.845,0.762
	c-0.347,0.164-0.701,0.243-1.063,0.243c-0.425,0-0.812-0.072-1.166-0.208c-0.355-0.14-0.66-0.334-0.914-0.58s-0.449-0.54-0.59-0.88
	c-0.139-0.336-0.207-0.708-0.207-1.105c0-0.438,0.068-0.839,0.207-1.191c0.141-0.354,0.334-0.653,0.584-0.896
	c0.25-0.244,0.553-0.432,0.907-0.562s0.746-0.198,1.179-0.198c0.185,0,0.371,0.023,0.555,0.066c0.184,0.039,0.365,0.107,0.539,0.193
	c0.174,0.09,0.33,0.202,0.468,0.336c0.139,0.135,0.255,0.291,0.348,0.469h0.023v-0.926h0.901L262.305,195.188L262.305,195.188z
	 M257.562,192.727c0,0.276,0.051,0.535,0.149,0.77c0.103,0.232,0.235,0.438,0.412,0.611c0.172,0.174,0.375,0.312,0.604,0.41
	c0.231,0.101,0.479,0.15,0.741,0.15c0.31,0,0.583-0.055,0.821-0.164c0.236-0.105,0.439-0.25,0.605-0.434s0.289-0.389,0.377-0.625
	c0.082-0.232,0.127-0.485,0.127-0.746c0-0.291-0.045-0.562-0.137-0.803c-0.093-0.244-0.225-0.453-0.393-0.631
	c-0.171-0.179-0.375-0.315-0.613-0.412c-0.238-0.095-0.5-0.143-0.785-0.143s-0.546,0.053-0.781,0.156
	c-0.233,0.104-0.437,0.246-0.601,0.428c-0.167,0.182-0.294,0.393-0.389,0.639C257.611,192.177,257.562,192.441,257.562,192.727z"/>
<path fill="#808285" d="M263.863,194.009c0.181,0.224,0.371,0.401,0.586,0.531c0.212,0.132,0.48,0.196,0.802,0.196
	c0.14,0,0.282-0.014,0.424-0.045c0.142-0.03,0.273-0.082,0.388-0.151c0.114-0.067,0.207-0.153,0.277-0.261
	c0.07-0.104,0.104-0.229,0.104-0.375s-0.03-0.266-0.098-0.357c-0.066-0.093-0.152-0.173-0.262-0.236
	c-0.107-0.064-0.23-0.117-0.37-0.154c-0.137-0.039-0.28-0.075-0.429-0.106c-0.253-0.053-0.496-0.114-0.729-0.182
	c-0.231-0.071-0.437-0.163-0.606-0.272c-0.175-0.111-0.312-0.257-0.416-0.435c-0.104-0.179-0.155-0.405-0.155-0.683
	c0-0.264,0.059-0.494,0.174-0.693c0.117-0.2,0.27-0.366,0.461-0.497c0.193-0.129,0.409-0.231,0.646-0.302
	c0.236-0.069,0.486-0.104,0.74-0.104c0.386,0,0.744,0.077,1.07,0.232c0.324,0.154,0.584,0.404,0.769,0.752l-0.752,0.494
	c-0.115-0.192-0.269-0.35-0.454-0.467c-0.188-0.121-0.42-0.181-0.689-0.181c-0.125,0-0.248,0.017-0.375,0.048
	c-0.129,0.028-0.24,0.076-0.342,0.137c-0.102,0.062-0.181,0.141-0.247,0.236c-0.067,0.098-0.099,0.206-0.099,0.33
	c0,0.117,0.035,0.212,0.107,0.294c0.076,0.081,0.176,0.151,0.303,0.216c0.129,0.06,0.274,0.114,0.438,0.16
	c0.165,0.047,0.336,0.084,0.516,0.117c0.234,0.044,0.465,0.105,0.682,0.18c0.216,0.074,0.404,0.174,0.566,0.295
	c0.162,0.125,0.289,0.278,0.383,0.463c0.093,0.183,0.139,0.412,0.139,0.684c0,0.309-0.062,0.57-0.186,0.785
	c-0.123,0.217-0.285,0.391-0.489,0.527c-0.205,0.135-0.435,0.231-0.692,0.295c-0.261,0.062-0.523,0.09-0.794,0.09
	c-0.463,0-0.858-0.071-1.196-0.213c-0.336-0.144-0.638-0.405-0.906-0.793L263.863,194.009z"/>
<g>
	<path fill="#808285" d="M361.26,54.517c-0.005,0-0.005,0-0.011,0c-4.24-0.036-7.668-4.057-7.636-8.964
		c0.016-2.59,1.001-5.037,2.707-6.717c1.402-1.384,3.209-2.126,5.039-2.126c0.564,0.006,1.021,0.467,1.016,1.033
		c-0.004,0.563-0.461,1.018-1.023,1.018c-0.016,0-0.027,0-0.045,0c-1.285,0-2.545,0.542-3.552,1.533
		c-1.315,1.302-2.081,3.223-2.092,5.27c-0.022,3.781,2.492,6.876,5.606,6.902c0.564,0.006,1.02,0.467,1.015,1.035
		C362.282,54.061,361.824,54.517,361.26,54.517z"/>
	<path fill="#808285" d="M355.404,65.771c-0.002,0-0.004,0-0.008,0c-4.635-0.035-8.965-2.189-12.201-6.064
		c-3.191-3.826-4.934-8.879-4.903-14.231c0.031-5.353,1.831-10.378,5.069-14.153c3.252-3.786,7.562-5.869,12.15-5.869
		c0.037,0,0.078,0.001,0.122,0.001c0.567,0.005,1.023,0.468,1.017,1.034c-0.004,0.562-0.463,1.016-1.022,1.016
		c-0.03-0.002-0.076,0-0.112,0c-3.984,0-7.742,1.827-10.599,5.153c-2.921,3.407-4.55,7.962-4.573,12.83
		c-0.029,4.867,1.542,9.451,4.428,12.905c2.843,3.403,6.619,5.297,10.642,5.328c0.565,0.006,1.021,0.466,1.017,1.031
		C356.427,65.316,355.969,65.771,355.404,65.771z"/>
	<path fill="#808285" d="M357.839,60.144c-0.004,0-0.007,0-0.009,0c-6.868-0.055-12.418-6.616-12.372-14.627
		c0.026-4.25,1.634-8.26,4.414-11.004c2.243-2.214,5.103-3.428,8.046-3.428c0.025,0,0.057,0,0.083,0
		c0.565,0.004,1.021,0.469,1.017,1.033c-0.006,0.564-0.459,1.017-1.022,1.017c-0.021,0-0.052,0-0.076,0
		c-2.401,0-4.748,1.007-6.606,2.84c-2.396,2.364-3.78,5.846-3.806,9.554c-0.04,6.885,4.601,12.521,10.339,12.568
		c0.566,0.005,1.022,0.468,1.018,1.033C358.857,59.69,358.398,60.144,357.839,60.144z"/>
	<path fill="#808285" d="M329.962,36.709c0.003,0,0.005,0,0.009,0c4.24,0.034,7.668,4.057,7.643,8.964
		c-0.021,2.588-1.004,5.036-2.707,6.717c-1.406,1.385-3.211,2.126-5.045,2.126c-0.563-0.005-1.018-0.468-1.016-1.034
		c0.006-0.561,0.463-1.018,1.024-1.018c0.017,0,0.028,0,0.046,0c1.286,0,2.543-0.542,3.548-1.532
		c1.322-1.303,2.082-3.224,2.097-5.27c0.023-3.78-2.494-6.876-5.605-6.902c-0.568-0.006-1.021-0.467-1.018-1.034
		C328.941,37.163,329.4,36.709,329.962,36.709z"/>
	<path fill="#808285" d="M335.814,25.454c0.002,0,0.006,0,0.01,0c4.633,0.038,8.965,2.191,12.197,6.065
		c3.195,3.826,4.938,8.879,4.91,14.23c-0.035,5.353-1.832,10.38-5.07,14.152c-3.252,3.788-7.562,5.87-12.151,5.87
		c-0.04,0-0.081-0.002-0.124-0.002c-0.564-0.004-1.021-0.467-1.016-1.033c0.003-0.562,0.461-1.016,1.024-1.016
		c0.028,0.003,0.077,0,0.114,0c3.98,0,7.736-1.826,10.596-5.153c2.922-3.406,4.547-7.963,4.575-12.83
		c0.024-4.866-1.545-9.449-4.427-12.904c-2.846-3.405-6.624-5.297-10.646-5.329c-0.565-0.004-1.019-0.466-1.016-1.033
		C334.797,25.907,335.253,25.454,335.814,25.454z"/>
	<path fill="#808285" d="M333.389,31.081c0.002,0,0.004,0,0.008,0c6.865,0.054,12.416,6.615,12.369,14.628
		c-0.022,4.25-1.633,8.259-4.416,11.002c-2.242,2.213-5.097,3.429-8.045,3.429c-0.025,0-0.057,0-0.084,0
		c-0.566-0.005-1.021-0.47-1.019-1.034c0.008-0.562,0.466-1.016,1.024-1.016c0.025,0,0.056,0,0.078,0
		c2.405,0,4.75-1.006,6.604-2.839c2.395-2.363,3.781-5.846,3.803-9.555c0.04-6.884-4.598-12.521-10.336-12.568
		c-0.566-0.004-1.021-0.467-1.016-1.033C332.364,31.536,332.824,31.081,333.389,31.081z"/>
</g>
<path fill="#808285" d="M169.103,39.363l3.418-11.544l-21.943-5.266l-4.351,9.918l-7.163,2.051l-20.362-6.735l5.674,11.636v21.749
	l21.658,7.263l0.706,0.236l0,0l0,0l0.705-0.236l21.659-7.263L169.103,39.363L169.103,39.363z M151.396,24.201l19.352,4.643
	l-2.827,9.546l-20.21-5.785L151.396,24.201z M165.979,39.301l-18.534,5.998V33.995L165.979,39.301z M146.033,33.995v8.333
	l-2.318-6.268l-2.274-0.752L146.033,33.995z M142.626,37.188l2.946,7.962l-19.989-6.469l-4.148-8.504L142.626,37.188z
	 M125.785,60.156V40.229l20.248,6.553v20.166L125.785,60.156z M167.691,60.156l-20.247,6.791V46.78l20.247-6.552V60.156z"/>
<path fill="#808184" d="M36.429,42.771h-1.033c-0.677,0-1.181-0.107-1.508-0.322c-0.327-0.214-0.491-0.541-0.491-0.975
	c0-0.445,0.166-0.777,0.495-0.996c0.331-0.217,0.832-0.325,1.504-0.325h4.887c0.667,0,1.166,0.108,1.499,0.325
	c0.333,0.219,0.5,0.55,0.5,0.996c0,0.436-0.166,0.76-0.497,0.975c-0.33,0.214-0.831,0.322-1.502,0.322h-1.041v7.877
	c0,0.672-0.117,1.17-0.349,1.499c-0.231,0.328-0.584,0.491-1.058,0.491c-0.476,0-0.828-0.164-1.059-0.491
	c-0.23-0.327-0.347-0.827-0.347-1.499V42.771L36.429,42.771z"/>
<path fill="#808184" d="M42.299,50.334l1.508-8.409c0.125-0.693,0.334-1.191,0.632-1.487c0.295-0.296,0.72-0.445,1.274-0.445
	c0.526,0,0.949,0.139,1.271,0.417c0.322,0.276,0.554,0.693,0.695,1.253l1.871,7.369l1.753-7.385
	c0.129-0.548,0.355-0.959,0.677-1.236c0.322-0.278,0.738-0.416,1.245-0.416c0.581,0,1.027,0.157,1.338,0.47
	c0.31,0.313,0.525,0.835,0.643,1.563l1.373,8.487c0.022,0.125,0.039,0.244,0.05,0.36c0.011,0.116,0.017,0.219,0.017,0.308
	c0,0.451-0.129,0.811-0.39,1.076c-0.261,0.265-0.604,0.398-1.033,0.398c-0.395,0-0.708-0.136-0.94-0.407
	c-0.231-0.271-0.38-0.683-0.449-1.236l-0.89-7.369c-0.683,2.948-1.189,5.031-1.52,6.25c-0.331,1.219-0.586,1.973-0.768,2.262
	c-0.112,0.18-0.26,0.308-0.444,0.385c-0.184,0.076-0.428,0.113-0.732,0.113c-0.474,0-0.835-0.106-1.085-0.322
	c-0.248-0.215-0.437-0.578-0.567-1.092l-1.821-7.598l-0.965,7.19c-0.09,0.639-0.254,1.102-0.491,1.389
	c-0.237,0.288-0.565,0.433-0.982,0.433c-0.412,0-0.744-0.133-0.996-0.397c-0.252-0.266-0.376-0.624-0.376-1.075
	c0-0.107,0.009-0.232,0.026-0.377C42.238,50.659,42.264,50.503,42.299,50.334z"/>
<path fill="#808184" d="M45.611,63.109c-9.716,0-17.619-7.904-17.619-17.618c0-9.714,7.903-17.617,17.619-17.617
	c9.714,0,17.618,7.903,17.618,17.617C63.229,55.205,55.326,63.109,45.611,63.109z M45.611,30.947
	c-8.02,0-14.544,6.525-14.544,14.544c0,8.02,6.525,14.544,14.544,14.544s14.544-6.524,14.544-14.544
	C60.156,37.472,53.632,30.947,45.611,30.947z"/>
<path fill="#808285" d="M270.646,27.779c0.232-0.244,0.23-0.633-0.016-0.871l-6.438-6.457c-0.238-0.232-0.619-0.229-0.86,0.002
	h-0.021L224.48,59.285l-3.992,10.336l0.003,0.002c-0.143,0.27-0.117,0.606,0.103,0.843c0.146,0.159,0.344,0.239,0.544,0.239
	c0.104,0,0.205-0.027,0.3-0.07l0.011,0.012l10.311-4.014l0.051-0.02l38.173-38.175c0.015-0.013,0.031-0.018,0.045-0.031l0.543-0.558
	l0.07-0.069v-0.001H270.646z M222.554,68.711l-0.159-0.16l3.074-8.258l5.351,5.314L222.554,68.711z"/>
<path fill="#808285" d="M480,175.824c0,2.98-2.417,5.398-5.397,5.398h-60.428c-2.979,0-5.396-2.418-5.396-5.398v-60.428
	c0-2.981,2.417-5.396,5.396-5.396h60.428c2.98,0,5.397,2.417,5.397,5.396V175.824z"/>
<g>
	<path fill="#808285" d="M141.512,190.634h0.258c0.259,0,0.388,0,0.646,0c0.259,0,0.388-0.129,0.646-0.259
		c0.129-0.129,0.388-0.258,0.517-0.517c0.129-0.258,0.129-0.518,0.129-0.776c0-0.387-0.129-0.775-0.388-1.034
		c-0.259-0.258-0.646-0.414-1.035-0.414c-0.414,0-0.672,0.156-0.93,0.26c-0.259,0.154-0.518,0.413-0.621,0.802l-1.034-0.389
		c0.258-0.517,0.517-0.931,1.034-1.034c0.362-0.259,0.879-0.413,1.551-0.413c0.388,0,0.647,0,1.035,0.154
		c0.258,0.104,0.646,0.259,0.776,0.362c0.258,0.155,0.388,0.414,0.517,0.672c0.129,0.259,0.259,0.647,0.259,1.034
		c0,0.519-0.13,0.905-0.388,1.164c-0.259,0.388-0.647,0.646-1.035,0.775l0,0c0.259,0,0.517,0.13,0.776,0.259
		s0.388,0.284,0.517,0.543c0.13,0.104,0.259,0.362,0.388,0.62c0.13,0.259,0.13,0.517,0.13,0.776c0,0.413-0.13,0.775-0.258,1.034
		c-0.129,0.259-0.388,0.542-0.647,0.802c-0.258,0.258-0.517,0.388-0.905,0.517s-0.646,0.129-1.034,0.129
		c-0.646,0-1.318-0.129-1.68-0.388c-0.517-0.258-0.776-0.801-1.034-1.421l1.034-0.414c0.103,0.517,0.362,0.775,0.621,1.034
		c0.258,0.283,0.672,0.283,1.189,0.283c0.258,0,0.517,0,0.646-0.129c0.259-0.154,0.388-0.259,0.518-0.413
		c0.129-0.104,0.258-0.361,0.388-0.518c0.129-0.258,0.129-0.361,0.129-0.62s0-0.673-0.129-0.775
		c-0.13-0.259-0.259-0.414-0.518-0.518c-0.258-0.154-0.388-0.259-0.646-0.259c-0.259,0-0.518-0.155-0.776-0.155h-0.285v-0.775
		H141.512z"/>
	<path fill="#808285" d="M146.683,187.014h3.388c0.259,0,0.646,0,0.904,0.104c0.26,0.155,0.647,0.155,0.906,0.259
		c0.257,0.155,0.646,0.414,0.905,0.518c0.257,0.284,0.516,0.543,0.775,0.802c0.258,0.257,0.413,0.646,0.516,1.163
		c0.156,0.388,0.259,0.905,0.259,1.422c0,0.543-0.104,1.061-0.259,1.422c-0.103,0.414-0.258,0.776-0.516,1.19
		c-0.259,0.258-0.518,0.62-0.775,0.774c-0.26,0.26-0.648,0.389-0.905,0.518c-0.259,0.129-0.646,0.259-0.906,0.259
		c-0.258,0-0.646,0.129-0.904,0.129h-3.388V187.014z M147.718,194.667h1.964c0.517,0,0.904-0.154,1.422-0.259
		c0.387-0.154,0.776-0.413,1.033-0.672c0.286-0.258,0.544-0.62,0.803-1.034c0.103-0.361,0.258-0.879,0.258-1.551
		c0-0.646-0.156-1.034-0.258-1.551c-0.155-0.389-0.415-0.776-0.803-1.035c-0.257-0.259-0.646-0.518-1.033-0.672
		c-0.388-0.104-0.905-0.26-1.422-0.26h-1.964V194.667z"/>
</g>
</svg>
