<?xml version="1.0" encoding="utf-8"?>
<!-- Generator: Adobe Illustrator 19.0.0, SVG Export Plug-In . SVG Version: 6.00 Build 0)  -->
<svg version="1.1" id="Layer_1" xmlns="http://www.w3.org/2000/svg" xmlns:xlink="http://www.w3.org/1999/xlink" x="0px" y="0px"
	 viewBox="0 0 240 144" style="enable-background:new 0 0 240 144;" xml:space="preserve">
<style type="text/css">
	.st0{fill:#FFFFFF;}
	.st1{fill:#808284;}
	.st2{fill:#808184;}
</style>
<g id="XMLID_409_">
	<g id="XMLID_414_">
		<path id="XMLID_417_" class="st0" d="M222.5,110.1C222.5,110.1,222.5,110.1,222.5,110.1c-3.4,0-6.2-3.3-6.2-7.3
			c0-2.1,0.8-4.1,2.2-5.4c1.1-1.1,2.6-1.7,4.1-1.7c0.5,0,0.8,0.4,0.8,0.8c0,0.5-0.4,0.8-0.8,0.8c0,0,0,0,0,0c-1,0-2.1,0.4-2.9,1.2
			c-1.1,1.1-1.7,2.6-1.7,4.3c0,3.1,2,5.6,4.5,5.6c0.5,0,0.8,0.4,0.8,0.8C223.4,109.7,223,110.1,222.5,110.1z"/>
		<path id="XMLID_416_" class="st0" d="M217.8,119.2C217.8,119.2,217.8,119.2,217.8,119.2c-3.8,0-7.3-1.8-9.9-4.9
			c-2.6-3.1-4-7.2-4-11.5c0-4.3,1.5-8.4,4.1-11.5c2.6-3.1,6.1-4.8,9.8-4.8c0,0,0.1,0,0.1,0c0.5,0,0.8,0.4,0.8,0.8
			c0,0.5-0.4,0.8-0.8,0.8c0,0-0.1,0-0.1,0c-3.2,0-6.3,1.5-8.6,4.2c-2.4,2.8-3.7,6.5-3.7,10.4c0,3.9,1.2,7.7,3.6,10.5
			c2.3,2.8,5.4,4.3,8.6,4.3c0.5,0,0.8,0.4,0.8,0.8C218.6,118.8,218.3,119.2,217.8,119.2z"/>
		<path id="XMLID_415_" class="st0" d="M219.8,114.6C219.8,114.6,219.8,114.6,219.8,114.6c-5.6,0-10.1-5.4-10-11.9
			c0-3.4,1.3-6.7,3.6-8.9c1.8-1.8,4.1-2.8,6.5-2.8c0,0,0,0,0.1,0c0.5,0,0.8,0.4,0.8,0.8c0,0.5-0.4,0.8-0.8,0.8c0,0,0,0-0.1,0
			c-1.9,0-3.8,0.8-5.4,2.3c-1.9,1.9-3.1,4.7-3.1,7.7c0,5.6,3.7,10.1,8.4,10.2c0.5,0,0.8,0.4,0.8,0.8
			C220.6,114.3,220.2,114.6,219.8,114.6z"/>
	</g>
	<g id="XMLID_410_">
		<path id="XMLID_413_" class="st0" d="M197.2,95.6C197.2,95.6,197.2,95.6,197.2,95.6c3.4,0,6.2,3.3,6.2,7.3c0,2.1-0.8,4.1-2.2,5.4
			c-1.1,1.1-2.6,1.7-4.1,1.7c-0.5,0-0.8-0.4-0.8-0.8c0-0.5,0.4-0.8,0.8-0.8c0,0,0,0,0,0c1,0,2.1-0.4,2.9-1.2
			c1.1-1.1,1.7-2.6,1.7-4.3c0-3.1-2-5.6-4.5-5.6c-0.5,0-0.8-0.4-0.8-0.8C196.4,96,196.7,95.6,197.2,95.6z"/>
		<path id="XMLID_412_" class="st0" d="M201.9,86.5C201.9,86.5,201.9,86.5,201.9,86.5c3.8,0,7.3,1.8,9.9,4.9c2.6,3.1,4,7.2,4,11.5
			c0,4.3-1.5,8.4-4.1,11.5c-2.6,3.1-6.1,4.8-9.8,4.8c0,0-0.1,0-0.1,0c-0.5,0-0.8-0.4-0.8-0.8c0-0.5,0.4-0.8,0.8-0.8c0,0,0.1,0,0.1,0
			c3.2,0,6.3-1.5,8.6-4.2c2.4-2.8,3.7-6.5,3.7-10.4c0-3.9-1.3-7.7-3.6-10.5c-2.3-2.8-5.4-4.3-8.6-4.3c-0.5,0-0.8-0.4-0.8-0.8
			C201.1,86.9,201.5,86.5,201.9,86.5z"/>
		<path id="XMLID_411_" class="st0" d="M200,91.1C200,91.1,200,91.1,200,91.1c5.6,0,10.1,5.4,10,11.9c0,3.4-1.3,6.7-3.6,8.9
			c-1.8,1.8-4.1,2.8-6.5,2.8c0,0,0,0-0.1,0c-0.5,0-0.8-0.4-0.8-0.8c0-0.5,0.4-0.8,0.8-0.8c0,0,0,0,0.1,0c1.9,0,3.8-0.8,5.4-2.3
			c1.9-1.9,3.1-4.7,3.1-7.7c0-5.6-3.7-10.1-8.4-10.2c-0.5,0-0.8-0.4-0.8-0.8C199.1,91.5,199.5,91.1,200,91.1z"/>
	</g>
</g>
<g id="XMLID_400_">
	<g id="XMLID_405_">
		<path id="XMLID_408_" class="st1" d="M222.5,110.1C222.5,110.1,222.5,110.1,222.5,110.1c-3.4,0-6.2-3.3-6.2-7.3
			c0-2.1,0.8-4.1,2.2-5.4c1.1-1.1,2.6-1.7,4.1-1.7c0.5,0,0.8,0.4,0.8,0.8c0,0.5-0.4,0.8-0.8,0.8c0,0,0,0,0,0c-1,0-2.1,0.4-2.9,1.2
			c-1.1,1.1-1.7,2.6-1.7,4.3c0,3.1,2,5.6,4.5,5.6c0.5,0,0.8,0.4,0.8,0.8C223.4,109.7,223,110.1,222.5,110.1z"/>
		<path id="XMLID_407_" class="st1" d="M217.8,119.2C217.8,119.2,217.8,119.2,217.8,119.2c-3.8,0-7.3-1.8-9.9-4.9
			c-2.6-3.1-4-7.2-4-11.5c0-4.3,1.5-8.4,4.1-11.5c2.6-3.1,6.1-4.8,9.8-4.8c0,0,0.1,0,0.1,0c0.5,0,0.8,0.4,0.8,0.8
			c0,0.5-0.4,0.8-0.8,0.8c0,0-0.1,0-0.1,0c-3.2,0-6.3,1.5-8.6,4.2c-2.4,2.8-3.7,6.5-3.7,10.4c0,3.9,1.2,7.7,3.6,10.5
			c2.3,2.8,5.4,4.3,8.6,4.3c0.5,0,0.8,0.4,0.8,0.8C218.6,118.8,218.3,119.2,217.8,119.2z"/>
		<path id="XMLID_406_" class="st1" d="M219.8,114.6C219.8,114.6,219.8,114.6,219.8,114.6c-5.6,0-10.1-5.4-10-11.9
			c0-3.4,1.3-6.7,3.6-8.9c1.8-1.8,4.1-2.8,6.5-2.8c0,0,0,0,0.1,0c0.5,0,0.8,0.4,0.8,0.8c0,0.5-0.4,0.8-0.8,0.8c0,0,0,0-0.1,0
			c-1.9,0-3.8,0.8-5.4,2.3c-1.9,1.9-3.1,4.7-3.1,7.7c0,5.6,3.7,10.1,8.4,10.2c0.5,0,0.8,0.4,0.8,0.8
			C220.6,114.3,220.2,114.6,219.8,114.6z"/>
	</g>
	<g id="XMLID_401_">
		<path id="XMLID_404_" class="st1" d="M197.2,95.6C197.2,95.6,197.2,95.6,197.2,95.6c3.4,0,6.2,3.3,6.2,7.3c0,2.1-0.8,4.1-2.2,5.4
			c-1.1,1.1-2.6,1.7-4.1,1.7c-0.5,0-0.8-0.4-0.8-0.8c0-0.5,0.4-0.8,0.8-0.8c0,0,0,0,0,0c1,0,2.1-0.4,2.9-1.2
			c1.1-1.1,1.7-2.6,1.7-4.3c0-3.1-2-5.6-4.5-5.6c-0.5,0-0.8-0.4-0.8-0.8C196.4,96,196.7,95.6,197.2,95.6z"/>
		<path id="XMLID_403_" class="st1" d="M201.9,86.5C201.9,86.5,201.9,86.5,201.9,86.5c3.8,0,7.3,1.8,9.9,4.9c2.6,3.1,4,7.2,4,11.5
			c0,4.3-1.5,8.4-4.1,11.5c-2.6,3.1-6.1,4.8-9.8,4.8c0,0-0.1,0-0.1,0c-0.5,0-0.8-0.4-0.8-0.8c0-0.5,0.4-0.8,0.8-0.8c0,0,0.1,0,0.1,0
			c3.2,0,6.3-1.5,8.6-4.2c2.4-2.8,3.7-6.5,3.7-10.4c0-3.9-1.3-7.7-3.6-10.5c-2.3-2.8-5.4-4.3-8.6-4.3c-0.5,0-0.8-0.4-0.8-0.8
			C201.1,86.9,201.5,86.5,201.9,86.5z"/>
		<path id="XMLID_402_" class="st1" d="M200,91.1C200,91.1,200,91.1,200,91.1c5.6,0,10.1,5.4,10,11.9c0,3.4-1.3,6.7-3.6,8.9
			c-1.8,1.8-4.1,2.8-6.5,2.8c0,0,0,0-0.1,0c-0.5,0-0.8-0.4-0.8-0.8c0-0.5,0.4-0.8,0.8-0.8c0,0,0,0,0.1,0c1.9,0,3.8-0.8,5.4-2.3
			c1.9-1.9,3.1-4.7,3.1-7.7c0-5.6-3.7-10.1-8.4-10.2c-0.5,0-0.8-0.4-0.8-0.8C199.1,91.5,199.5,91.1,200,91.1z"/>
	</g>
</g>
<path id="XMLID_626_" class="st1" d="M238.7,127.4c0,2.4-2,4.4-4.4,4.4h-49c-2.4,0-4.4-2-4.4-4.4v-49c0-2.4,2-4.4,4.4-4.4h49
	c2.4,0,4.4,2,4.4,4.4V127.4z"/>
<g id="XMLID_617_">
	<g id="XMLID_622_">
		<path id="XMLID_625_" class="st0" d="M222.5,110.1C222.5,110.1,222.5,110.1,222.5,110.1c-3.4,0-6.2-3.3-6.2-7.3
			c0-2.1,0.8-4.1,2.2-5.4c1.1-1.1,2.6-1.7,4.1-1.7c0.5,0,0.8,0.4,0.8,0.8c0,0.5-0.4,0.8-0.8,0.8c0,0,0,0,0,0c-1,0-2.1,0.4-2.9,1.2
			c-1.1,1.1-1.7,2.6-1.7,4.3c0,3.1,2,5.6,4.5,5.6c0.5,0,0.8,0.4,0.8,0.8C223.4,109.7,223,110.1,222.5,110.1z"/>
		<path id="XMLID_624_" class="st0" d="M217.8,119.2C217.8,119.2,217.8,119.2,217.8,119.2c-3.8,0-7.3-1.8-9.9-4.9
			c-2.6-3.1-4-7.2-4-11.5c0-4.3,1.5-8.4,4.1-11.5c2.6-3.1,6.1-4.8,9.8-4.8c0,0,0.1,0,0.1,0c0.5,0,0.8,0.4,0.8,0.8
			c0,0.5-0.4,0.8-0.8,0.8c0,0-0.1,0-0.1,0c-3.2,0-6.3,1.5-8.6,4.2c-2.4,2.8-3.7,6.5-3.7,10.4c0,3.9,1.2,7.7,3.6,10.5
			c2.3,2.8,5.4,4.3,8.6,4.3c0.5,0,0.8,0.4,0.8,0.8C218.6,118.8,218.3,119.2,217.8,119.2z"/>
		<path id="XMLID_623_" class="st0" d="M219.8,114.6C219.8,114.6,219.8,114.6,219.8,114.6c-5.6,0-10.1-5.4-10-11.9
			c0-3.4,1.3-6.7,3.6-8.9c1.8-1.8,4.1-2.8,6.5-2.8c0,0,0,0,0.1,0c0.5,0,0.8,0.4,0.8,0.8c0,0.5-0.4,0.8-0.8,0.8c0,0,0,0-0.1,0
			c-1.9,0-3.8,0.8-5.4,2.3c-1.9,1.9-3.1,4.7-3.1,7.7c0,5.6,3.7,10.1,8.4,10.2c0.5,0,0.8,0.4,0.8,0.8
			C220.6,114.3,220.2,114.6,219.8,114.6z"/>
	</g>
	<g id="XMLID_618_">
		<path id="XMLID_621_" class="st0" d="M197.2,95.6C197.2,95.6,197.2,95.6,197.2,95.6c3.4,0,6.2,3.3,6.2,7.3c0,2.1-0.8,4.1-2.2,5.4
			c-1.1,1.1-2.6,1.7-4.1,1.7c-0.5,0-0.8-0.4-0.8-0.8c0-0.5,0.4-0.8,0.8-0.8c0,0,0,0,0,0c1,0,2.1-0.4,2.9-1.2
			c1.1-1.1,1.7-2.6,1.7-4.3c0-3.1-2-5.6-4.5-5.6c-0.5,0-0.8-0.4-0.8-0.8C196.4,96,196.7,95.6,197.2,95.6z"/>
		<path id="XMLID_620_" class="st0" d="M201.9,86.5C201.9,86.5,201.9,86.5,201.9,86.5c3.8,0,7.3,1.8,9.9,4.9c2.6,3.1,4,7.2,4,11.5
			c0,4.3-1.5,8.4-4.1,11.5c-2.6,3.1-6.1,4.8-9.8,4.8c0,0-0.1,0-0.1,0c-0.5,0-0.8-0.4-0.8-0.8c0-0.5,0.4-0.8,0.8-0.8c0,0,0.1,0,0.1,0
			c3.2,0,6.3-1.5,8.6-4.2c2.4-2.8,3.7-6.5,3.7-10.4c0-3.9-1.3-7.7-3.6-10.5c-2.3-2.8-5.4-4.3-8.6-4.3c-0.5,0-0.8-0.4-0.8-0.8
			C201.1,86.9,201.5,86.5,201.9,86.5z"/>
		<path id="XMLID_619_" class="st0" d="M200,91.1C200,91.1,200,91.1,200,91.1c5.6,0,10.1,5.4,10,11.9c0,3.4-1.3,6.7-3.6,8.9
			c-1.8,1.8-4.1,2.8-6.5,2.8c0,0,0,0-0.1,0c-0.5,0-0.8-0.4-0.8-0.8c0-0.5,0.4-0.8,0.8-0.8c0,0,0,0,0.1,0c1.9,0,3.8-0.8,5.4-2.3
			c1.9-1.9,3.1-4.7,3.1-7.7c0-5.6-3.7-10.1-8.4-10.2c-0.5,0-0.8-0.4-0.8-0.8C199.1,91.5,199.5,91.1,200,91.1z"/>
	</g>
</g>
<g id="XMLID_591_">
	<path id="XMLID_606_" class="st1" d="M199.5,136.5c-0.2-0.3-0.4-0.5-0.7-0.6c-0.3-0.1-0.6-0.2-0.9-0.2c-0.4,0-0.7,0.1-1,0.2
		c-0.3,0.1-0.6,0.4-0.8,0.6c-0.2,0.3-0.4,0.5-0.5,0.9c-0.1,0.3-0.2,0.7-0.2,1c0,0.4,0.1,0.7,0.2,1.1s0.3,0.6,0.5,0.9
		c0.2,0.2,0.5,0.4,0.8,0.6c0.3,0.1,0.7,0.2,1,0.2c0.4,0,0.8-0.1,1.1-0.2c0.3-0.2,0.6-0.4,0.8-0.7l0.6,0.5c-0.3,0.4-0.7,0.7-1.1,0.9
		c-0.4,0.2-0.9,0.3-1.4,0.3c-0.5,0-0.9-0.1-1.3-0.3c-0.4-0.2-0.8-0.4-1.1-0.7c-0.3-0.3-0.5-0.7-0.7-1.1c-0.2-0.4-0.3-0.9-0.3-1.4
		c0-0.5,0.1-0.9,0.2-1.4c0.2-0.4,0.4-0.8,0.7-1.1c0.3-0.3,0.7-0.6,1.1-0.7c0.4-0.2,0.9-0.3,1.4-0.3c0.4,0,0.9,0.1,1.3,0.2
		c0.4,0.2,0.8,0.4,1,0.8L199.5,136.5z"/>
	<path id="XMLID_603_" class="st1" d="M200.7,139.6c0-0.3,0.1-0.7,0.2-0.9c0.1-0.3,0.3-0.5,0.5-0.7c0.2-0.2,0.5-0.4,0.7-0.5
		c0.3-0.1,0.6-0.2,0.9-0.2c0.3,0,0.7,0.1,0.9,0.2c0.3,0.1,0.5,0.3,0.7,0.5c0.2,0.2,0.4,0.4,0.5,0.7c0.1,0.3,0.2,0.6,0.2,0.9
		c0,0.3-0.1,0.7-0.2,0.9c-0.1,0.3-0.3,0.5-0.5,0.7c-0.2,0.2-0.5,0.4-0.7,0.5c-0.3,0.1-0.6,0.2-0.9,0.2c-0.3,0-0.6-0.1-0.9-0.2
		c-0.3-0.1-0.5-0.3-0.7-0.5c-0.2-0.2-0.4-0.4-0.5-0.7C200.8,140.2,200.7,139.9,200.7,139.6z M201.5,139.6c0,0.2,0,0.4,0.1,0.6
		c0.1,0.2,0.2,0.4,0.3,0.5c0.1,0.1,0.3,0.3,0.5,0.3c0.2,0.1,0.4,0.1,0.6,0.1c0.2,0,0.5,0,0.6-0.1c0.2-0.1,0.4-0.2,0.5-0.3
		c0.1-0.1,0.2-0.3,0.3-0.5c0.1-0.2,0.1-0.4,0.1-0.6c0-0.2,0-0.4-0.1-0.6c-0.1-0.2-0.2-0.4-0.3-0.5c-0.1-0.1-0.3-0.3-0.5-0.3
		c-0.2-0.1-0.4-0.1-0.6-0.1c-0.2,0-0.5,0-0.6,0.1c-0.2,0.1-0.4,0.2-0.5,0.3c-0.1,0.1-0.2,0.3-0.3,0.5
		C201.6,139.1,201.5,139.3,201.5,139.6z"/>
	<path id="XMLID_601_" class="st1" d="M206,138.4c0-0.2,0-0.4,0-0.6c0-0.2,0-0.3,0-0.5h0.7c0,0.1,0,0.2,0,0.4c0,0.1,0,0.2,0,0.4h0
		c0.1-0.1,0.1-0.2,0.2-0.3c0.1-0.1,0.2-0.2,0.3-0.3c0.1-0.1,0.3-0.1,0.4-0.2c0.2,0,0.3-0.1,0.5-0.1c0.3,0,0.5,0,0.7,0.1
		c0.2,0.1,0.4,0.2,0.5,0.4c0.1,0.2,0.2,0.3,0.3,0.6c0.1,0.2,0.1,0.5,0.1,0.7v2.7h-0.7v-2.6c0-0.4-0.1-0.7-0.2-0.9
		c-0.2-0.2-0.4-0.3-0.8-0.3c-0.2,0-0.4,0-0.6,0.1c-0.2,0.1-0.3,0.2-0.4,0.3c-0.1,0.2-0.2,0.3-0.2,0.5c-0.1,0.2-0.1,0.4-0.1,0.7v2.1
		H206V138.4z"/>
	<path id="XMLID_599_" class="st1" d="M213.2,138h-1.3v2.2c0,0.1,0,0.3,0,0.4c0,0.1,0,0.2,0.1,0.3c0,0.1,0.1,0.2,0.2,0.2
		c0.1,0.1,0.2,0.1,0.4,0.1c0.1,0,0.2,0,0.3,0c0.1,0,0.2-0.1,0.3-0.1l0,0.7c-0.1,0.1-0.3,0.1-0.4,0.1c-0.2,0-0.3,0-0.4,0
		c-0.3,0-0.5,0-0.6-0.1c-0.2-0.1-0.3-0.2-0.4-0.3c-0.1-0.1-0.1-0.3-0.2-0.5c0-0.2,0-0.4,0-0.6V138h-1v-0.6h1v-1.2h0.7v1.2h1.3V138z"
		/>
	<path id="XMLID_596_" class="st1" d="M213.7,137.9c0.2-0.2,0.5-0.4,0.8-0.5c0.3-0.1,0.6-0.2,0.9-0.2c0.6,0,1.1,0.2,1.4,0.5
		c0.3,0.3,0.4,0.8,0.4,1.4v1.9c0,0.1,0,0.3,0,0.4c0,0.1,0,0.3,0,0.4h-0.7c0-0.1,0-0.2,0-0.3c0-0.1,0-0.2,0-0.3h0
		c-0.1,0.2-0.3,0.4-0.6,0.6c-0.2,0.1-0.5,0.2-0.9,0.2c-0.2,0-0.4,0-0.6-0.1c-0.2-0.1-0.4-0.1-0.5-0.2c-0.1-0.1-0.3-0.2-0.4-0.4
		c-0.1-0.2-0.1-0.3-0.1-0.6c0-0.4,0.1-0.6,0.3-0.9c0.2-0.2,0.4-0.4,0.7-0.5c0.3-0.1,0.6-0.2,0.9-0.2c0.3,0,0.6,0,0.9,0h0.3v-0.1
		c0-0.3-0.1-0.6-0.3-0.7c-0.2-0.2-0.5-0.2-0.8-0.2c-0.2,0-0.5,0-0.7,0.1c-0.2,0.1-0.4,0.2-0.6,0.4L213.7,137.9z M215.8,139.6
		c-0.5,0-0.8,0.1-1.1,0.2c-0.3,0.1-0.4,0.3-0.4,0.6c0,0.3,0.1,0.5,0.3,0.6c0.2,0.1,0.4,0.2,0.7,0.2c0.2,0,0.4,0,0.6-0.1
		c0.2-0.1,0.3-0.2,0.4-0.3c0.1-0.1,0.2-0.3,0.2-0.4c0.1-0.2,0.1-0.3,0.1-0.5v-0.3H215.8z"/>
	<path id="XMLID_594_" class="st1" d="M221.3,138.5c-0.2-0.2-0.3-0.3-0.5-0.4c-0.2-0.1-0.4-0.1-0.6-0.1c-0.2,0-0.5,0-0.6,0.1
		c-0.2,0.1-0.3,0.2-0.5,0.4c-0.1,0.1-0.2,0.3-0.3,0.5c-0.1,0.2-0.1,0.4-0.1,0.6c0,0.2,0,0.4,0.1,0.6c0.1,0.2,0.2,0.4,0.3,0.5
		c0.1,0.1,0.3,0.3,0.5,0.4c0.2,0.1,0.4,0.1,0.6,0.1c0.5,0,0.9-0.2,1.1-0.5l0.5,0.5c-0.2,0.2-0.5,0.4-0.8,0.5
		c-0.3,0.1-0.6,0.2-0.9,0.2c-0.3,0-0.6-0.1-0.9-0.2c-0.3-0.1-0.5-0.3-0.7-0.5c-0.2-0.2-0.4-0.4-0.5-0.7c-0.1-0.3-0.2-0.6-0.2-0.9
		c0-0.3,0.1-0.6,0.2-0.9c0.1-0.3,0.3-0.5,0.5-0.7c0.2-0.2,0.4-0.4,0.7-0.5c0.3-0.1,0.6-0.2,0.9-0.2c0.3,0,0.6,0.1,0.9,0.2
		c0.3,0.1,0.5,0.3,0.8,0.5L221.3,138.5z"/>
	<path id="XMLID_592_" class="st1" d="M225.2,138h-1.3v2.2c0,0.1,0,0.3,0,0.4c0,0.1,0,0.2,0.1,0.3c0,0.1,0.1,0.2,0.2,0.2
		c0.1,0.1,0.2,0.1,0.4,0.1c0.1,0,0.2,0,0.3,0c0.1,0,0.2-0.1,0.3-0.1l0,0.7c-0.1,0.1-0.3,0.1-0.4,0.1c-0.2,0-0.3,0-0.4,0
		c-0.3,0-0.5,0-0.6-0.1c-0.2-0.1-0.3-0.2-0.4-0.3c-0.1-0.1-0.1-0.3-0.2-0.5c0-0.2,0-0.4,0-0.6V138h-1v-0.6h1v-1.2h0.7v1.2h1.3V138z"
		/>
</g>
<path id="XMLID_361_" class="st0" d="M108.9,97.3l2.8-9.4l-17.8-4.3l-3.5,8l-5.8,1.7l-16.5-5.5l4.6,9.4V115l17.6,5.9l0.6,0.2l0,0
	l0,0l0.6-0.2l17.6-5.9V97.3z M94.6,85l15.7,3.8l-2.3,7.7l-16.4-4.7L94.6,85z M106.4,97.3l-15,4.9V93L106.4,97.3z M90.2,93v6.8
	l-1.9-5.1L86.5,94L90.2,93z M87.4,95.6l2.4,6.5l-16.2-5.2l-3.4-6.9L87.4,95.6z M73.8,114.2V98l16.4,5.3v16.3L73.8,114.2z
	 M107.8,114.2l-16.4,5.5v-16.3l16.4-5.3V114.2z"/>
<path id="XMLID_353_" class="st1" d="M108.9,97.3l2.8-9.4l-17.8-4.3l-3.5,8l-5.8,1.7l-16.5-5.5l4.6,9.4V115l17.6,5.9l0.6,0.2l0,0
	l0,0l0.6-0.2l17.6-5.9V97.3z M94.6,85l15.7,3.8l-2.3,7.7l-16.4-4.7L94.6,85z M106.4,97.3l-15,4.9V93L106.4,97.3z M90.2,93v6.8
	l-1.9-5.1L86.5,94L90.2,93z M87.4,95.6l2.4,6.5l-16.2-5.2l-3.4-6.9L87.4,95.6z M73.8,114.2V98l16.4,5.3v16.3L73.8,114.2z
	 M107.8,114.2l-16.4,5.5v-16.3l16.4-5.3V114.2z"/>
<path id="XMLID_578_" class="st1" d="M118.7,127.4c0,2.4-2,4.4-4.4,4.4h-49c-2.4,0-4.4-2-4.4-4.4v-49c0-2.4,2-4.4,4.4-4.4h49
	c2.4,0,4.4,2,4.4,4.4V127.4z"/>
<path id="XMLID_569_" class="st0" d="M108.9,97.7l2.8-9.4l-17.8-4.3l-3.5,8l-5.8,1.7l-16.5-5.5l4.6,9.4v17.6l17.6,5.9l0.6,0.2l0,0
	l0,0l0.6-0.2l17.6-5.9V97.7z M94.6,85.4l15.7,3.8l-2.3,7.7l-16.4-4.7L94.6,85.4z M106.4,97.7l-15,4.9v-9.2L106.4,97.7z M90.2,93.4
	v6.8L88.3,95l-1.8-0.6L90.2,93.4z M87.4,95.9l2.4,6.5l-16.2-5.2l-3.4-6.9L87.4,95.9z M73.8,114.6V98.4l16.4,5.3v16.3L73.8,114.6z
	 M107.8,114.6l-16.4,5.5v-16.3l16.4-5.3V114.6z"/>
<g id="XMLID_535_">
	<path id="XMLID_552_" class="st1" d="M72.9,135.1h2c0.3,0,0.6,0,0.9,0.1c0.3,0.1,0.5,0.2,0.7,0.3c0.2,0.1,0.4,0.3,0.5,0.6
		c0.1,0.2,0.2,0.5,0.2,0.9c0,0.4-0.1,0.7-0.2,0.9c-0.1,0.2-0.3,0.4-0.5,0.6c-0.2,0.1-0.5,0.2-0.7,0.3c-0.3,0.1-0.5,0.1-0.7,0.1h-1.3
		v3h-0.8V135.1z M73.7,138H75c0.4,0,0.7-0.1,1-0.3c0.2-0.2,0.4-0.5,0.4-0.8s-0.1-0.7-0.4-0.8c-0.2-0.2-0.6-0.3-1-0.3h-1.3V138z"/>
	<path id="XMLID_550_" class="st1" d="M77.8,138.4c0-0.2,0-0.4,0-0.6c0-0.2,0-0.3,0-0.5h0.7c0,0.1,0,0.2,0,0.4c0,0.1,0,0.2,0,0.4h0
		c0-0.1,0.1-0.2,0.2-0.3c0.1-0.1,0.2-0.2,0.3-0.3c0.1-0.1,0.3-0.1,0.4-0.2c0.2,0,0.3-0.1,0.5-0.1c0,0,0.1,0,0.2,0c0,0,0.1,0,0.1,0
		l0,0.7c-0.1,0-0.3-0.1-0.4-0.1c-0.4,0-0.8,0.1-1,0.4c-0.2,0.3-0.3,0.7-0.3,1.2v2.1h-0.7V138.4z"/>
	<path id="XMLID_547_" class="st1" d="M80.4,139.6c0-0.3,0.1-0.7,0.2-0.9c0.1-0.3,0.3-0.5,0.5-0.7c0.2-0.2,0.5-0.4,0.7-0.5
		c0.3-0.1,0.6-0.2,0.9-0.2c0.3,0,0.7,0.1,0.9,0.2c0.3,0.1,0.5,0.3,0.7,0.5c0.2,0.2,0.4,0.4,0.5,0.7c0.1,0.3,0.2,0.6,0.2,0.9
		c0,0.3-0.1,0.7-0.2,0.9c-0.1,0.3-0.3,0.5-0.5,0.7c-0.2,0.2-0.5,0.4-0.7,0.5c-0.3,0.1-0.6,0.2-0.9,0.2c-0.3,0-0.6-0.1-0.9-0.2
		c-0.3-0.1-0.5-0.3-0.7-0.5c-0.2-0.2-0.4-0.4-0.5-0.7C80.4,140.2,80.4,139.9,80.4,139.6z M81.2,139.6c0,0.2,0,0.4,0.1,0.6
		c0.1,0.2,0.2,0.4,0.3,0.5c0.1,0.1,0.3,0.3,0.5,0.3c0.2,0.1,0.4,0.1,0.6,0.1s0.5,0,0.6-0.1c0.2-0.1,0.4-0.2,0.5-0.3
		c0.1-0.1,0.2-0.3,0.3-0.5c0.1-0.2,0.1-0.4,0.1-0.6c0-0.2,0-0.4-0.1-0.6c-0.1-0.2-0.2-0.4-0.3-0.5c-0.1-0.1-0.3-0.3-0.5-0.3
		c-0.2-0.1-0.4-0.1-0.6-0.1s-0.5,0-0.6,0.1c-0.2,0.1-0.4,0.2-0.5,0.3c-0.1,0.1-0.2,0.3-0.3,0.5C81.2,139.1,81.2,139.3,81.2,139.6z"
		/>
	<path id="XMLID_544_" class="st1" d="M89.5,141L89.5,141c-0.2,0.2-0.4,0.5-0.7,0.6c-0.3,0.2-0.6,0.3-1,0.3c-0.3,0-0.6-0.1-0.9-0.2
		c-0.3-0.1-0.5-0.3-0.7-0.5c-0.2-0.2-0.4-0.4-0.5-0.7c-0.1-0.3-0.2-0.6-0.2-0.9c0-0.3,0.1-0.6,0.2-0.9c0.1-0.3,0.3-0.5,0.5-0.7
		c0.2-0.2,0.4-0.4,0.7-0.5c0.3-0.1,0.6-0.2,0.9-0.2c0.3,0,0.6,0.1,0.9,0.2c0.3,0.1,0.5,0.3,0.7,0.6h0v-3.3h0.7v7.1h-0.7V141z
		 M89.5,139.6c0-0.2,0-0.4-0.1-0.6c-0.1-0.2-0.2-0.4-0.3-0.5c-0.1-0.1-0.3-0.3-0.5-0.3c-0.2-0.1-0.4-0.1-0.6-0.1s-0.5,0-0.6,0.1
		c-0.2,0.1-0.4,0.2-0.5,0.3c-0.1,0.1-0.2,0.3-0.3,0.5c-0.1,0.2-0.1,0.4-0.1,0.6c0,0.2,0,0.4,0.1,0.6c0.1,0.2,0.2,0.4,0.3,0.5
		s0.3,0.3,0.5,0.3c0.2,0.1,0.4,0.1,0.6,0.1s0.5,0,0.6-0.1c0.2-0.1,0.4-0.2,0.5-0.3c0.1-0.1,0.2-0.3,0.3-0.5
		C89.5,140,89.5,139.8,89.5,139.6z"/>
	<path id="XMLID_542_" class="st1" d="M94.9,140.7c0,0.2,0,0.4,0,0.6c0,0.2,0,0.3,0,0.5h-0.7c0-0.1,0-0.2,0-0.4c0-0.1,0-0.2,0-0.4h0
		c0,0.1-0.1,0.2-0.2,0.3c-0.1,0.1-0.2,0.2-0.3,0.3c-0.1,0.1-0.3,0.1-0.4,0.2c-0.2,0-0.3,0.1-0.5,0.1c-0.3,0-0.5,0-0.7-0.1
		c-0.2-0.1-0.4-0.2-0.5-0.4c-0.1-0.2-0.2-0.3-0.3-0.6c-0.1-0.2-0.1-0.5-0.1-0.7v-2.7h0.7v2.6c0,0.4,0.1,0.7,0.2,0.9
		c0.2,0.2,0.4,0.3,0.8,0.3c0.2,0,0.4,0,0.6-0.1c0.2-0.1,0.3-0.2,0.4-0.3c0.1-0.2,0.2-0.3,0.2-0.5c0.1-0.2,0.1-0.4,0.1-0.7v-2.1h0.7
		V140.7z"/>
	<path id="XMLID_540_" class="st1" d="M98.8,138.5c-0.2-0.2-0.3-0.3-0.5-0.4c-0.2-0.1-0.4-0.1-0.6-0.1c-0.2,0-0.5,0-0.6,0.1
		c-0.2,0.1-0.3,0.2-0.5,0.4c-0.1,0.1-0.2,0.3-0.3,0.5c-0.1,0.2-0.1,0.4-0.1,0.6c0,0.2,0,0.4,0.1,0.6c0.1,0.2,0.2,0.4,0.3,0.5
		c0.1,0.1,0.3,0.3,0.5,0.4c0.2,0.1,0.4,0.1,0.6,0.1c0.5,0,0.9-0.2,1.1-0.5l0.5,0.5c-0.2,0.2-0.5,0.4-0.8,0.5
		c-0.3,0.1-0.6,0.2-0.9,0.2c-0.3,0-0.6-0.1-0.9-0.2c-0.3-0.1-0.5-0.3-0.7-0.5c-0.2-0.2-0.4-0.4-0.5-0.7c-0.1-0.3-0.2-0.6-0.2-0.9
		c0-0.3,0.1-0.6,0.2-0.9c0.1-0.3,0.3-0.5,0.5-0.7c0.2-0.2,0.4-0.4,0.7-0.5c0.3-0.1,0.6-0.2,0.9-0.2c0.3,0,0.6,0.1,0.9,0.2
		c0.3,0.1,0.5,0.3,0.8,0.5L98.8,138.5z"/>
	<path id="XMLID_538_" class="st1" d="M102.8,138h-1.3v2.2c0,0.1,0,0.3,0,0.4c0,0.1,0,0.2,0.1,0.3c0,0.1,0.1,0.2,0.2,0.2
		c0.1,0.1,0.2,0.1,0.4,0.1c0.1,0,0.2,0,0.3,0c0.1,0,0.2-0.1,0.3-0.1l0,0.7c-0.1,0.1-0.3,0.1-0.4,0.1c-0.2,0-0.3,0-0.4,0
		c-0.3,0-0.5,0-0.6-0.1c-0.2-0.1-0.3-0.2-0.4-0.3c-0.1-0.1-0.1-0.3-0.2-0.5c0-0.2,0-0.4,0-0.6V138h-1v-0.6h1v-1.2h0.7v1.2h1.3V138z"
		/>
	<path id="XMLID_536_" class="st1" d="M103.9,140.6c0.1,0.2,0.3,0.3,0.5,0.4c0.2,0.1,0.4,0.2,0.7,0.2c0.1,0,0.2,0,0.3,0
		c0.1,0,0.2-0.1,0.3-0.1c0.1-0.1,0.2-0.1,0.2-0.2c0.1-0.1,0.1-0.2,0.1-0.3c0-0.1,0-0.2-0.1-0.3c-0.1-0.1-0.1-0.1-0.2-0.2
		c-0.1-0.1-0.2-0.1-0.3-0.1c-0.1,0-0.2-0.1-0.3-0.1c-0.2,0-0.4-0.1-0.6-0.1c-0.2-0.1-0.4-0.1-0.5-0.2c-0.1-0.1-0.3-0.2-0.3-0.4
		c-0.1-0.1-0.1-0.3-0.1-0.6c0-0.2,0-0.4,0.1-0.6c0.1-0.2,0.2-0.3,0.4-0.4c0.2-0.1,0.3-0.2,0.5-0.2c0.2-0.1,0.4-0.1,0.6-0.1
		c0.3,0,0.6,0.1,0.9,0.2c0.3,0.1,0.5,0.3,0.6,0.6l-0.6,0.4c-0.1-0.2-0.2-0.3-0.4-0.4c-0.2-0.1-0.3-0.1-0.6-0.1c-0.1,0-0.2,0-0.3,0
		c-0.1,0-0.2,0.1-0.3,0.1c-0.1,0-0.1,0.1-0.2,0.2c-0.1,0.1-0.1,0.2-0.1,0.3c0,0.1,0,0.2,0.1,0.2c0.1,0.1,0.1,0.1,0.2,0.2
		c0.1,0,0.2,0.1,0.4,0.1c0.1,0,0.3,0.1,0.4,0.1c0.2,0,0.4,0.1,0.6,0.1c0.2,0.1,0.3,0.1,0.5,0.2c0.1,0.1,0.2,0.2,0.3,0.4
		c0.1,0.1,0.1,0.3,0.1,0.6c0,0.2,0,0.5-0.1,0.6c-0.1,0.2-0.2,0.3-0.4,0.4c-0.2,0.1-0.4,0.2-0.6,0.2c-0.2,0.1-0.4,0.1-0.6,0.1
		c-0.4,0-0.7-0.1-1-0.2c-0.3-0.1-0.5-0.3-0.7-0.6L103.9,140.6z"/>
</g>
<path id="XMLID_350_" class="st1" d="M170.3,88.4c0.2-0.2,0.2-0.5,0-0.7l-5.2-5.2c-0.2-0.2-0.5-0.2-0.7,0h0l-31.5,31.5l-3.2,8.4l0,0
	c-0.1,0.2-0.1,0.5,0.1,0.7c0.1,0.1,0.3,0.2,0.4,0.2c0.1,0,0.2,0,0.2-0.1l0,0l8.4-3.3l0,0l30.9-30.9c0,0,0,0,0,0L170.3,88.4
	L170.3,88.4L170.3,88.4z M131.3,121.6l-0.1-0.1l2.5-6.7l4.3,4.3L131.3,121.6z"/>
<path id="XMLID_577_" class="st1" d="M178.7,127.4c0,2.4-2,4.4-4.4,4.4h-49c-2.4,0-4.4-2-4.4-4.4v-49c0-2.4,2-4.4,4.4-4.4h49
	c2.4,0,4.4,2,4.4,4.4V127.4z"/>
<path id="XMLID_558_" class="st1" d="M170.3,88.4c0.2-0.2,0.2-0.5,0-0.7l-5.2-5.2c-0.2-0.2-0.5-0.2-0.7,0h0l-31.5,31.5l-3.2,8.4l0,0
	c-0.1,0.2-0.1,0.5,0.1,0.7c0.1,0.1,0.3,0.2,0.4,0.2c0.1,0,0.2,0,0.2-0.1l0,0l8.4-3.3l0,0l30.9-30.9c0,0,0,0,0,0L170.3,88.4
	L170.3,88.4L170.3,88.4z M131.3,121.6l-0.1-0.1l2.5-6.7l4.3,4.3L131.3,121.6z"/>
<path id="XMLID_555_" class="st0" d="M170.2,88.5c0.2-0.2,0.2-0.5,0-0.7l-5.2-5.2c-0.2-0.2-0.5-0.2-0.7,0h0L132.7,114l-3.2,8.4l0,0
	c-0.1,0.2-0.1,0.5,0.1,0.7c0.1,0.1,0.3,0.2,0.4,0.2c0.1,0,0.2,0,0.2-0.1l0,0l8.4-3.3l0,0L169.6,89c0,0,0,0,0,0L170.2,88.5
	L170.2,88.5L170.2,88.5z M131.2,121.7l-0.1-0.1l2.5-6.7l4.3,4.3L131.2,121.7z"/>
<g id="XMLID_494_">
	<path id="XMLID_512_" class="st1" d="M132.2,135.1h2.5c0.2,0,0.4,0,0.7,0.1c0.2,0,0.5,0.1,0.7,0.2c0.2,0.1,0.5,0.3,0.7,0.4
		c0.2,0.2,0.4,0.4,0.6,0.6c0.2,0.2,0.3,0.5,0.4,0.9c0.1,0.3,0.2,0.7,0.2,1.1c0,0.4-0.1,0.8-0.2,1.1c-0.1,0.3-0.2,0.6-0.4,0.9
		c-0.2,0.2-0.4,0.5-0.6,0.6c-0.2,0.2-0.5,0.3-0.7,0.4c-0.2,0.1-0.5,0.2-0.7,0.2c-0.2,0.1-0.5,0.1-0.7,0.1h-2.5V135.1z M133,141h1.5
		c0.4,0,0.7-0.1,1.1-0.2c0.3-0.1,0.6-0.3,0.8-0.5c0.2-0.2,0.4-0.5,0.6-0.8c0.1-0.3,0.2-0.7,0.2-1.2c0-0.5-0.1-0.8-0.2-1.2
		c-0.1-0.3-0.3-0.6-0.6-0.8c-0.2-0.2-0.5-0.4-0.8-0.5c-0.3-0.1-0.7-0.2-1.1-0.2H133V141z"/>
	<path id="XMLID_510_" class="st1" d="M138.7,138.4c0-0.2,0-0.4,0-0.6c0-0.2,0-0.3,0-0.5h0.7c0,0.1,0,0.2,0,0.4c0,0.1,0,0.2,0,0.4h0
		c0.1-0.1,0.1-0.2,0.2-0.3c0.1-0.1,0.2-0.2,0.3-0.3c0.1-0.1,0.3-0.1,0.4-0.2c0.2,0,0.3-0.1,0.5-0.1c0,0,0.1,0,0.1,0
		c0.1,0,0.1,0,0.2,0l0,0.7c-0.1,0-0.3-0.1-0.4-0.1c-0.5,0-0.8,0.1-1,0.4c-0.2,0.3-0.3,0.7-0.3,1.2v2.1h-0.7V138.4z"/>
	<path id="XMLID_507_" class="st1" d="M141.6,137.9c0.2-0.2,0.5-0.4,0.8-0.5c0.3-0.1,0.6-0.2,0.9-0.2c0.7,0,1.1,0.2,1.4,0.5
		c0.3,0.3,0.4,0.8,0.4,1.4v1.9c0,0.1,0,0.3,0,0.4c0,0.1,0,0.3,0,0.4h-0.7c0-0.1,0-0.2,0-0.3c0-0.1,0-0.2,0-0.3h0
		c-0.1,0.2-0.3,0.4-0.6,0.6c-0.2,0.1-0.5,0.2-0.9,0.2c-0.2,0-0.4,0-0.6-0.1c-0.2-0.1-0.4-0.1-0.5-0.2c-0.1-0.1-0.3-0.2-0.3-0.4
		c-0.1-0.2-0.1-0.3-0.1-0.6c0-0.4,0.1-0.6,0.3-0.9c0.2-0.2,0.4-0.4,0.7-0.5c0.3-0.1,0.6-0.2,0.9-0.2c0.3,0,0.6,0,0.9,0h0.3v-0.1
		c0-0.3-0.1-0.6-0.3-0.7c-0.2-0.2-0.5-0.2-0.8-0.2c-0.2,0-0.5,0-0.7,0.1c-0.2,0.1-0.4,0.2-0.6,0.4L141.6,137.9z M143.7,139.6
		c-0.5,0-0.8,0.1-1.1,0.2c-0.3,0.1-0.4,0.3-0.4,0.6c0,0.3,0.1,0.5,0.3,0.6c0.2,0.1,0.4,0.2,0.7,0.2c0.2,0,0.4,0,0.6-0.1
		c0.2-0.1,0.3-0.2,0.4-0.3c0.1-0.1,0.2-0.3,0.2-0.4c0.1-0.2,0.1-0.3,0.1-0.5v-0.3H143.7z"/>
	<path id="XMLID_505_" class="st1" d="M150.8,141.8h-0.7l-1.2-3.4h0l-1.1,3.4h-0.8l-1.4-4.4h0.8l1,3.4h0l1.1-3.4h0.8l1.2,3.4h0
		l1-3.4h0.8L150.8,141.8z"/>
	<path id="XMLID_502_" class="st1" d="M152.6,135.7c0-0.1,0.1-0.3,0.2-0.4c0.1-0.1,0.2-0.2,0.4-0.2c0.1,0,0.3,0.1,0.4,0.2
		c0.1,0.1,0.2,0.2,0.2,0.4c0,0.2-0.1,0.3-0.2,0.4c-0.1,0.1-0.2,0.2-0.4,0.2c-0.2,0-0.3,0-0.4-0.2
		C152.6,135.9,152.6,135.8,152.6,135.7z M152.8,137.4h0.7v4.4h-0.7V137.4z"/>
	<path id="XMLID_500_" class="st1" d="M154.4,138.4c0-0.2,0-0.4,0-0.6c0-0.2,0-0.3,0-0.5h0.7c0,0.1,0,0.2,0,0.4c0,0.1,0,0.2,0,0.4h0
		c0.1-0.1,0.1-0.2,0.2-0.3c0.1-0.1,0.2-0.2,0.3-0.3c0.1-0.1,0.3-0.1,0.4-0.2c0.2,0,0.3-0.1,0.5-0.1c0.3,0,0.5,0,0.7,0.1
		c0.2,0.1,0.4,0.2,0.5,0.4c0.1,0.2,0.2,0.3,0.3,0.6c0.1,0.2,0.1,0.5,0.1,0.7v2.7h-0.7v-2.6c0-0.4-0.1-0.7-0.2-0.9
		c-0.2-0.2-0.4-0.3-0.8-0.3c-0.2,0-0.4,0-0.6,0.1c-0.2,0.1-0.3,0.2-0.4,0.3c-0.1,0.2-0.2,0.3-0.2,0.5c-0.1,0.2-0.1,0.4-0.1,0.7v2.1
		h-0.7V138.4z"/>
	<path id="XMLID_497_" class="st1" d="M163.4,141.6c0,0.8-0.2,1.4-0.6,1.8c-0.4,0.4-1,0.6-1.8,0.6c-0.4,0-0.8-0.1-1.2-0.2
		c-0.3-0.1-0.7-0.3-1-0.6l0.5-0.6c0.2,0.2,0.5,0.4,0.7,0.6c0.3,0.1,0.6,0.2,0.9,0.2c0.3,0,0.6,0,0.8-0.1c0.2-0.1,0.4-0.2,0.5-0.4
		c0.1-0.2,0.2-0.4,0.3-0.6c0.1-0.2,0.1-0.4,0.1-0.7V141h0c-0.2,0.3-0.4,0.5-0.7,0.6c-0.3,0.1-0.6,0.2-0.9,0.2
		c-0.3,0-0.7-0.1-0.9-0.2c-0.3-0.1-0.5-0.3-0.7-0.5c-0.2-0.2-0.4-0.4-0.5-0.7c-0.1-0.3-0.2-0.6-0.2-0.9c0-0.4,0.1-0.7,0.2-1
		c0.1-0.3,0.3-0.5,0.5-0.7c0.2-0.2,0.4-0.3,0.7-0.5c0.3-0.1,0.6-0.2,1-0.2c0.2,0,0.3,0,0.4,0.1c0.2,0,0.3,0.1,0.4,0.2
		c0.1,0.1,0.3,0.2,0.4,0.3c0.1,0.1,0.2,0.2,0.3,0.4h0v-0.7h0.7V141.6z M159.6,139.6c0,0.2,0,0.4,0.1,0.6c0.1,0.2,0.2,0.4,0.3,0.5
		c0.1,0.1,0.3,0.3,0.5,0.3c0.2,0.1,0.4,0.1,0.6,0.1c0.2,0,0.5,0,0.7-0.1c0.2-0.1,0.4-0.2,0.5-0.4c0.1-0.1,0.2-0.3,0.3-0.5
		c0.1-0.2,0.1-0.4,0.1-0.6c0-0.2,0-0.5-0.1-0.7c-0.1-0.2-0.2-0.4-0.3-0.5c-0.1-0.1-0.3-0.3-0.5-0.3c-0.2-0.1-0.4-0.1-0.6-0.1
		c-0.2,0-0.4,0-0.6,0.1c-0.2,0.1-0.4,0.2-0.5,0.3c-0.1,0.1-0.2,0.3-0.3,0.5C159.6,139.1,159.6,139.3,159.6,139.6z"/>
	<path id="XMLID_495_" class="st1" d="M164.7,140.6c0.1,0.2,0.3,0.3,0.5,0.4c0.2,0.1,0.4,0.2,0.7,0.2c0.1,0,0.2,0,0.3,0
		c0.1,0,0.2-0.1,0.3-0.1c0.1-0.1,0.2-0.1,0.2-0.2c0.1-0.1,0.1-0.2,0.1-0.3c0-0.1,0-0.2-0.1-0.3c-0.1-0.1-0.1-0.1-0.2-0.2
		c-0.1-0.1-0.2-0.1-0.3-0.1c-0.1,0-0.2-0.1-0.3-0.1c-0.2,0-0.4-0.1-0.6-0.1s-0.4-0.1-0.5-0.2c-0.1-0.1-0.3-0.2-0.3-0.4
		c-0.1-0.1-0.1-0.3-0.1-0.6c0-0.2,0-0.4,0.1-0.6c0.1-0.2,0.2-0.3,0.4-0.4c0.2-0.1,0.3-0.2,0.5-0.2c0.2-0.1,0.4-0.1,0.6-0.1
		c0.3,0,0.6,0.1,0.9,0.2c0.3,0.1,0.5,0.3,0.6,0.6l-0.6,0.4c-0.1-0.2-0.2-0.3-0.4-0.4c-0.2-0.1-0.3-0.1-0.6-0.1c-0.1,0-0.2,0-0.3,0
		c-0.1,0-0.2,0.1-0.3,0.1c-0.1,0-0.1,0.1-0.2,0.2c-0.1,0.1-0.1,0.2-0.1,0.3c0,0.1,0,0.2,0.1,0.2c0.1,0.1,0.1,0.1,0.2,0.2
		c0.1,0,0.2,0.1,0.4,0.1c0.1,0,0.3,0.1,0.4,0.1c0.2,0,0.4,0.1,0.6,0.1c0.2,0.1,0.3,0.1,0.5,0.2c0.1,0.1,0.2,0.2,0.3,0.4
		c0.1,0.1,0.1,0.3,0.1,0.6c0,0.2-0.1,0.5-0.2,0.6s-0.2,0.3-0.4,0.4c-0.2,0.1-0.4,0.2-0.6,0.2c-0.2,0.1-0.4,0.1-0.6,0.1
		c-0.4,0-0.7-0.1-1-0.2c-0.3-0.1-0.5-0.3-0.7-0.6L164.7,140.6z"/>
</g>
<g id="XMLID_372_">
	<g id="XMLID_378_">
		<path id="XMLID_381_" class="st2" d="M22.4,100.7h-0.8c-0.5,0-1-0.1-1.2-0.3c-0.3-0.2-0.4-0.4-0.4-0.8c0-0.4,0.1-0.6,0.4-0.8
			c0.3-0.2,0.7-0.3,1.2-0.3h4c0.5,0,0.9,0.1,1.2,0.3c0.3,0.2,0.4,0.4,0.4,0.8c0,0.4-0.1,0.6-0.4,0.8c-0.3,0.2-0.7,0.3-1.2,0.3h-0.8
			v6.4c0,0.5-0.1,0.9-0.3,1.2c-0.2,0.3-0.5,0.4-0.9,0.4c-0.4,0-0.7-0.1-0.9-0.4c-0.2-0.3-0.3-0.7-0.3-1.2V100.7z"/>
		<path id="XMLID_379_" class="st2" d="M27.2,106.8l1.2-6.8c0.1-0.6,0.3-1,0.5-1.2c0.2-0.2,0.6-0.4,1-0.4c0.4,0,0.8,0.1,1,0.3
			c0.3,0.2,0.4,0.6,0.6,1l1.5,6l1.4-6c0.1-0.4,0.3-0.8,0.5-1c0.3-0.2,0.6-0.3,1-0.3c0.5,0,0.8,0.1,1.1,0.4c0.3,0.3,0.4,0.7,0.5,1.3
			l1.1,6.9c0,0.1,0,0.2,0,0.3c0,0.1,0,0.2,0,0.2c0,0.4-0.1,0.7-0.3,0.9c-0.2,0.2-0.5,0.3-0.8,0.3c-0.3,0-0.6-0.1-0.8-0.3
			c-0.2-0.2-0.3-0.6-0.4-1l-0.7-6c-0.6,2.4-1,4.1-1.2,5.1c-0.3,1-0.5,1.6-0.6,1.8c-0.1,0.1-0.2,0.2-0.4,0.3
			c-0.1,0.1-0.3,0.1-0.6,0.1c-0.4,0-0.7-0.1-0.9-0.3c-0.2-0.2-0.4-0.5-0.5-0.9l-1.5-6.2l-0.8,5.8c-0.1,0.5-0.2,0.9-0.4,1.1
			c-0.2,0.2-0.5,0.4-0.8,0.4c-0.3,0-0.6-0.1-0.8-0.3c-0.2-0.2-0.3-0.5-0.3-0.9c0-0.1,0-0.2,0-0.3C27.1,107.1,27.2,106.9,27.2,106.8z
			"/>
	</g>
	<g id="XMLID_373_">
		<g id="XMLID_374_">
			<path id="XMLID_375_" class="st2" d="M29.9,117.1c-7.9,0-14.3-6.4-14.3-14.3c0-7.9,6.4-14.3,14.3-14.3c7.9,0,14.3,6.4,14.3,14.3
				C44.1,110.7,37.7,117.1,29.9,117.1z M29.9,91.1c-6.5,0-11.8,5.3-11.8,11.8s5.3,11.8,11.8,11.8s11.8-5.3,11.8-11.8
				S36.4,91.1,29.9,91.1z"/>
		</g>
	</g>
</g>
<g id="XMLID_580_">
	<g id="XMLID_586_">
		<path id="XMLID_589_" class="st2" d="M22.4,100.7h-0.8c-0.5,0-1-0.1-1.2-0.3c-0.3-0.2-0.4-0.4-0.4-0.8c0-0.4,0.1-0.6,0.4-0.8
			c0.3-0.2,0.7-0.3,1.2-0.3h4c0.5,0,0.9,0.1,1.2,0.3c0.3,0.2,0.4,0.4,0.4,0.8c0,0.4-0.1,0.6-0.4,0.8c-0.3,0.2-0.7,0.3-1.2,0.3h-0.8
			v6.4c0,0.5-0.1,0.9-0.3,1.2c-0.2,0.3-0.5,0.4-0.9,0.4c-0.4,0-0.7-0.1-0.9-0.4c-0.2-0.3-0.3-0.7-0.3-1.2V100.7z"/>
		<path id="XMLID_587_" class="st2" d="M27.2,106.8l1.2-6.8c0.1-0.6,0.3-1,0.5-1.2c0.2-0.2,0.6-0.4,1-0.4c0.4,0,0.8,0.1,1,0.3
			c0.3,0.2,0.4,0.6,0.6,1l1.5,6l1.4-6c0.1-0.4,0.3-0.8,0.5-1c0.3-0.2,0.6-0.3,1-0.3c0.5,0,0.8,0.1,1.1,0.4c0.3,0.3,0.4,0.7,0.5,1.3
			l1.1,6.9c0,0.1,0,0.2,0,0.3c0,0.1,0,0.2,0,0.2c0,0.4-0.1,0.7-0.3,0.9c-0.2,0.2-0.5,0.3-0.8,0.3c-0.3,0-0.6-0.1-0.8-0.3
			c-0.2-0.2-0.3-0.6-0.4-1l-0.7-6c-0.6,2.4-1,4.1-1.2,5.1c-0.3,1-0.5,1.6-0.6,1.8c-0.1,0.1-0.2,0.2-0.4,0.3
			c-0.1,0.1-0.3,0.1-0.6,0.1c-0.4,0-0.7-0.1-0.9-0.3c-0.2-0.2-0.4-0.5-0.5-0.9l-1.5-6.2l-0.8,5.8c-0.1,0.5-0.2,0.9-0.4,1.1
			c-0.2,0.2-0.5,0.4-0.8,0.4c-0.3,0-0.6-0.1-0.8-0.3c-0.2-0.2-0.3-0.5-0.3-0.9c0-0.1,0-0.2,0-0.3C27.1,107.1,27.2,106.9,27.2,106.8z
			"/>
	</g>
	<g id="XMLID_581_">
		<g id="XMLID_582_">
			<path id="XMLID_583_" class="st2" d="M29.9,117.1c-7.9,0-14.3-6.4-14.3-14.3c0-7.9,6.4-14.3,14.3-14.3c7.9,0,14.3,6.4,14.3,14.3
				C44.1,110.7,37.7,117.1,29.9,117.1z M29.9,91.1c-6.5,0-11.8,5.3-11.8,11.8s5.3,11.8,11.8,11.8s11.8-5.3,11.8-11.8
				S36.4,91.1,29.9,91.1z"/>
		</g>
	</g>
</g>
<path id="XMLID_579_" class="st1" d="M58.7,127.4c0,2.4-2,4.4-4.4,4.4h-49c-2.4,0-4.4-2-4.4-4.4v-49C1,76,3,74,5.4,74h49
	c2.4,0,4.4,2,4.4,4.4V127.4z"/>
<g id="XMLID_515_">
	<path id="XMLID_533_" class="st1" d="M19.2,141.3c-0.4,0.2-0.8,0.4-1.2,0.5c-0.4,0.1-0.8,0.2-1.3,0.2c-0.5,0-1-0.1-1.4-0.3
		c-0.4-0.2-0.8-0.4-1.1-0.7c-0.3-0.3-0.6-0.7-0.7-1.1s-0.3-0.9-0.3-1.4c0-0.5,0.1-1,0.3-1.4c0.2-0.4,0.4-0.8,0.8-1.1
		c0.3-0.3,0.7-0.5,1.1-0.7c0.4-0.2,0.9-0.3,1.4-0.3c0.4,0,0.9,0.1,1.3,0.2c0.4,0.1,0.8,0.4,1.1,0.7l-0.6,0.6
		c-0.2-0.2-0.5-0.4-0.8-0.6c-0.3-0.1-0.7-0.2-1-0.2c-0.4,0-0.7,0.1-1.1,0.2c-0.3,0.1-0.6,0.3-0.8,0.6c-0.2,0.2-0.4,0.5-0.6,0.9
		c-0.1,0.3-0.2,0.7-0.2,1.1c0,0.4,0.1,0.8,0.2,1.1c0.1,0.3,0.3,0.6,0.6,0.9c0.2,0.2,0.5,0.4,0.9,0.6c0.3,0.1,0.7,0.2,1.1,0.2
		c0.3,0,0.5,0,0.8-0.1c0.3-0.1,0.6-0.2,0.8-0.3v-2h-1.5V138h2.3V141.3z"/>
	<path id="XMLID_531_" class="st1" d="M20.1,138.4c0-0.2,0-0.4,0-0.6c0-0.2,0-0.3,0-0.5h0.7c0,0.1,0,0.2,0,0.4c0,0.1,0,0.2,0,0.4h0
		c0-0.1,0.1-0.2,0.2-0.3c0.1-0.1,0.2-0.2,0.3-0.3c0.1-0.1,0.3-0.1,0.4-0.2c0.2,0,0.3-0.1,0.5-0.1c0,0,0.1,0,0.2,0c0,0,0.1,0,0.1,0
		l0,0.7c-0.1,0-0.3-0.1-0.4-0.1c-0.4,0-0.8,0.1-1,0.4c-0.2,0.3-0.3,0.7-0.3,1.2v2.1h-0.7V138.4z"/>
	<path id="XMLID_528_" class="st1" d="M23,137.9c0.2-0.2,0.5-0.4,0.8-0.5c0.3-0.1,0.6-0.2,0.9-0.2c0.6,0,1.1,0.2,1.4,0.5
		c0.3,0.3,0.4,0.8,0.4,1.4v1.9c0,0.1,0,0.3,0,0.4c0,0.1,0,0.3,0,0.4H26c0-0.1,0-0.2,0-0.3c0-0.1,0-0.2,0-0.3h0
		c-0.1,0.2-0.3,0.4-0.6,0.6c-0.2,0.1-0.5,0.2-0.9,0.2c-0.2,0-0.4,0-0.6-0.1c-0.2-0.1-0.4-0.1-0.5-0.2c-0.1-0.1-0.3-0.2-0.4-0.4
		c-0.1-0.2-0.1-0.3-0.1-0.6c0-0.4,0.1-0.6,0.3-0.9c0.2-0.2,0.4-0.4,0.7-0.5c0.3-0.1,0.6-0.2,0.9-0.2c0.3,0,0.6,0,0.9,0h0.3v-0.1
		c0-0.3-0.1-0.6-0.3-0.7c-0.2-0.2-0.5-0.2-0.8-0.2c-0.2,0-0.5,0-0.7,0.1c-0.2,0.1-0.4,0.2-0.6,0.4L23,137.9z M25.1,139.6
		c-0.5,0-0.8,0.1-1.1,0.2c-0.3,0.1-0.4,0.3-0.4,0.6c0,0.3,0.1,0.5,0.3,0.6c0.2,0.1,0.4,0.2,0.7,0.2c0.2,0,0.4,0,0.6-0.1
		c0.2-0.1,0.3-0.2,0.4-0.3c0.1-0.1,0.2-0.3,0.2-0.4c0.1-0.2,0.1-0.3,0.1-0.5v-0.3H25.1z"/>
	<path id="XMLID_525_" class="st1" d="M27.4,137.4h0.7v0.6h0c0.2-0.2,0.4-0.4,0.7-0.6c0.3-0.1,0.6-0.2,0.9-0.2
		c0.3,0,0.7,0.1,0.9,0.2c0.3,0.1,0.5,0.3,0.7,0.5c0.2,0.2,0.4,0.5,0.5,0.7c0.1,0.3,0.2,0.6,0.2,0.9c0,0.3-0.1,0.6-0.2,0.9
		c-0.1,0.3-0.3,0.5-0.5,0.7c-0.2,0.2-0.4,0.4-0.7,0.5c-0.3,0.1-0.6,0.2-0.9,0.2c-0.4,0-0.7-0.1-1-0.3c-0.3-0.2-0.5-0.4-0.7-0.6h0
		v2.9h-0.7V137.4z M28.1,139.6c0,0.2,0,0.4,0.1,0.6c0.1,0.2,0.2,0.4,0.3,0.5c0.1,0.1,0.3,0.3,0.5,0.3c0.2,0.1,0.4,0.1,0.6,0.1
		c0.2,0,0.5,0,0.6-0.1c0.2-0.1,0.4-0.2,0.5-0.3c0.1-0.1,0.2-0.3,0.3-0.5c0.1-0.2,0.1-0.4,0.1-0.6c0-0.2,0-0.4-0.1-0.6
		c-0.1-0.2-0.2-0.4-0.3-0.5c-0.1-0.1-0.3-0.3-0.5-0.3c-0.2-0.1-0.4-0.1-0.6-0.1c-0.2,0-0.5,0-0.6,0.1c-0.2,0.1-0.4,0.2-0.5,0.3
		c-0.1,0.1-0.2,0.3-0.3,0.5C28.2,139.1,28.1,139.3,28.1,139.6z"/>
	<path id="XMLID_523_" class="st1" d="M32.6,134.7h0.7v3.3h0c0-0.1,0.1-0.2,0.2-0.3c0.1-0.1,0.2-0.2,0.3-0.2
		c0.1-0.1,0.3-0.1,0.4-0.2c0.1,0,0.3-0.1,0.5-0.1c0.3,0,0.5,0,0.7,0.1c0.2,0.1,0.4,0.2,0.5,0.4c0.1,0.2,0.2,0.3,0.3,0.6
		c0.1,0.2,0.1,0.5,0.1,0.7v2.7h-0.7v-2.6c0-0.4-0.1-0.7-0.2-0.9c-0.2-0.2-0.4-0.3-0.8-0.3c-0.2,0-0.4,0-0.6,0.1
		c-0.2,0.1-0.3,0.2-0.4,0.3c-0.1,0.2-0.2,0.3-0.2,0.5c-0.1,0.2-0.1,0.4-0.1,0.7v2.1h-0.7V134.7z"/>
	<path id="XMLID_520_" class="st1" d="M37.3,135.7c0-0.1,0.1-0.3,0.2-0.4c0.1-0.1,0.2-0.2,0.4-0.2c0.2,0,0.3,0.1,0.4,0.2
		c0.1,0.1,0.2,0.2,0.2,0.4c0,0.2,0,0.3-0.1,0.4c-0.1,0.1-0.2,0.2-0.4,0.2c-0.2,0-0.3,0-0.4-0.2C37.3,135.9,37.3,135.8,37.3,135.7z
		 M37.4,137.4h0.7v4.4h-0.7V137.4z"/>
	<path id="XMLID_518_" class="st1" d="M42.1,138.5c-0.2-0.2-0.3-0.3-0.5-0.4c-0.2-0.1-0.4-0.1-0.6-0.1c-0.2,0-0.5,0-0.6,0.1
		c-0.2,0.1-0.3,0.2-0.5,0.4c-0.1,0.1-0.2,0.3-0.3,0.5c-0.1,0.2-0.1,0.4-0.1,0.6c0,0.2,0,0.4,0.1,0.6c0.1,0.2,0.2,0.4,0.3,0.5
		c0.1,0.1,0.3,0.3,0.5,0.4c0.2,0.1,0.4,0.1,0.6,0.1c0.5,0,0.9-0.2,1.1-0.5l0.5,0.5c-0.2,0.2-0.5,0.4-0.7,0.5
		c-0.3,0.1-0.6,0.2-0.9,0.2c-0.3,0-0.6-0.1-0.9-0.2c-0.3-0.1-0.5-0.3-0.7-0.5c-0.2-0.2-0.3-0.4-0.5-0.7c-0.1-0.3-0.2-0.6-0.2-0.9
		c0-0.3,0.1-0.6,0.2-0.9c0.1-0.3,0.3-0.5,0.5-0.7c0.2-0.2,0.4-0.4,0.7-0.5c0.3-0.1,0.6-0.2,0.9-0.2c0.3,0,0.6,0.1,0.9,0.2
		c0.3,0.1,0.5,0.3,0.8,0.5L42.1,138.5z"/>
	<path id="XMLID_516_" class="st1" d="M43.7,140.6c0.1,0.2,0.3,0.3,0.5,0.4c0.2,0.1,0.4,0.2,0.7,0.2c0.1,0,0.2,0,0.3,0
		c0.1,0,0.2-0.1,0.3-0.1c0.1-0.1,0.2-0.1,0.2-0.2c0.1-0.1,0.1-0.2,0.1-0.3c0-0.1,0-0.2-0.1-0.3c-0.1-0.1-0.1-0.1-0.2-0.2
		c-0.1-0.1-0.2-0.1-0.3-0.1c-0.1,0-0.2-0.1-0.3-0.1c-0.2,0-0.4-0.1-0.6-0.1s-0.4-0.1-0.5-0.2c-0.1-0.1-0.3-0.2-0.3-0.4
		c-0.1-0.1-0.1-0.3-0.1-0.6c0-0.2,0-0.4,0.1-0.6c0.1-0.2,0.2-0.3,0.4-0.4c0.2-0.1,0.3-0.2,0.5-0.2c0.2-0.1,0.4-0.1,0.6-0.1
		c0.3,0,0.6,0.1,0.9,0.2c0.3,0.1,0.5,0.3,0.6,0.6l-0.6,0.4c-0.1-0.2-0.2-0.3-0.4-0.4c-0.2-0.1-0.3-0.1-0.6-0.1c-0.1,0-0.2,0-0.3,0
		c-0.1,0-0.2,0.1-0.3,0.1c-0.1,0-0.1,0.1-0.2,0.2c-0.1,0.1-0.1,0.2-0.1,0.3c0,0.1,0,0.2,0.1,0.2c0.1,0.1,0.1,0.1,0.2,0.2
		c0.1,0,0.2,0.1,0.4,0.1c0.1,0,0.3,0.1,0.4,0.1c0.2,0,0.4,0.1,0.6,0.1c0.2,0.1,0.3,0.1,0.5,0.2c0.1,0.1,0.2,0.2,0.3,0.4
		c0.1,0.1,0.1,0.3,0.1,0.6c0,0.2,0,0.5-0.2,0.6c-0.1,0.2-0.2,0.3-0.4,0.4c-0.2,0.1-0.4,0.2-0.6,0.2c-0.2,0.1-0.4,0.1-0.6,0.1
		c-0.4,0-0.7-0.1-1-0.2c-0.3-0.1-0.5-0.3-0.7-0.6L43.7,140.6z"/>
</g>
<g id="XMLID_483_">
	<g id="XMLID_489_">
		<path id="XMLID_492_" class="st0" d="M22.4,100.6h-0.8c-0.5,0-1-0.1-1.2-0.3c-0.3-0.2-0.4-0.4-0.4-0.8c0-0.4,0.1-0.6,0.4-0.8
			c0.3-0.2,0.7-0.3,1.2-0.3h4c0.5,0,0.9,0.1,1.2,0.3c0.3,0.2,0.4,0.4,0.4,0.8c0,0.4-0.1,0.6-0.4,0.8c-0.3,0.2-0.7,0.3-1.2,0.3h-0.8
			v6.4c0,0.5-0.1,0.9-0.3,1.2c-0.2,0.3-0.5,0.4-0.9,0.4c-0.4,0-0.7-0.1-0.9-0.4c-0.2-0.3-0.3-0.7-0.3-1.2V100.6z"/>
		<path id="XMLID_490_" class="st0" d="M27.2,106.7l1.2-6.8c0.1-0.6,0.3-1,0.5-1.2c0.2-0.2,0.6-0.4,1-0.4c0.4,0,0.8,0.1,1,0.3
			c0.3,0.2,0.4,0.6,0.6,1l1.5,6l1.4-6c0.1-0.4,0.3-0.8,0.5-1c0.3-0.2,0.6-0.3,1-0.3c0.5,0,0.8,0.1,1.1,0.4c0.3,0.3,0.4,0.7,0.5,1.3
			l1.1,6.9c0,0.1,0,0.2,0,0.3c0,0.1,0,0.2,0,0.2c0,0.4-0.1,0.7-0.3,0.9c-0.2,0.2-0.5,0.3-0.8,0.3c-0.3,0-0.6-0.1-0.8-0.3
			c-0.2-0.2-0.3-0.6-0.4-1l-0.7-6c-0.6,2.4-1,4.1-1.2,5.1c-0.3,1-0.5,1.6-0.6,1.8c-0.1,0.1-0.2,0.2-0.4,0.3
			c-0.1,0.1-0.3,0.1-0.6,0.1c-0.4,0-0.7-0.1-0.9-0.3c-0.2-0.2-0.4-0.5-0.5-0.9l-1.5-6.2l-0.8,5.8c-0.1,0.5-0.2,0.9-0.4,1.1
			c-0.2,0.2-0.5,0.4-0.8,0.4c-0.3,0-0.6-0.1-0.8-0.3c-0.2-0.2-0.3-0.5-0.3-0.9c0-0.1,0-0.2,0-0.3C27.1,107,27.2,106.8,27.2,106.7z"
			/>
	</g>
	<g id="XMLID_484_">
		<g id="XMLID_485_">
			<path id="XMLID_486_" class="st0" d="M29.9,117c-7.9,0-14.3-6.4-14.3-14.3c0-7.9,6.4-14.3,14.3-14.3c7.9,0,14.3,6.4,14.3,14.3
				C44.1,110.6,37.7,117,29.9,117z M29.9,91c-6.5,0-11.8,5.3-11.8,11.8s5.3,11.8,11.8,11.8s11.8-5.3,11.8-11.8S36.4,91,29.9,91z"/>
		</g>
	</g>
</g>
<g id="XMLID_37_">
	<g id="XMLID_42_">
		<path id="XMLID_45_" class="st0" d="M222.5,38.1C222.5,38.1,222.5,38.1,222.5,38.1c-3.4,0-6.2-3.3-6.2-7.3c0-2.1,0.8-4.1,2.2-5.4
			c1.1-1.1,2.6-1.7,4.1-1.7c0.5,0,0.8,0.4,0.8,0.8c0,0.5-0.4,0.8-0.8,0.8c0,0,0,0,0,0c-1,0-2.1,0.4-2.9,1.2
			c-1.1,1.1-1.7,2.6-1.7,4.3c0,3.1,2,5.6,4.5,5.6c0.5,0,0.8,0.4,0.8,0.8C223.4,37.7,223,38.1,222.5,38.1z"/>
		<path id="XMLID_44_" class="st0" d="M217.8,47.2C217.8,47.2,217.8,47.2,217.8,47.2c-3.8,0-7.3-1.8-9.9-4.9c-2.6-3.1-4-7.2-4-11.5
			c0-4.3,1.5-8.4,4.1-11.5c2.6-3.1,6.1-4.8,9.8-4.8c0,0,0.1,0,0.1,0c0.5,0,0.8,0.4,0.8,0.8c0,0.5-0.4,0.8-0.8,0.8c0,0-0.1,0-0.1,0
			c-3.2,0-6.3,1.5-8.6,4.2c-2.4,2.8-3.7,6.5-3.7,10.4c0,3.9,1.2,7.7,3.6,10.5c2.3,2.8,5.4,4.3,8.6,4.3c0.5,0,0.8,0.4,0.8,0.8
			C218.6,46.8,218.3,47.2,217.8,47.2z"/>
		<path id="XMLID_43_" class="st0" d="M219.8,42.6C219.8,42.6,219.8,42.6,219.8,42.6c-5.6,0-10.1-5.4-10-11.9c0-3.4,1.3-6.7,3.6-8.9
			c1.8-1.8,4.1-2.8,6.5-2.8c0,0,0,0,0.1,0c0.5,0,0.8,0.4,0.8,0.8c0,0.5-0.4,0.8-0.8,0.8c0,0,0,0-0.1,0c-1.9,0-3.8,0.8-5.4,2.3
			c-1.9,1.9-3.1,4.7-3.1,7.7c0,5.6,3.7,10.1,8.4,10.2c0.5,0,0.8,0.4,0.8,0.8C220.6,42.3,220.2,42.6,219.8,42.6z"/>
	</g>
	<g id="XMLID_38_">
		<path id="XMLID_41_" class="st0" d="M197.2,23.6C197.2,23.6,197.2,23.6,197.2,23.6c3.4,0,6.2,3.3,6.2,7.3c0,2.1-0.8,4.1-2.2,5.4
			c-1.1,1.1-2.6,1.7-4.1,1.7c-0.5,0-0.8-0.4-0.8-0.8c0-0.5,0.4-0.8,0.8-0.8c0,0,0,0,0,0c1,0,2.1-0.4,2.9-1.2
			c1.1-1.1,1.7-2.6,1.7-4.3c0-3.1-2-5.6-4.5-5.6c-0.5,0-0.8-0.4-0.8-0.8C196.4,24,196.7,23.6,197.2,23.6z"/>
		<path id="XMLID_40_" class="st0" d="M201.9,14.5C201.9,14.5,201.9,14.5,201.9,14.5c3.8,0,7.3,1.8,9.9,4.9c2.6,3.1,4,7.2,4,11.5
			c0,4.3-1.5,8.4-4.1,11.5c-2.6,3.1-6.1,4.8-9.8,4.8c0,0-0.1,0-0.1,0c-0.5,0-0.8-0.4-0.8-0.8c0-0.5,0.4-0.8,0.8-0.8c0,0,0.1,0,0.1,0
			c3.2,0,6.3-1.5,8.6-4.2c2.4-2.8,3.7-6.5,3.7-10.4c0-3.9-1.3-7.7-3.6-10.5c-2.3-2.8-5.4-4.3-8.6-4.3c-0.5,0-0.8-0.4-0.8-0.8
			C201.1,14.9,201.5,14.5,201.9,14.5z"/>
		<path id="XMLID_39_" class="st0" d="M200,19.1C200,19.1,200,19.1,200,19.1c5.6,0,10.1,5.4,10,11.9c0,3.4-1.3,6.7-3.6,8.9
			c-1.8,1.8-4.1,2.8-6.5,2.8c0,0,0,0-0.1,0c-0.5,0-0.8-0.4-0.8-0.8c0-0.5,0.4-0.8,0.8-0.8c0,0,0,0,0.1,0c1.9,0,3.8-0.8,5.4-2.3
			c1.9-1.9,3.1-4.7,3.1-7.7c0-5.6-3.7-10.1-8.4-10.2c-0.5,0-0.8-0.4-0.8-0.8C199.1,19.5,199.5,19.1,200,19.1z"/>
	</g>
</g>
<g id="XMLID_28_">
	<g id="XMLID_33_">
		<path id="XMLID_36_" class="st1" d="M222.5,38.1C222.5,38.1,222.5,38.1,222.5,38.1c-3.4,0-6.2-3.3-6.2-7.3c0-2.1,0.8-4.1,2.2-5.4
			c1.1-1.1,2.6-1.7,4.1-1.7c0.5,0,0.8,0.4,0.8,0.8c0,0.5-0.4,0.8-0.8,0.8c0,0,0,0,0,0c-1,0-2.1,0.4-2.9,1.2
			c-1.1,1.1-1.7,2.6-1.7,4.3c0,3.1,2,5.6,4.5,5.6c0.5,0,0.8,0.4,0.8,0.8C223.4,37.7,223,38.1,222.5,38.1z"/>
		<path id="XMLID_35_" class="st1" d="M217.8,47.2C217.8,47.2,217.8,47.2,217.8,47.2c-3.8,0-7.3-1.8-9.9-4.9c-2.6-3.1-4-7.2-4-11.5
			c0-4.3,1.5-8.4,4.1-11.5c2.6-3.1,6.1-4.8,9.8-4.8c0,0,0.1,0,0.1,0c0.5,0,0.8,0.4,0.8,0.8c0,0.5-0.4,0.8-0.8,0.8c0,0-0.1,0-0.1,0
			c-3.2,0-6.3,1.5-8.6,4.2c-2.4,2.8-3.7,6.5-3.7,10.4c0,3.9,1.2,7.7,3.6,10.5c2.3,2.8,5.4,4.3,8.6,4.3c0.5,0,0.8,0.4,0.8,0.8
			C218.6,46.8,218.3,47.2,217.8,47.2z"/>
		<path id="XMLID_34_" class="st1" d="M219.8,42.6C219.8,42.6,219.8,42.6,219.8,42.6c-5.6,0-10.1-5.4-10-11.9c0-3.4,1.3-6.7,3.6-8.9
			c1.8-1.8,4.1-2.8,6.5-2.8c0,0,0,0,0.1,0c0.5,0,0.8,0.4,0.8,0.8c0,0.5-0.4,0.8-0.8,0.8c0,0,0,0-0.1,0c-1.9,0-3.8,0.8-5.4,2.3
			c-1.9,1.9-3.1,4.7-3.1,7.7c0,5.6,3.7,10.1,8.4,10.2c0.5,0,0.8,0.4,0.8,0.8C220.6,42.3,220.2,42.6,219.8,42.6z"/>
	</g>
	<g id="XMLID_29_">
		<path id="XMLID_32_" class="st1" d="M197.2,23.6C197.2,23.6,197.2,23.6,197.2,23.6c3.4,0,6.2,3.3,6.2,7.3c0,2.1-0.8,4.1-2.2,5.4
			c-1.1,1.1-2.6,1.7-4.1,1.7c-0.5,0-0.8-0.4-0.8-0.8c0-0.5,0.4-0.8,0.8-0.8c0,0,0,0,0,0c1,0,2.1-0.4,2.9-1.2
			c1.1-1.1,1.7-2.6,1.7-4.3c0-3.1-2-5.6-4.5-5.6c-0.5,0-0.8-0.4-0.8-0.8C196.4,24,196.7,23.6,197.2,23.6z"/>
		<path id="XMLID_31_" class="st1" d="M201.9,14.5C201.9,14.5,201.9,14.5,201.9,14.5c3.8,0,7.3,1.8,9.9,4.9c2.6,3.1,4,7.2,4,11.5
			c0,4.3-1.5,8.4-4.1,11.5c-2.6,3.1-6.1,4.8-9.8,4.8c0,0-0.1,0-0.1,0c-0.5,0-0.8-0.4-0.8-0.8c0-0.5,0.4-0.8,0.8-0.8c0,0,0.1,0,0.1,0
			c3.2,0,6.3-1.5,8.6-4.2c2.4-2.8,3.7-6.5,3.7-10.4c0-3.9-1.3-7.7-3.6-10.5c-2.3-2.8-5.4-4.3-8.6-4.3c-0.5,0-0.8-0.4-0.8-0.8
			C201.1,14.9,201.5,14.5,201.9,14.5z"/>
		<path id="XMLID_30_" class="st1" d="M200,19.1C200,19.1,200,19.1,200,19.1c5.6,0,10.1,5.4,10,11.9c0,3.4-1.3,6.7-3.6,8.9
			c-1.8,1.8-4.1,2.8-6.5,2.8c0,0,0,0-0.1,0c-0.5,0-0.8-0.4-0.8-0.8c0-0.5,0.4-0.8,0.8-0.8c0,0,0,0,0.1,0c1.9,0,3.8-0.8,5.4-2.3
			c1.9-1.9,3.1-4.7,3.1-7.7c0-5.6-3.7-10.1-8.4-10.2c-0.5,0-0.8-0.4-0.8-0.8C199.1,19.5,199.5,19.1,200,19.1z"/>
	</g>
</g>
<path id="XMLID_868_" class="st1" d="M170.3,16.4c0.2-0.2,0.2-0.5,0-0.7l-5.2-5.2c-0.2-0.2-0.5-0.2-0.7,0h0l-31.5,31.5l-3.2,8.4l0,0
	c-0.1,0.2-0.1,0.5,0.1,0.7c0.1,0.1,0.3,0.2,0.4,0.2c0.1,0,0.2,0,0.2-0.1l0,0l8.4-3.3l0,0l30.9-30.9c0,0,0,0,0,0L170.3,16.4
	L170.3,16.4L170.3,16.4z M131.3,49.6l-0.1-0.1l2.5-6.7L138,47L131.3,49.6z"/>
<path id="XMLID_864_" class="st1" d="M170.3,16.4c0.2-0.2,0.2-0.5,0-0.7l-5.2-5.2c-0.2-0.2-0.5-0.2-0.7,0h0l-31.5,31.5l-3.2,8.4l0,0
	c-0.1,0.2-0.1,0.5,0.1,0.7c0.1,0.1,0.3,0.2,0.4,0.2c0.1,0,0.2,0,0.2-0.1l0,0l8.4-3.3l0,0l30.9-30.9c0,0,0,0,0,0L170.3,16.4
	L170.3,16.4L170.3,16.4z M131.3,49.6l-0.1-0.1l2.5-6.7L138,47L131.3,49.6z"/>
<path id="XMLID_978_" class="st0" d="M108.9,25.3l2.8-9.4l-17.8-4.3l-3.5,8l-5.8,1.7l-16.5-5.5l4.6,9.4V43l17.6,5.9l0.6,0.2l0,0l0,0
	l0.6-0.2l17.6-5.9V25.3z M94.6,13l15.7,3.8l-2.3,7.7l-16.4-4.7L94.6,13z M106.4,25.3l-15,4.9V21L106.4,25.3z M90.2,21v6.8l-1.9-5.1
	L86.5,22L90.2,21z M87.4,23.6l2.4,6.5l-16.2-5.2l-3.4-6.9L87.4,23.6z M73.8,42.2V26l16.4,5.3v16.3L73.8,42.2z M107.8,42.2l-16.4,5.5
	V31.3l16.4-5.3V42.2z"/>
<path id="XMLID_970_" class="st1" d="M108.9,25.3l2.8-9.4l-17.8-4.3l-3.5,8l-5.8,1.7l-16.5-5.5l4.6,9.4V43l17.6,5.9l0.6,0.2l0,0l0,0
	l0.6-0.2l17.6-5.9V25.3z M94.6,13l15.7,3.8l-2.3,7.7l-16.4-4.7L94.6,13z M106.4,25.3l-15,4.9V21L106.4,25.3z M90.2,21v6.8l-1.9-5.1
	L86.5,22L90.2,21z M87.4,23.6l2.4,6.5l-16.2-5.2l-3.4-6.9L87.4,23.6z M73.8,42.2V26l16.4,5.3v16.3L73.8,42.2z M107.8,42.2l-16.4,5.5
	V31.3l16.4-5.3V42.2z"/>
<g id="XMLID_1029_">
	<g id="XMLID_1035_">
		<path id="XMLID_1038_" class="st2" d="M22.4,28.7h-0.8c-0.5,0-1-0.1-1.2-0.3C20.1,28.2,20,28,20,27.6c0-0.4,0.1-0.6,0.4-0.8
			c0.3-0.2,0.7-0.3,1.2-0.3h4c0.5,0,0.9,0.1,1.2,0.3c0.3,0.2,0.4,0.4,0.4,0.8c0,0.4-0.1,0.6-0.4,0.8c-0.3,0.2-0.7,0.3-1.2,0.3h-0.8
			V35c0,0.5-0.1,0.9-0.3,1.2c-0.2,0.3-0.5,0.4-0.9,0.4c-0.4,0-0.7-0.1-0.9-0.4c-0.2-0.3-0.3-0.7-0.3-1.2V28.7z"/>
		<path id="XMLID_1036_" class="st2" d="M27.2,34.8l1.2-6.8c0.1-0.6,0.3-1,0.5-1.2c0.2-0.2,0.6-0.4,1-0.4c0.4,0,0.8,0.1,1,0.3
			c0.3,0.2,0.4,0.6,0.6,1l1.5,6l1.4-6c0.1-0.4,0.3-0.8,0.5-1c0.3-0.2,0.6-0.3,1-0.3c0.5,0,0.8,0.1,1.1,0.4c0.3,0.3,0.4,0.7,0.5,1.3
			l1.1,6.9c0,0.1,0,0.2,0,0.3c0,0.1,0,0.2,0,0.2c0,0.4-0.1,0.7-0.3,0.9c-0.2,0.2-0.5,0.3-0.8,0.3c-0.3,0-0.6-0.1-0.8-0.3
			c-0.2-0.2-0.3-0.6-0.4-1l-0.7-6c-0.6,2.4-1,4.1-1.2,5.1c-0.3,1-0.5,1.6-0.6,1.8c-0.1,0.1-0.2,0.2-0.4,0.3
			c-0.1,0.1-0.3,0.1-0.6,0.1c-0.4,0-0.7-0.1-0.9-0.3c-0.2-0.2-0.4-0.5-0.5-0.9l-1.5-6.2l-0.8,5.8c-0.1,0.5-0.2,0.9-0.4,1.1
			c-0.2,0.2-0.5,0.4-0.8,0.4c-0.3,0-0.6-0.1-0.8-0.3c-0.2-0.2-0.3-0.5-0.3-0.9c0-0.1,0-0.2,0-0.3C27.1,35.1,27.2,34.9,27.2,34.8z"/>
	</g>
	<g id="XMLID_1030_">
		<g id="XMLID_1031_">
			<path id="XMLID_1032_" class="st2" d="M29.9,45.1c-7.9,0-14.3-6.4-14.3-14.3c0-7.9,6.4-14.3,14.3-14.3c7.9,0,14.3,6.4,14.3,14.3
				C44.1,38.7,37.7,45.1,29.9,45.1z M29.9,19.1c-6.5,0-11.8,5.3-11.8,11.8s5.3,11.8,11.8,11.8s11.8-5.3,11.8-11.8
				S36.4,19.1,29.9,19.1z"/>
		</g>
	</g>
</g>
<g id="XMLID_1018_">
	<g id="XMLID_1024_">
		<path id="XMLID_1027_" class="st2" d="M22.4,28.7h-0.8c-0.5,0-1-0.1-1.2-0.3C20.1,28.2,20,28,20,27.6c0-0.4,0.1-0.6,0.4-0.8
			c0.3-0.2,0.7-0.3,1.2-0.3h4c0.5,0,0.9,0.1,1.2,0.3c0.3,0.2,0.4,0.4,0.4,0.8c0,0.4-0.1,0.6-0.4,0.8c-0.3,0.2-0.7,0.3-1.2,0.3h-0.8
			V35c0,0.5-0.1,0.9-0.3,1.2c-0.2,0.3-0.5,0.4-0.9,0.4c-0.4,0-0.7-0.1-0.9-0.4c-0.2-0.3-0.3-0.7-0.3-1.2V28.7z"/>
		<path id="XMLID_1025_" class="st2" d="M27.2,34.8l1.2-6.8c0.1-0.6,0.3-1,0.5-1.2c0.2-0.2,0.6-0.4,1-0.4c0.4,0,0.8,0.1,1,0.3
			c0.3,0.2,0.4,0.6,0.6,1l1.5,6l1.4-6c0.1-0.4,0.3-0.8,0.5-1c0.3-0.2,0.6-0.3,1-0.3c0.5,0,0.8,0.1,1.1,0.4c0.3,0.3,0.4,0.7,0.5,1.3
			l1.1,6.9c0,0.1,0,0.2,0,0.3c0,0.1,0,0.2,0,0.2c0,0.4-0.1,0.7-0.3,0.9c-0.2,0.2-0.5,0.3-0.8,0.3c-0.3,0-0.6-0.1-0.8-0.3
			c-0.2-0.2-0.3-0.6-0.4-1l-0.7-6c-0.6,2.4-1,4.1-1.2,5.1c-0.3,1-0.5,1.6-0.6,1.8c-0.1,0.1-0.2,0.2-0.4,0.3
			c-0.1,0.1-0.3,0.1-0.6,0.1c-0.4,0-0.7-0.1-0.9-0.3c-0.2-0.2-0.4-0.5-0.5-0.9l-1.5-6.2l-0.8,5.8c-0.1,0.5-0.2,0.9-0.4,1.1
			c-0.2,0.2-0.5,0.4-0.8,0.4c-0.3,0-0.6-0.1-0.8-0.3c-0.2-0.2-0.3-0.5-0.3-0.9c0-0.1,0-0.2,0-0.3C27.1,35.1,27.2,34.9,27.2,34.8z"/>
	</g>
	<g id="XMLID_1019_">
		<g id="XMLID_1020_">
			<path id="XMLID_1021_" class="st2" d="M29.9,45.1c-7.9,0-14.3-6.4-14.3-14.3c0-7.9,6.4-14.3,14.3-14.3c7.9,0,14.3,6.4,14.3,14.3
				C44.1,38.7,37.7,45.1,29.9,45.1z M29.9,19.1c-6.5,0-11.8,5.3-11.8,11.8s5.3,11.8,11.8,11.8s11.8-5.3,11.8-11.8
				S36.4,19.1,29.9,19.1z"/>
		</g>
	</g>
</g>
</svg>
