<?xml version="1.0" encoding="utf-8"?>
<!-- Generator: Adobe Illustrator 16.0.0, SVG Export Plug-In . SVG Version: 6.00 Build 0)  -->
<!DOCTYPE svg PUBLIC "-//W3C//DTD SVG 1.1//EN" "http://www.w3.org/Graphics/SVG/1.1/DTD/svg11.dtd">
<svg version="1.1" id="Layer_1" xmlns="http://www.w3.org/2000/svg" xmlns:xlink="http://www.w3.org/1999/xlink" x="0px" y="0px"
	 width="320px" height="200px" viewBox="0 0 320 200" enable-background="new 0 0 320 200" xml:space="preserve">
<path fill="#808184" d="M76.128,176.043c0,3.186-2.583,5.77-5.77,5.77H5.77c-3.187,0-5.77-2.584-5.77-5.77v-64.588
	c0-3.188,2.583-5.771,5.77-5.771h64.589c3.187,0,5.77,2.583,5.77,5.771V176.043z"/>
<path fill="#808184" d="M156.128,176.043c0,3.186-2.583,5.77-5.769,5.77H85.769c-3.186,0-5.769-2.584-5.769-5.77v-64.59
	c0-3.186,2.583-5.769,5.769-5.769h64.591c3.186,0,5.769,2.583,5.769,5.769V176.043z"/>
<path fill="#808184" d="M236.129,176.043c0,3.186-2.583,5.77-5.77,5.77h-64.59c-3.186,0-5.77-2.584-5.77-5.77v-64.59
	c0-3.186,2.584-5.769,5.77-5.769h64.59c3.187,0,5.77,2.583,5.77,5.769V176.043z"/>
<path fill="#808184" d="M316.129,176.043c0,3.186-2.583,5.77-5.77,5.77h-64.59c-3.186,0-5.77-2.584-5.77-5.77v-64.588
	c0-3.188,2.584-5.771,5.77-5.771h64.59c3.187,0,5.77,2.583,5.77,5.771V176.043z"/>
<g>
	<path fill="#FFFFFF" d="M38.065,162.58c-10.384,0-18.832-8.447-18.832-18.831s8.448-18.831,18.832-18.831
		c10.383,0,18.831,8.447,18.831,18.831S48.448,162.58,38.065,162.58z M38.065,128.203c-8.572,0-15.546,6.974-15.546,15.546
		c0,8.571,6.974,15.546,15.546,15.546s15.545-6.975,15.545-15.546C53.61,135.177,46.637,128.203,38.065,128.203z"/>
	<g>
		<path fill="#FFFFFF" d="M31.962,133.941h5.014c0.942,0,1.879,0.055,2.812,0.167c0.932,0.11,1.768,0.351,2.507,0.72
			s1.34,0.91,1.802,1.62c0.461,0.711,0.692,1.677,0.692,2.896c0,1.44-0.434,2.604-1.302,3.49c-0.868,0.887-2.069,1.45-3.602,1.689
			l5.568,9.031h-2.853l-5.319-8.808h-2.992v8.808h-2.327V133.941z M34.289,142.586h2.079c0.646,0,1.315-0.02,2.007-0.057
			c0.693-0.036,1.33-0.157,1.912-0.36c0.583-0.202,1.062-0.521,1.441-0.956c0.378-0.433,0.567-1.057,0.567-1.869
			c0-0.703-0.138-1.266-0.415-1.689c-0.278-0.426-0.643-0.753-1.095-0.984c-0.452-0.23-0.96-0.383-1.524-0.457
			c-0.563-0.074-1.13-0.111-1.703-0.111h-3.27V142.586z"/>
	</g>
</g>
<path fill="#FFFFFF" d="M143.174,136.943l3.653-12.34l-23.455-5.627l-4.649,10.603l-7.656,2.19l-21.765-7.199l6.065,12.437v23.245
	l23.15,7.764v0.504l0.754-0.252l0.753,0.252v-0.504l23.15-7.764V136.943z M124.247,120.736l20.683,4.963l-3.02,10.203l-21.603-6.184
	L124.247,120.736z M139.836,136.877l-19.812,6.409v-12.081L139.836,136.877z M118.517,131.205v8.908l-2.479-6.699l-2.43-0.804
	L118.517,131.205z M114.876,134.617l3.148,8.512l-21.366-6.915l-4.433-9.089L114.876,134.617z M96.874,159.168v-21.299l21.643,7.002
	v21.555L96.874,159.168z M141.667,159.168l-21.643,7.258v-21.555l21.643-7.002V159.168z"/>
<path fill="#FFFFFF" d="M217.635,116.344l-41.977,41.979l-4.999,12.83l12.78-4.977l0.054-0.021l41.977-41.977L217.635,116.344z
	 M173.599,168.398l-0.17-0.172l3.286-8.828l5.718,5.682L173.599,168.398z"/>
<g>
	<path fill="#FFFFFF" d="M278.066,162.58c-10.386,0-18.832-8.447-18.832-18.833c0-10.384,8.446-18.829,18.832-18.829
		c10.383,0,18.83,8.445,18.83,18.829C296.896,154.133,288.449,162.58,278.066,162.58z M278.066,128.203
		c-8.573,0-15.546,6.973-15.546,15.544c0,8.573,6.973,15.548,15.546,15.548c8.57,0,15.544-6.975,15.544-15.548
		C293.61,135.176,286.637,128.203,278.066,128.203z"/>
	<path fill="#FFFFFF" d="M277.882,145.871l-10.947-10.764c-0.648-0.637-0.656-1.676-0.02-2.323c0.635-0.646,1.677-0.655,2.323-0.019
		l9.012,8.859l6.483-4.471c0.748-0.516,1.771-0.327,2.285,0.42c0.517,0.746,0.329,1.77-0.418,2.284L277.882,145.871z"/>
</g>
<g>
	<path fill="#808184" d="M5.941,188.15h1.563l3,6.938h0.025l3.024-6.938h1.525V197h-1.05v-7.424h-0.025L10.829,197H10.19
		l-3.174-7.424H6.991V197h-1.05V188.15z"/>
	<path fill="#808184" d="M17.028,191.9c0.3-0.309,0.656-0.535,1.069-0.682c0.412-0.145,0.831-0.219,1.256-0.219
		c0.866,0,1.491,0.205,1.875,0.613c0.383,0.408,0.575,1.029,0.575,1.861v2.514c0,0.166,0.008,0.338,0.025,0.518
		c0.017,0.18,0.038,0.344,0.062,0.494h-0.937c-0.034-0.133-0.052-0.281-0.057-0.445c-0.004-0.162-0.007-0.305-0.007-0.43h-0.024
		c-0.192,0.301-0.449,0.545-0.769,0.736c-0.321,0.193-0.707,0.287-1.157,0.287c-0.3,0-0.581-0.037-0.843-0.111
		c-0.263-0.074-0.492-0.186-0.688-0.332c-0.196-0.145-0.352-0.326-0.469-0.543s-0.175-0.467-0.175-0.75
		c0-0.482,0.125-0.861,0.375-1.137c0.25-0.275,0.56-0.48,0.931-0.613c0.372-0.133,0.771-0.217,1.2-0.25
		c0.429-0.033,0.822-0.051,1.181-0.051h0.375v-0.174c0-0.426-0.127-0.746-0.381-0.963s-0.611-0.324-1.068-0.324
		c-0.317,0-0.627,0.051-0.931,0.156c-0.304,0.104-0.574,0.264-0.807,0.48L17.028,191.9z M19.853,194.188
		c-0.625,0-1.121,0.088-1.487,0.262c-0.366,0.176-0.55,0.463-0.55,0.863c0,0.365,0.123,0.627,0.369,0.781
		c0.245,0.154,0.552,0.23,0.918,0.23c0.283,0,0.532-0.047,0.744-0.145c0.212-0.094,0.389-0.223,0.531-0.381
		c0.141-0.158,0.25-0.344,0.325-0.557c0.075-0.211,0.117-0.439,0.125-0.68v-0.375H19.853z"/>
	<path fill="#808184" d="M23.591,192.537c0-0.266-0.01-0.516-0.025-0.75c-0.017-0.232-0.025-0.445-0.025-0.637h0.925
		c0,0.156,0.004,0.316,0.013,0.475c0.008,0.158,0.012,0.32,0.012,0.488h0.024c0.067-0.143,0.161-0.281,0.282-0.412
		c0.121-0.135,0.265-0.252,0.432-0.357c0.166-0.105,0.353-0.188,0.562-0.25c0.208-0.062,0.433-0.094,0.674-0.094
		c0.067,0,0.133,0.004,0.201,0.014c0.066,0.008,0.133,0.023,0.2,0.049l-0.063,0.986c-0.167-0.049-0.342-0.074-0.525-0.074
		c-0.6,0-1.036,0.193-1.306,0.58c-0.271,0.389-0.406,0.92-0.406,1.596V197h-0.975V192.537z"/>
	<path fill="#808184" d="M27.991,187.551h0.975v6.174l2.663-2.574h1.387l-2.824,2.662L33.303,197h-1.438l-2.899-3.076V197h-0.975
		V187.551z"/>
	<path fill="#808184" d="M34.14,197.537l-0.788-0.312l3.762-9.6l0.788,0.299L34.14,197.537z"/>
	<path fill="#808184" d="M39.04,188.15h2.7c0.367,0,0.725,0.037,1.075,0.111c0.35,0.076,0.662,0.197,0.937,0.369
		c0.275,0.17,0.498,0.395,0.669,0.67c0.17,0.275,0.256,0.617,0.256,1.023c0,0.518-0.14,0.945-0.418,1.283
		c-0.279,0.336-0.656,0.576-1.131,0.717v0.025c0.283,0.025,0.548,0.098,0.794,0.219c0.245,0.121,0.458,0.277,0.637,0.469
		c0.179,0.191,0.319,0.414,0.418,0.668c0.1,0.256,0.15,0.529,0.15,0.82c0,0.49-0.103,0.895-0.306,1.213
		c-0.205,0.316-0.472,0.568-0.8,0.756c-0.33,0.186-0.7,0.318-1.113,0.393c-0.413,0.076-0.823,0.113-1.231,0.113H39.04V188.15z
		 M40.089,191.9h1.45c0.25,0,0.494-0.018,0.731-0.051c0.238-0.033,0.452-0.102,0.644-0.207c0.192-0.104,0.346-0.248,0.462-0.438
		c0.116-0.186,0.175-0.434,0.175-0.742c0-0.275-0.055-0.498-0.163-0.67c-0.109-0.17-0.252-0.305-0.431-0.406
		c-0.179-0.1-0.383-0.168-0.612-0.205c-0.229-0.037-0.46-0.057-0.694-0.057h-1.562V191.9z M40.089,196.025h1.775
		c0.258,0,0.515-0.027,0.769-0.082c0.254-0.055,0.484-0.143,0.688-0.262c0.205-0.121,0.369-0.279,0.494-0.477
		c0.125-0.195,0.187-0.436,0.187-0.717c0-0.309-0.061-0.568-0.181-0.775c-0.121-0.209-0.279-0.375-0.475-0.502
		c-0.196-0.123-0.421-0.211-0.675-0.262c-0.254-0.051-0.515-0.074-0.781-0.074h-1.8V196.025z"/>
	<path fill="#808184" d="M46.739,192.537c0-0.266-0.009-0.516-0.025-0.75c-0.017-0.232-0.025-0.445-0.025-0.637h0.924
		c0,0.156,0.005,0.316,0.014,0.475c0.008,0.158,0.012,0.32,0.012,0.488h0.025c0.066-0.143,0.161-0.281,0.282-0.412
		c0.12-0.135,0.264-0.252,0.431-0.357c0.166-0.105,0.354-0.188,0.562-0.25c0.208-0.062,0.434-0.094,0.675-0.094
		c0.067,0,0.133,0.004,0.2,0.014c0.066,0.008,0.133,0.023,0.2,0.049l-0.063,0.986c-0.166-0.049-0.341-0.074-0.524-0.074
		c-0.6,0-1.035,0.193-1.306,0.58c-0.271,0.389-0.406,0.92-0.406,1.596V197h-0.975V192.537z"/>
	<path fill="#808184" d="M51.064,191.9c0.3-0.309,0.656-0.535,1.068-0.682c0.412-0.145,0.832-0.219,1.256-0.219
		c0.867,0,1.492,0.205,1.875,0.613c0.383,0.408,0.575,1.029,0.575,1.861v2.514c0,0.166,0.008,0.338,0.024,0.518
		s0.038,0.344,0.062,0.494h-0.937c-0.033-0.133-0.052-0.281-0.057-0.445c-0.004-0.162-0.006-0.305-0.006-0.43h-0.024
		c-0.192,0.301-0.448,0.545-0.769,0.736c-0.321,0.193-0.706,0.287-1.156,0.287c-0.3,0-0.582-0.037-0.844-0.111
		c-0.263-0.074-0.492-0.186-0.687-0.332c-0.196-0.145-0.353-0.326-0.469-0.543c-0.117-0.217-0.175-0.467-0.175-0.75
		c0-0.482,0.125-0.861,0.375-1.137s0.56-0.48,0.932-0.613c0.371-0.133,0.771-0.217,1.2-0.25c0.429-0.033,0.822-0.051,1.181-0.051
		h0.375v-0.174c0-0.426-0.127-0.746-0.381-0.963s-0.61-0.324-1.068-0.324c-0.317,0-0.627,0.051-0.932,0.156
		c-0.304,0.104-0.573,0.264-0.807,0.48L51.064,191.9z M53.888,194.188c-0.625,0-1.121,0.088-1.487,0.262
		c-0.366,0.176-0.55,0.463-0.55,0.863c0,0.365,0.124,0.627,0.369,0.781s0.552,0.23,0.918,0.23c0.284,0,0.532-0.047,0.745-0.145
		c0.212-0.094,0.389-0.223,0.531-0.381c0.141-0.158,0.25-0.344,0.325-0.557c0.075-0.211,0.116-0.439,0.125-0.68v-0.375H53.888z"/>
	<path fill="#808184" d="M57.626,192.537c0-0.266-0.009-0.516-0.025-0.75c-0.017-0.232-0.025-0.445-0.025-0.637h0.925
		c0,0.156,0.004,0.316,0.013,0.475s0.012,0.32,0.012,0.488h0.025c0.066-0.143,0.161-0.281,0.282-0.412
		c0.12-0.135,0.264-0.252,0.431-0.357c0.167-0.105,0.354-0.188,0.562-0.25C60.034,191.031,60.259,191,60.5,191
		c0.383,0,0.715,0.059,0.994,0.176c0.279,0.115,0.51,0.279,0.693,0.486c0.184,0.209,0.319,0.461,0.407,0.756
		c0.087,0.297,0.131,0.619,0.131,0.969V197h-0.975v-3.512c0-0.492-0.108-0.881-0.325-1.164c-0.217-0.281-0.554-0.424-1.013-0.424
		c-0.317,0-0.589,0.053-0.818,0.162s-0.417,0.262-0.563,0.463c-0.146,0.199-0.254,0.438-0.324,0.711
		c-0.071,0.275-0.106,0.58-0.106,0.914V197h-0.975V192.537z"/>
	<path fill="#808184" d="M69.438,195.961h-0.025c-0.184,0.334-0.473,0.615-0.869,0.846c-0.396,0.227-0.856,0.342-1.381,0.342
		c-0.409,0-0.792-0.076-1.15-0.23c-0.359-0.154-0.669-0.367-0.931-0.643c-0.263-0.275-0.469-0.6-0.619-0.975
		c-0.15-0.377-0.225-0.783-0.225-1.225c0-0.443,0.075-0.852,0.225-1.227c0.15-0.375,0.358-0.699,0.625-0.975s0.589-0.49,0.969-0.645
		s0.798-0.23,1.256-0.23c0.425,0,0.814,0.088,1.169,0.262c0.354,0.176,0.664,0.422,0.931,0.738h0.025v-4.449h0.975V197h-0.975
		V195.961z M69.438,194.076c0-0.311-0.049-0.594-0.144-0.857c-0.096-0.262-0.236-0.492-0.419-0.688s-0.401-0.35-0.656-0.463
		c-0.255-0.111-0.54-0.168-0.856-0.168c-0.317,0-0.602,0.057-0.856,0.168c-0.254,0.113-0.473,0.268-0.656,0.463
		s-0.323,0.426-0.419,0.688c-0.096,0.264-0.144,0.547-0.144,0.857c0,0.307,0.048,0.594,0.144,0.855s0.236,0.492,0.419,0.686
		c0.183,0.197,0.402,0.352,0.656,0.465c0.254,0.111,0.539,0.168,0.856,0.168c0.316,0,0.602-0.057,0.856-0.168
		c0.254-0.113,0.473-0.268,0.656-0.465c0.183-0.193,0.323-0.424,0.419-0.686C69.389,194.67,69.438,194.383,69.438,194.076z"/>
</g>
<g>
	<g>
		<path fill="#808184" d="M97.153,188.152h2.625c0.408,0,0.797,0.037,1.168,0.117c0.371,0.08,0.7,0.211,0.988,0.4
			c0.287,0.188,0.517,0.438,0.687,0.748c0.171,0.314,0.257,0.699,0.257,1.156c0,0.484-0.091,0.885-0.275,1.201
			c-0.184,0.316-0.418,0.566-0.706,0.75c-0.287,0.184-0.602,0.312-0.943,0.389c-0.342,0.074-0.667,0.111-0.976,0.111h-1.774v3.977
			h-1.05V188.152z M98.204,192.051h1.774c0.525,0,0.952-0.119,1.282-0.357c0.329-0.236,0.493-0.605,0.493-1.105
			s-0.165-0.867-0.493-1.105c-0.33-0.238-0.756-0.357-1.282-0.357h-1.774V192.051z"/>
		<path fill="#808184" d="M104.391,192.537c0-0.266-0.009-0.516-0.025-0.75c-0.017-0.232-0.025-0.445-0.025-0.637h0.925
			c0,0.158,0.004,0.316,0.013,0.475c0.008,0.16,0.012,0.32,0.012,0.488h0.025c0.066-0.143,0.16-0.279,0.281-0.412
			c0.12-0.135,0.265-0.252,0.432-0.355c0.166-0.107,0.354-0.188,0.562-0.25c0.208-0.064,0.433-0.096,0.675-0.096
			c0.066,0,0.133,0.006,0.2,0.014c0.067,0.008,0.133,0.025,0.201,0.049l-0.063,0.988c-0.166-0.051-0.341-0.074-0.524-0.074
			c-0.6,0-1.035,0.191-1.306,0.58c-0.271,0.387-0.406,0.918-0.406,1.594v2.852h-0.975V192.537z"/>
		<path fill="#808184" d="M108.228,194.076c0-0.459,0.079-0.875,0.237-1.25c0.159-0.377,0.375-0.697,0.65-0.969
			s0.604-0.482,0.987-0.631c0.383-0.15,0.8-0.227,1.25-0.227c0.45,0,0.867,0.076,1.251,0.227c0.383,0.148,0.712,0.359,0.987,0.631
			s0.492,0.592,0.65,0.969c0.158,0.375,0.238,0.791,0.238,1.25c0,0.457-0.08,0.875-0.238,1.25c-0.158,0.373-0.375,0.697-0.65,0.967
			c-0.275,0.273-0.604,0.482-0.987,0.633c-0.384,0.15-0.801,0.225-1.251,0.225c-0.449,0-0.866-0.074-1.25-0.225
			s-0.712-0.359-0.987-0.633c-0.275-0.27-0.492-0.594-0.65-0.967C108.307,194.951,108.228,194.533,108.228,194.076z
			 M109.277,194.076c0,0.309,0.048,0.594,0.144,0.855c0.096,0.264,0.236,0.492,0.419,0.688s0.402,0.35,0.656,0.463
			s0.539,0.168,0.855,0.168c0.317,0,0.602-0.055,0.856-0.168s0.473-0.268,0.656-0.463c0.184-0.195,0.323-0.424,0.419-0.688
			c0.096-0.262,0.144-0.547,0.144-0.855s-0.048-0.594-0.144-0.857c-0.096-0.262-0.235-0.49-0.419-0.688
			c-0.183-0.195-0.402-0.35-0.656-0.463c-0.254-0.111-0.54-0.168-0.856-0.168c-0.316,0-0.602,0.057-0.855,0.168
			c-0.254,0.113-0.473,0.268-0.656,0.463c-0.183,0.197-0.323,0.426-0.419,0.688C109.326,193.482,109.277,193.768,109.277,194.076z"
			/>
		<path fill="#808184" d="M120.852,195.963h-0.024c-0.184,0.334-0.474,0.613-0.869,0.844c-0.396,0.229-0.856,0.344-1.381,0.344
			c-0.409,0-0.792-0.078-1.15-0.232c-0.359-0.152-0.669-0.367-0.932-0.643c-0.263-0.275-0.468-0.6-0.618-0.975
			c-0.15-0.377-0.226-0.783-0.226-1.225s0.076-0.852,0.226-1.227c0.15-0.373,0.358-0.699,0.625-0.975s0.59-0.488,0.969-0.645
			c0.379-0.154,0.798-0.23,1.256-0.23c0.425,0,0.814,0.088,1.168,0.262c0.354,0.176,0.665,0.422,0.932,0.738h0.024v-4.449h0.975
			v9.451h-0.975V195.963z M120.852,194.076c0-0.309-0.048-0.594-0.144-0.857c-0.096-0.262-0.235-0.49-0.419-0.688
			c-0.183-0.195-0.402-0.35-0.656-0.463c-0.254-0.111-0.54-0.168-0.856-0.168c-0.316,0-0.602,0.057-0.856,0.168
			c-0.254,0.113-0.473,0.268-0.656,0.463c-0.184,0.197-0.323,0.426-0.419,0.688c-0.096,0.264-0.144,0.549-0.144,0.857
			s0.048,0.594,0.144,0.855c0.096,0.264,0.235,0.492,0.419,0.688c0.183,0.195,0.402,0.35,0.656,0.463s0.54,0.168,0.856,0.168
			c0.317,0,0.602-0.055,0.856-0.168s0.473-0.268,0.656-0.463c0.184-0.195,0.323-0.424,0.419-0.688
			C120.804,194.67,120.852,194.385,120.852,194.076z"/>
		<path fill="#808184" d="M128.727,195.613c0,0.268,0.008,0.518,0.025,0.748c0.016,0.236,0.024,0.447,0.024,0.641h-0.924
			c0-0.16-0.004-0.318-0.013-0.479c-0.008-0.156-0.012-0.318-0.012-0.486h-0.025c-0.066,0.143-0.16,0.279-0.281,0.414
			c-0.12,0.133-0.265,0.252-0.431,0.355s-0.354,0.188-0.562,0.25c-0.208,0.062-0.433,0.094-0.675,0.094
			c-0.383,0-0.715-0.059-0.994-0.174c-0.279-0.117-0.51-0.279-0.694-0.488s-0.319-0.461-0.407-0.758
			c-0.087-0.295-0.13-0.617-0.13-0.967v-3.613h0.975v3.512c0,0.492,0.108,0.879,0.324,1.164c0.217,0.283,0.555,0.424,1.013,0.424
			c0.316,0,0.589-0.055,0.818-0.162c0.229-0.107,0.417-0.262,0.563-0.463c0.146-0.201,0.254-0.438,0.325-0.713
			c0.07-0.273,0.106-0.578,0.106-0.912v-2.85h0.975V195.613z"/>
		<path fill="#808184" d="M134.739,192.613c-0.209-0.25-0.434-0.432-0.675-0.545c-0.242-0.111-0.509-0.168-0.8-0.168
			c-0.326,0-0.612,0.057-0.862,0.168c-0.25,0.113-0.457,0.27-0.619,0.469c-0.163,0.201-0.286,0.434-0.369,0.695
			s-0.125,0.543-0.125,0.844c0,0.299,0.048,0.58,0.144,0.844c0.096,0.262,0.229,0.492,0.4,0.693
			c0.171,0.201,0.377,0.355,0.619,0.469c0.242,0.113,0.513,0.168,0.813,0.168c0.642,0,1.138-0.24,1.487-0.725l0.726,0.688
			c-0.284,0.324-0.617,0.562-1,0.713c-0.383,0.15-0.788,0.225-1.212,0.225c-0.451,0-0.862-0.074-1.238-0.225
			c-0.375-0.15-0.693-0.363-0.956-0.639c-0.262-0.275-0.467-0.6-0.612-0.975s-0.219-0.787-0.219-1.236
			c0-0.441,0.074-0.852,0.219-1.227c0.146-0.373,0.352-0.699,0.619-0.975s0.585-0.488,0.956-0.645
			c0.371-0.154,0.781-0.23,1.231-0.23c0.433,0,0.844,0.076,1.231,0.227c0.388,0.148,0.727,0.383,1.019,0.699L134.739,192.613z"/>
		<path fill="#808184" d="M139.802,191.977h-1.725v2.924c0,0.191,0.004,0.367,0.013,0.531c0.008,0.162,0.042,0.305,0.1,0.426
			s0.146,0.217,0.263,0.285c0.116,0.072,0.282,0.107,0.499,0.107c0.142,0,0.288-0.018,0.438-0.049
			c0.15-0.035,0.292-0.084,0.425-0.15l0.037,0.887c-0.166,0.074-0.351,0.129-0.556,0.162c-0.204,0.033-0.397,0.051-0.582,0.051
			c-0.349,0-0.628-0.047-0.836-0.139c-0.209-0.092-0.371-0.219-0.488-0.387c-0.117-0.166-0.193-0.371-0.231-0.619
			c-0.037-0.244-0.056-0.518-0.056-0.818v-3.211h-1.275v-0.826h1.275v-1.662h0.975v1.662h1.725V191.977z"/>
	</g>
</g>
<g>
	<g>
		<path fill="#808184" d="M175.504,188.152h3.4c0.291,0,0.6,0.031,0.924,0.098c0.325,0.068,0.648,0.174,0.969,0.318
			c0.32,0.146,0.629,0.336,0.925,0.568c0.296,0.234,0.557,0.516,0.781,0.846c0.226,0.328,0.403,0.709,0.538,1.135
			c0.133,0.432,0.2,0.918,0.2,1.459s-0.067,1.027-0.2,1.455c-0.135,0.43-0.312,0.809-0.538,1.139
			c-0.225,0.328-0.485,0.611-0.781,0.842c-0.296,0.234-0.604,0.424-0.925,0.57s-0.644,0.252-0.969,0.318
			c-0.324,0.068-0.633,0.102-0.924,0.102h-3.4V188.152z M176.554,196.025h2c0.507,0,0.979-0.068,1.411-0.199
			c0.435-0.133,0.809-0.34,1.126-0.621c0.316-0.277,0.566-0.633,0.749-1.066c0.184-0.434,0.275-0.955,0.275-1.562
			c0-0.609-0.092-1.129-0.275-1.562c-0.183-0.434-0.433-0.791-0.749-1.07c-0.317-0.277-0.691-0.482-1.126-0.617
			c-0.433-0.135-0.904-0.201-1.411-0.201h-2V196.025z"/>
		<path fill="#808184" d="M184.753,192.537c0-0.266-0.01-0.516-0.026-0.75c-0.015-0.232-0.023-0.445-0.023-0.637h0.924
			c0,0.158,0.004,0.316,0.013,0.475c0.01,0.16,0.013,0.32,0.013,0.488h0.025c0.067-0.143,0.159-0.279,0.28-0.412
			c0.122-0.135,0.266-0.252,0.434-0.355c0.164-0.107,0.353-0.188,0.561-0.25c0.209-0.064,0.433-0.096,0.675-0.096
			c0.067,0,0.135,0.006,0.201,0.014c0.065,0.008,0.133,0.025,0.2,0.049l-0.064,0.988c-0.167-0.051-0.34-0.074-0.525-0.074
			c-0.599,0-1.035,0.191-1.305,0.58c-0.271,0.387-0.405,0.918-0.405,1.594v2.852h-0.976V192.537z"/>
		<path fill="#808184" d="M189.077,191.9c0.301-0.309,0.657-0.535,1.069-0.682c0.412-0.145,0.832-0.219,1.257-0.219
			c0.865,0,1.491,0.205,1.875,0.613c0.382,0.408,0.574,1.029,0.574,1.861v2.514c0,0.166,0.008,0.338,0.024,0.518
			c0.017,0.182,0.038,0.344,0.063,0.496h-0.938c-0.033-0.135-0.052-0.283-0.058-0.445c-0.004-0.164-0.006-0.307-0.006-0.432h-0.025
			c-0.191,0.301-0.446,0.547-0.769,0.736c-0.32,0.193-0.706,0.289-1.155,0.289c-0.301,0-0.582-0.037-0.844-0.113
			c-0.264-0.074-0.492-0.186-0.688-0.33c-0.196-0.146-0.354-0.328-0.469-0.545c-0.116-0.217-0.176-0.465-0.176-0.75
			c0-0.482,0.127-0.861,0.376-1.137c0.25-0.275,0.56-0.479,0.93-0.611c0.371-0.135,0.772-0.217,1.2-0.25
			c0.431-0.035,0.823-0.051,1.183-0.051h0.373v-0.176c0-0.426-0.126-0.746-0.381-0.961c-0.254-0.217-0.61-0.326-1.067-0.326
			c-0.317,0-0.627,0.053-0.931,0.156c-0.305,0.104-0.575,0.264-0.807,0.48L189.077,191.9z M191.903,194.189
			c-0.627,0-1.122,0.086-1.489,0.262c-0.365,0.176-0.549,0.461-0.549,0.861c0,0.367,0.122,0.627,0.368,0.781
			c0.244,0.154,0.552,0.232,0.919,0.232c0.283,0,0.532-0.049,0.744-0.145c0.213-0.096,0.389-0.225,0.531-0.381
			c0.141-0.158,0.25-0.344,0.325-0.557c0.074-0.213,0.115-0.441,0.123-0.682v-0.373H191.903z"/>
		<path fill="#808184" d="M201.914,197.002h-0.962l-1.663-4.5h-0.025l-1.475,4.5h-1.001l-1.897-5.852h1.074l1.336,4.5h0.026
			l1.512-4.5h1.025l1.537,4.5h0.025l1.324-4.5h1.051L201.914,197.002z"/>
		<path fill="#808184" d="M204.764,188.863c0-0.191,0.068-0.359,0.206-0.5c0.138-0.143,0.307-0.211,0.507-0.211
			s0.367,0.068,0.506,0.211c0.137,0.141,0.208,0.309,0.208,0.5c0,0.207-0.067,0.379-0.202,0.512
			c-0.133,0.133-0.304,0.201-0.512,0.201c-0.21,0-0.379-0.068-0.514-0.201C204.83,189.242,204.764,189.07,204.764,188.863z
			 M204.989,191.15h0.975v5.852h-0.975V191.15z"/>
		<path fill="#808184" d="M207.901,192.537c0-0.266-0.01-0.516-0.025-0.75c-0.016-0.232-0.025-0.445-0.025-0.637h0.925
			c0,0.158,0.005,0.316,0.013,0.475c0.009,0.16,0.013,0.32,0.013,0.488h0.026c0.064-0.143,0.159-0.279,0.28-0.412
			c0.122-0.135,0.266-0.252,0.431-0.355c0.167-0.107,0.355-0.188,0.563-0.25c0.207-0.064,0.433-0.096,0.675-0.096
			c0.383,0,0.714,0.059,0.994,0.176c0.278,0.115,0.51,0.279,0.692,0.488c0.183,0.207,0.319,0.459,0.408,0.754
			c0.087,0.297,0.131,0.619,0.131,0.969v3.615h-0.977v-3.514c0-0.492-0.107-0.879-0.324-1.162c-0.216-0.283-0.554-0.426-1.013-0.426
			c-0.316,0-0.589,0.055-0.818,0.164c-0.229,0.107-0.417,0.262-0.562,0.461c-0.146,0.201-0.254,0.438-0.325,0.713
			c-0.07,0.275-0.107,0.58-0.107,0.912v2.852h-0.974V192.537z"/>
		<path fill="#808184" d="M220.687,196.738c0,1.066-0.272,1.877-0.816,2.432c-0.547,0.553-1.337,0.83-2.369,0.83
			c-0.575,0-1.095-0.084-1.557-0.25s-0.902-0.455-1.319-0.861l0.7-0.801c0.31,0.332,0.637,0.584,0.981,0.756
			c0.346,0.17,0.744,0.256,1.194,0.256c0.434,0,0.794-0.064,1.081-0.193c0.286-0.129,0.514-0.303,0.681-0.525
			c0.168-0.221,0.283-0.473,0.351-0.756s0.1-0.578,0.1-0.887v-0.75h-0.025c-0.233,0.373-0.538,0.648-0.911,0.824
			c-0.376,0.176-0.761,0.264-1.151,0.264c-0.458,0-0.878-0.074-1.263-0.227c-0.383-0.15-0.711-0.357-0.985-0.623
			c-0.275-0.27-0.488-0.584-0.64-0.951c-0.149-0.365-0.224-0.766-0.224-1.199c0-0.475,0.074-0.904,0.224-1.289
			c0.151-0.383,0.36-0.705,0.632-0.969c0.271-0.262,0.598-0.463,0.981-0.605c0.383-0.141,0.809-0.213,1.274-0.213
			c0.201,0,0.4,0.023,0.601,0.07c0.2,0.045,0.394,0.115,0.581,0.211c0.188,0.098,0.355,0.219,0.507,0.361
			c0.15,0.148,0.274,0.316,0.374,0.508h0.025v-1h0.974V196.738z M215.562,194.076c0,0.299,0.055,0.576,0.163,0.83
			s0.256,0.475,0.444,0.662c0.188,0.189,0.405,0.336,0.656,0.443c0.25,0.109,0.516,0.164,0.799,0.164
			c0.335,0,0.63-0.059,0.889-0.176c0.258-0.117,0.476-0.271,0.655-0.469c0.179-0.195,0.315-0.42,0.405-0.676
			c0.093-0.252,0.139-0.521,0.139-0.805c0-0.316-0.05-0.607-0.149-0.869c-0.1-0.264-0.242-0.49-0.425-0.68
			c-0.185-0.193-0.404-0.342-0.663-0.445c-0.258-0.104-0.541-0.156-0.851-0.156c-0.308,0-0.59,0.057-0.843,0.168
			c-0.255,0.113-0.471,0.268-0.651,0.463c-0.177,0.197-0.318,0.426-0.417,0.688C215.613,193.482,215.562,193.768,215.562,194.076z"
			/>
	</g>
</g>
<g>
	<g>
		<path fill="#808184" d="M269.614,189.977c-0.267-0.359-0.595-0.627-0.986-0.807s-0.802-0.27-1.226-0.27
			c-0.492,0-0.943,0.1-1.354,0.303c-0.415,0.197-0.771,0.467-1.07,0.805c-0.301,0.338-0.534,0.729-0.7,1.176
			c-0.167,0.443-0.249,0.908-0.249,1.393c0,0.518,0.082,0.998,0.249,1.443c0.166,0.447,0.398,0.834,0.692,1.162
			c0.297,0.33,0.652,0.592,1.064,0.781c0.412,0.193,0.868,0.287,1.368,0.287c0.542,0,1.024-0.105,1.449-0.318
			c0.426-0.211,0.796-0.518,1.113-0.918l0.788,0.662c-0.4,0.535-0.881,0.926-1.445,1.176c-0.562,0.25-1.197,0.373-1.905,0.373
			c-0.635,0-1.225-0.115-1.774-0.348c-0.551-0.234-1.028-0.559-1.431-0.971c-0.404-0.412-0.722-0.9-0.951-1.469
			c-0.229-0.566-0.344-1.188-0.344-1.861c0-0.648,0.11-1.258,0.332-1.824c0.22-0.566,0.531-1.059,0.93-1.475
			c0.4-0.418,0.876-0.746,1.426-0.988s1.153-0.361,1.812-0.361c0.6,0,1.177,0.107,1.73,0.324c0.555,0.215,1.02,0.57,1.395,1.061
			L269.614,189.977z"/>
		<path fill="#808184" d="M272.127,187.551h0.975v9.451h-0.975V187.551z"/>
		<path fill="#808184" d="M274.701,194.076c0-0.457,0.08-0.875,0.237-1.25c0.159-0.375,0.376-0.697,0.651-0.969
			c0.275-0.27,0.604-0.482,0.986-0.631c0.384-0.15,0.801-0.225,1.25-0.225s0.866,0.074,1.251,0.225
			c0.384,0.148,0.712,0.361,0.986,0.631c0.275,0.271,0.492,0.594,0.651,0.969c0.157,0.375,0.237,0.793,0.237,1.25
			s-0.08,0.875-0.237,1.25c-0.159,0.373-0.376,0.699-0.651,0.969c-0.274,0.271-0.603,0.48-0.986,0.631
			c-0.385,0.15-0.802,0.225-1.251,0.225s-0.866-0.074-1.25-0.225c-0.383-0.15-0.711-0.359-0.986-0.631
			c-0.275-0.27-0.492-0.596-0.651-0.969C274.781,194.951,274.701,194.533,274.701,194.076z M275.752,194.076
			c0,0.309,0.047,0.594,0.145,0.855c0.095,0.264,0.234,0.492,0.418,0.689c0.183,0.195,0.402,0.348,0.655,0.461
			c0.255,0.113,0.54,0.168,0.856,0.168c0.317,0,0.602-0.055,0.856-0.168s0.474-0.266,0.657-0.461
			c0.183-0.197,0.321-0.426,0.418-0.689c0.096-0.262,0.144-0.547,0.144-0.855s-0.048-0.594-0.144-0.857
			c-0.097-0.262-0.235-0.49-0.418-0.688c-0.184-0.195-0.402-0.35-0.657-0.461s-0.539-0.17-0.856-0.17
			c-0.316,0-0.602,0.059-0.856,0.17c-0.253,0.111-0.473,0.266-0.655,0.461c-0.184,0.197-0.323,0.426-0.418,0.688
			C275.799,193.482,275.752,193.768,275.752,194.076z"/>
		<path fill="#808184" d="M286.626,192.613c-0.208-0.25-0.433-0.432-0.675-0.543c-0.241-0.111-0.507-0.17-0.8-0.17
			c-0.325,0-0.611,0.059-0.861,0.17c-0.252,0.111-0.458,0.27-0.619,0.469c-0.164,0.199-0.287,0.432-0.37,0.693
			c-0.083,0.264-0.124,0.543-0.124,0.844s0.047,0.58,0.144,0.844c0.097,0.262,0.229,0.494,0.399,0.693
			c0.171,0.201,0.377,0.355,0.619,0.469c0.241,0.113,0.513,0.168,0.812,0.168c0.643,0,1.138-0.24,1.488-0.725l0.725,0.688
			c-0.283,0.326-0.617,0.562-1.002,0.713c-0.382,0.15-0.786,0.225-1.211,0.225c-0.45,0-0.861-0.074-1.237-0.225
			c-0.375-0.15-0.693-0.363-0.956-0.639c-0.263-0.273-0.467-0.598-0.612-0.973c-0.146-0.377-0.22-0.789-0.22-1.238
			c0-0.441,0.074-0.852,0.22-1.225c0.146-0.375,0.353-0.701,0.618-0.977c0.268-0.273,0.586-0.488,0.957-0.645
			c0.37-0.152,0.78-0.229,1.23-0.229c0.434,0,0.844,0.074,1.231,0.225c0.388,0.148,0.728,0.383,1.019,0.701L286.626,192.613z"/>
		<path fill="#808184" d="M288.487,187.551h0.978v6.176l2.661-2.574h1.387l-2.825,2.66l3.113,3.189h-1.438l-2.897-3.076v3.076
			h-0.978V187.551z"/>
	</g>
</g>
<g>
	<path fill="#FFFFFF" d="M38.065,62.58c-10.384,0-18.832-8.447-18.832-18.831s8.448-18.831,18.832-18.831
		c10.383,0,18.831,8.447,18.831,18.831S48.448,62.58,38.065,62.58z M38.065,28.203c-8.572,0-15.546,6.974-15.546,15.546
		c0,8.571,6.974,15.546,15.546,15.546S53.61,52.32,53.61,43.749C53.61,35.177,46.637,28.203,38.065,28.203z"/>
	<g>
		<path fill="#FFFFFF" d="M31.962,33.941h5.014c0.942,0,1.879,0.055,2.812,0.167c0.932,0.11,1.768,0.351,2.507,0.72
			s1.34,0.91,1.802,1.62c0.461,0.711,0.692,1.677,0.692,2.896c0,1.44-0.434,2.604-1.302,3.49c-0.868,0.887-2.069,1.45-3.602,1.689
			l5.568,9.031h-2.853l-5.319-8.808h-2.992v8.808h-2.327V33.941z M34.289,42.586h2.079c0.646,0,1.315-0.02,2.007-0.057
			c0.693-0.036,1.33-0.157,1.912-0.36c0.583-0.202,1.062-0.521,1.441-0.956c0.378-0.433,0.567-1.057,0.567-1.869
			c0-0.703-0.138-1.266-0.415-1.689c-0.278-0.426-0.643-0.753-1.095-0.984c-0.452-0.23-0.96-0.383-1.524-0.457
			c-0.563-0.074-1.13-0.111-1.703-0.111h-3.27V42.586z"/>
	</g>
</g>
<path fill="#FFFFFF" d="M143.174,36.943l3.653-12.34l-23.455-5.627l-4.649,10.603l-7.656,2.19L89.302,24.57l6.065,12.437v23.245
	l23.15,7.764v0.504l0.754-0.252l0.753,0.252v-0.504l23.15-7.764V36.943z M124.247,20.736l20.683,4.963l-3.02,10.203l-21.603-6.184
	L124.247,20.736z M139.836,36.877l-19.812,6.409V31.205L139.836,36.877z M118.517,31.205v8.908l-2.479-6.699l-2.43-0.804
	L118.517,31.205z M114.876,34.617l3.148,8.512l-21.366-6.915l-4.433-9.089L114.876,34.617z M96.874,59.168V37.869l21.643,7.002
	v21.555L96.874,59.168z M141.667,59.168l-21.643,7.258V44.871l21.643-7.002V59.168z"/>
<path fill="#FFFFFF" d="M217.635,16.344l-41.977,41.979l-4.999,12.83l12.78-4.977l0.054-0.021l41.977-41.977L217.635,16.344z
	 M173.599,68.398l-0.17-0.172l3.286-8.828l5.718,5.682L173.599,68.398z"/>
<g>
	<path fill="#FFFFFF" d="M278.066,62.58c-10.386,0-18.832-8.447-18.832-18.833c0-10.384,8.446-18.829,18.832-18.829
		c10.383,0,18.83,8.445,18.83,18.829C296.896,54.133,288.449,62.58,278.066,62.58z M278.066,28.203
		c-8.573,0-15.546,6.973-15.546,15.544c0,8.573,6.973,15.548,15.546,15.548c8.57,0,15.544-6.975,15.544-15.548
		C293.61,35.176,286.637,28.203,278.066,28.203z"/>
	<path fill="#FFFFFF" d="M277.882,45.871l-10.947-10.764c-0.648-0.637-0.656-1.676-0.02-2.323c0.635-0.646,1.677-0.655,2.323-0.019
		l9.012,8.859l6.483-4.471c0.748-0.516,1.771-0.327,2.285,0.42c0.517,0.746,0.329,1.77-0.418,2.284L277.882,45.871z"/>
</g>
<g>
	<path fill="#808184" d="M38.065,62.578c-10.384,0-18.832-8.447-18.832-18.831s8.448-18.831,18.832-18.831
		s18.831,8.447,18.831,18.831S48.449,62.578,38.065,62.578z M38.065,28.201c-8.572,0-15.546,6.975-15.546,15.546
		c0,8.572,6.974,15.546,15.546,15.546c8.572,0,15.545-6.974,15.545-15.546C53.611,35.176,46.638,28.201,38.065,28.201z"/>
	<g>
		<path fill="#808184" d="M31.963,33.941h5.014c0.942,0,1.879,0.054,2.812,0.166c0.932,0.109,1.768,0.35,2.506,0.719
			c0.739,0.371,1.34,0.91,1.802,1.621c0.461,0.711,0.693,1.676,0.693,2.895c0,1.441-0.435,2.605-1.303,3.491s-2.069,1.45-3.602,1.69
			l5.568,9.031h-2.853l-5.319-8.81H34.29v8.81h-2.326V33.941z M34.29,42.584h2.079c0.646,0,1.316-0.019,2.007-0.057
			c0.693-0.035,1.33-0.156,1.912-0.36c0.583-0.202,1.062-0.521,1.441-0.956c0.378-0.432,0.567-1.057,0.567-1.869
			c0-0.701-0.138-1.265-0.415-1.689c-0.278-0.425-0.643-0.752-1.094-0.984c-0.453-0.23-0.961-0.382-1.525-0.457
			c-0.562-0.072-1.13-0.11-1.703-0.11h-3.27V42.584z"/>
	</g>
</g>
<path fill="#808184" d="M143.174,36.943l3.653-12.339l-23.455-5.628l-4.649,10.603l-7.656,2.19L89.302,24.57l6.065,12.438v23.244
	l23.15,7.764v0.504l0.754-0.252l0.753,0.252v-0.504l23.15-7.764V36.943z M124.247,20.736l20.683,4.963l-3.02,10.204l-21.603-6.185
	L124.247,20.736z M139.836,36.877l-19.812,6.41V31.205L139.836,36.877z M118.517,31.205v8.909l-2.479-6.698l-2.43-0.806
	L118.517,31.205z M114.876,34.619l3.148,8.51l-21.366-6.914l-4.433-9.089L114.876,34.619z M96.874,59.168V37.869l21.643,7.002
	v21.555L96.874,59.168z M141.667,59.168l-21.643,7.258V44.871l21.643-7.002V59.168z"/>
<path fill="#808184" d="M217.635,16.344l-41.977,41.979l-4.999,12.83l12.78-4.977l0.054-0.023l41.977-41.975L217.635,16.344z
	 M173.599,68.396l-0.17-0.17l3.286-8.828l5.718,5.682L173.599,68.396z"/>
<g>
	<path fill="#808184" d="M278.066,62.58c-10.386,0-18.833-8.447-18.833-18.833c0-10.384,8.447-18.829,18.833-18.829
		c10.382,0,18.83,8.445,18.83,18.829C296.896,54.133,288.448,62.58,278.066,62.58z M278.066,28.203
		c-8.574,0-15.546,6.973-15.546,15.544c0,8.573,6.972,15.548,15.546,15.548c8.57,0,15.543-6.975,15.543-15.548
		C293.609,35.176,286.637,28.203,278.066,28.203z"/>
	<path fill="#808184" d="M277.881,45.871l-10.946-10.764c-0.649-0.637-0.657-1.676-0.021-2.323c0.637-0.646,1.678-0.655,2.324-0.019
		l9.012,8.859l6.484-4.471c0.748-0.516,1.771-0.327,2.285,0.42c0.515,0.746,0.327,1.77-0.42,2.284L277.881,45.871z"/>
</g>
</svg>
