<?xml version="1.0" encoding="utf-8"?>
<!-- Generator: Adobe Illustrator 16.0.0, SVG Export Plug-In . SVG Version: 6.00 Build 0)  -->
<!DOCTYPE svg PUBLIC "-//W3C//DTD SVG 1.1//EN" "http://www.w3.org/Graphics/SVG/1.1/DTD/svg11.dtd">
<svg version="1.1" id="Layer_1" xmlns="http://www.w3.org/2000/svg" xmlns:xlink="http://www.w3.org/1999/xlink" x="0px" y="0px"
	 width="100px" height="10.341px" viewBox="0 0 100 10.341" enable-background="new 0 0 100 10.341" xml:space="preserve">
<g>
	<path fill="#808285" d="M6.506,3.757H4.735v4.767H4.1V3.757H2.329v-0.59h4.177V3.757L6.506,3.757z"/>
	<path fill="#808285" d="M6.93,2.803h0.59v2.67h0.016c0.04-0.07,0.096-0.14,0.166-0.208c0.071-0.068,0.155-0.13,0.254-0.186
		c0.098-0.055,0.208-0.101,0.329-0.136c0.122-0.036,0.25-0.053,0.386-0.053c0.232,0,0.433,0.036,0.602,0.106
		c0.169,0.071,0.309,0.17,0.42,0.295C9.803,5.418,9.885,5.571,9.938,5.75c0.053,0.18,0.079,0.375,0.079,0.587v2.187h-0.59V6.398
		c0-0.298-0.066-0.532-0.197-0.703C9.099,5.523,8.895,5.438,8.618,5.438c-0.192,0-0.357,0.033-0.496,0.098
		c-0.139,0.065-0.252,0.16-0.34,0.28C7.693,5.936,7.627,6.08,7.584,6.247C7.542,6.414,7.52,6.598,7.52,6.799v1.725H6.93V2.803z"/>
	<path fill="#808285" d="M13.869,7.881c-0.211,0.272-0.444,0.462-0.696,0.571c-0.252,0.108-0.544,0.162-0.877,0.162
		c-0.277,0-0.527-0.049-0.749-0.147c-0.223-0.099-0.41-0.23-0.564-0.397c-0.154-0.167-0.272-0.363-0.355-0.59
		c-0.084-0.227-0.125-0.469-0.125-0.726c0-0.273,0.045-0.523,0.136-0.753c0.09-0.229,0.217-0.426,0.378-0.59
		c0.162-0.164,0.354-0.292,0.575-0.382c0.222-0.09,0.464-0.136,0.727-0.136c0.247,0,0.475,0.042,0.681,0.125
		c0.207,0.083,0.384,0.204,0.534,0.363c0.149,0.159,0.263,0.353,0.344,0.583c0.081,0.229,0.121,0.49,0.121,0.783v0.189h-2.86
		c0.01,0.152,0.046,0.296,0.109,0.435c0.063,0.139,0.146,0.259,0.247,0.363c0.1,0.104,0.219,0.186,0.355,0.247
		c0.136,0.06,0.285,0.09,0.447,0.09c0.257,0,0.474-0.045,0.651-0.136c0.177-0.091,0.335-0.225,0.477-0.401L13.869,7.881z
		 M13.362,6.436c-0.01-0.302-0.108-0.545-0.295-0.727c-0.187-0.182-0.443-0.272-0.771-0.272c-0.329,0-0.593,0.09-0.794,0.272
		c-0.202,0.182-0.323,0.424-0.363,0.727H13.362z"/>
	<path fill="#808285" d="M16.987,3.757h-1.771v4.767h-0.636V3.757H12.81v-0.59h4.177V3.757L16.987,3.757z"/>
	<path fill="#808285" d="M19.166,7.881c-0.212,0.272-0.444,0.462-0.696,0.571c-0.252,0.108-0.545,0.162-0.877,0.162
		c-0.278,0-0.527-0.049-0.75-0.147c-0.223-0.099-0.41-0.23-0.563-0.397c-0.154-0.167-0.273-0.363-0.356-0.59
		c-0.083-0.227-0.125-0.469-0.125-0.726c0-0.273,0.045-0.523,0.137-0.753c0.09-0.229,0.217-0.426,0.378-0.59
		s0.353-0.292,0.575-0.382c0.222-0.09,0.464-0.136,0.727-0.136c0.247,0,0.474,0.042,0.681,0.125C18.502,5.1,18.68,5.221,18.829,5.38
		c0.148,0.159,0.264,0.353,0.345,0.583c0.081,0.229,0.121,0.49,0.121,0.783v0.189h-2.86c0.01,0.152,0.046,0.296,0.109,0.435
		c0.063,0.139,0.145,0.259,0.246,0.363s0.219,0.186,0.356,0.247c0.136,0.06,0.285,0.09,0.447,0.09c0.257,0,0.474-0.045,0.65-0.136
		c0.176-0.091,0.335-0.225,0.477-0.401L19.166,7.881z M18.659,6.436c-0.01-0.302-0.108-0.545-0.295-0.727s-0.444-0.272-0.771-0.272
		c-0.329,0-0.593,0.09-0.795,0.272s-0.323,0.424-0.363,0.727H18.659z"/>
	<path fill="#808285" d="M19.825,5.823c0-0.162-0.005-0.312-0.016-0.454c-0.01-0.141-0.015-0.27-0.015-0.386h0.56
		c0,0.096,0.002,0.192,0.007,0.288c0.005,0.096,0.007,0.195,0.007,0.295h0.015c0.04-0.086,0.098-0.17,0.17-0.25
		c0.074-0.081,0.16-0.153,0.261-0.216s0.214-0.114,0.341-0.151c0.126-0.038,0.262-0.057,0.409-0.057c0.04,0,0.081,0.002,0.121,0.008
		c0.041,0.005,0.082,0.015,0.122,0.03L21.77,5.528c-0.101-0.03-0.207-0.045-0.318-0.045c-0.363,0-0.627,0.118-0.792,0.353
		C20.497,6.07,20.415,6.392,20.415,6.8v1.725h-0.59V5.823L19.825,5.823z"/>
	<path fill="#808285" d="M25.167,7.881c-0.212,0.272-0.444,0.462-0.696,0.571c-0.252,0.108-0.544,0.162-0.878,0.162
		c-0.277,0-0.527-0.049-0.749-0.147c-0.223-0.099-0.41-0.23-0.564-0.397c-0.154-0.167-0.272-0.363-0.355-0.59
		C21.841,7.253,21.8,7.01,21.8,6.753C21.8,6.48,21.846,6.23,21.936,6c0.091-0.229,0.217-0.426,0.378-0.59
		c0.162-0.164,0.354-0.292,0.575-0.382c0.222-0.09,0.464-0.136,0.727-0.136c0.247,0,0.474,0.042,0.681,0.125
		c0.207,0.083,0.384,0.204,0.533,0.363c0.149,0.159,0.264,0.353,0.344,0.583c0.081,0.229,0.122,0.49,0.122,0.783v0.189h-2.861
		c0.01,0.152,0.047,0.296,0.11,0.435c0.063,0.139,0.145,0.259,0.246,0.363c0.101,0.104,0.219,0.186,0.355,0.247
		c0.136,0.06,0.285,0.09,0.446,0.09c0.258,0,0.474-0.045,0.651-0.136c0.177-0.091,0.335-0.225,0.477-0.401L25.167,7.881z
		 M24.661,6.436c-0.01-0.302-0.108-0.545-0.295-0.727c-0.187-0.182-0.443-0.272-0.772-0.272c-0.328,0-0.592,0.09-0.794,0.272
		c-0.202,0.182-0.322,0.424-0.363,0.727H24.661z"/>
	<path fill="#808285" d="M25.681,5.823c0-0.162-0.005-0.312-0.015-0.454c-0.01-0.141-0.016-0.27-0.016-0.386h0.561
		c0,0.096,0.002,0.192,0.007,0.288c0.005,0.096,0.007,0.195,0.007,0.295h0.016c0.04-0.086,0.097-0.17,0.17-0.25
		c0.073-0.081,0.16-0.153,0.261-0.216s0.214-0.114,0.34-0.151c0.126-0.038,0.262-0.057,0.409-0.057c0.232,0,0.432,0.035,0.602,0.106
		c0.168,0.071,0.309,0.169,0.42,0.295c0.111,0.126,0.193,0.279,0.246,0.458c0.053,0.18,0.08,0.375,0.08,0.586v2.187h-0.59V6.399
		c0-0.297-0.066-0.532-0.197-0.703c-0.131-0.171-0.335-0.257-0.613-0.257c-0.192,0-0.357,0.033-0.496,0.098
		c-0.139,0.066-0.252,0.16-0.341,0.28c-0.088,0.121-0.154,0.265-0.197,0.432c-0.042,0.167-0.064,0.351-0.064,0.553v1.724h-0.591
		V5.823z"/>
	<path fill="#808285" d="M31.94,5.868c-0.126-0.151-0.262-0.261-0.409-0.329c-0.146-0.068-0.308-0.102-0.484-0.102
		c-0.197,0-0.371,0.034-0.522,0.102c-0.151,0.067-0.277,0.163-0.375,0.283c-0.099,0.121-0.173,0.261-0.224,0.42
		c-0.05,0.159-0.076,0.329-0.076,0.512c0,0.182,0.029,0.352,0.087,0.511c0.059,0.159,0.139,0.299,0.243,0.42
		c0.104,0.121,0.228,0.216,0.375,0.283c0.146,0.068,0.31,0.103,0.492,0.103c0.388,0,0.688-0.146,0.9-0.438l0.439,0.416
		c-0.172,0.196-0.374,0.34-0.605,0.432c-0.232,0.091-0.478,0.137-0.734,0.137c-0.272,0-0.522-0.046-0.75-0.137
		c-0.227-0.092-0.42-0.22-0.579-0.386c-0.159-0.168-0.283-0.363-0.371-0.591c-0.088-0.226-0.133-0.477-0.133-0.749
		c0-0.268,0.044-0.515,0.133-0.742c0.088-0.227,0.213-0.423,0.374-0.591c0.162-0.166,0.355-0.296,0.579-0.39
		c0.225-0.092,0.473-0.14,0.746-0.14c0.263,0,0.511,0.045,0.745,0.136c0.235,0.092,0.44,0.232,0.617,0.424L31.94,5.868z"/>
	<path fill="#808285" d="M35.815,7.881c-0.212,0.272-0.445,0.462-0.697,0.571c-0.252,0.108-0.544,0.162-0.877,0.162
		c-0.278,0-0.527-0.049-0.75-0.147c-0.222-0.099-0.41-0.23-0.563-0.397s-0.272-0.363-0.355-0.59
		c-0.083-0.227-0.125-0.469-0.125-0.726c0-0.273,0.046-0.523,0.136-0.753c0.091-0.229,0.217-0.426,0.379-0.59
		c0.161-0.164,0.353-0.292,0.575-0.382c0.222-0.09,0.464-0.136,0.727-0.136c0.248,0,0.474,0.042,0.681,0.125
		c0.207,0.083,0.384,0.204,0.533,0.363c0.149,0.159,0.264,0.353,0.345,0.583c0.081,0.229,0.121,0.49,0.121,0.783v0.189h-2.86
		c0.01,0.152,0.047,0.296,0.11,0.435c0.063,0.139,0.145,0.259,0.246,0.363s0.221,0.186,0.355,0.247
		c0.137,0.06,0.286,0.09,0.447,0.09c0.258,0,0.475-0.045,0.65-0.136c0.176-0.091,0.335-0.225,0.477-0.401L35.815,7.881z
		 M35.308,6.436c-0.01-0.302-0.108-0.545-0.296-0.727c-0.186-0.182-0.443-0.272-0.771-0.272s-0.593,0.09-0.794,0.272
		c-0.202,0.182-0.323,0.424-0.364,0.727H35.308z"/>
	<path fill="#808285" d="M36.374,3.167h3.369v0.591h-2.732v1.68h2.55v0.59h-2.55v1.907h2.868v0.59h-3.505V3.167z"/>
	<path fill="#808285" d="M43.132,7.896h-0.015c-0.112,0.202-0.287,0.373-0.526,0.512c-0.24,0.139-0.519,0.208-0.836,0.208
		c-0.248,0-0.479-0.047-0.696-0.141c-0.218-0.093-0.405-0.224-0.564-0.39c-0.159-0.167-0.284-0.362-0.375-0.59
		c-0.091-0.228-0.136-0.474-0.136-0.742c0-0.267,0.045-0.515,0.136-0.742s0.217-0.424,0.378-0.591
		c0.162-0.167,0.357-0.296,0.587-0.39c0.229-0.093,0.483-0.14,0.76-0.14c0.257,0,0.493,0.053,0.708,0.159
		c0.214,0.106,0.402,0.255,0.564,0.446h0.015V2.803h0.591v5.721h-0.591L43.132,7.896L43.132,7.896z M43.132,6.753
		c0-0.187-0.029-0.359-0.087-0.519c-0.058-0.159-0.143-0.297-0.253-0.416c-0.112-0.118-0.244-0.212-0.397-0.279
		c-0.154-0.068-0.327-0.102-0.518-0.102c-0.192,0-0.364,0.034-0.519,0.102c-0.154,0.067-0.286,0.162-0.397,0.279
		c-0.111,0.119-0.197,0.257-0.254,0.416C40.65,6.394,40.62,6.567,40.62,6.753s0.029,0.359,0.087,0.518
		c0.059,0.159,0.143,0.298,0.254,0.417c0.111,0.118,0.243,0.212,0.397,0.279c0.154,0.067,0.327,0.103,0.519,0.103
		c0.192,0,0.364-0.035,0.518-0.103c0.153-0.067,0.286-0.161,0.397-0.279c0.111-0.119,0.196-0.258,0.253-0.417
		S43.132,6.94,43.132,6.753z"/>
	<path fill="#808285" d="M48.429,8.524h-0.583L46.84,5.8h-0.015l-0.893,2.724h-0.605l-1.15-3.541h0.651l0.81,2.724h0.015
		l0.915-2.724h0.621l0.931,2.724h0.016l0.802-2.724h0.635L48.429,8.524z"/>
	<path fill="#808285" d="M49.792,5.437c0.181-0.187,0.397-0.325,0.647-0.413c0.249-0.088,0.503-0.132,0.761-0.132
		c0.524,0,0.902,0.124,1.135,0.371c0.232,0.248,0.349,0.623,0.349,1.127v1.521c0,0.101,0.005,0.205,0.015,0.313
		c0.009,0.108,0.023,0.208,0.038,0.299h-0.567c-0.02-0.08-0.031-0.17-0.034-0.269s-0.003-0.186-0.003-0.261h-0.016
		c-0.116,0.182-0.271,0.33-0.466,0.446s-0.428,0.174-0.699,0.174c-0.182,0-0.352-0.022-0.511-0.068
		c-0.159-0.045-0.298-0.111-0.416-0.199c-0.119-0.089-0.213-0.198-0.284-0.329c-0.071-0.132-0.106-0.282-0.106-0.454
		c0-0.292,0.075-0.522,0.227-0.689c0.151-0.167,0.34-0.29,0.564-0.371c0.224-0.081,0.467-0.131,0.727-0.151
		c0.26-0.02,0.497-0.031,0.714-0.031h0.229V6.216c0-0.257-0.078-0.452-0.231-0.583c-0.154-0.131-0.37-0.197-0.647-0.197
		c-0.191,0-0.379,0.031-0.563,0.094c-0.185,0.064-0.347,0.161-0.488,0.292L49.792,5.437z M51.502,6.822
		c-0.379,0-0.679,0.053-0.9,0.159c-0.223,0.106-0.333,0.279-0.333,0.522c0,0.222,0.074,0.38,0.224,0.473
		c0.148,0.093,0.335,0.141,0.557,0.141c0.17,0,0.321-0.03,0.45-0.088c0.128-0.059,0.235-0.136,0.321-0.23
		c0.086-0.096,0.151-0.208,0.196-0.336c0.046-0.129,0.072-0.266,0.077-0.413V6.822L51.502,6.822L51.502,6.822z"/>
	<path fill="#808285" d="M53.181,5.823c0-0.162-0.005-0.312-0.014-0.454c-0.011-0.141-0.015-0.27-0.015-0.386h0.559
		c0,0.096,0.004,0.192,0.01,0.288c0.005,0.096,0.007,0.195,0.007,0.295h0.015c0.04-0.086,0.097-0.17,0.171-0.25
		c0.073-0.081,0.159-0.153,0.261-0.216c0.101-0.063,0.214-0.114,0.341-0.151c0.126-0.038,0.263-0.057,0.408-0.057
		c0.04,0,0.08,0.002,0.121,0.008c0.04,0.005,0.08,0.015,0.121,0.03l-0.039,0.598c-0.102-0.03-0.207-0.045-0.318-0.045
		c-0.363,0-0.627,0.118-0.79,0.353C53.854,6.07,53.772,6.392,53.772,6.8v1.725h-0.592V5.823L53.181,5.823z"/>
	<path fill="#808285" d="M58.327,7.896h-0.015c-0.111,0.202-0.286,0.373-0.526,0.512c-0.239,0.139-0.518,0.208-0.836,0.208
		c-0.248,0-0.479-0.047-0.696-0.141c-0.217-0.093-0.405-0.224-0.563-0.39c-0.16-0.167-0.284-0.362-0.376-0.59
		c-0.091-0.228-0.135-0.474-0.135-0.742c0-0.267,0.044-0.515,0.135-0.742c0.092-0.227,0.218-0.424,0.379-0.591
		c0.162-0.167,0.356-0.296,0.587-0.39c0.229-0.093,0.483-0.14,0.761-0.14c0.258,0,0.493,0.053,0.707,0.159s0.402,0.255,0.564,0.446
		h0.015V2.803h0.591v5.721h-0.591V7.896z M58.327,6.753c0-0.187-0.028-0.359-0.086-0.519c-0.059-0.159-0.144-0.297-0.254-0.416
		c-0.111-0.118-0.244-0.212-0.398-0.279c-0.153-0.068-0.327-0.102-0.517-0.102c-0.192,0-0.365,0.034-0.519,0.102
		c-0.153,0.067-0.287,0.162-0.398,0.279c-0.11,0.119-0.195,0.257-0.253,0.416c-0.058,0.159-0.087,0.332-0.087,0.519
		s0.028,0.359,0.087,0.518c0.058,0.159,0.143,0.298,0.253,0.417C56.267,7.806,56.4,7.9,56.554,7.967S56.88,8.07,57.072,8.07
		c0.19,0,0.363-0.035,0.517-0.103c0.154-0.067,0.287-0.161,0.398-0.279c0.11-0.119,0.195-0.258,0.254-0.417
		C58.298,7.113,58.327,6.94,58.327,6.753z"/>
	<path fill="#808285" d="M59.788,7.593c0.116,0.146,0.243,0.263,0.382,0.349s0.314,0.128,0.526,0.128c0.091,0,0.182-0.01,0.276-0.03
		c0.094-0.02,0.177-0.053,0.253-0.098c0.075-0.046,0.136-0.103,0.182-0.17c0.045-0.068,0.067-0.15,0.067-0.247
		S61.453,7.352,61.41,7.29c-0.043-0.061-0.1-0.112-0.17-0.155c-0.07-0.042-0.151-0.076-0.243-0.101
		c-0.09-0.026-0.184-0.048-0.279-0.068c-0.166-0.035-0.325-0.076-0.477-0.121c-0.151-0.045-0.283-0.104-0.398-0.177
		c-0.113-0.073-0.203-0.168-0.272-0.284c-0.067-0.117-0.103-0.265-0.103-0.446c0-0.171,0.039-0.323,0.114-0.455
		c0.076-0.13,0.177-0.239,0.303-0.325c0.127-0.085,0.267-0.151,0.424-0.197c0.156-0.045,0.317-0.068,0.484-0.068
		c0.252,0,0.485,0.05,0.7,0.151c0.215,0.101,0.382,0.265,0.503,0.491L61.505,5.86c-0.075-0.126-0.175-0.228-0.3-0.307
		c-0.123-0.078-0.273-0.117-0.45-0.117c-0.081,0-0.162,0.01-0.246,0.03c-0.082,0.02-0.157,0.05-0.224,0.091
		c-0.065,0.04-0.119,0.092-0.162,0.155c-0.043,0.063-0.064,0.136-0.064,0.216c0,0.076,0.023,0.141,0.071,0.193
		c0.048,0.053,0.113,0.1,0.196,0.14c0.083,0.04,0.179,0.076,0.287,0.106s0.221,0.056,0.338,0.076
		c0.155,0.03,0.304,0.069,0.445,0.118c0.143,0.047,0.266,0.113,0.371,0.193c0.106,0.081,0.189,0.182,0.25,0.302
		s0.091,0.27,0.091,0.446c0,0.202-0.04,0.375-0.121,0.515c-0.08,0.142-0.188,0.256-0.322,0.344
		c-0.133,0.088-0.284,0.153-0.454,0.193c-0.169,0.04-0.341,0.062-0.518,0.062c-0.303,0-0.564-0.047-0.783-0.141
		c-0.219-0.093-0.417-0.266-0.594-0.519L59.788,7.593z"/>
	<path fill="#808285" d="M66.137,6.504c-0.021,0.061-0.036,0.125-0.049,0.193c-0.013,0.068-0.02,0.13-0.02,0.186
		c0,0.101,0.062,0.151,0.182,0.151c0.121,0,0.246-0.046,0.372-0.14c0.125-0.093,0.24-0.217,0.34-0.371
		c0.101-0.153,0.185-0.329,0.249-0.526C67.277,5.8,67.31,5.596,67.31,5.384c0-0.298-0.058-0.566-0.174-0.806
		c-0.115-0.239-0.27-0.444-0.461-0.613c-0.192-0.169-0.411-0.299-0.659-0.39c-0.247-0.091-0.502-0.136-0.764-0.136
		c-0.328,0-0.634,0.064-0.915,0.193c-0.283,0.129-0.53,0.303-0.739,0.522c-0.209,0.219-0.375,0.475-0.495,0.768
		c-0.12,0.293-0.181,0.601-0.181,0.924c0,0.337,0.062,0.653,0.188,0.946c0.127,0.293,0.296,0.547,0.508,0.765
		c0.211,0.217,0.46,0.387,0.741,0.511c0.282,0.125,0.58,0.186,0.894,0.186c0.378,0,0.739-0.083,1.082-0.249
		c0.343-0.167,0.617-0.389,0.824-0.667h0.477c-0.12,0.207-0.267,0.392-0.438,0.556s-0.361,0.303-0.568,0.416
		c-0.206,0.114-0.426,0.2-0.657,0.261c-0.232,0.062-0.472,0.091-0.72,0.091c-0.399,0-0.77-0.072-1.112-0.219
		c-0.344-0.146-0.643-0.347-0.896-0.602c-0.255-0.255-0.456-0.553-0.603-0.893c-0.146-0.341-0.22-0.708-0.22-1.102
		s0.074-0.762,0.224-1.105s0.353-0.641,0.61-0.893c0.257-0.251,0.557-0.452,0.9-0.597c0.344-0.146,0.708-0.22,1.097-0.22
		c0.349,0,0.676,0.057,0.984,0.171c0.307,0.113,0.579,0.272,0.813,0.477c0.234,0.204,0.42,0.449,0.557,0.734
		c0.135,0.285,0.204,0.597,0.204,0.934c0,0.329-0.061,0.625-0.179,0.893s-0.266,0.497-0.442,0.688
		c-0.177,0.193-0.368,0.341-0.574,0.447c-0.207,0.106-0.399,0.159-0.575,0.159c-0.132,0-0.243-0.04-0.333-0.121
		c-0.091-0.081-0.142-0.207-0.151-0.378h-0.015c-0.117,0.136-0.247,0.252-0.394,0.352s-0.33,0.147-0.553,0.147
		c-0.162,0-0.307-0.031-0.438-0.091c-0.131-0.061-0.244-0.145-0.336-0.25c-0.094-0.106-0.167-0.229-0.216-0.371
		c-0.051-0.142-0.076-0.295-0.076-0.461c0-0.263,0.042-0.522,0.124-0.78c0.084-0.257,0.201-0.486,0.355-0.688
		s0.34-0.364,0.557-0.488c0.218-0.123,0.46-0.185,0.727-0.185c0.177,0,0.339,0.046,0.488,0.141c0.148,0.093,0.266,0.253,0.352,0.48
		h0.015l0.137-0.477h0.492L66.137,6.504z M64.07,6.307c0,0.212,0.062,0.386,0.186,0.522s0.28,0.205,0.474,0.205
		c0.166,0,0.32-0.054,0.461-0.164c0.142-0.108,0.265-0.244,0.371-0.405c0.105-0.161,0.188-0.335,0.25-0.522
		c0.061-0.187,0.09-0.358,0.09-0.514c0-0.095-0.017-0.187-0.053-0.272c-0.035-0.086-0.08-0.162-0.136-0.227
		c-0.056-0.066-0.121-0.117-0.193-0.155c-0.073-0.039-0.15-0.057-0.23-0.057c-0.178,0-0.34,0.052-0.489,0.155
		c-0.146,0.103-0.276,0.234-0.385,0.394c-0.108,0.159-0.193,0.33-0.254,0.514C64.102,5.965,64.07,6.141,64.07,6.307z"/>
	<path fill="#808285" d="M71.714,8.365c0,0.646-0.165,1.138-0.494,1.473c-0.331,0.335-0.81,0.504-1.435,0.504
		c-0.348,0-0.662-0.051-0.941-0.152c-0.281-0.1-0.547-0.275-0.8-0.521l0.424-0.484c0.188,0.201,0.385,0.354,0.595,0.458
		c0.209,0.104,0.45,0.155,0.723,0.155c0.262,0,0.481-0.039,0.655-0.118c0.173-0.079,0.312-0.185,0.412-0.317
		c0.101-0.134,0.171-0.287,0.212-0.459c0.04-0.171,0.061-0.351,0.061-0.537V7.911H71.11c-0.142,0.227-0.327,0.394-0.554,0.499
		c-0.226,0.106-0.459,0.159-0.695,0.159c-0.277,0-0.532-0.045-0.765-0.136c-0.232-0.092-0.433-0.217-0.598-0.38
		c-0.166-0.161-0.296-0.353-0.386-0.574c-0.091-0.223-0.137-0.464-0.137-0.727c0-0.288,0.046-0.547,0.137-0.78
		c0.091-0.232,0.219-0.427,0.382-0.586c0.163-0.159,0.362-0.282,0.593-0.367c0.233-0.086,0.489-0.129,0.773-0.129
		c0.12,0,0.241,0.014,0.363,0.042c0.12,0.028,0.237,0.07,0.351,0.128c0.115,0.059,0.217,0.132,0.307,0.22
		c0.092,0.088,0.167,0.19,0.228,0.306h0.015V4.981h0.59V8.365L71.714,8.365z M68.611,6.753c0,0.182,0.034,0.349,0.099,0.503
		c0.065,0.154,0.155,0.288,0.269,0.402c0.114,0.113,0.247,0.202,0.397,0.268c0.152,0.065,0.313,0.099,0.485,0.099
		c0.202,0,0.38-0.035,0.537-0.106c0.156-0.069,0.289-0.165,0.398-0.283c0.108-0.119,0.189-0.254,0.245-0.408
		c0.055-0.154,0.083-0.316,0.083-0.488c0-0.192-0.03-0.367-0.091-0.526c-0.061-0.16-0.146-0.297-0.258-0.412
		c-0.11-0.117-0.243-0.206-0.399-0.269c-0.157-0.063-0.329-0.094-0.516-0.094S69.505,5.472,69.35,5.54
		c-0.153,0.067-0.283,0.162-0.392,0.28c-0.109,0.118-0.194,0.257-0.254,0.416C68.645,6.395,68.611,6.567,68.611,6.753z"/>
	<path fill="#808285" d="M72.213,5.823c0-0.162-0.005-0.312-0.014-0.454c-0.011-0.141-0.016-0.27-0.016-0.386h0.561
		c0,0.096,0.003,0.192,0.009,0.288c0.005,0.096,0.007,0.195,0.007,0.295h0.015c0.04-0.086,0.097-0.17,0.17-0.25
		c0.074-0.081,0.16-0.153,0.262-0.216c0.101-0.063,0.214-0.114,0.341-0.151c0.126-0.038,0.263-0.057,0.409-0.057
		c0.19,0,0.351,0.024,0.48,0.072c0.128,0.048,0.235,0.106,0.321,0.173c0.085,0.068,0.152,0.142,0.2,0.22
		c0.047,0.078,0.087,0.147,0.117,0.208c0.131-0.212,0.282-0.377,0.454-0.496c0.172-0.119,0.395-0.178,0.666-0.178
		c0.253,0,0.465,0.034,0.636,0.102c0.171,0.067,0.311,0.167,0.416,0.295c0.106,0.129,0.183,0.285,0.227,0.469
		c0.046,0.184,0.068,0.39,0.068,0.617v2.149h-0.59V6.407c0-0.121-0.014-0.24-0.038-0.356c-0.026-0.116-0.071-0.219-0.137-0.31
		s-0.154-0.164-0.266-0.219c-0.11-0.056-0.252-0.083-0.423-0.083c-0.126,0-0.246,0.025-0.356,0.076s-0.208,0.12-0.291,0.212
		c-0.083,0.091-0.148,0.2-0.196,0.328c-0.048,0.129-0.071,0.272-0.071,0.428v2.043h-0.591V6.52c0-0.394-0.054-0.672-0.16-0.836
		c-0.105-0.164-0.278-0.246-0.52-0.246c-0.193,0-0.357,0.033-0.497,0.098c-0.14,0.065-0.252,0.16-0.34,0.28
		c-0.089,0.121-0.154,0.265-0.197,0.432c-0.042,0.167-0.063,0.351-0.063,0.552v1.725h-0.592L72.213,5.823L72.213,5.823z"/>
	<path fill="#808285" d="M78.071,5.437c0.181-0.187,0.397-0.325,0.646-0.413c0.249-0.088,0.504-0.132,0.761-0.132
		c0.524,0,0.903,0.124,1.135,0.371c0.232,0.248,0.349,0.623,0.349,1.127v1.521c0,0.101,0.005,0.205,0.015,0.313
		C80.985,8.333,81,8.433,81.015,8.524h-0.567c-0.02-0.08-0.03-0.17-0.033-0.269C80.41,8.157,80.41,8.07,80.41,7.995h-0.016
		c-0.116,0.182-0.271,0.33-0.466,0.446c-0.193,0.116-0.427,0.174-0.699,0.174c-0.181,0-0.353-0.022-0.512-0.068
		c-0.158-0.045-0.297-0.111-0.416-0.199c-0.118-0.089-0.213-0.198-0.283-0.329c-0.069-0.132-0.105-0.282-0.105-0.454
		c0-0.292,0.074-0.522,0.227-0.689c0.151-0.167,0.34-0.29,0.563-0.371c0.225-0.081,0.467-0.131,0.727-0.151
		c0.26-0.02,0.498-0.031,0.715-0.031h0.228V6.216c0-0.257-0.077-0.452-0.231-0.583c-0.154-0.131-0.369-0.197-0.646-0.197
		c-0.193,0-0.381,0.031-0.565,0.094c-0.184,0.064-0.346,0.161-0.487,0.292L78.071,5.437z M79.781,6.822
		c-0.379,0-0.678,0.053-0.901,0.159c-0.222,0.106-0.332,0.279-0.332,0.522c0,0.222,0.073,0.38,0.224,0.473
		c0.148,0.093,0.335,0.141,0.557,0.141c0.171,0,0.321-0.03,0.45-0.088c0.128-0.059,0.235-0.136,0.322-0.23
		c0.085-0.096,0.151-0.208,0.196-0.336c0.045-0.129,0.071-0.266,0.076-0.413V6.822L79.781,6.822L79.781,6.822z"/>
	<path fill="#808285" d="M81.438,3.598c0-0.117,0.042-0.217,0.124-0.303c0.084-0.086,0.187-0.129,0.307-0.129
		s0.224,0.043,0.307,0.129S82.3,3.482,82.3,3.598c0,0.126-0.04,0.229-0.12,0.31c-0.081,0.081-0.185,0.12-0.311,0.12
		c-0.125,0-0.229-0.04-0.311-0.12C81.479,3.827,81.438,3.724,81.438,3.598z M81.574,4.982h0.591v3.542h-0.591V4.982z"/>
	<path fill="#808285" d="M82.83,2.803h0.592v5.721H82.83V2.803z"/>
	<path fill="#808285" d="M84.306,7.662c0.126,0,0.234,0.044,0.321,0.132c0.089,0.09,0.133,0.196,0.133,0.323
		c0,0.125-0.047,0.232-0.14,0.321c-0.095,0.089-0.198,0.132-0.314,0.132s-0.221-0.043-0.314-0.132
		c-0.093-0.089-0.14-0.196-0.14-0.321c0-0.127,0.043-0.233,0.132-0.323C84.073,7.706,84.18,7.662,84.306,7.662z"/>
	<path fill="#808285" d="M87.567,5.868c-0.126-0.151-0.263-0.261-0.408-0.329c-0.146-0.068-0.308-0.102-0.485-0.102
		c-0.196,0-0.37,0.034-0.521,0.102c-0.15,0.067-0.277,0.163-0.375,0.283c-0.099,0.121-0.172,0.261-0.224,0.42
		c-0.051,0.159-0.075,0.329-0.075,0.512c0,0.182,0.028,0.352,0.087,0.511c0.059,0.159,0.14,0.299,0.243,0.42
		c0.104,0.121,0.227,0.216,0.374,0.283c0.147,0.068,0.311,0.103,0.491,0.103c0.39,0,0.688-0.146,0.902-0.438l0.438,0.416
		c-0.172,0.196-0.374,0.34-0.606,0.432c-0.231,0.091-0.477,0.137-0.734,0.137c-0.272,0-0.521-0.046-0.749-0.137
		c-0.227-0.092-0.42-0.22-0.579-0.386c-0.159-0.168-0.281-0.363-0.371-0.591c-0.088-0.226-0.131-0.477-0.131-0.749
		c0-0.268,0.043-0.515,0.131-0.742c0.089-0.227,0.214-0.423,0.375-0.591c0.162-0.166,0.354-0.296,0.579-0.39
		c0.224-0.092,0.473-0.14,0.745-0.14c0.263,0,0.512,0.045,0.747,0.136c0.233,0.092,0.439,0.232,0.616,0.424L87.567,5.868z"/>
	<path fill="#808285" d="M88.166,6.753c0-0.277,0.047-0.529,0.144-0.757c0.097-0.227,0.227-0.422,0.394-0.586
		c0.166-0.164,0.365-0.292,0.599-0.382c0.231-0.09,0.483-0.136,0.756-0.136c0.271,0,0.524,0.045,0.756,0.136
		c0.232,0.092,0.433,0.219,0.599,0.382c0.165,0.164,0.297,0.359,0.393,0.586c0.096,0.228,0.145,0.479,0.145,0.757
		c0,0.277-0.048,0.53-0.145,0.757c-0.096,0.227-0.227,0.423-0.393,0.587c-0.167,0.163-0.366,0.291-0.599,0.381
		c-0.231,0.092-0.484,0.137-0.756,0.137c-0.272,0-0.524-0.045-0.756-0.137c-0.233-0.091-0.434-0.218-0.599-0.381
		c-0.166-0.164-0.297-0.36-0.394-0.587C88.214,7.283,88.166,7.031,88.166,6.753z M88.802,6.753c0,0.187,0.029,0.359,0.087,0.518
		s0.142,0.298,0.254,0.417c0.11,0.118,0.242,0.212,0.396,0.279s0.326,0.103,0.519,0.103c0.191,0,0.364-0.035,0.518-0.103
		c0.154-0.067,0.286-0.161,0.396-0.279c0.112-0.119,0.197-0.258,0.254-0.417c0.058-0.159,0.088-0.332,0.088-0.518
		s-0.029-0.359-0.088-0.519c-0.058-0.159-0.143-0.297-0.254-0.416c-0.11-0.118-0.242-0.212-0.396-0.279
		c-0.153-0.068-0.326-0.102-0.518-0.102c-0.192,0-0.364,0.034-0.519,0.102c-0.154,0.067-0.286,0.162-0.396,0.279
		c-0.112,0.119-0.196,0.257-0.254,0.416C88.831,6.394,88.802,6.567,88.802,6.753z"/>
	<path fill="#808285" d="M92.343,5.823c0-0.162-0.005-0.312-0.015-0.454c-0.01-0.141-0.015-0.27-0.015-0.386h0.56
		c0,0.096,0.004,0.192,0.009,0.288c0.005,0.096,0.008,0.195,0.008,0.295h0.015c0.04-0.086,0.097-0.17,0.17-0.25
		c0.073-0.081,0.16-0.153,0.261-0.216c0.102-0.063,0.215-0.114,0.342-0.151c0.125-0.038,0.262-0.057,0.408-0.057
		c0.191,0,0.352,0.024,0.48,0.072c0.128,0.048,0.235,0.106,0.321,0.173c0.086,0.068,0.153,0.142,0.201,0.22
		c0.047,0.078,0.086,0.147,0.117,0.208c0.13-0.212,0.282-0.377,0.454-0.496c0.171-0.119,0.394-0.178,0.666-0.178
		c0.252,0,0.464,0.034,0.636,0.102c0.171,0.067,0.31,0.167,0.416,0.295c0.105,0.129,0.183,0.285,0.227,0.469
		c0.045,0.184,0.068,0.39,0.068,0.617v2.149h-0.59V6.407c0-0.121-0.014-0.24-0.039-0.356s-0.07-0.219-0.137-0.31
		c-0.065-0.091-0.153-0.164-0.265-0.219c-0.111-0.056-0.253-0.083-0.424-0.083c-0.126,0-0.245,0.025-0.355,0.076
		s-0.209,0.12-0.291,0.212c-0.084,0.091-0.148,0.2-0.196,0.328c-0.048,0.129-0.071,0.272-0.071,0.428v2.043h-0.593V6.52
		c0-0.394-0.053-0.672-0.159-0.836c-0.105-0.164-0.279-0.246-0.521-0.246c-0.193,0-0.357,0.033-0.497,0.098
		c-0.139,0.065-0.252,0.16-0.34,0.28c-0.088,0.121-0.153,0.265-0.196,0.432c-0.043,0.167-0.064,0.351-0.064,0.552v1.725h-0.592
		L92.343,5.823L92.343,5.823z"/>
</g>
</svg>
