<?xml version="1.0" encoding="utf-8"?>
<!-- Generator: Adobe Illustrator 16.0.0, SVG Export Plug-In . SVG Version: 6.00 Build 0)  -->
<!DOCTYPE svg PUBLIC "-//W3C//DTD SVG 1.1//EN" "http://www.w3.org/Graphics/SVG/1.1/DTD/svg11.dtd">
<svg version="1.1" id="Layer_1" xmlns="http://www.w3.org/2000/svg" xmlns:xlink="http://www.w3.org/1999/xlink" x="0px" y="0px"
	 width="320px" height="200px" viewBox="0 0 320 200" enable-background="new 0 0 320 200" xml:space="preserve">
<path fill="#808184" d="M78.628,176.043c0,3.186-2.583,5.77-5.77,5.77H8.27c-3.187,0-5.77-2.584-5.77-5.77v-64.588
	c0-3.188,2.583-5.771,5.77-5.771h64.589c3.187,0,5.77,2.584,5.77,5.771L78.628,176.043L78.628,176.043z"/>
<path fill="#808184" d="M158.128,176.043c0,3.186-2.583,5.77-5.769,5.77h-64.59c-3.186,0-5.769-2.584-5.769-5.77v-64.59
	c0-3.186,2.583-5.77,5.769-5.77h64.591c3.186,0,5.769,2.584,5.769,5.77L158.128,176.043L158.128,176.043z"/>
<path fill="#808184" d="M238.129,176.043c0,3.186-2.583,5.77-5.77,5.77h-64.59c-3.187,0-5.771-2.584-5.771-5.77v-64.59
	c0-3.186,2.584-5.77,5.771-5.77h64.59c3.187,0,5.77,2.584,5.77,5.77V176.043z"/>
<path fill="#808184" d="M318.129,176.043c0,3.186-2.583,5.77-5.77,5.77h-64.59c-3.187,0-5.771-2.584-5.771-5.77v-64.588
	c0-3.188,2.584-5.771,5.771-5.771h64.59c3.187,0,5.77,2.584,5.77,5.771V176.043z"/>
<g>
	<path fill="#FFFFFF" d="M40.565,162.58c-10.384,0-18.832-8.447-18.832-18.831s8.448-18.831,18.832-18.831
		c10.383,0,18.831,8.447,18.831,18.831S50.948,162.58,40.565,162.58z M40.565,128.203c-8.572,0-15.546,6.974-15.546,15.546
		c0,8.571,6.974,15.546,15.546,15.546c8.572,0,15.545-6.975,15.545-15.546C56.11,135.177,49.137,128.203,40.565,128.203z"/>
	<g>
		<path fill="#FFFFFF" d="M34.462,133.941h5.014c0.942,0,1.879,0.055,2.812,0.166c0.932,0.11,1.768,0.352,2.507,0.721
			c0.739,0.369,1.34,0.91,1.802,1.62c0.461,0.711,0.692,1.677,0.692,2.896c0,1.44-0.434,2.604-1.302,3.49
			c-0.868,0.887-2.069,1.45-3.602,1.689l5.568,9.031H45.1l-5.319-8.809h-2.992v8.809h-2.327V133.941z M36.789,142.586h2.079
			c0.646,0,1.315-0.02,2.007-0.057c0.693-0.036,1.33-0.157,1.912-0.36c0.583-0.202,1.062-0.521,1.441-0.956
			c0.378-0.434,0.567-1.057,0.567-1.869c0-0.703-0.138-1.266-0.415-1.689c-0.278-0.426-0.643-0.752-1.095-0.983
			c-0.452-0.229-0.96-0.383-1.524-0.457c-0.563-0.073-1.13-0.11-1.703-0.11h-3.27L36.789,142.586L36.789,142.586z"/>
	</g>
</g>
<path fill="#FFFFFF" d="M145.174,136.943l3.653-12.34l-23.455-5.627l-4.649,10.603l-7.656,2.19l-21.765-7.199l6.065,12.437v23.245
	l23.15,7.764v0.504l0.754-0.252l0.753,0.252v-0.504l23.15-7.764V136.943z M126.247,120.736l20.683,4.963l-3.02,10.203l-21.603-6.185
	L126.247,120.736z M141.836,136.877l-19.812,6.409v-12.081L141.836,136.877z M120.517,131.205v8.908l-2.479-6.699l-2.43-0.805
	L120.517,131.205z M116.876,134.617l3.148,8.512l-21.366-6.915l-4.433-9.089L116.876,134.617z M98.874,159.168v-21.299l21.643,7.002
	v21.555L98.874,159.168z M143.667,159.168l-21.643,7.258v-21.555l21.643-7.002V159.168z"/>
<path fill="#FFFFFF" d="M219.635,116.344l-41.977,41.979l-4.999,12.829l12.78-4.977l0.054-0.021l41.978-41.977L219.635,116.344z
	 M175.6,168.398l-0.17-0.172l3.285-8.828l5.719,5.682L175.6,168.398z"/>
<g>
	<path fill="#FFFFFF" d="M280.066,162.58c-10.387,0-18.832-8.447-18.832-18.833c0-10.384,8.445-18.829,18.832-18.829
		c10.383,0,18.83,8.445,18.83,18.829C298.896,154.133,290.449,162.58,280.066,162.58z M280.066,128.203
		c-8.573,0-15.547,6.973-15.547,15.544c0,8.573,6.974,15.548,15.547,15.548c8.57,0,15.543-6.975,15.543-15.548
		C295.609,135.176,288.637,128.203,280.066,128.203z"/>
	<path fill="#FFFFFF" d="M279.882,145.871l-10.946-10.764c-0.648-0.637-0.656-1.676-0.021-2.323
		c0.635-0.646,1.677-0.655,2.323-0.019l9.012,8.858l6.482-4.472c0.748-0.516,1.771-0.326,2.285,0.421
		c0.518,0.745,0.33,1.77-0.418,2.284L279.882,145.871z"/>
</g>
<g>
	<path fill="#808184" d="M8.441,188.15h1.563l3,6.938h0.025l3.024-6.938h1.525V197h-1.05v-7.424h-0.025L13.329,197H12.69
		l-3.174-7.424H9.491V197h-1.05V188.15z"/>
	<path fill="#808184" d="M19.528,191.9c0.3-0.31,0.656-0.535,1.069-0.683c0.412-0.146,0.831-0.219,1.256-0.219
		c0.866,0,1.491,0.205,1.875,0.612c0.383,0.408,0.575,1.029,0.575,1.861v2.514c0,0.166,0.008,0.339,0.025,0.519
		c0.017,0.181,0.038,0.345,0.062,0.494h-0.937c-0.034-0.133-0.052-0.281-0.057-0.444c-0.004-0.162-0.007-0.306-0.007-0.431h-0.024
		c-0.192,0.301-0.449,0.545-0.769,0.735c-0.321,0.193-0.707,0.287-1.157,0.287c-0.3,0-0.581-0.037-0.843-0.11
		c-0.263-0.074-0.492-0.187-0.688-0.332c-0.196-0.146-0.352-0.326-0.469-0.543c-0.117-0.218-0.175-0.468-0.175-0.75
		c0-0.481,0.125-0.861,0.375-1.138c0.25-0.274,0.56-0.479,0.931-0.612c0.372-0.134,0.771-0.218,1.2-0.25
		c0.429-0.033,0.822-0.052,1.181-0.052h0.375v-0.174c0-0.426-0.127-0.746-0.381-0.963c-0.254-0.217-0.611-0.324-1.068-0.324
		c-0.317,0-0.627,0.052-0.931,0.156c-0.304,0.104-0.574,0.264-0.807,0.48L19.528,191.9z M22.353,194.188
		c-0.625,0-1.121,0.088-1.487,0.263c-0.366,0.176-0.55,0.463-0.55,0.862c0,0.365,0.123,0.627,0.369,0.781
		c0.245,0.154,0.552,0.23,0.918,0.23c0.283,0,0.532-0.047,0.744-0.145c0.212-0.095,0.389-0.224,0.531-0.382
		c0.141-0.157,0.25-0.344,0.325-0.557c0.075-0.212,0.117-0.439,0.125-0.681v-0.375h-0.975V194.188z"/>
	<path fill="#808184" d="M26.091,192.537c0-0.266-0.01-0.516-0.025-0.75c-0.017-0.232-0.025-0.445-0.025-0.637h0.925
		c0,0.156,0.004,0.315,0.013,0.475c0.008,0.158,0.012,0.32,0.012,0.488h0.024c0.067-0.143,0.161-0.281,0.282-0.412
		c0.121-0.135,0.265-0.252,0.432-0.357c0.166-0.104,0.353-0.188,0.562-0.25c0.208-0.062,0.433-0.094,0.674-0.094
		c0.067,0,0.133,0.004,0.201,0.014c0.066,0.008,0.133,0.023,0.2,0.049l-0.063,0.986c-0.167-0.049-0.342-0.074-0.525-0.074
		c-0.6,0-1.036,0.193-1.306,0.58c-0.271,0.389-0.406,0.92-0.406,1.596V197h-0.975V192.537z"/>
	<path fill="#808184" d="M30.491,187.551h0.975v6.174l2.663-2.574h1.387l-2.824,2.662L35.803,197h-1.438l-2.899-3.076V197h-0.975
		V187.551z"/>
	<path fill="#808184" d="M36.64,197.537l-0.788-0.312l3.762-9.6l0.788,0.299L36.64,197.537z"/>
	<path fill="#808184" d="M41.54,188.15h2.7c0.367,0,0.725,0.037,1.075,0.11c0.35,0.076,0.662,0.197,0.937,0.369
		c0.275,0.17,0.498,0.396,0.669,0.67c0.17,0.275,0.256,0.617,0.256,1.022c0,0.519-0.14,0.945-0.418,1.283
		c-0.279,0.336-0.656,0.576-1.131,0.717v0.025c0.283,0.025,0.548,0.098,0.794,0.219c0.245,0.121,0.458,0.277,0.637,0.47
		c0.179,0.19,0.319,0.414,0.418,0.668c0.1,0.256,0.15,0.528,0.15,0.819c0,0.49-0.103,0.896-0.306,1.213
		c-0.205,0.316-0.472,0.568-0.8,0.757c-0.33,0.187-0.7,0.317-1.113,0.393c-0.413,0.076-0.823,0.113-1.231,0.113H41.54V188.15z
		 M42.589,191.9h1.45c0.25,0,0.494-0.019,0.731-0.051c0.238-0.033,0.452-0.103,0.644-0.207s0.346-0.248,0.462-0.438
		c0.116-0.187,0.175-0.435,0.175-0.742c0-0.274-0.055-0.498-0.163-0.67c-0.109-0.17-0.252-0.306-0.431-0.406
		c-0.179-0.1-0.383-0.168-0.612-0.204c-0.229-0.037-0.46-0.058-0.694-0.058h-1.562V191.9z M42.589,196.025h1.775
		c0.258,0,0.515-0.027,0.769-0.082c0.254-0.055,0.484-0.144,0.688-0.262c0.205-0.121,0.369-0.279,0.494-0.478
		c0.125-0.195,0.187-0.437,0.187-0.718c0-0.309-0.061-0.567-0.181-0.774c-0.121-0.209-0.279-0.375-0.475-0.502
		c-0.196-0.123-0.421-0.211-0.675-0.262c-0.254-0.052-0.515-0.074-0.781-0.074h-1.8L42.589,196.025L42.589,196.025z"/>
	<path fill="#808184" d="M49.239,192.537c0-0.266-0.009-0.516-0.025-0.75c-0.017-0.232-0.025-0.445-0.025-0.637h0.924
		c0,0.156,0.005,0.315,0.014,0.475c0.008,0.158,0.012,0.32,0.012,0.488h0.025c0.066-0.143,0.161-0.281,0.282-0.412
		c0.12-0.135,0.264-0.252,0.431-0.357c0.166-0.104,0.354-0.188,0.562-0.25c0.208-0.062,0.434-0.094,0.675-0.094
		c0.067,0,0.133,0.004,0.2,0.014c0.066,0.008,0.133,0.023,0.2,0.049l-0.063,0.986c-0.166-0.049-0.341-0.074-0.524-0.074
		c-0.6,0-1.035,0.193-1.306,0.58c-0.271,0.389-0.406,0.92-0.406,1.596V197H49.24v-4.463H49.239z"/>
	<path fill="#808184" d="M53.564,191.9c0.3-0.31,0.656-0.535,1.068-0.683c0.412-0.146,0.832-0.219,1.256-0.219
		c0.867,0,1.492,0.205,1.875,0.612c0.383,0.408,0.575,1.029,0.575,1.861v2.514c0,0.166,0.008,0.339,0.024,0.519
		c0.016,0.181,0.038,0.345,0.062,0.494h-0.937c-0.033-0.133-0.052-0.281-0.057-0.444c-0.004-0.162-0.006-0.306-0.006-0.431H57.4
		c-0.192,0.301-0.448,0.545-0.769,0.735c-0.321,0.193-0.706,0.287-1.156,0.287c-0.3,0-0.582-0.037-0.844-0.11
		c-0.263-0.074-0.492-0.187-0.687-0.332c-0.196-0.146-0.353-0.326-0.469-0.543c-0.117-0.218-0.175-0.468-0.175-0.75
		c0-0.481,0.125-0.861,0.375-1.138c0.25-0.275,0.56-0.479,0.932-0.612c0.371-0.134,0.771-0.218,1.2-0.25
		c0.429-0.033,0.822-0.052,1.181-0.052h0.375v-0.174c0-0.426-0.127-0.746-0.381-0.963s-0.61-0.324-1.068-0.324
		c-0.317,0-0.627,0.052-0.932,0.156c-0.304,0.104-0.573,0.264-0.807,0.48L53.564,191.9z M56.388,194.188
		c-0.625,0-1.121,0.088-1.487,0.263c-0.366,0.176-0.55,0.463-0.55,0.862c0,0.365,0.124,0.627,0.369,0.781
		c0.245,0.154,0.552,0.23,0.918,0.23c0.284,0,0.532-0.047,0.745-0.145c0.212-0.095,0.389-0.224,0.531-0.382
		c0.141-0.157,0.25-0.344,0.325-0.557c0.075-0.212,0.116-0.439,0.125-0.681v-0.375h-0.976V194.188z"/>
	<path fill="#808184" d="M60.126,192.537c0-0.266-0.009-0.516-0.025-0.75c-0.017-0.232-0.025-0.445-0.025-0.637h0.925
		c0,0.156,0.004,0.315,0.013,0.475c0.009,0.159,0.012,0.32,0.012,0.488h0.025c0.066-0.143,0.161-0.281,0.282-0.412
		c0.12-0.135,0.264-0.252,0.431-0.357c0.167-0.104,0.354-0.188,0.562-0.25S62.759,191,63,191c0.383,0,0.715,0.059,0.994,0.176
		c0.279,0.115,0.51,0.279,0.693,0.486c0.184,0.209,0.319,0.461,0.407,0.756c0.087,0.297,0.131,0.619,0.131,0.969V197H64.25v-3.512
		c0-0.492-0.108-0.881-0.325-1.164c-0.217-0.281-0.554-0.424-1.013-0.424c-0.317,0-0.589,0.053-0.818,0.162
		c-0.229,0.108-0.417,0.262-0.562,0.463c-0.146,0.199-0.254,0.438-0.324,0.711c-0.071,0.275-0.106,0.58-0.106,0.914V197h-0.975
		V192.537z"/>
	<path fill="#808184" d="M71.938,195.961h-0.025c-0.184,0.334-0.473,0.615-0.869,0.846c-0.396,0.228-0.856,0.342-1.381,0.342
		c-0.409,0-0.792-0.076-1.15-0.229c-0.359-0.153-0.669-0.367-0.931-0.644c-0.263-0.274-0.469-0.6-0.619-0.975
		c-0.15-0.377-0.225-0.783-0.225-1.225c0-0.443,0.075-0.852,0.225-1.227s0.358-0.699,0.625-0.976s0.589-0.49,0.969-0.646
		c0.38-0.154,0.798-0.229,1.256-0.229c0.425,0,0.814,0.088,1.169,0.262c0.354,0.177,0.664,0.423,0.931,0.738h0.025v-4.449h0.975V197
		h-0.975V195.961z M71.938,194.076c0-0.311-0.049-0.594-0.144-0.857c-0.096-0.262-0.236-0.492-0.419-0.688
		c-0.183-0.196-0.401-0.35-0.656-0.463c-0.255-0.111-0.54-0.168-0.856-0.168c-0.317,0-0.602,0.057-0.856,0.168
		c-0.254,0.113-0.473,0.268-0.656,0.463s-0.323,0.426-0.419,0.688c-0.096,0.264-0.144,0.547-0.144,0.857
		c0,0.307,0.048,0.594,0.144,0.855c0.096,0.26,0.236,0.491,0.419,0.686c0.183,0.197,0.402,0.352,0.656,0.465
		c0.254,0.111,0.539,0.168,0.856,0.168c0.316,0,0.602-0.057,0.856-0.168c0.254-0.113,0.473-0.268,0.656-0.465
		c0.183-0.193,0.323-0.424,0.419-0.686C71.889,194.67,71.938,194.383,71.938,194.076z"/>
</g>
<g>
	<g>
		<path fill="#808184" d="M99.153,188.152h2.625c0.408,0,0.797,0.037,1.168,0.117c0.371,0.08,0.7,0.211,0.988,0.399
			c0.287,0.188,0.517,0.438,0.687,0.748c0.171,0.313,0.257,0.699,0.257,1.156c0,0.483-0.091,0.885-0.275,1.2
			c-0.184,0.316-0.418,0.566-0.706,0.75c-0.287,0.185-0.602,0.312-0.943,0.39c-0.342,0.073-0.667,0.11-0.976,0.11h-1.774v3.978
			h-1.05L99.153,188.152L99.153,188.152z M100.204,192.051h1.774c0.525,0,0.952-0.119,1.282-0.357
			c0.329-0.235,0.493-0.604,0.493-1.104s-0.165-0.866-0.493-1.104c-0.33-0.238-0.756-0.357-1.282-0.357h-1.774V192.051z"/>
		<path fill="#808184" d="M106.391,192.537c0-0.266-0.009-0.516-0.025-0.75c-0.017-0.232-0.025-0.445-0.025-0.637h0.925
			c0,0.158,0.004,0.315,0.013,0.475c0.008,0.16,0.012,0.32,0.012,0.488h0.025c0.066-0.143,0.16-0.279,0.281-0.412
			c0.12-0.135,0.265-0.252,0.432-0.355c0.166-0.106,0.354-0.188,0.562-0.25c0.208-0.063,0.433-0.096,0.675-0.096
			c0.066,0,0.133,0.006,0.2,0.014c0.067,0.008,0.133,0.025,0.201,0.049l-0.063,0.988c-0.166-0.051-0.341-0.074-0.524-0.074
			c-0.6,0-1.035,0.191-1.306,0.58c-0.271,0.387-0.406,0.918-0.406,1.594v2.853h-0.975v-4.466H106.391z"/>
		<path fill="#808184" d="M110.228,194.076c0-0.459,0.079-0.875,0.237-1.25c0.159-0.377,0.375-0.697,0.65-0.969
			c0.275-0.272,0.604-0.482,0.987-0.631c0.383-0.15,0.8-0.228,1.25-0.228c0.45,0,0.867,0.076,1.251,0.228
			c0.383,0.147,0.712,0.358,0.987,0.631c0.275,0.271,0.492,0.592,0.65,0.969c0.158,0.375,0.238,0.791,0.238,1.25
			c0,0.457-0.08,0.875-0.238,1.25c-0.158,0.373-0.375,0.697-0.65,0.967c-0.275,0.273-0.604,0.482-0.987,0.633
			c-0.384,0.15-0.801,0.225-1.251,0.225c-0.449,0-0.866-0.073-1.25-0.225c-0.384-0.15-0.712-0.359-0.987-0.633
			c-0.275-0.27-0.492-0.594-0.65-0.967C110.307,194.951,110.228,194.533,110.228,194.076z M111.277,194.076
			c0,0.309,0.048,0.594,0.144,0.855c0.096,0.264,0.236,0.491,0.419,0.688c0.183,0.195,0.402,0.35,0.656,0.463
			s0.539,0.168,0.855,0.168c0.317,0,0.602-0.055,0.856-0.168s0.473-0.268,0.656-0.463c0.184-0.195,0.323-0.424,0.419-0.688
			c0.096-0.263,0.144-0.548,0.144-0.855c0-0.309-0.048-0.594-0.144-0.857c-0.096-0.262-0.235-0.49-0.419-0.688
			c-0.183-0.195-0.402-0.35-0.656-0.463c-0.254-0.111-0.54-0.168-0.856-0.168s-0.602,0.057-0.855,0.168
			c-0.254,0.113-0.473,0.268-0.656,0.463c-0.183,0.197-0.323,0.426-0.419,0.688C111.326,193.482,111.277,193.768,111.277,194.076z"
			/>
		<path fill="#808184" d="M122.852,195.963h-0.024c-0.184,0.334-0.474,0.613-0.869,0.844c-0.396,0.229-0.856,0.344-1.381,0.344
			c-0.409,0-0.792-0.078-1.15-0.231c-0.359-0.151-0.669-0.367-0.932-0.644c-0.263-0.274-0.468-0.6-0.618-0.975
			c-0.15-0.377-0.226-0.783-0.226-1.225c0-0.442,0.076-0.852,0.226-1.227c0.15-0.373,0.358-0.699,0.625-0.976
			s0.59-0.488,0.969-0.646c0.379-0.153,0.798-0.229,1.256-0.229c0.425,0,0.814,0.088,1.168,0.262
			c0.354,0.177,0.665,0.423,0.932,0.738h0.024v-4.449h0.975v9.451h-0.975V195.963z M122.852,194.076
			c0-0.309-0.048-0.594-0.144-0.857c-0.096-0.262-0.235-0.49-0.419-0.688c-0.183-0.195-0.402-0.35-0.656-0.463
			c-0.254-0.111-0.54-0.168-0.856-0.168s-0.602,0.057-0.856,0.168c-0.254,0.113-0.473,0.268-0.656,0.463
			c-0.184,0.197-0.323,0.426-0.419,0.688c-0.096,0.264-0.144,0.549-0.144,0.857c0,0.308,0.048,0.594,0.144,0.855
			c0.096,0.264,0.235,0.491,0.419,0.688c0.183,0.195,0.402,0.35,0.656,0.463s0.54,0.168,0.856,0.168
			c0.317,0,0.602-0.055,0.856-0.168c0.254-0.113,0.473-0.268,0.656-0.463c0.184-0.195,0.323-0.424,0.419-0.688
			C122.804,194.67,122.852,194.385,122.852,194.076z"/>
		<path fill="#808184" d="M130.727,195.613c0,0.268,0.008,0.518,0.025,0.748c0.016,0.236,0.024,0.447,0.024,0.641h-0.924
			c0-0.16-0.004-0.318-0.013-0.479c-0.008-0.156-0.012-0.318-0.012-0.486h-0.025c-0.066,0.143-0.16,0.279-0.281,0.414
			c-0.12,0.133-0.265,0.252-0.431,0.355c-0.166,0.103-0.354,0.188-0.562,0.25c-0.208,0.062-0.433,0.094-0.675,0.094
			c-0.383,0-0.715-0.06-0.994-0.174c-0.279-0.117-0.51-0.279-0.694-0.488s-0.319-0.461-0.407-0.758
			c-0.087-0.295-0.13-0.617-0.13-0.967v-3.613h0.975v3.512c0,0.492,0.108,0.879,0.324,1.164c0.217,0.283,0.555,0.424,1.013,0.424
			c0.316,0,0.589-0.055,0.818-0.162s0.417-0.262,0.563-0.463s0.254-0.438,0.325-0.713c0.07-0.273,0.106-0.578,0.106-0.912v-2.85
			h0.975V195.613z"/>
		<path fill="#808184" d="M136.739,192.613c-0.209-0.25-0.434-0.432-0.675-0.545c-0.242-0.111-0.509-0.168-0.8-0.168
			c-0.326,0-0.612,0.057-0.862,0.168c-0.25,0.113-0.457,0.27-0.619,0.469c-0.163,0.201-0.286,0.434-0.369,0.695
			c-0.083,0.261-0.125,0.543-0.125,0.844c0,0.299,0.048,0.58,0.144,0.844c0.096,0.262,0.229,0.492,0.4,0.693
			s0.377,0.354,0.619,0.469c0.242,0.113,0.513,0.168,0.813,0.168c0.642,0,1.138-0.24,1.487-0.725l0.726,0.688
			c-0.284,0.324-0.617,0.562-1,0.713s-0.788,0.225-1.212,0.225c-0.451,0-0.862-0.073-1.238-0.225
			c-0.375-0.15-0.693-0.363-0.956-0.639c-0.262-0.275-0.467-0.6-0.612-0.975s-0.219-0.787-0.219-1.236
			c0-0.441,0.074-0.852,0.219-1.227c0.146-0.373,0.352-0.699,0.619-0.976s0.585-0.488,0.956-0.646
			c0.371-0.153,0.781-0.229,1.231-0.229c0.433,0,0.844,0.076,1.231,0.228c0.388,0.147,0.727,0.383,1.019,0.698L136.739,192.613z"/>
		<path fill="#808184" d="M141.802,191.977h-1.725v2.924c0,0.191,0.004,0.367,0.013,0.531c0.008,0.162,0.042,0.305,0.1,0.426
			s0.146,0.218,0.263,0.285c0.116,0.072,0.282,0.107,0.499,0.107c0.142,0,0.288-0.018,0.438-0.049
			c0.15-0.035,0.292-0.084,0.425-0.15l0.037,0.887c-0.166,0.074-0.351,0.129-0.556,0.162c-0.204,0.033-0.397,0.051-0.582,0.051
			c-0.349,0-0.628-0.047-0.836-0.139c-0.209-0.092-0.371-0.219-0.488-0.387c-0.117-0.166-0.193-0.371-0.231-0.619
			c-0.037-0.244-0.056-0.518-0.056-0.818v-3.211h-1.275v-0.826h1.275v-1.662h0.975v1.662h1.725v0.826H141.802z"/>
	</g>
</g>
<g>
	<g>
		<path fill="#808184" d="M177.504,188.152h3.4c0.291,0,0.6,0.031,0.924,0.098c0.324,0.068,0.648,0.174,0.969,0.318
			c0.32,0.146,0.629,0.336,0.926,0.567c0.295,0.234,0.557,0.517,0.78,0.847c0.226,0.328,0.403,0.709,0.538,1.135
			c0.133,0.432,0.2,0.918,0.2,1.459s-0.067,1.027-0.2,1.455c-0.135,0.43-0.312,0.809-0.538,1.139
			c-0.226,0.328-0.485,0.611-0.78,0.842c-0.297,0.234-0.604,0.424-0.926,0.57c-0.32,0.146-0.645,0.252-0.969,0.318
			c-0.324,0.067-0.633,0.102-0.924,0.102h-3.4V188.152z M178.555,196.025h2c0.506,0,0.979-0.068,1.41-0.199
			c0.436-0.133,0.809-0.34,1.126-0.621c0.316-0.277,0.566-0.633,0.749-1.066c0.184-0.434,0.275-0.955,0.275-1.562
			c0-0.609-0.092-1.129-0.275-1.562c-0.183-0.435-0.433-0.791-0.749-1.07c-0.317-0.277-0.69-0.482-1.126-0.617
			c-0.433-0.135-0.904-0.201-1.41-0.201h-2V196.025z"/>
		<path fill="#808184" d="M186.753,192.537c0-0.266-0.01-0.516-0.026-0.75c-0.015-0.232-0.022-0.445-0.022-0.637h0.924
			c0,0.158,0.004,0.315,0.013,0.475c0.01,0.16,0.014,0.32,0.014,0.488h0.025c0.066-0.143,0.158-0.279,0.279-0.412
			c0.122-0.135,0.266-0.252,0.434-0.355c0.164-0.106,0.354-0.188,0.562-0.25c0.209-0.063,0.433-0.096,0.675-0.096
			c0.066,0,0.135,0.006,0.201,0.014c0.064,0.008,0.133,0.025,0.199,0.049l-0.063,0.988c-0.167-0.051-0.34-0.074-0.524-0.074
			c-0.6,0-1.035,0.191-1.305,0.58c-0.271,0.387-0.406,0.918-0.406,1.594v2.853h-0.976v-4.466H186.753z"/>
		<path fill="#808184" d="M191.077,191.9c0.301-0.31,0.657-0.535,1.069-0.683c0.412-0.146,0.832-0.219,1.256-0.219
			c0.865,0,1.492,0.205,1.875,0.612c0.383,0.408,0.574,1.029,0.574,1.861v2.514c0,0.166,0.008,0.339,0.024,0.519
			c0.017,0.183,0.038,0.345,0.063,0.496h-0.938c-0.033-0.135-0.052-0.283-0.058-0.444c-0.004-0.164-0.006-0.308-0.006-0.433h-0.025
			c-0.191,0.301-0.446,0.547-0.77,0.735c-0.319,0.193-0.705,0.289-1.154,0.289c-0.301,0-0.582-0.037-0.844-0.112
			c-0.265-0.074-0.492-0.187-0.688-0.33c-0.196-0.146-0.354-0.328-0.47-0.545c-0.115-0.218-0.176-0.466-0.176-0.75
			c0-0.481,0.127-0.861,0.377-1.138c0.25-0.274,0.56-0.479,0.93-0.61c0.371-0.136,0.771-0.218,1.199-0.25
			c0.432-0.035,0.824-0.052,1.184-0.052h0.373v-0.176c0-0.426-0.126-0.746-0.381-0.961c-0.254-0.217-0.61-0.326-1.067-0.326
			c-0.317,0-0.627,0.054-0.931,0.156c-0.305,0.104-0.575,0.264-0.807,0.48L191.077,191.9z M193.902,194.189
			c-0.627,0-1.121,0.086-1.488,0.262c-0.365,0.176-0.549,0.461-0.549,0.861c0,0.367,0.121,0.627,0.367,0.78
			c0.244,0.154,0.553,0.232,0.92,0.232c0.283,0,0.531-0.05,0.744-0.146s0.389-0.225,0.531-0.381c0.141-0.158,0.25-0.344,0.324-0.557
			s0.115-0.441,0.123-0.682v-0.373h-0.973V194.189z"/>
		<path fill="#808184" d="M203.914,197.002h-0.962l-1.663-4.5h-0.025l-1.475,4.5h-1.001l-1.897-5.852h1.074l1.336,4.5h0.026
			l1.512-4.5h1.024l1.537,4.5h0.025l1.324-4.5h1.051L203.914,197.002z"/>
		<path fill="#808184" d="M206.764,188.863c0-0.191,0.068-0.359,0.207-0.5c0.137-0.143,0.307-0.211,0.506-0.211
			c0.2,0,0.367,0.068,0.506,0.211c0.138,0.141,0.209,0.309,0.209,0.5c0,0.207-0.067,0.379-0.203,0.512
			c-0.133,0.133-0.303,0.201-0.512,0.201s-0.379-0.068-0.514-0.201C206.83,189.242,206.764,189.07,206.764,188.863z M206.988,191.15
			h0.976v5.852h-0.976V191.15z"/>
		<path fill="#808184" d="M209.9,192.537c0-0.266-0.01-0.516-0.024-0.75c-0.017-0.232-0.024-0.445-0.024-0.637h0.924
			c0,0.158,0.006,0.315,0.014,0.475c0.009,0.16,0.014,0.32,0.014,0.488h0.025c0.064-0.143,0.158-0.279,0.279-0.412
			c0.123-0.135,0.267-0.252,0.432-0.355c0.167-0.106,0.355-0.188,0.562-0.25c0.207-0.063,0.434-0.096,0.676-0.096
			c0.383,0,0.714,0.059,0.994,0.176c0.277,0.115,0.51,0.279,0.691,0.488c0.184,0.207,0.319,0.459,0.408,0.754
			c0.087,0.297,0.131,0.619,0.131,0.969v3.615h-0.977v-3.514c0-0.492-0.107-0.879-0.324-1.162s-0.555-0.426-1.014-0.426
			c-0.315,0-0.588,0.055-0.817,0.164c-0.229,0.106-0.417,0.262-0.562,0.461c-0.146,0.201-0.254,0.438-0.326,0.713
			c-0.069,0.275-0.106,0.58-0.106,0.912v2.852h-0.974v-4.465H209.9z"/>
		<path fill="#808184" d="M222.688,196.738c0,1.066-0.272,1.877-0.816,2.432c-0.547,0.553-1.337,0.83-2.369,0.83
			c-0.575,0-1.095-0.084-1.557-0.25c-0.463-0.166-0.902-0.455-1.319-0.861l0.7-0.801c0.31,0.332,0.637,0.584,0.98,0.756
			c0.346,0.17,0.744,0.256,1.194,0.256c0.435,0,0.794-0.063,1.081-0.192c0.286-0.13,0.514-0.304,0.682-0.525
			c0.168-0.221,0.282-0.473,0.35-0.756c0.068-0.282,0.101-0.578,0.101-0.887v-0.75h-0.024c-0.233,0.372-0.539,0.647-0.912,0.823
			c-0.375,0.177-0.76,0.265-1.15,0.265c-0.458,0-0.878-0.074-1.264-0.228c-0.383-0.149-0.711-0.356-0.984-0.623
			c-0.275-0.27-0.488-0.584-0.641-0.951c-0.148-0.364-0.223-0.766-0.223-1.198c0-0.476,0.073-0.904,0.223-1.289
			c0.152-0.383,0.361-0.705,0.633-0.97c0.271-0.262,0.598-0.463,0.98-0.604c0.383-0.141,0.81-0.213,1.274-0.213
			c0.201,0,0.399,0.022,0.601,0.07c0.2,0.045,0.395,0.114,0.582,0.211c0.188,0.098,0.354,0.219,0.506,0.36
			c0.15,0.148,0.274,0.316,0.375,0.508h0.024v-1h0.974V196.738L222.688,196.738z M217.562,194.076c0,0.299,0.055,0.576,0.162,0.83
			c0.108,0.254,0.256,0.475,0.444,0.662c0.188,0.188,0.405,0.336,0.656,0.443c0.25,0.108,0.516,0.163,0.799,0.163
			c0.335,0,0.63-0.059,0.89-0.176c0.258-0.117,0.475-0.271,0.654-0.47c0.18-0.194,0.314-0.42,0.405-0.676
			c0.093-0.252,0.139-0.521,0.139-0.805c0-0.316-0.05-0.607-0.149-0.869c-0.1-0.264-0.242-0.49-0.424-0.68
			c-0.186-0.193-0.404-0.342-0.664-0.445c-0.258-0.104-0.541-0.156-0.851-0.156c-0.308,0-0.59,0.058-0.843,0.168
			c-0.256,0.113-0.471,0.269-0.651,0.463c-0.177,0.197-0.317,0.427-0.417,0.688C217.613,193.482,217.562,193.768,217.562,194.076z"
			/>
	</g>
</g>
<g>
	<g>
		<path fill="#808184" d="M271.614,189.977c-0.267-0.358-0.595-0.627-0.986-0.807s-0.802-0.27-1.226-0.27
			c-0.492,0-0.943,0.1-1.354,0.303c-0.415,0.197-0.771,0.467-1.069,0.805c-0.302,0.338-0.535,0.729-0.701,1.176
			c-0.166,0.443-0.248,0.908-0.248,1.394c0,0.519,0.082,0.998,0.248,1.442c0.166,0.447,0.398,0.834,0.692,1.162
			c0.298,0.33,0.652,0.592,1.064,0.781c0.411,0.193,0.868,0.287,1.368,0.287c0.541,0,1.023-0.105,1.449-0.318
			c0.426-0.211,0.795-0.518,1.112-0.918l0.788,0.662c-0.4,0.535-0.881,0.926-1.445,1.176c-0.562,0.25-1.197,0.373-1.904,0.373
			c-0.635,0-1.226-0.115-1.774-0.348c-0.551-0.234-1.028-0.559-1.431-0.971c-0.404-0.412-0.723-0.9-0.951-1.469
			c-0.229-0.566-0.344-1.188-0.344-1.861c0-0.648,0.109-1.258,0.332-1.824c0.22-0.566,0.531-1.059,0.93-1.475
			c0.4-0.418,0.876-0.746,1.426-0.988c0.551-0.242,1.153-0.361,1.812-0.361c0.6,0,1.177,0.107,1.729,0.324
			c0.556,0.215,1.021,0.57,1.396,1.061L271.614,189.977z"/>
		<path fill="#808184" d="M274.127,187.551h0.975v9.451h-0.975V187.551z"/>
		<path fill="#808184" d="M276.701,194.076c0-0.457,0.08-0.875,0.236-1.25c0.16-0.375,0.377-0.697,0.651-0.969
			c0.274-0.271,0.604-0.482,0.986-0.631c0.384-0.15,0.801-0.226,1.25-0.226c0.448,0,0.866,0.074,1.251,0.226
			c0.384,0.147,0.712,0.36,0.986,0.631s0.492,0.594,0.65,0.969c0.157,0.375,0.237,0.793,0.237,1.25s-0.08,0.875-0.237,1.25
			c-0.158,0.373-0.376,0.699-0.65,0.969c-0.274,0.271-0.604,0.48-0.986,0.631c-0.385,0.15-0.803,0.225-1.251,0.225
			c-0.449,0-0.866-0.073-1.25-0.225c-0.384-0.15-0.712-0.359-0.986-0.631c-0.274-0.27-0.491-0.596-0.651-0.969
			C276.781,194.951,276.701,194.533,276.701,194.076z M277.752,194.076c0,0.309,0.047,0.594,0.145,0.855
			c0.096,0.264,0.234,0.491,0.418,0.688c0.184,0.194,0.402,0.348,0.656,0.461c0.254,0.112,0.539,0.168,0.855,0.168
			s0.602-0.056,0.855-0.168c0.254-0.113,0.475-0.267,0.657-0.461c0.183-0.197,0.321-0.427,0.418-0.688
			c0.097-0.263,0.144-0.548,0.144-0.855c0-0.309-0.047-0.594-0.144-0.857c-0.097-0.262-0.235-0.49-0.418-0.688
			c-0.185-0.195-0.401-0.35-0.657-0.461c-0.255-0.111-0.539-0.17-0.855-0.17s-0.602,0.059-0.855,0.17s-0.474,0.266-0.656,0.461
			c-0.184,0.197-0.322,0.426-0.418,0.688C277.799,193.482,277.752,193.768,277.752,194.076z"/>
		<path fill="#808184" d="M288.626,192.613c-0.208-0.25-0.433-0.432-0.675-0.543c-0.241-0.111-0.508-0.17-0.801-0.17
			c-0.324,0-0.61,0.059-0.86,0.17c-0.252,0.111-0.458,0.27-0.619,0.469c-0.164,0.199-0.286,0.432-0.37,0.693
			c-0.082,0.264-0.123,0.543-0.123,0.844s0.047,0.58,0.144,0.844c0.097,0.262,0.229,0.494,0.399,0.693
			c0.17,0.201,0.377,0.354,0.618,0.469c0.241,0.113,0.513,0.168,0.812,0.168c0.644,0,1.139-0.24,1.488-0.725l0.726,0.688
			c-0.283,0.326-0.617,0.562-1.002,0.713c-0.382,0.15-0.786,0.225-1.212,0.225c-0.449,0-0.86-0.073-1.236-0.225
			c-0.375-0.15-0.693-0.363-0.956-0.639c-0.263-0.273-0.467-0.598-0.612-0.973c-0.146-0.377-0.22-0.789-0.22-1.238
			c0-0.441,0.074-0.852,0.22-1.225c0.146-0.375,0.354-0.701,0.618-0.978c0.269-0.272,0.587-0.488,0.957-0.646
			c0.37-0.151,0.78-0.229,1.229-0.229c0.435,0,0.845,0.074,1.231,0.225c0.388,0.148,0.728,0.383,1.019,0.701L288.626,192.613z"/>
		<path fill="#808184" d="M290.486,187.551h0.979v6.176l2.661-2.574h1.388l-2.826,2.66l3.113,3.189h-1.438l-2.897-3.076v3.076
			h-0.978v-9.451H290.486z"/>
	</g>
</g>
<g>
	<path fill="#FFFFFF" d="M40.565,62.58c-10.384,0-18.832-8.447-18.832-18.831s8.448-18.831,18.832-18.831
		c10.383,0,18.831,8.447,18.831,18.831S50.948,62.58,40.565,62.58z M40.565,28.203c-8.572,0-15.546,6.974-15.546,15.546
		c0,8.571,6.974,15.546,15.546,15.546c8.572,0,15.545-6.975,15.545-15.546C56.11,35.177,49.137,28.203,40.565,28.203z"/>
	<g>
		<path fill="#FFFFFF" d="M34.462,33.941h5.014c0.942,0,1.879,0.055,2.812,0.167c0.932,0.11,1.768,0.351,2.507,0.72
			c0.739,0.369,1.34,0.91,1.802,1.62c0.461,0.711,0.692,1.677,0.692,2.896c0,1.44-0.434,2.604-1.302,3.49
			c-0.868,0.887-2.069,1.45-3.602,1.689l5.568,9.031H45.1l-5.319-8.808h-2.992v8.808h-2.327V33.941z M36.789,42.586h2.079
			c0.646,0,1.315-0.02,2.007-0.057c0.693-0.036,1.33-0.157,1.912-0.36c0.583-0.202,1.062-0.521,1.441-0.956
			c0.378-0.433,0.567-1.057,0.567-1.869c0-0.703-0.138-1.266-0.415-1.689c-0.278-0.426-0.643-0.753-1.095-0.984
			c-0.452-0.23-0.96-0.383-1.524-0.457c-0.563-0.074-1.13-0.111-1.703-0.111h-3.27L36.789,42.586L36.789,42.586z"/>
	</g>
</g>
<path fill="#FFFFFF" d="M145.174,36.943l3.653-12.34l-23.455-5.627l-4.649,10.603l-7.656,2.19L91.302,24.57l6.065,12.437v23.245
	l23.15,7.764v0.504l0.754-0.252l0.753,0.252v-0.504l23.15-7.764V36.943z M126.247,20.736l20.683,4.963l-3.02,10.203l-21.603-6.184
	L126.247,20.736z M141.836,36.877l-19.812,6.409V31.205L141.836,36.877z M120.517,31.205v8.908l-2.479-6.699l-2.43-0.804
	L120.517,31.205z M116.876,34.617l3.148,8.512l-21.366-6.915l-4.433-9.089L116.876,34.617z M98.874,59.168V37.869l21.643,7.002
	v21.555L98.874,59.168z M143.667,59.168l-21.643,7.258V44.871l21.643-7.002V59.168z"/>
<path fill="#FFFFFF" d="M219.635,16.344l-41.977,41.979l-4.999,12.83l12.78-4.977l0.054-0.021l41.978-41.977L219.635,16.344z
	 M175.6,68.398l-0.17-0.172l3.285-8.828l5.719,5.682L175.6,68.398z"/>
<g>
	<path fill="#FFFFFF" d="M280.066,62.58c-10.387,0-18.832-8.447-18.832-18.833c0-10.384,8.445-18.829,18.832-18.829
		c10.383,0,18.83,8.445,18.83,18.829C298.896,54.133,290.449,62.58,280.066,62.58z M280.066,28.203
		c-8.573,0-15.547,6.973-15.547,15.544c0,8.573,6.974,15.548,15.547,15.548c8.57,0,15.543-6.975,15.543-15.548
		C295.609,35.176,288.637,28.203,280.066,28.203z"/>
	<path fill="#FFFFFF" d="M279.882,45.871l-10.946-10.764c-0.648-0.637-0.656-1.676-0.021-2.323c0.635-0.646,1.677-0.655,2.323-0.019
		l9.012,8.859l6.482-4.471c0.748-0.516,1.771-0.327,2.285,0.42c0.518,0.746,0.33,1.77-0.418,2.284L279.882,45.871z"/>
</g>
<g>
	<path fill="#808184" d="M40.565,62.578c-10.384,0-18.832-8.447-18.832-18.831c0-10.384,8.448-18.831,18.832-18.831
		c10.384,0,18.831,8.447,18.831,18.831C59.396,54.131,50.949,62.578,40.565,62.578z M40.565,28.201
		c-8.572,0-15.546,6.975-15.546,15.546c0,8.572,6.974,15.546,15.546,15.546c8.572,0,15.545-6.974,15.545-15.546
		C56.111,35.176,49.138,28.201,40.565,28.201z"/>
	<g>
		<path fill="#808184" d="M34.463,33.941h5.014c0.942,0,1.879,0.054,2.812,0.166c0.932,0.109,1.768,0.35,2.506,0.719
			c0.739,0.371,1.34,0.91,1.802,1.621c0.461,0.711,0.693,1.676,0.693,2.895c0,1.441-0.435,2.605-1.303,3.491
			c-0.868,0.886-2.069,1.45-3.602,1.69l5.568,9.031H45.1l-5.319-8.81H36.79v8.81h-2.326L34.463,33.941L34.463,33.941z M36.79,42.584
			h2.079c0.646,0,1.316-0.019,2.007-0.057c0.693-0.035,1.33-0.156,1.912-0.36c0.583-0.202,1.062-0.521,1.441-0.956
			c0.378-0.432,0.567-1.057,0.567-1.869c0-0.701-0.138-1.265-0.415-1.689c-0.278-0.425-0.643-0.752-1.094-0.984
			c-0.453-0.23-0.961-0.382-1.525-0.457c-0.562-0.072-1.13-0.11-1.703-0.11h-3.27L36.79,42.584L36.79,42.584z"/>
	</g>
</g>
<path fill="#808184" d="M145.174,36.943l3.653-12.339l-23.455-5.628l-4.649,10.603l-7.656,2.19L91.302,24.57l6.065,12.438v23.244
	l23.15,7.764v0.504l0.754-0.252l0.753,0.252v-0.504l23.15-7.764V36.943z M126.247,20.736l20.683,4.963l-3.02,10.204l-21.603-6.185
	L126.247,20.736z M141.836,36.877l-19.812,6.41V31.205L141.836,36.877z M120.517,31.205v8.909l-2.479-6.698l-2.43-0.806
	L120.517,31.205z M116.876,34.619l3.148,8.51l-21.366-6.914l-4.433-9.089L116.876,34.619z M98.874,59.168V37.869l21.643,7.002
	v21.555L98.874,59.168z M143.667,59.168l-21.643,7.258V44.871l21.643-7.002V59.168z"/>
<path fill="#808184" d="M219.635,16.344l-41.977,41.979l-4.999,12.83l12.78-4.977l0.054-0.023l41.978-41.975L219.635,16.344z
	 M175.6,68.396l-0.17-0.17l3.285-8.828l5.719,5.682L175.6,68.396z"/>
<g>
	<path fill="#808184" d="M280.066,62.58c-10.387,0-18.834-8.447-18.834-18.833c0-10.384,8.447-18.829,18.834-18.829
		c10.382,0,18.83,8.445,18.83,18.829C298.896,54.133,290.448,62.58,280.066,62.58z M280.066,28.203
		c-8.574,0-15.547,6.973-15.547,15.544c0,8.573,6.973,15.548,15.547,15.548c8.57,0,15.543-6.975,15.543-15.548
		C295.609,35.176,288.637,28.203,280.066,28.203z"/>
	<path fill="#808184" d="M279.881,45.871l-10.945-10.764c-0.649-0.637-0.658-1.676-0.021-2.323c0.637-0.646,1.678-0.655,2.324-0.019
		l9.012,8.859l6.484-4.471c0.748-0.516,1.771-0.327,2.285,0.42c0.515,0.746,0.326,1.77-0.42,2.284L279.881,45.871z"/>
</g>
</svg>
